<svg width="24" height="11" viewBox="0 0 24 11" fill="none" xmlns="http://www.w3.org/2000/svg">
<path d="M20.8427 7.81428C20.7333 7.99589 20.6154 8.16098 20.4975 8.29306C19.7145 9.0773 18.9736 9.59739 18.258 9.8533L17.6686 10.0679C17.4497 10.1505 17.0035 10.1918 16.3384 10.2C15.7743 10.1752 15.1007 10.0762 14.3177 9.90283C13.5179 9.73773 11.7498 9.02779 9.01348 7.78951C6.27718 6.54298 4.21444 6.17148 2.8505 6.66679C4.23128 5.73396 6.42875 5.94859 9.45131 7.3272C12.4739 8.69756 14.284 9.42403 14.8902 9.51484C16.2121 9.88632 17.3824 9.88632 18.3927 9.51484L18.8389 9.35799C19.0831 9.26718 19.4283 9.06079 19.8492 8.73059C20.1692 8.46642 20.447 8.16098 20.6659 7.82251C19.7482 7.87204 18.7463 7.78123 17.6602 7.53358C17.4581 7.53358 14.7976 6.64202 9.69545 4.85065C5.94883 3.39774 3.62508 2.88594 2.71579 3.2987C1.8065 3.71971 1.20872 4.33059 0.905626 5.12308C0.610948 5.91558 0.669889 6.69982 1.08244 7.47581C1.49499 8.2518 2.32009 8.78837 3.5409 9.09382C2.1096 9.19288 1.10769 8.76361 0.518329 7.80601C-0.0626082 6.85667 -0.15521 5.8743 0.240501 4.85891C0.636212 3.84352 1.36027 3.15009 2.41269 2.77035C3.46511 2.39062 4.60173 2.44016 5.82254 2.9107C7.05177 3.38125 8.52518 3.87655 10.2427 4.39662L16.372 6.48518C17.5339 6.85666 18.5527 7.09607 19.4199 7.18687C19.9587 7.23641 20.4723 7.26117 20.9606 7.26117C21.0532 7.05479 21.1542 6.72459 21.2805 6.2623C21.3984 5.29644 21.2553 4.41312 20.868 3.61237L20.5649 3.10882C20.2702 2.67129 19.8913 2.29982 19.4283 1.98613C19.2599 1.788 18.7716 1.55685 17.9717 1.28443C17.0793 1.0698 16.2036 1.07805 15.328 1.30093L14.966 1.44128C14.183 1.73021 13.5599 2.11821 13.1137 2.60527L13.0885 2.62177C13.5263 1.82102 14.1746 1.26793 15.0334 0.954232L15.1765 0.904678C16.2121 0.52494 17.2561 0.500178 18.3085 0.830384C19.5967 1.32569 20.5565 2.24203 21.2132 3.57937C21.6426 4.43791 21.7183 5.45328 21.4321 6.609C21.331 6.84015 21.2384 7.04654 21.1458 7.24467C22.2488 7.20339 23.1833 7.00526 23.9495 6.64203L23.9831 6.62553L24 6.66679L23.1412 7.17861C22.4508 7.54184 21.6847 7.73998 20.8427 7.81428Z" fill="url(#paint0_linear)"/>
<defs>
<linearGradient id="paint0_linear" x1="5.25888" y1="5.40001" x2="25.8284" y2="5.40001" gradientUnits="userSpaceOnUse">
<stop stop-color="#DBC266"/>
<stop offset="0.463542" stop-color="#AE8930"/>
<stop offset="0.827015" stop-color="#CFA43D"/>
<stop offset="0.906096" stop-color="#F5E38B"/>
</linearGradient>
</defs>
</svg>
