<svg width="24" height="22" viewBox="0 0 24 22" fill="none" xmlns="http://www.w3.org/2000/svg">
<path d="M1.39143 3.73157H22.6086C23.3774 3.73157 24 3.09752 24 2.31325C24 1.53094 23.3774 0.894592 22.6086 0.894592H1.39143C0.622567 0.894592 0 1.53094 0 2.31325C0 3.09785 0.622567 3.73157 1.39143 3.73157ZM22.6086 9.58134H1.39143C0.622567 9.58134 0 10.218 0 11C0 11.7849 0.622567 12.4186 1.39143 12.4186H22.6086C23.3774 12.4186 24 11.7846 24 11C24 10.218 23.3774 9.58134 22.6086 9.58134ZM22.6086 18.2681H1.39143C0.622567 18.2681 0 18.9048 0 19.6867C0 20.4717 0.622567 21.1054 1.39143 21.1054H22.6086C23.3774 21.1054 24 20.4707 24 19.6867C24 18.9048 23.3774 18.2681 22.6086 18.2681Z" fill="#242424"/>
</svg>
