<svg width="50" height="37" viewBox="0 0 50 37" fill="none" xmlns="http://www.w3.org/2000/svg">
<mask id="mask0" mask-type="alpha" maskUnits="userSpaceOnUse" x="0" y="0" width="50" height="37">
<g clip-path="url(#clip0)">
<path d="M31.7259 0H1.37939C1.01355 0 0.662698 0.144378 0.404013 0.401372C0.145328 0.658367 0 1.00693 0 1.37037L0 28.7778C0 29.1412 0.145328 29.4898 0.404013 29.7468C0.662698 30.0038 1.01355 30.1481 1.37939 30.1481C1.74522 30.1481 2.09607 30.0038 2.35476 29.7468C2.61344 29.4898 2.75877 29.1412 2.75877 28.7778V2.74074H30.3465V27.4074H17.932C17.5662 27.4074 17.2153 27.5518 16.9566 27.8088C16.698 28.0658 16.5526 28.4143 16.5526 28.7778C16.5526 29.1412 16.698 29.4898 16.9566 29.7468C17.2153 30.0038 17.5662 30.1481 17.932 30.1481H31.7259C32.5535 30.1481 33.1053 29.6 33.1053 28.7778V1.37037C33.1053 0.548148 32.5535 0 31.7259 0ZM9.6557 34.2593C8.92403 34.2593 8.22233 33.9705 7.70496 33.4565C7.18758 32.9425 6.89693 32.2454 6.89693 31.5185C6.89693 30.7916 7.18758 30.0945 7.70496 29.5805C8.22233 29.0665 8.92403 28.7778 9.6557 28.7778C10.3874 28.7778 11.0891 29.0665 11.6064 29.5805C12.1238 30.0945 12.4145 30.7916 12.4145 31.5185C12.4145 32.2454 12.1238 32.9425 11.6064 33.4565C11.0891 33.9705 10.3874 34.2593 9.6557 34.2593ZM9.6557 26.037C8.19236 26.037 6.78895 26.6145 5.75421 27.6425C4.71947 28.6705 4.13816 30.0647 4.13816 31.5185C4.13816 32.9723 4.71947 34.3665 5.75421 35.3945C6.78895 36.4225 8.19236 37 9.6557 37C11.119 37 12.5225 36.4225 13.5572 35.3945C14.5919 34.3665 15.1732 32.9723 15.1732 31.5185C15.1732 30.0647 14.5919 28.6705 13.5572 27.6425C12.5225 26.6145 11.119 26.037 9.6557 26.037ZM40.0022 34.2593C39.2705 34.2593 38.5688 33.9705 38.0514 33.4565C37.5341 32.9425 37.2434 32.2454 37.2434 31.5185C37.2434 30.7916 37.5341 30.0945 38.0514 29.5805C38.5688 29.0665 39.2705 28.7778 40.0022 28.7778C40.7339 28.7778 41.4356 29.0665 41.9529 29.5805C42.4703 30.0945 42.761 30.7916 42.761 31.5185C42.761 32.2454 42.4703 32.9425 41.9529 33.4565C41.4356 33.9705 40.7339 34.2593 40.0022 34.2593ZM40.0022 26.037C38.5388 26.037 37.1354 26.6145 36.1007 27.6425C35.066 28.6705 34.4846 30.0647 34.4846 31.5185C34.4846 32.9723 35.066 34.3665 36.1007 35.3945C37.1354 36.4225 38.5388 37 40.0022 37C41.4655 37 42.8689 36.4225 43.9037 35.3945C44.9384 34.3665 45.5197 32.9723 45.5197 31.5185C45.5197 30.0647 44.9384 28.6705 43.9037 27.6425C42.8689 26.6145 41.4655 26.037 40.0022 26.037ZM41.2436 6.85185H35.864C35.4982 6.85185 35.1473 6.99623 34.8887 7.25322C34.63 7.51022 34.4846 7.85878 34.4846 8.22222C34.4846 8.58567 34.63 8.93423 34.8887 9.19122C35.1473 9.44821 35.4982 9.59259 35.864 9.59259H41.2436C44.1404 9.59259 46.8991 12.1963 46.8991 15.2111V17.8148H41.3816V12.3333C41.3816 11.9699 41.2363 11.6213 40.9776 11.3643C40.7189 11.1073 40.368 10.963 40.0022 10.963C39.6364 10.963 39.2855 11.1073 39.0268 11.3643C38.7681 11.6213 38.6228 11.9699 38.6228 12.3333V19.1852C38.6228 20.0074 39.1746 20.5556 40.0022 20.5556H46.8991V30.1481C46.8991 30.5116 47.0444 30.8602 47.3031 31.1171C47.5618 31.3741 47.9127 31.5185 48.2785 31.5185C48.6443 31.5185 48.9952 31.3741 49.2539 31.1171C49.5126 30.8602 49.6579 30.5116 49.6579 30.1481V15.2111C49.6579 10.6889 45.7956 6.85185 41.2436 6.85185Z" fill="url(#paint0_linear)"/>
</g>
</mask>
<g mask="url(#mask0)">
<rect x="17.8838" y="-44.8787" width="101" height="77.1133" transform="rotate(39.2045 17.8838 -44.8787)" fill="url(#paint1_linear)"/>
</g>
<defs>
<linearGradient id="paint0_linear" x1="10.881" y1="18.5" x2="53.441" y2="18.5" gradientUnits="userSpaceOnUse">
<stop stop-color="#DBC266"/>
<stop offset="0.463542" stop-color="#AE8930"/>
<stop offset="0.827015" stop-color="#CFA43D"/>
<stop offset="0.906096" stop-color="#F5E38B"/>
</linearGradient>
<linearGradient id="paint1_linear" x1="40.0149" y1="-6.322" x2="126.578" y2="-6.322" gradientUnits="userSpaceOnUse">
<stop stop-color="#DBC266"/>
<stop offset="0.463542" stop-color="#AE8930"/>
<stop offset="0.827015" stop-color="#CFA43D"/>
<stop offset="0.906096" stop-color="#F5E38B"/>
</linearGradient>
<clipPath id="clip0">
<rect width="49.6579" height="37" fill="white"/>
</clipPath>
</defs>
</svg>
