<svg width="48" height="38" viewBox="0 0 48 38" fill="none" xmlns="http://www.w3.org/2000/svg">
<mask id="mask0" mask-type="alpha" maskUnits="userSpaceOnUse" x="0" y="0" width="48" height="38">
<path fill-rule="evenodd" clip-rule="evenodd" d="M36.7642 27.5185H40.7033C41.0515 27.5185 41.3855 27.3804 41.6317 27.1347C41.8779 26.889 42.0163 26.5558 42.0163 26.2083C42.0163 25.8608 41.8779 25.5275 41.6317 25.2818C41.3855 25.0361 41.0515 24.8981 40.7033 24.8981H36.7642C36.416 24.8981 36.082 25.0361 35.8358 25.2818C35.5896 25.5275 35.4512 25.8608 35.4512 26.2083C35.4512 26.5558 35.5896 26.889 35.8358 27.1347C36.082 27.3804 36.416 27.5185 36.7642 27.5185ZM31.5122 32.7592H40.7033C41.0515 32.7592 41.3855 32.6212 41.6317 32.3755C41.8779 32.1298 42.0163 31.7965 42.0163 31.449C42.0163 31.1016 41.8779 30.7683 41.6317 30.5226C41.3855 30.2769 41.0515 30.1389 40.7033 30.1389H31.5122C31.164 30.1389 30.83 30.2769 30.5838 30.5226C30.3375 30.7683 30.1992 31.1016 30.1992 31.449C30.1992 31.7965 30.3375 32.1298 30.5838 32.3755C30.83 32.6212 31.164 32.7592 31.5122 32.7592ZM15.2309 29.4838C15.4763 29.7238 15.8063 29.8583 16.15 29.8583C16.4937 29.8583 16.8237 29.7238 17.0691 29.4838C17.5943 28.9597 17.5943 28.1736 17.0691 27.6495L14.4431 24.8981H23.6341C23.9824 24.8981 24.3163 24.7601 24.5626 24.5143C24.8088 24.2686 24.9472 23.9354 24.9472 23.5879C24.9472 23.2404 24.8088 22.9072 24.5626 22.6615C24.3163 22.4157 23.9824 22.2777 23.6341 22.2777H14.1805L17.0691 19.6573C17.3477 19.4315 17.5249 19.1044 17.5619 18.7481C17.5988 18.3919 17.4924 18.0355 17.2661 17.7576C17.0397 17.4796 16.712 17.3027 16.3549 17.2658C15.9979 17.229 15.6408 17.3352 15.3622 17.561L10.1102 22.4087C9.97045 22.5317 9.85855 22.6829 9.78191 22.8523C9.70527 23.0217 9.66563 23.2055 9.66563 23.3914C9.66563 23.5773 9.70527 23.761 9.78191 23.9304C9.85855 24.0999 9.97045 24.2511 10.1102 24.374L15.3622 29.6148L15.2309 29.4838ZM2.62602 35.3796H44.6423V11.7962H2.62602V35.3796ZM9.58496 2.62485H37.6833L43.0667 9.1758H4.20163L9.58496 2.62485ZM47.2683 10.224V10.0929C47.1836 9.88778 47.048 9.70745 46.8744 9.56886L39.2589 0.397527C39.1238 0.258656 38.9595 0.151383 38.7779 0.0834211C38.5963 0.0154589 38.4018 -0.0115044 38.2085 0.0044697H9.19106C8.98722 0.0044697 8.78618 0.0518267 8.60386 0.14279C8.42154 0.233754 8.26295 0.365825 8.14065 0.528546L0.393902 9.56886C0.267843 9.72153 0.178064 9.9007 0.131301 10.0929V10.224L0 10.486V36.6898C0 37.4759 0.525203 38 1.31301 38H45.9553C46.7431 38 47.2683 37.4759 47.2683 36.6898V10.486V10.224Z" fill="url(#paint0_linear)"/>
</mask>
<g mask="url(#mask0)">
<rect x="9.5166" y="-27.3975" width="80" height="63.2317" transform="rotate(33.6771 9.5166 -27.3975)" fill="url(#paint1_linear)"/>
</g>
<defs>
<linearGradient id="paint0_linear" x1="10.3574" y1="19" x2="50.8693" y2="19" gradientUnits="userSpaceOnUse">
<stop stop-color="#DBC266"/>
<stop offset="0.463542" stop-color="#AE8930"/>
<stop offset="0.827015" stop-color="#CFA43D"/>
<stop offset="0.906096" stop-color="#F5E38B"/>
</linearGradient>
<linearGradient id="paint1_linear" x1="27.0462" y1="4.21836" x2="95.6113" y2="4.21836" gradientUnits="userSpaceOnUse">
<stop stop-color="#DBC266"/>
<stop offset="0.463542" stop-color="#AE8930"/>
<stop offset="0.827015" stop-color="#CFA43D"/>
<stop offset="0.906096" stop-color="#F5E38B"/>
</linearGradient>
</defs>
</svg>
