<svg width="14" height="14" viewBox="0 0 14 14" fill="none" xmlns="http://www.w3.org/2000/svg">
<g clip-path="url(#clip0)">
<path d="M13.9055 0.0926895C14.0011 0.187648 14.0486 0.31264 14.0486 0.437327C14.0486 0.561977 14.0011 0.686906 13.9056 0.782432L7.48905 7.19896C7.29863 7.38938 6.9898 7.38938 6.79937 7.19896C6.60895 7.00853 6.60895 6.69981 6.79937 6.50939L13.216 0.0927558C13.4064 -0.0976449 13.7151 -0.0976669 13.9055 0.0926895Z" fill="url(#paint0_linear)" stroke="url(#paint1_linear)" stroke-width="0.1"/>
<path d="M11.8177 2.53629L11.8177 2.53627C11.7741 2.3609 11.6369 2.22363 11.4614 2.18072M11.8177 2.53629L3.00434 5.84716C3.81908 5.9668 4.78105 5.63643 5.53055 5.28036C5.13462 5.12766 4.77265 4.92033 4.47649 4.72191L4.47648 4.7219C4.3505 4.63744 4.27114 4.49978 4.26079 4.34905L4.26076 4.3486C4.25174 4.19748 4.31193 4.0507 4.42516 3.95057L4.42529 3.95045C5.48671 3.0182 6.5773 2.41001 7.73799 2.11801C8.89874 1.826 10.1266 1.85099 11.4614 2.18072M11.8177 2.53629C11.9935 3.24555 12.0822 3.92689 12.0822 4.58531C12.0822 6.61632 11.2358 8.42039 9.50558 10.1477L11.8177 2.53629ZM11.4614 2.18072C11.4614 2.18072 11.4613 2.18071 11.4613 2.18071L11.4494 2.22928L11.4614 2.18074C11.4614 2.18073 11.4614 2.18073 11.4614 2.18072ZM-0.0487451 13.5231L-0.0488189 13.524C-0.0578862 13.6676 -0.00891405 13.8061 0.0923046 13.9073C0.193699 14.0087 0.334046 14.06 0.476397 14.0484C0.476405 14.0484 0.476412 14.0483 0.47642 14.0483L-0.0487451 13.5231ZM-0.0487451 13.5231C0.187502 10.6239 1.05691 8.10774 2.53753 6.04549M-0.0487451 13.5231L2.53753 6.04549M2.53753 6.04549C2.64348 5.89728 2.82412 5.8205 3.00428 5.84715L2.53753 6.04549ZM8.81593 9.45811L8.81597 9.45807C9.81361 8.46272 10.475 7.46761 10.821 6.41663C11.1639 5.37502 11.1981 4.27511 10.9384 3.06059C8.91968 2.62965 7.2418 2.99932 5.60055 4.2472C6.01231 4.44686 6.50032 4.59934 6.93079 4.5107L6.93088 4.51068C7.15708 4.46451 7.38456 4.58282 7.4762 4.79537L7.47628 4.79555C7.56652 5.00719 7.49774 5.25421 7.30857 5.38742L7.30857 5.38743C7.25994 5.42166 6.69702 5.81209 5.9081 6.18026C5.12808 6.54428 4.12089 6.88954 3.16935 6.84175C1.9867 8.57371 1.25088 10.649 0.978783 13.0223C4.37058 12.659 6.66859 11.6055 8.81593 9.45811Z" fill="url(#paint2_linear)" stroke="url(#paint3_linear)" stroke-width="0.1"/>
</g>
<defs>
<linearGradient id="paint0_linear" x1="10.3526" y1="1.59772" x2="10.3526" y2="7.84729" gradientUnits="userSpaceOnUse">
<stop stop-color="#DBC266"/>
<stop offset="0.463542" stop-color="#AE8930"/>
<stop offset="0.827015" stop-color="#CFA43D"/>
<stop offset="0.906096" stop-color="#F5E38B"/>
</linearGradient>
<linearGradient id="paint1_linear" x1="10.3526" y1="1.59772" x2="10.3526" y2="7.84729" gradientUnits="userSpaceOnUse">
<stop stop-color="#DBC266"/>
<stop offset="0.463542" stop-color="#AE8930"/>
<stop offset="0.827015" stop-color="#CFA43D"/>
<stop offset="0.906096" stop-color="#F5E38B"/>
</linearGradient>
<linearGradient id="paint2_linear" x1="6.01616" y1="4.60215" x2="6.01616" y2="14.9168" gradientUnits="userSpaceOnUse">
<stop stop-color="#DBC266"/>
<stop offset="0.463542" stop-color="#AE8930"/>
<stop offset="0.827015" stop-color="#CFA43D"/>
<stop offset="0.906096" stop-color="#F5E38B"/>
</linearGradient>
<linearGradient id="paint3_linear" x1="6.01616" y1="4.60215" x2="6.01616" y2="14.9168" gradientUnits="userSpaceOnUse">
<stop stop-color="#DBC266"/>
<stop offset="0.463542" stop-color="#AE8930"/>
<stop offset="0.827015" stop-color="#CFA43D"/>
<stop offset="0.906096" stop-color="#F5E38B"/>
</linearGradient>
<clipPath id="clip0">
<rect width="14" height="14" fill="white" transform="matrix(-6.77748e-08 1 1 -3.81776e-08 -3.05176e-05 -6.10352e-05)"/>
</clipPath>
</defs>
</svg>
