<svg width="1920" height="496" viewBox="0 0 1920 496" fill="none" xmlns="http://www.w3.org/2000/svg">
<g opacity="0.2">
<mask id="mask0" mask-type="alpha" maskUnits="userSpaceOnUse" x="0" y="0" width="1936" height="497">
<path d="M1916 -1.74845e-06C1927.05 -7.82807e-07 1936 8.9543 1936 20L1936 476C1936 487.046 1927.05 496 1916 496L-4.33617e-05 496L0 -0.00016925L1916 -1.74845e-06Z" fill="url(#paint0_linear)"/>
</mask>
<g mask="url(#mask0)">
<rect x="701.004" y="-298.722" width="1237.71" height="4.29279" transform="rotate(47.027 701.004 -298.722)" fill="black"/>
<rect x="575.367" y="-181.675" width="1237.71" height="4.29279" transform="rotate(47.027 575.367 -181.675)" fill="black"/>
<rect x="638.186" y="-240.198" width="1237.71" height="4.29279" transform="rotate(47.027 638.186 -240.198)" fill="black"/>
<rect x="512.549" y="-123.151" width="1237.71" height="4.29279" transform="rotate(47.027 512.549 -123.151)" fill="black"/>
<rect x="694.722" y="-292.87" width="1237.71" height="4.29279" transform="rotate(47.027 694.722 -292.87)" fill="black"/>
<rect x="569.085" y="-175.822" width="1237.71" height="4.29279" transform="rotate(47.027 569.085 -175.822)" fill="black"/>
<rect x="631.904" y="-234.346" width="1237.71" height="4.29279" transform="rotate(47.027 631.904 -234.346)" fill="black"/>
<rect x="506.267" y="-117.298" width="1237.71" height="4.29279" transform="rotate(47.027 506.267 -117.298)" fill="black"/>
<rect x="688.441" y="-287.018" width="1237.71" height="4.29279" transform="rotate(47.027 688.441 -287.018)" fill="black"/>
<rect x="562.804" y="-169.97" width="1237.71" height="4.29279" transform="rotate(47.027 562.804 -169.97)" fill="black"/>
<rect x="625.622" y="-228.494" width="1237.71" height="4.29279" transform="rotate(47.027 625.622 -228.494)" fill="black"/>
<rect x="499.985" y="-111.446" width="1237.71" height="4.29279" transform="rotate(47.027 499.985 -111.446)" fill="black"/>
<rect x="682.159" y="-281.165" width="1237.71" height="4.29279" transform="rotate(47.027 682.159 -281.165)" fill="black"/>
<rect x="556.522" y="-164.117" width="1237.71" height="4.29279" transform="rotate(47.027 556.522 -164.117)" fill="black"/>
<rect x="619.34" y="-222.641" width="1237.71" height="4.29279" transform="rotate(47.027 619.34 -222.641)" fill="black"/>
<rect x="493.703" y="-105.594" width="1237.71" height="4.29279" transform="rotate(47.027 493.703 -105.594)" fill="black"/>
<rect x="675.877" y="-275.313" width="1237.71" height="4.29279" transform="rotate(47.027 675.877 -275.313)" fill="black"/>
<rect x="550.24" y="-158.265" width="1237.71" height="4.29279" transform="rotate(47.027 550.24 -158.265)" fill="black"/>
<rect x="613.058" y="-216.789" width="1237.71" height="4.29279" transform="rotate(47.027 613.058 -216.789)" fill="black"/>
<rect x="487.421" y="-99.7412" width="1237.71" height="4.29279" transform="rotate(47.027 487.421 -99.7412)" fill="black"/>
<rect x="669.595" y="-269.46" width="1237.71" height="4.29279" transform="rotate(47.027 669.595 -269.46)" fill="black"/>
<rect x="543.958" y="-152.413" width="1237.71" height="4.29279" transform="rotate(47.027 543.958 -152.413)" fill="black"/>
<rect x="606.777" y="-210.937" width="1237.71" height="4.29279" transform="rotate(47.027 606.777 -210.937)" fill="black"/>
<rect x="481.14" y="-93.8887" width="1237.71" height="4.29279" transform="rotate(47.027 481.14 -93.8887)" fill="black"/>
<rect x="663.313" y="-263.608" width="1237.71" height="4.29279" transform="rotate(47.027 663.313 -263.608)" fill="black"/>
<rect x="537.676" y="-146.56" width="1237.71" height="4.29279" transform="rotate(47.027 537.676 -146.56)" fill="black"/>
<rect x="600.495" y="-205.084" width="1237.71" height="4.29279" transform="rotate(47.027 600.495 -205.084)" fill="black"/>
<rect x="474.858" y="-88.0361" width="1237.71" height="4.29279" transform="rotate(47.027 474.858 -88.0361)" fill="black"/>
<rect x="657.031" y="-257.756" width="1237.71" height="4.29279" transform="rotate(47.027 657.031 -257.756)" fill="black"/>
<rect x="531.394" y="-140.708" width="1237.71" height="4.29279" transform="rotate(47.027 531.394 -140.708)" fill="black"/>
<rect x="594.213" y="-199.232" width="1237.71" height="4.29279" transform="rotate(47.027 594.213 -199.232)" fill="black"/>
<rect x="468.576" y="-82.1841" width="1237.71" height="4.29279" transform="rotate(47.027 468.576 -82.1841)" fill="black"/>
<rect x="650.75" y="-251.903" width="1237.71" height="4.29279" transform="rotate(47.027 650.75 -251.903)" fill="black"/>
<rect x="525.113" y="-134.855" width="1237.71" height="4.29279" transform="rotate(47.027 525.113 -134.855)" fill="black"/>
<rect x="587.931" y="-193.379" width="1237.71" height="4.29279" transform="rotate(47.027 587.931 -193.379)" fill="black"/>
<rect x="462.294" y="-76.3315" width="1237.71" height="4.29279" transform="rotate(47.027 462.294 -76.3315)" fill="black"/>
<rect x="644.468" y="-246.051" width="1237.71" height="4.29279" transform="rotate(47.027 644.468 -246.051)" fill="black"/>
<rect x="518.831" y="-129.003" width="1237.71" height="4.29279" transform="rotate(47.027 518.831 -129.003)" fill="black"/>
<rect x="581.649" y="-187.527" width="1237.71" height="4.29279" transform="rotate(47.027 581.649 -187.527)" fill="black"/>
<rect x="456.012" y="-70.479" width="1237.71" height="4.29279" transform="rotate(47.027 456.012 -70.479)" fill="black"/>
<rect x="241.133" y="-288" width="1332.43" height="4.29279" transform="rotate(47.027 241.133 -288)" fill="black"/>
<rect x="115.496" y="-170.952" width="1332.43" height="4.29279" transform="rotate(47.027 115.496 -170.952)" fill="black"/>
<rect x="178.315" y="-229.476" width="1332.43" height="4.29279" transform="rotate(47.027 178.315 -229.476)" fill="black"/>
<rect x="52.6776" y="-112.428" width="1332.43" height="4.29279" transform="rotate(47.027 52.6776 -112.428)" fill="black"/>
<rect x="234.851" y="-282.148" width="1332.43" height="4.29279" transform="rotate(47.027 234.851 -282.148)" fill="black"/>
<rect x="109.214" y="-165.1" width="1332.43" height="4.29279" transform="rotate(47.027 109.214 -165.1)" fill="black"/>
<rect x="172.033" y="-223.624" width="1332.43" height="4.29279" transform="rotate(47.027 172.033 -223.624)" fill="black"/>
<rect x="46.3957" y="-106.576" width="1332.43" height="4.29279" transform="rotate(47.027 46.3957 -106.576)" fill="black"/>
<rect x="228.569" y="-276.295" width="1332.43" height="4.29279" transform="rotate(47.027 228.569 -276.295)" fill="black"/>
<rect x="102.932" y="-159.248" width="1332.43" height="4.29279" transform="rotate(47.027 102.932 -159.248)" fill="black"/>
<rect x="165.751" y="-217.771" width="1332.43" height="4.29279" transform="rotate(47.027 165.751 -217.771)" fill="black"/>
<rect x="40.1138" y="-100.724" width="1332.43" height="4.29279" transform="rotate(47.027 40.1138 -100.724)" fill="black"/>
<rect x="222.287" y="-270.443" width="1332.43" height="4.29279" transform="rotate(47.027 222.287 -270.443)" fill="black"/>
<rect x="96.6505" y="-153.395" width="1332.43" height="4.29279" transform="rotate(47.027 96.6505 -153.395)" fill="black"/>
<rect x="159.469" y="-211.919" width="1332.43" height="4.29279" transform="rotate(47.027 159.469 -211.919)" fill="black"/>
<rect x="33.832" y="-94.8711" width="1332.43" height="4.29279" transform="rotate(47.027 33.832 -94.8711)" fill="black"/>
<rect x="216.006" y="-264.59" width="1332.43" height="4.29279" transform="rotate(47.027 216.006 -264.59)" fill="black"/>
<rect x="90.3686" y="-147.542" width="1332.43" height="4.29279" transform="rotate(47.027 90.3686 -147.542)" fill="black"/>
<rect x="153.187" y="-206.066" width="1332.43" height="4.29279" transform="rotate(47.027 153.187 -206.066)" fill="black"/>
<rect x="27.5501" y="-89.0186" width="1332.43" height="4.29279" transform="rotate(47.027 27.5501 -89.0186)" fill="black"/>
<rect x="209.724" y="-258.738" width="1332.43" height="4.29279" transform="rotate(47.027 209.724 -258.738)" fill="black"/>
<rect x="84.0868" y="-141.69" width="1332.43" height="4.29279" transform="rotate(47.027 84.0868 -141.69)" fill="black"/>
<rect x="146.905" y="-200.214" width="1332.43" height="4.29279" transform="rotate(47.027 146.905 -200.214)" fill="black"/>
<rect x="21.2683" y="-83.1665" width="1332.43" height="4.29279" transform="rotate(47.027 21.2683 -83.1665)" fill="black"/>
<rect x="203.442" y="-252.886" width="1332.43" height="4.29279" transform="rotate(47.027 203.442 -252.886)" fill="black"/>
<rect x="77.8049" y="-135.838" width="1332.43" height="4.29279" transform="rotate(47.027 77.8049 -135.838)" fill="black"/>
<rect x="140.623" y="-194.362" width="1332.43" height="4.29279" transform="rotate(47.027 140.623 -194.362)" fill="black"/>
<rect x="14.9865" y="-77.314" width="1332.43" height="4.29279" transform="rotate(47.027 14.9865 -77.314)" fill="black"/>
<rect x="197.16" y="-247.033" width="1332.43" height="4.29279" transform="rotate(47.027 197.16 -247.033)" fill="black"/>
<rect x="71.5231" y="-129.985" width="1332.43" height="4.29279" transform="rotate(47.027 71.5231 -129.985)" fill="black"/>
<rect x="134.342" y="-188.509" width="1332.43" height="4.29279" transform="rotate(47.027 134.342 -188.509)" fill="black"/>
<rect x="8.70459" y="-71.4614" width="1332.43" height="4.29279" transform="rotate(47.027 8.70459 -71.4614)" fill="black"/>
<rect x="190.878" y="-241.181" width="1332.43" height="4.29279" transform="rotate(47.027 190.878 -241.181)" fill="black"/>
<rect x="65.2413" y="-124.133" width="1332.43" height="4.29279" transform="rotate(47.027 65.2413 -124.133)" fill="black"/>
<rect x="128.06" y="-182.657" width="1332.43" height="4.29279" transform="rotate(47.027 128.06 -182.657)" fill="black"/>
<rect x="2.42279" y="-65.6094" width="1332.43" height="4.29279" transform="rotate(47.027 2.42279 -65.6094)" fill="black"/>
<rect x="184.596" y="-235.328" width="1332.43" height="4.29279" transform="rotate(47.027 184.596 -235.328)" fill="black"/>
<rect x="58.9594" y="-118.281" width="1332.43" height="4.29279" transform="rotate(47.027 58.9594 -118.281)" fill="black"/>
<rect x="121.778" y="-176.805" width="1332.43" height="4.29279" transform="rotate(47.027 121.778 -176.805)" fill="black"/>
<rect x="-3.85907" y="-59.7568" width="1332.43" height="4.29279" transform="rotate(47.027 -3.85907 -59.7568)" fill="black"/>
<rect x="1134.16" y="-336.31" width="1203.92" height="4.29279" transform="rotate(47.027 1134.16 -336.31)" fill="black"/>
<rect x="1008.52" y="-219.262" width="1203.92" height="4.29279" transform="rotate(47.027 1008.52 -219.262)" fill="black"/>
<rect x="1071.34" y="-277.786" width="1203.92" height="4.29279" transform="rotate(47.027 1071.34 -277.786)" fill="black"/>
<rect x="945.704" y="-160.739" width="1203.92" height="4.29279" transform="rotate(47.027 945.704 -160.739)" fill="black"/>
<rect x="1127.88" y="-330.458" width="1203.92" height="4.29279" transform="rotate(47.027 1127.88 -330.458)" fill="black"/>
<rect x="1002.24" y="-213.41" width="1203.92" height="4.29279" transform="rotate(47.027 1002.24 -213.41)" fill="black"/>
<rect x="1065.06" y="-271.934" width="1203.92" height="4.29279" transform="rotate(47.027 1065.06 -271.934)" fill="black"/>
<rect x="939.422" y="-154.886" width="1203.92" height="4.29279" transform="rotate(47.027 939.422 -154.886)" fill="black"/>
<rect x="1121.6" y="-324.605" width="1203.92" height="4.29279" transform="rotate(47.027 1121.6 -324.605)" fill="black"/>
<rect x="995.958" y="-207.558" width="1203.92" height="4.29279" transform="rotate(47.027 995.958 -207.558)" fill="black"/>
<rect x="1058.78" y="-266.082" width="1203.92" height="4.29279" transform="rotate(47.027 1058.78 -266.082)" fill="black"/>
<rect x="933.14" y="-149.034" width="1203.92" height="4.29279" transform="rotate(47.027 933.14 -149.034)" fill="black"/>
<rect x="1115.31" y="-318.753" width="1203.92" height="4.29279" transform="rotate(47.027 1115.31 -318.753)" fill="black"/>
<rect x="989.677" y="-201.705" width="1203.92" height="4.29279" transform="rotate(47.027 989.677 -201.705)" fill="black"/>
<rect x="1052.49" y="-260.229" width="1203.92" height="4.29279" transform="rotate(47.027 1052.49 -260.229)" fill="black"/>
<rect x="926.858" y="-143.182" width="1203.92" height="4.29279" transform="rotate(47.027 926.858 -143.182)" fill="black"/>
<rect x="1109.03" y="-312.901" width="1203.92" height="4.29279" transform="rotate(47.027 1109.03 -312.901)" fill="black"/>
<rect x="983.395" y="-195.853" width="1203.92" height="4.29279" transform="rotate(47.027 983.395 -195.853)" fill="black"/>
<rect x="1046.21" y="-254.377" width="1203.92" height="4.29279" transform="rotate(47.027 1046.21 -254.377)" fill="black"/>
<rect x="920.576" y="-137.329" width="1203.92" height="4.29279" transform="rotate(47.027 920.576 -137.329)" fill="black"/>
<rect x="1102.75" y="-307.048" width="1203.92" height="4.29279" transform="rotate(47.027 1102.75 -307.048)" fill="black"/>
<rect x="977.113" y="-190" width="1203.92" height="4.29279" transform="rotate(47.027 977.113 -190)" fill="black"/>
<rect x="1039.93" y="-248.524" width="1203.92" height="4.29279" transform="rotate(47.027 1039.93 -248.524)" fill="black"/>
<rect x="914.294" y="-131.477" width="1203.92" height="4.29279" transform="rotate(47.027 914.294 -131.477)" fill="black"/>
<rect x="1096.47" y="-301.196" width="1203.92" height="4.29279" transform="rotate(47.027 1096.47 -301.196)" fill="black"/>
<rect x="970.831" y="-184.148" width="1203.92" height="4.29279" transform="rotate(47.027 970.831 -184.148)" fill="black"/>
<rect x="1033.65" y="-242.672" width="1203.92" height="4.29279" transform="rotate(47.027 1033.65 -242.672)" fill="black"/>
<rect x="908.012" y="-125.624" width="1203.92" height="4.29279" transform="rotate(47.027 908.012 -125.624)" fill="black"/>
<rect x="1090.19" y="-295.344" width="1203.92" height="4.29279" transform="rotate(47.027 1090.19 -295.344)" fill="black"/>
<rect x="964.549" y="-178.296" width="1203.92" height="4.29279" transform="rotate(47.027 964.549 -178.296)" fill="black"/>
<rect x="1027.37" y="-236.82" width="1203.92" height="4.29279" transform="rotate(47.027 1027.37 -236.82)" fill="black"/>
<rect x="901.731" y="-119.772" width="1203.92" height="4.29279" transform="rotate(47.027 901.731 -119.772)" fill="black"/>
<rect x="1083.9" y="-289.491" width="1203.92" height="4.29279" transform="rotate(47.027 1083.9 -289.491)" fill="black"/>
<rect x="958.267" y="-172.443" width="1203.92" height="4.29279" transform="rotate(47.027 958.267 -172.443)" fill="black"/>
<rect x="1021.09" y="-230.967" width="1203.92" height="4.29279" transform="rotate(47.027 1021.09 -230.967)" fill="black"/>
<rect x="895.449" y="-113.919" width="1203.92" height="4.29279" transform="rotate(47.027 895.449 -113.919)" fill="black"/>
<rect x="1077.62" y="-283.639" width="1203.92" height="4.29279" transform="rotate(47.027 1077.62 -283.639)" fill="black"/>
<rect x="951.985" y="-166.591" width="1203.92" height="4.29279" transform="rotate(47.027 951.985 -166.591)" fill="black"/>
<rect x="1014.8" y="-225.115" width="1203.92" height="4.29279" transform="rotate(47.027 1014.8 -225.115)" fill="black"/>
<rect x="889.167" y="-108.067" width="1203.92" height="4.29279" transform="rotate(47.027 889.167 -108.067)" fill="black"/>
<rect x="1546.13" y="-397" width="925.93" height="4.29279" transform="rotate(47.027 1546.13 -397)" fill="black"/>
<rect x="1420.5" y="-279.952" width="925.93" height="4.29279" transform="rotate(47.027 1420.5 -279.952)" fill="black"/>
<rect x="1483.31" y="-338.476" width="925.93" height="4.29279" transform="rotate(47.027 1483.31 -338.476)" fill="black"/>
<rect x="1357.68" y="-221.428" width="925.93" height="4.29279" transform="rotate(47.027 1357.68 -221.428)" fill="black"/>
<rect x="1539.85" y="-391.148" width="925.93" height="4.29279" transform="rotate(47.027 1539.85 -391.148)" fill="black"/>
<rect x="1414.21" y="-274.1" width="925.93" height="4.29279" transform="rotate(47.027 1414.21 -274.1)" fill="black"/>
<rect x="1477.03" y="-332.624" width="925.93" height="4.29279" transform="rotate(47.027 1477.03 -332.624)" fill="black"/>
<rect x="1351.4" y="-215.576" width="925.93" height="4.29279" transform="rotate(47.027 1351.4 -215.576)" fill="black"/>
<rect x="1533.57" y="-385.295" width="925.93" height="4.29279" transform="rotate(47.027 1533.57 -385.295)" fill="black"/>
<rect x="1407.93" y="-268.247" width="925.93" height="4.29279" transform="rotate(47.027 1407.93 -268.247)" fill="black"/>
<rect x="1470.75" y="-326.771" width="925.93" height="4.29279" transform="rotate(47.027 1470.75 -326.771)" fill="black"/>
<rect x="1345.11" y="-209.724" width="925.93" height="4.29279" transform="rotate(47.027 1345.11 -209.724)" fill="black"/>
<rect x="1527.29" y="-379.443" width="925.93" height="4.29279" transform="rotate(47.027 1527.29 -379.443)" fill="black"/>
<rect x="1401.65" y="-262.395" width="925.93" height="4.29279" transform="rotate(47.027 1401.65 -262.395)" fill="black"/>
<rect x="1464.47" y="-320.919" width="925.93" height="4.29279" transform="rotate(47.027 1464.47 -320.919)" fill="black"/>
<rect x="1338.83" y="-203.871" width="925.93" height="4.29279" transform="rotate(47.027 1338.83 -203.871)" fill="black"/>
<rect x="1521.01" y="-373.59" width="925.93" height="4.29279" transform="rotate(47.027 1521.01 -373.59)" fill="black"/>
<rect x="1395.37" y="-256.543" width="925.93" height="4.29279" transform="rotate(47.027 1395.37 -256.543)" fill="black"/>
<rect x="1458.19" y="-315.067" width="925.93" height="4.29279" transform="rotate(47.027 1458.19 -315.067)" fill="black"/>
<rect x="1332.55" y="-198.019" width="925.93" height="4.29279" transform="rotate(47.027 1332.55 -198.019)" fill="black"/>
<rect x="1514.72" y="-367.738" width="925.93" height="4.29279" transform="rotate(47.027 1514.72 -367.738)" fill="black"/>
<rect x="1389.09" y="-250.69" width="925.93" height="4.29279" transform="rotate(47.027 1389.09 -250.69)" fill="black"/>
<rect x="1451.91" y="-309.214" width="925.93" height="4.29279" transform="rotate(47.027 1451.91 -309.214)" fill="black"/>
<rect x="1326.27" y="-192.167" width="925.93" height="4.29279" transform="rotate(47.027 1326.27 -192.167)" fill="black"/>
<rect x="1508.44" y="-361.886" width="925.93" height="4.29279" transform="rotate(47.027 1508.44 -361.886)" fill="black"/>
<rect x="1382.8" y="-244.838" width="925.93" height="4.29279" transform="rotate(47.027 1382.8 -244.838)" fill="black"/>
<rect x="1445.62" y="-303.362" width="925.93" height="4.29279" transform="rotate(47.027 1445.62 -303.362)" fill="black"/>
<rect x="1319.99" y="-186.314" width="925.93" height="4.29279" transform="rotate(47.027 1319.99 -186.314)" fill="black"/>
<rect x="1502.16" y="-356.033" width="925.93" height="4.29279" transform="rotate(47.027 1502.16 -356.033)" fill="black"/>
<rect x="1376.52" y="-238.985" width="925.93" height="4.29279" transform="rotate(47.027 1376.52 -238.985)" fill="black"/>
<rect x="1439.34" y="-297.509" width="925.93" height="4.29279" transform="rotate(47.027 1439.34 -297.509)" fill="black"/>
<rect x="1313.7" y="-180.461" width="925.93" height="4.29279" transform="rotate(47.027 1313.7 -180.461)" fill="black"/>
<rect x="1495.88" y="-350.181" width="925.93" height="4.29279" transform="rotate(47.027 1495.88 -350.181)" fill="black"/>
<rect x="1370.24" y="-233.133" width="925.93" height="4.29279" transform="rotate(47.027 1370.24 -233.133)" fill="black"/>
<rect x="1433.06" y="-291.657" width="925.93" height="4.29279" transform="rotate(47.027 1433.06 -291.657)" fill="black"/>
<rect x="1307.42" y="-174.609" width="925.93" height="4.29279" transform="rotate(47.027 1307.42 -174.609)" fill="black"/>
<rect x="1489.6" y="-344.328" width="925.93" height="4.29279" transform="rotate(47.027 1489.6 -344.328)" fill="black"/>
<rect x="1363.96" y="-227.281" width="925.93" height="4.29279" transform="rotate(47.027 1363.96 -227.281)" fill="black"/>
<rect x="1426.78" y="-285.805" width="925.93" height="4.29279" transform="rotate(47.027 1426.78 -285.805)" fill="black"/>
<rect x="1301.14" y="-168.757" width="925.93" height="4.29279" transform="rotate(47.027 1301.14 -168.757)" fill="black"/>
<rect x="-182.867" y="-239" width="1316.76" height="4.29279" transform="rotate(47.027 -182.867 -239)" fill="black"/>
<rect x="-308.504" y="-121.952" width="1316.76" height="4.29279" transform="rotate(47.027 -308.504 -121.952)" fill="black"/>
<rect x="-245.685" y="-180.476" width="1316.76" height="4.29279" transform="rotate(47.027 -245.685 -180.476)" fill="black"/>
<rect x="-371.322" y="-63.4282" width="1316.76" height="4.29279" transform="rotate(47.027 -371.322 -63.4282)" fill="black"/>
<rect x="-189.149" y="-233.148" width="1316.76" height="4.29279" transform="rotate(47.027 -189.149 -233.148)" fill="black"/>
<rect x="-314.786" y="-116.1" width="1316.76" height="4.29279" transform="rotate(47.027 -314.786 -116.1)" fill="black"/>
<rect x="-251.967" y="-174.624" width="1316.76" height="4.29279" transform="rotate(47.027 -251.967 -174.624)" fill="black"/>
<rect x="-377.604" y="-57.5757" width="1316.76" height="4.29279" transform="rotate(47.027 -377.604 -57.5757)" fill="black"/>
<rect x="-195.431" y="-227.295" width="1316.76" height="4.29279" transform="rotate(47.027 -195.431 -227.295)" fill="black"/>
<rect x="-321.068" y="-110.248" width="1316.76" height="4.29279" transform="rotate(47.027 -321.068 -110.248)" fill="black"/>
<rect x="-258.249" y="-168.771" width="1316.76" height="4.29279" transform="rotate(47.027 -258.249 -168.771)" fill="black"/>
<rect x="-383.886" y="-51.7236" width="1316.76" height="4.29279" transform="rotate(47.027 -383.886 -51.7236)" fill="black"/>
<rect x="-201.712" y="-221.443" width="1316.76" height="4.29279" transform="rotate(47.027 -201.712 -221.443)" fill="black"/>
<rect x="-327.349" y="-104.395" width="1316.76" height="4.29279" transform="rotate(47.027 -327.349 -104.395)" fill="black"/>
<rect x="-264.531" y="-162.919" width="1316.76" height="4.29279" transform="rotate(47.027 -264.531 -162.919)" fill="black"/>
<rect x="-390.168" y="-45.8711" width="1316.76" height="4.29279" transform="rotate(47.027 -390.168 -45.8711)" fill="black"/>
<rect x="-207.994" y="-215.59" width="1316.76" height="4.29279" transform="rotate(47.027 -207.994 -215.59)" fill="black"/>
<rect x="-333.631" y="-98.5425" width="1316.76" height="4.29279" transform="rotate(47.027 -333.631 -98.5425)" fill="black"/>
<rect x="-270.813" y="-157.066" width="1316.76" height="4.29279" transform="rotate(47.027 -270.813 -157.066)" fill="black"/>
<rect x="-396.45" y="-40.0186" width="1316.76" height="4.29279" transform="rotate(47.027 -396.45 -40.0186)" fill="black"/>
<rect x="-214.276" y="-209.738" width="1316.76" height="4.29279" transform="rotate(47.027 -214.276 -209.738)" fill="black"/>
<rect x="-339.913" y="-92.6904" width="1316.76" height="4.29279" transform="rotate(47.027 -339.913 -92.6904)" fill="black"/>
<rect x="-277.095" y="-151.214" width="1316.76" height="4.29279" transform="rotate(47.027 -277.095 -151.214)" fill="black"/>
<rect x="-402.732" y="-34.1665" width="1316.76" height="4.29279" transform="rotate(47.027 -402.732 -34.1665)" fill="black"/>
<rect x="-220.558" y="-203.886" width="1316.76" height="4.29279" transform="rotate(47.027 -220.558 -203.886)" fill="black"/>
<rect x="-346.195" y="-86.8379" width="1316.76" height="4.29279" transform="rotate(47.027 -346.195 -86.8379)" fill="black"/>
<rect x="-283.377" y="-145.362" width="1316.76" height="4.29279" transform="rotate(47.027 -283.377 -145.362)" fill="black"/>
<rect x="-409.013" y="-28.314" width="1316.76" height="4.29279" transform="rotate(47.027 -409.013 -28.314)" fill="black"/>
<rect x="-226.84" y="-198.033" width="1316.76" height="4.29279" transform="rotate(47.027 -226.84 -198.033)" fill="black"/>
<rect x="-352.477" y="-80.9854" width="1316.76" height="4.29279" transform="rotate(47.027 -352.477 -80.9854)" fill="black"/>
<rect x="-289.658" y="-139.509" width="1316.76" height="4.29279" transform="rotate(47.027 -289.658 -139.509)" fill="black"/>
<rect x="-415.295" y="-22.4614" width="1316.76" height="4.29279" transform="rotate(47.027 -415.295 -22.4614)" fill="black"/>
<rect x="-233.122" y="-192.181" width="1316.76" height="4.29279" transform="rotate(47.027 -233.122 -192.181)" fill="black"/>
<rect x="-358.759" y="-75.1333" width="1316.76" height="4.29279" transform="rotate(47.027 -358.759 -75.1333)" fill="black"/>
<rect x="-295.94" y="-133.657" width="1316.76" height="4.29279" transform="rotate(47.027 -295.94 -133.657)" fill="black"/>
<rect x="-421.577" y="-16.6094" width="1316.76" height="4.29279" transform="rotate(47.027 -421.577 -16.6094)" fill="black"/>
<rect x="-239.404" y="-186.329" width="1316.76" height="4.29279" transform="rotate(47.027 -239.404 -186.329)" fill="black"/>
<rect x="-365.041" y="-69.2808" width="1316.76" height="4.29279" transform="rotate(47.027 -365.041 -69.2808)" fill="black"/>
<rect x="-302.222" y="-127.805" width="1316.76" height="4.29279" transform="rotate(47.027 -302.222 -127.805)" fill="black"/>
<rect x="-427.859" y="-10.7568" width="1316.76" height="4.29279" transform="rotate(47.027 -427.859 -10.7568)" fill="black"/>
</g>
</g>
<defs>
<linearGradient id="paint0_linear" x1="968" y1="108.683" x2="968" y2="533.787" gradientUnits="userSpaceOnUse">
<stop stop-color="#DBC266"/>
<stop offset="0.463542" stop-color="#AE8930"/>
<stop offset="0.827015" stop-color="#CFA43D"/>
<stop offset="0.906096" stop-color="#F5E38B"/>
</linearGradient>
</defs>
</svg>
