<svg width="278" height="3" viewBox="0 0 278 3" fill="none" xmlns="http://www.w3.org/2000/svg">
<rect width="278" height="3" fill="url(#paint0_linear)"/>
<mask id="mask0" mask-type="alpha" maskUnits="userSpaceOnUse" x="0" y="0" width="278" height="3">
<rect width="278" height="3" fill="url(#paint1_linear)"/>
</mask>
<g mask="url(#mask0)">
<rect width="293.734" height="4.31256" transform="matrix(0.718705 -0.669589 0.669725 0.71889 49.4463 89.0447)" fill="#2958F9"/>
<rect width="293.734" height="4.31256" transform="matrix(0.718705 -0.669589 0.669725 0.71889 49.4463 89.0447)" fill="url(#paint2_linear)"/>
<rect width="293.734" height="4.31256" transform="matrix(0.718705 -0.669589 0.669725 0.71889 -9.07762 26.2261)" fill="#2958F9"/>
<rect width="293.734" height="4.31256" transform="matrix(0.718705 -0.669589 0.669725 0.71889 -9.07762 26.2261)" fill="url(#paint3_linear)"/>
<rect width="293.734" height="4.31256" transform="matrix(0.718704 -0.669589 0.669725 0.71889 107.97 151.863)" fill="#2958F9"/>
<rect width="293.734" height="4.31256" transform="matrix(0.718704 -0.669589 0.669725 0.71889 107.97 151.863)" fill="url(#paint4_linear)"/>
<rect width="293.734" height="4.31256" transform="matrix(0.718705 -0.669589 0.669725 0.71889 55.2987 95.3264)" fill="#2958F9"/>
<rect width="293.734" height="4.31256" transform="matrix(0.718705 -0.669589 0.669725 0.71889 55.2987 95.3264)" fill="url(#paint5_linear)"/>
<rect width="293.734" height="4.31256" transform="matrix(0.718705 -0.669589 0.669725 0.71889 -3.22523 32.5081)" fill="#2958F9"/>
<rect width="293.734" height="4.31256" transform="matrix(0.718705 -0.669589 0.669725 0.71889 -3.22523 32.5081)" fill="url(#paint6_linear)"/>
<rect width="293.734" height="4.31256" transform="matrix(0.718705 -0.669588 0.669725 0.71889 113.823 158.145)" fill="#2958F9"/>
<rect width="293.734" height="4.31256" transform="matrix(0.718705 -0.669588 0.669725 0.71889 113.823 158.145)" fill="url(#paint7_linear)"/>
<rect width="293.734" height="4.31256" transform="matrix(0.718705 -0.669589 0.669725 0.71889 61.1511 101.608)" fill="#2958F9"/>
<rect width="293.734" height="4.31256" transform="matrix(0.718705 -0.669589 0.669725 0.71889 61.1511 101.608)" fill="url(#paint8_linear)"/>
<rect width="293.734" height="4.31256" transform="matrix(0.718705 -0.669589 0.669725 0.71889 2.62717 38.7898)" fill="#2958F9"/>
<rect width="293.734" height="4.31256" transform="matrix(0.718705 -0.669589 0.669725 0.71889 2.62717 38.7898)" fill="url(#paint9_linear)"/>
<rect width="293.734" height="4.31256" transform="matrix(0.718705 -0.669588 0.669725 0.71889 119.675 164.427)" fill="#2958F9"/>
<rect width="293.734" height="4.31256" transform="matrix(0.718705 -0.669588 0.669725 0.71889 119.675 164.427)" fill="url(#paint10_linear)"/>
<rect width="293.734" height="4.31256" transform="matrix(0.718705 -0.669589 0.669725 0.71889 67.0035 107.89)" fill="#2958F9"/>
<rect width="293.734" height="4.31256" transform="matrix(0.718705 -0.669589 0.669725 0.71889 67.0035 107.89)" fill="url(#paint11_linear)"/>
<rect width="293.734" height="4.31256" transform="matrix(0.718705 -0.669589 0.669725 0.71889 8.47955 45.0718)" fill="#2958F9"/>
<rect width="293.734" height="4.31256" transform="matrix(0.718705 -0.669589 0.669725 0.71889 8.47955 45.0718)" fill="url(#paint12_linear)"/>
<rect width="293.734" height="4.31256" transform="matrix(0.718705 -0.669589 0.669725 0.71889 125.527 170.709)" fill="#2958F9"/>
<rect width="293.734" height="4.31256" transform="matrix(0.718705 -0.669589 0.669725 0.71889 125.527 170.709)" fill="url(#paint13_linear)"/>
<rect width="293.734" height="4.31256" transform="matrix(0.718705 -0.669589 0.669725 0.71889 72.8559 114.172)" fill="#2958F9"/>
<rect width="293.734" height="4.31256" transform="matrix(0.718705 -0.669589 0.669725 0.71889 72.8559 114.172)" fill="url(#paint14_linear)"/>
<rect width="293.734" height="4.31256" transform="matrix(0.718705 -0.669589 0.669725 0.71889 14.3319 51.3535)" fill="#2958F9"/>
<rect width="293.734" height="4.31256" transform="matrix(0.718705 -0.669589 0.669725 0.71889 14.3319 51.3535)" fill="url(#paint15_linear)"/>
<rect width="293.734" height="4.31256" transform="matrix(0.718705 -0.669589 0.669725 0.71889 131.38 176.99)" fill="#2958F9"/>
<rect width="293.734" height="4.31256" transform="matrix(0.718705 -0.669589 0.669725 0.71889 131.38 176.99)" fill="url(#paint16_linear)"/>
<rect width="293.734" height="4.31256" transform="matrix(0.718705 -0.669589 0.669725 0.71889 78.7082 120.454)" fill="#2958F9"/>
<rect width="293.734" height="4.31256" transform="matrix(0.718705 -0.669589 0.669725 0.71889 78.7082 120.454)" fill="url(#paint17_linear)"/>
<rect width="293.734" height="4.31256" transform="matrix(0.718705 -0.669589 0.669725 0.71889 20.1843 57.6355)" fill="#2958F9"/>
<rect width="293.734" height="4.31256" transform="matrix(0.718705 -0.669589 0.669725 0.71889 20.1843 57.6355)" fill="url(#paint18_linear)"/>
<rect width="293.734" height="4.31256" transform="matrix(0.718705 -0.669588 0.669725 0.71889 137.232 183.272)" fill="#2958F9"/>
<rect width="293.734" height="4.31256" transform="matrix(0.718705 -0.669588 0.669725 0.71889 137.232 183.272)" fill="url(#paint19_linear)"/>
<rect width="293.734" height="4.31256" transform="matrix(0.718705 -0.669589 0.669725 0.71889 -32.4872 1.09888)" fill="#2958F9"/>
<rect width="293.734" height="4.31256" transform="matrix(0.718705 -0.669589 0.669725 0.71889 -32.4872 1.09888)" fill="url(#paint20_linear)"/>
<rect width="293.734" height="4.31256" transform="matrix(0.718705 -0.669589 0.669725 0.71889 84.5606 126.736)" fill="#2958F9"/>
<rect width="293.734" height="4.31256" transform="matrix(0.718705 -0.669589 0.669725 0.71889 84.5606 126.736)" fill="url(#paint21_linear)"/>
<rect width="293.734" height="4.31256" transform="matrix(0.718705 -0.669589 0.669725 0.71889 26.0367 63.9172)" fill="#2958F9"/>
<rect width="293.734" height="4.31256" transform="matrix(0.718705 -0.669589 0.669725 0.71889 26.0367 63.9172)" fill="url(#paint22_linear)"/>
<rect width="293.734" height="4.31256" transform="matrix(0.718705 -0.669589 0.669725 0.71889 143.085 189.554)" fill="#2958F9"/>
<rect width="293.734" height="4.31256" transform="matrix(0.718705 -0.669589 0.669725 0.71889 143.085 189.554)" fill="url(#paint23_linear)"/>
<rect width="293.734" height="4.31256" transform="matrix(0.718705 -0.669589 0.669725 0.71889 -26.6348 7.38062)" fill="#2958F9"/>
<rect width="293.734" height="4.31256" transform="matrix(0.718705 -0.669589 0.669725 0.71889 -26.6348 7.38062)" fill="url(#paint24_linear)"/>
<rect width="293.734" height="4.31256" transform="matrix(0.718705 -0.669589 0.669725 0.71889 90.413 133.018)" fill="#2958F9"/>
<rect width="293.734" height="4.31256" transform="matrix(0.718705 -0.669589 0.669725 0.71889 90.413 133.018)" fill="url(#paint25_linear)"/>
<rect width="293.734" height="4.31256" transform="matrix(0.718705 -0.669589 0.669725 0.71889 31.8891 70.1992)" fill="#2958F9"/>
<rect width="293.734" height="4.31256" transform="matrix(0.718705 -0.669589 0.669725 0.71889 31.8891 70.1992)" fill="url(#paint26_linear)"/>
<rect width="293.734" height="4.31256" transform="matrix(0.718705 -0.669589 0.669725 0.71889 148.937 195.836)" fill="#2958F9"/>
<rect width="293.734" height="4.31256" transform="matrix(0.718705 -0.669589 0.669725 0.71889 148.937 195.836)" fill="url(#paint27_linear)"/>
<rect width="293.734" height="4.31256" transform="matrix(0.718705 -0.669589 0.669725 0.71889 -20.7824 13.6624)" fill="#2958F9"/>
<rect width="293.734" height="4.31256" transform="matrix(0.718705 -0.669589 0.669725 0.71889 -20.7824 13.6624)" fill="url(#paint28_linear)"/>
<rect width="293.734" height="4.31256" transform="matrix(0.718705 -0.669589 0.669725 0.71889 96.2654 139.299)" fill="#2958F9"/>
<rect width="293.734" height="4.31256" transform="matrix(0.718705 -0.669589 0.669725 0.71889 96.2654 139.299)" fill="url(#paint29_linear)"/>
<rect width="293.734" height="4.31256" transform="matrix(0.718705 -0.669589 0.669725 0.71889 37.7415 76.481)" fill="#2958F9"/>
<rect width="293.734" height="4.31256" transform="matrix(0.718705 -0.669589 0.669725 0.71889 37.7415 76.481)" fill="url(#paint30_linear)"/>
<rect width="293.734" height="4.31256" transform="matrix(0.718705 -0.669589 0.669725 0.71889 -14.93 19.9443)" fill="#2958F9"/>
<rect width="293.734" height="4.31256" transform="matrix(0.718705 -0.669589 0.669725 0.71889 -14.93 19.9443)" fill="url(#paint31_linear)"/>
<rect width="293.734" height="4.31256" transform="matrix(0.718705 -0.669589 0.669725 0.71889 102.118 145.581)" fill="#2958F9"/>
<rect width="293.734" height="4.31256" transform="matrix(0.718705 -0.669589 0.669725 0.71889 102.118 145.581)" fill="url(#paint32_linear)"/>
<rect width="293.734" height="4.31256" transform="matrix(0.718705 -0.669589 0.669725 0.71889 43.5939 82.7627)" fill="#2958F9"/>
<rect width="293.734" height="4.31256" transform="matrix(0.718705 -0.669589 0.669725 0.71889 43.5939 82.7627)" fill="url(#paint33_linear)"/>
</g>
<defs>
<linearGradient id="paint0_linear" x1="60.9153" y1="1.5" x2="299.179" y2="1.50011" gradientUnits="userSpaceOnUse">
<stop stop-color="#DBC266"/>
<stop offset="0.463542" stop-color="#AE8930"/>
<stop offset="0.827015" stop-color="#CFA43D"/>
<stop offset="0.906096" stop-color="#F5E38B"/>
</linearGradient>
<linearGradient id="paint1_linear" x1="60.9153" y1="1.5" x2="299.179" y2="1.50011" gradientUnits="userSpaceOnUse">
<stop stop-color="#DBC266"/>
<stop offset="0.463542" stop-color="#AE8930"/>
<stop offset="0.827015" stop-color="#CFA43D"/>
<stop offset="0.906096" stop-color="#F5E38B"/>
</linearGradient>
<linearGradient id="paint2_linear" x1="214.717" y1="0.132072" x2="214.682" y2="4.50741" gradientUnits="userSpaceOnUse">
<stop offset="1" stop-color="#1B2232"/>
</linearGradient>
<linearGradient id="paint3_linear" x1="214.717" y1="0.132072" x2="214.682" y2="4.50741" gradientUnits="userSpaceOnUse">
<stop offset="1" stop-color="#1B2232"/>
</linearGradient>
<linearGradient id="paint4_linear" x1="214.717" y1="0.132072" x2="214.682" y2="4.50741" gradientUnits="userSpaceOnUse">
<stop offset="1" stop-color="#1B2232"/>
</linearGradient>
<linearGradient id="paint5_linear" x1="214.717" y1="0.132072" x2="214.682" y2="4.50741" gradientUnits="userSpaceOnUse">
<stop offset="1" stop-color="#1B2232"/>
</linearGradient>
<linearGradient id="paint6_linear" x1="214.717" y1="0.132072" x2="214.682" y2="4.50741" gradientUnits="userSpaceOnUse">
<stop offset="1" stop-color="#1B2232"/>
</linearGradient>
<linearGradient id="paint7_linear" x1="214.717" y1="0.132072" x2="214.682" y2="4.50741" gradientUnits="userSpaceOnUse">
<stop offset="1" stop-color="#1B2232"/>
</linearGradient>
<linearGradient id="paint8_linear" x1="214.717" y1="0.132072" x2="214.682" y2="4.50741" gradientUnits="userSpaceOnUse">
<stop offset="1" stop-color="#1B2232"/>
</linearGradient>
<linearGradient id="paint9_linear" x1="214.717" y1="0.132072" x2="214.682" y2="4.50741" gradientUnits="userSpaceOnUse">
<stop offset="1" stop-color="#1B2232"/>
</linearGradient>
<linearGradient id="paint10_linear" x1="214.717" y1="0.132072" x2="214.682" y2="4.50741" gradientUnits="userSpaceOnUse">
<stop offset="1" stop-color="#1B2232"/>
</linearGradient>
<linearGradient id="paint11_linear" x1="214.717" y1="0.132072" x2="214.682" y2="4.50741" gradientUnits="userSpaceOnUse">
<stop offset="1" stop-color="#1B2232"/>
</linearGradient>
<linearGradient id="paint12_linear" x1="214.717" y1="0.132072" x2="214.682" y2="4.50741" gradientUnits="userSpaceOnUse">
<stop offset="1" stop-color="#1B2232"/>
</linearGradient>
<linearGradient id="paint13_linear" x1="214.717" y1="0.132072" x2="214.682" y2="4.50741" gradientUnits="userSpaceOnUse">
<stop offset="1" stop-color="#1B2232"/>
</linearGradient>
<linearGradient id="paint14_linear" x1="214.717" y1="0.132072" x2="214.682" y2="4.50741" gradientUnits="userSpaceOnUse">
<stop offset="1" stop-color="#1B2232"/>
</linearGradient>
<linearGradient id="paint15_linear" x1="214.717" y1="0.132072" x2="214.682" y2="4.50741" gradientUnits="userSpaceOnUse">
<stop offset="1" stop-color="#1B2232"/>
</linearGradient>
<linearGradient id="paint16_linear" x1="214.717" y1="0.132072" x2="214.682" y2="4.50741" gradientUnits="userSpaceOnUse">
<stop offset="1" stop-color="#1B2232"/>
</linearGradient>
<linearGradient id="paint17_linear" x1="214.717" y1="0.132072" x2="214.682" y2="4.50741" gradientUnits="userSpaceOnUse">
<stop offset="1" stop-color="#1B2232"/>
</linearGradient>
<linearGradient id="paint18_linear" x1="214.717" y1="0.132072" x2="214.682" y2="4.50741" gradientUnits="userSpaceOnUse">
<stop offset="1" stop-color="#1B2232"/>
</linearGradient>
<linearGradient id="paint19_linear" x1="214.717" y1="0.132072" x2="214.682" y2="4.50741" gradientUnits="userSpaceOnUse">
<stop offset="1" stop-color="#1B2232"/>
</linearGradient>
<linearGradient id="paint20_linear" x1="214.717" y1="0.132072" x2="214.682" y2="4.50741" gradientUnits="userSpaceOnUse">
<stop offset="1" stop-color="#1B2232"/>
</linearGradient>
<linearGradient id="paint21_linear" x1="214.717" y1="0.132072" x2="214.682" y2="4.50741" gradientUnits="userSpaceOnUse">
<stop offset="1" stop-color="#1B2232"/>
</linearGradient>
<linearGradient id="paint22_linear" x1="214.717" y1="0.132072" x2="214.682" y2="4.50741" gradientUnits="userSpaceOnUse">
<stop offset="1" stop-color="#1B2232"/>
</linearGradient>
<linearGradient id="paint23_linear" x1="214.717" y1="0.132072" x2="214.682" y2="4.50741" gradientUnits="userSpaceOnUse">
<stop offset="1" stop-color="#1B2232"/>
</linearGradient>
<linearGradient id="paint24_linear" x1="214.717" y1="0.132072" x2="214.682" y2="4.50741" gradientUnits="userSpaceOnUse">
<stop offset="1" stop-color="#1B2232"/>
</linearGradient>
<linearGradient id="paint25_linear" x1="214.717" y1="0.132072" x2="214.682" y2="4.50741" gradientUnits="userSpaceOnUse">
<stop offset="1" stop-color="#1B2232"/>
</linearGradient>
<linearGradient id="paint26_linear" x1="214.717" y1="0.132072" x2="214.682" y2="4.50741" gradientUnits="userSpaceOnUse">
<stop offset="1" stop-color="#1B2232"/>
</linearGradient>
<linearGradient id="paint27_linear" x1="214.717" y1="0.132072" x2="214.682" y2="4.50741" gradientUnits="userSpaceOnUse">
<stop offset="1" stop-color="#1B2232"/>
</linearGradient>
<linearGradient id="paint28_linear" x1="214.717" y1="0.132072" x2="214.682" y2="4.50741" gradientUnits="userSpaceOnUse">
<stop offset="1" stop-color="#1B2232"/>
</linearGradient>
<linearGradient id="paint29_linear" x1="214.717" y1="0.132072" x2="214.682" y2="4.50741" gradientUnits="userSpaceOnUse">
<stop offset="1" stop-color="#1B2232"/>
</linearGradient>
<linearGradient id="paint30_linear" x1="214.717" y1="0.132072" x2="214.682" y2="4.50741" gradientUnits="userSpaceOnUse">
<stop offset="1" stop-color="#1B2232"/>
</linearGradient>
<linearGradient id="paint31_linear" x1="214.717" y1="0.132072" x2="214.682" y2="4.50741" gradientUnits="userSpaceOnUse">
<stop offset="1" stop-color="#1B2232"/>
</linearGradient>
<linearGradient id="paint32_linear" x1="214.717" y1="0.132072" x2="214.682" y2="4.50741" gradientUnits="userSpaceOnUse">
<stop offset="1" stop-color="#1B2232"/>
</linearGradient>
<linearGradient id="paint33_linear" x1="214.717" y1="0.132072" x2="214.682" y2="4.50741" gradientUnits="userSpaceOnUse">
<stop offset="1" stop-color="#1B2232"/>
</linearGradient>
</defs>
</svg>
