<svg width="24" height="24" viewBox="0 0 24 24" fill="none" xmlns="http://www.w3.org/2000/svg">
<path d="M12 0C5.34545 0 0 5.34545 0 12C0 18.6545 5.34545 24 12 24C18.6545 24 24 18.6545 24 12C24 5.34545 18.6545 0 12 0ZM13.7455 12.2182L17.8364 16.3091C17.9455 16.4182 18 16.5818 18 16.6909C18 16.8 17.9455 16.9636 17.8364 17.0727L17.0727 17.8364C16.9636 17.9455 16.8 18 16.6909 18C16.5273 18 16.4182 17.9455 16.3091 17.8364L12.2182 13.7455C12.1091 13.6364 11.9455 13.6364 11.8364 13.7455L7.74545 17.8364C7.63636 17.9455 7.47273 18 7.36364 18C7.2 18 7.09091 17.9455 6.98182 17.8364L6.21818 17.0727C6.10909 16.9636 6.05455 16.8 6.05455 16.6909C6.05455 16.5818 6.10909 16.4182 6.21818 16.3091L10.3091 12.2182C10.4182 12.1091 10.4182 11.9455 10.3091 11.8364L6.21818 7.74545C6.10909 7.63636 6.05455 7.47273 6.05455 7.36364C6.05455 7.25455 6.10909 7.09091 6.21818 6.98182L6.98182 6.21818C7.09091 6.10909 7.25455 6.05455 7.36364 6.05455C7.47273 6.05455 7.63636 6.10909 7.74545 6.21818L11.8364 10.3091C11.9455 10.4182 12.1091 10.4182 12.2182 10.3091L16.3091 6.21818C16.4182 6.10909 16.5818 6.05455 16.6909 6.05455C16.8545 6.05455 16.9636 6.10909 17.0727 6.21818L17.8364 6.98182C17.9455 7.09091 18 7.25455 18 7.36364C18 7.47273 17.9455 7.63636 17.8364 7.74545L13.7455 11.8364C13.6364 11.8909 13.6364 12.1091 13.7455 12.2182Z" fill="#CA0A0A"/>
</svg>
