<svg width="16" height="16" viewBox="0 0 16 16" fill="none" xmlns="http://www.w3.org/2000/svg">
<path d="M14.671 2.30263H11.342V1.75987C11.342 0.789474 10.5525 0 9.58214 0H6.41766C5.44727 0 4.65779 0.789474 4.65779 1.75987V2.30263H1.32884C1.08213 2.30263 0.884766 2.5 0.884766 2.74671C0.884766 2.99342 1.08213 3.19079 1.32884 3.19079H2.13148V13.625C2.13148 14.9342 3.19727 16 4.50648 16H11.4933C12.8025 16 13.8683 14.9342 13.8683 13.625V3.19079H14.671C14.9177 3.19079 15.115 2.99342 15.115 2.74671C15.115 2.5 14.9177 2.30263 14.671 2.30263ZM5.54595 1.75987C5.54595 1.27961 5.9374 0.888158 6.41766 0.888158H9.58214C10.0624 0.888158 10.4538 1.27961 10.4538 1.75987V2.30263H5.54595V1.75987ZM12.9802 13.625C12.9802 14.4441 12.3124 15.1118 11.4933 15.1118H4.50648C3.6874 15.1118 3.01963 14.4441 3.01963 13.625V3.19079H12.9835V13.625H12.9802Z" fill="#CA0A0A"/>
<path d="M14.671 2.30263H11.342V1.75987C11.342 0.789474 10.5525 0 9.58214 0H6.41766C5.44727 0 4.65779 0.789474 4.65779 1.75987V2.30263H1.32884C1.08213 2.30263 0.884766 2.5 0.884766 2.74671C0.884766 2.99342 1.08213 3.19079 1.32884 3.19079H2.13148V13.625C2.13148 14.9342 3.19727 16 4.50648 16H11.4933C12.8025 16 13.8683 14.9342 13.8683 13.625V3.19079H14.671C14.9177 3.19079 15.115 2.99342 15.115 2.74671C15.115 2.5 14.9177 2.30263 14.671 2.30263ZM5.54595 1.75987C5.54595 1.27961 5.9374 0.888158 6.41766 0.888158H9.58214C10.0624 0.888158 10.4538 1.27961 10.4538 1.75987V2.30263H5.54595V1.75987ZM12.9802 13.625C12.9802 14.4441 12.3124 15.1118 11.4933 15.1118H4.50648C3.6874 15.1118 3.01963 14.4441 3.01963 13.625V3.19079H12.9835V13.625H12.9802Z" fill="url(#paint0_linear)"/>
<path d="M7.99876 13.5197C8.24547 13.5197 8.44284 13.3224 8.44284 13.0756V5.22696C8.44284 4.98025 8.24547 4.78288 7.99876 4.78288C7.75205 4.78288 7.55469 4.98025 7.55469 5.22696V13.0724C7.55469 13.3191 7.75205 13.5197 7.99876 13.5197Z" fill="#CA0A0A"/>
<path d="M7.99876 13.5197C8.24547 13.5197 8.44284 13.3224 8.44284 13.0756V5.22696C8.44284 4.98025 8.24547 4.78288 7.99876 4.78288C7.75205 4.78288 7.55469 4.98025 7.55469 5.22696V13.0724C7.55469 13.3191 7.75205 13.5197 7.99876 13.5197Z" fill="url(#paint1_linear)"/>
<path d="M5.10228 13.0296C5.34899 13.0296 5.54636 12.8322 5.54636 12.5855V5.71381C5.54636 5.4671 5.34899 5.26973 5.10228 5.26973C4.85557 5.26973 4.6582 5.4671 4.6582 5.71381V12.5855C4.6582 12.8322 4.85886 13.0296 5.10228 13.0296Z" fill="#CA0A0A"/>
<path d="M5.10228 13.0296C5.34899 13.0296 5.54636 12.8322 5.54636 12.5855V5.71381C5.54636 5.4671 5.34899 5.26973 5.10228 5.26973C4.85557 5.26973 4.6582 5.4671 4.6582 5.71381V12.5855C4.6582 12.8322 4.85886 13.0296 5.10228 13.0296Z" fill="url(#paint2_linear)"/>
<path d="M10.8972 13.0296C11.1439 13.0296 11.3413 12.8322 11.3413 12.5855V5.71381C11.3413 5.4671 11.1439 5.26973 10.8972 5.26973C10.6505 5.26973 10.4531 5.4671 10.4531 5.71381V12.5855C10.4531 12.8322 10.6505 13.0296 10.8972 13.0296Z" fill="#CA0A0A"/>
<path d="M10.8972 13.0296C11.1439 13.0296 11.3413 12.8322 11.3413 12.5855V5.71381C11.3413 5.4671 11.1439 5.26973 10.8972 5.26973C10.6505 5.26973 10.4531 5.4671 10.4531 5.71381V12.5855C10.4531 12.8322 10.6505 13.0296 10.8972 13.0296Z" fill="url(#paint3_linear)"/>
<defs>
<linearGradient id="paint0_linear" x1="1.15794" y1="2.32138" x2="14.1367" y2="2.33743" gradientUnits="userSpaceOnUse">
<stop offset="0.138996" stop-color="#C61919" stop-opacity="0.692708"/>
<stop offset="0.609375" stop-color="#F52A2A"/>
<stop offset="1" stop-color="#C50707"/>
</linearGradient>
<linearGradient id="paint1_linear" x1="7.57174" y1="6.05048" x2="8.38178" y2="6.0506" gradientUnits="userSpaceOnUse">
<stop offset="0.138996" stop-color="#C61919" stop-opacity="0.692708"/>
<stop offset="0.609375" stop-color="#F52A2A"/>
<stop offset="1" stop-color="#C50707"/>
</linearGradient>
<linearGradient id="paint2_linear" x1="4.67525" y1="6.39558" x2="5.4853" y2="6.39571" gradientUnits="userSpaceOnUse">
<stop offset="0.138996" stop-color="#C61919" stop-opacity="0.692708"/>
<stop offset="0.609375" stop-color="#F52A2A"/>
<stop offset="1" stop-color="#C50707"/>
</linearGradient>
<linearGradient id="paint3_linear" x1="10.4702" y1="6.39558" x2="11.2802" y2="6.39571" gradientUnits="userSpaceOnUse">
<stop offset="0.138996" stop-color="#C61919" stop-opacity="0.692708"/>
<stop offset="0.609375" stop-color="#F52A2A"/>
<stop offset="1" stop-color="#C50707"/>
</linearGradient>
</defs>
</svg>
