<svg width="14" height="14" viewBox="0 0 14 14" fill="none" xmlns="http://www.w3.org/2000/svg">
<g clip-path="url(#clip0)">
<path d="M11.0536 11.5135L11.0536 12.0914L2.94641 12.0914L2.94641 11.5135C2.94641 11.2594 2.74039 11.0534 2.48626 11.0534L1.90834 11.0534L1.90834 2.94614L2.4862 2.94614C2.74033 2.94614 2.94636 2.74012 2.94636 2.48599L2.94636 1.90809L11.0536 1.90809L11.0536 2.48596C11.0536 2.74009 11.2596 2.94611 11.5137 2.94611L12.0916 2.94611L12.0916 11.0534L11.5138 11.0534C11.2597 11.0534 11.0536 11.2594 11.0536 11.5135ZM13.5898 2.94614C13.844 2.94614 14.05 2.74012 14.05 2.48599L14.05 0.409912C14.05 0.155782 13.844 -0.0502447 13.5898 -0.0502447L11.5138 -0.0502446C11.2596 -0.0502446 11.0536 0.155782 11.0536 0.409912L11.0536 0.987779L2.94639 0.987779L2.94639 0.409912C2.94639 0.155782 2.74036 -0.0502442 2.48623 -0.0502442L0.410156 -0.0502442C0.156026 -0.0502441 -0.05 0.155782 -0.05 0.409912L-0.0500002 2.48599C-0.0500002 2.74012 0.156026 2.94614 0.410156 2.94614L0.988023 2.94614L0.988023 11.0534L0.410156 11.0534C0.156026 11.0534 -0.0500008 11.2594 -0.0500008 11.5135L-0.0500009 13.5896C-0.0500009 13.8437 0.156025 14.0498 0.410155 14.0498L2.48623 14.0498C2.74036 14.0498 2.94639 13.8437 2.94639 13.5896L2.94639 13.0117L11.0536 13.0117L11.0536 13.5896C11.0536 13.8437 11.2596 14.0498 11.5138 14.0498L13.5898 14.0498C13.844 14.0498 14.05 13.8437 14.05 13.5896L14.05 11.5135C14.05 11.2594 13.844 11.0534 13.5898 11.0534L13.012 11.0534L13.012 2.94614L13.5898 2.94614ZM11.9739 0.870068L13.1297 0.870068L13.1297 2.02583L11.9739 2.02583L11.9739 0.870068ZM0.870312 0.870068L2.02607 0.870068L2.02607 2.02583L0.870312 2.02583L0.870312 0.870068ZM2.02607 13.1294L0.870312 13.1294L0.870312 11.9737L2.02607 11.9737L2.02607 13.1294ZM13.1297 13.1294L11.9739 13.1294L11.9739 11.9737L13.1297 11.9737L13.1297 13.1294Z" fill="url(#paint0_linear)" stroke="url(#paint1_linear)" stroke-width="0.1"/>
</g>
<defs>
<linearGradient id="paint0_linear" x1="3.06768" y1="6.99975" x2="15.0666" y2="6.99976" gradientUnits="userSpaceOnUse">
<stop stop-color="#DBC266"/>
<stop offset="0.463542" stop-color="#AE8930"/>
<stop offset="0.827015" stop-color="#CFA43D"/>
<stop offset="0.906096" stop-color="#F5E38B"/>
</linearGradient>
<linearGradient id="paint1_linear" x1="3.06768" y1="6.99975" x2="15.0666" y2="6.99976" gradientUnits="userSpaceOnUse">
<stop stop-color="#DBC266"/>
<stop offset="0.463542" stop-color="#AE8930"/>
<stop offset="0.827015" stop-color="#CFA43D"/>
<stop offset="0.906096" stop-color="#F5E38B"/>
</linearGradient>
<clipPath id="clip0">
<rect width="14" height="14" fill="white" transform="translate(0 -0.000244141)"/>
</clipPath>
</defs>
</svg>
