<svg width="60" height="60" viewBox="0 0 60 60" fill="none" xmlns="http://www.w3.org/2000/svg">
<path d="M26.2499 45.9375C23.6652 45.9375 21.5624 48.0403 21.5624 50.625C21.5624 53.2097 23.6652 55.3125 26.2499 55.3125C28.8346 55.3125 30.9374 53.2097 30.9374 50.625C30.9374 48.0403 28.8346 45.9375 26.2499 45.9375ZM26.2499 53.4375C24.6993 53.4375 23.4374 52.1756 23.4374 50.625C23.4374 49.0744 24.6993 47.8125 26.2499 47.8125C27.8005 47.8125 29.0624 49.0744 29.0624 50.625C29.0624 52.1756 27.8005 53.4375 26.2499 53.4375Z" fill="url(#paint0_linear)"/>
<path d="M26.2499 51.5625C26.7676 51.5625 27.1874 51.1428 27.1874 50.625C27.1874 50.1072 26.7676 49.6875 26.2499 49.6875C25.7321 49.6875 25.3124 50.1072 25.3124 50.625C25.3124 51.1428 25.7321 51.5625 26.2499 51.5625Z" fill="url(#paint1_linear)"/>
<path d="M58.9677 44.2753C58.5768 42.8128 57.0336 41.8884 55.5252 42.2831L55.3124 42.3384V24.375C55.3124 22.8244 54.0505 21.5625 52.4999 21.5625H29.9999C28.4493 21.5625 27.1874 22.8244 27.1874 24.375V42.2428C26.8789 42.2081 26.5668 42.1875 26.2499 42.1875C26.2011 42.1875 26.1533 42.1941 26.1046 42.195L20.3136 19.0341C19.5824 16.1072 16.9649 14.0625 13.9471 14.0625H3.74988C2.19925 14.0625 0.937378 15.3244 0.937378 16.875C0.937378 18.4256 2.19925 19.6875 3.74988 19.6875H13.9471C14.3774 19.6875 14.7514 19.98 14.8564 20.3981L20.8049 44.1909C18.9768 45.7397 17.8124 48.0478 17.8124 50.625C17.8124 55.2769 21.598 59.0625 26.2499 59.0625C29.7674 59.0625 32.7861 56.8969 34.0508 53.8312L56.9755 47.7178C58.4727 47.3175 59.3661 45.7734 58.9677 44.2753ZM40.3124 25.3125V29.0625H38.4374V23.4375H44.0624V29.0625H42.1874V25.3125H40.3124ZM29.0624 24.375C29.0624 23.8584 29.4833 23.4375 29.9999 23.4375H36.5624V30.9375H45.9374V23.4375H52.4999C53.0164 23.4375 53.4374 23.8584 53.4374 24.375V42.8391L34.2477 47.9559C33.4246 45.4978 31.5008 43.5459 29.0624 42.6797V24.375ZM2.81238 16.875C2.81238 16.3584 3.23332 15.9375 3.74988 15.9375H8.43738V17.8125H3.74988C3.23332 17.8125 2.81238 17.3916 2.81238 16.875ZM16.6752 19.9434C16.3621 18.6891 15.2399 17.8125 13.9471 17.8125H10.3124V15.9375H13.9471C16.1024 15.9375 17.9718 17.3981 18.4949 19.4887L24.2333 42.4416C23.6136 42.5944 23.0211 42.8138 22.4643 43.0959L16.6752 19.9434ZM26.2499 57.1875C22.6311 57.1875 19.6874 54.2438 19.6874 50.625C19.6874 47.0062 22.6311 44.0625 26.2499 44.0625C29.8686 44.0625 32.8124 47.0062 32.8124 50.625C32.8124 54.2438 29.8686 57.1875 26.2499 57.1875ZM56.4918 45.9056L34.6039 51.7425C34.6536 51.3759 34.6874 51.0047 34.6874 50.625C34.6874 50.3438 34.6724 50.0653 34.6452 49.7906L56.0052 44.0944C56.5133 43.9584 57.0252 44.2697 57.1564 44.7572C57.2886 45.2569 56.9914 45.7725 56.4918 45.9056Z" fill="url(#paint2_linear)"/>
<path d="M30.9374 40.3125H32.8124V42.1875H30.9374V40.3125Z" fill="url(#paint3_linear)"/>
<path d="M34.6874 40.3125H36.5624V42.1875H34.6874V40.3125Z" fill="url(#paint4_linear)"/>
<path d="M38.4374 40.3125H40.3124V42.1875H38.4374V40.3125Z" fill="url(#paint5_linear)"/>
<path d="M30.9374 36.5625H40.3124V38.4375H30.9374V36.5625Z" fill="url(#paint6_linear)"/>
<path d="M41.2499 19.6875C46.4193 19.6875 50.6249 15.4819 50.6249 10.3125C50.6249 5.14313 46.4193 0.9375 41.2499 0.9375C36.0805 0.9375 31.8749 5.14313 31.8749 10.3125C31.8749 15.4819 36.0805 19.6875 41.2499 19.6875ZM41.2499 2.8125C45.3852 2.8125 48.7499 6.17719 48.7499 10.3125C48.7499 14.4478 45.3852 17.8125 41.2499 17.8125C37.1146 17.8125 33.7499 14.4478 33.7499 10.3125C33.7499 6.17719 37.1146 2.8125 41.2499 2.8125Z" fill="url(#paint7_linear)"/>
<path d="M43.7877 11.5247L42.1874 9.92438V4.6875H40.3124V10.7006L42.4621 12.8503L43.7877 11.5247Z" fill="url(#paint8_linear)"/>
<path d="M7.49988 40.3125H13.1249C14.6755 40.3125 15.9374 39.0506 15.9374 37.5C15.9374 35.9494 14.6755 34.6875 13.1249 34.6875H5.62488C5.10832 34.6875 4.68738 34.2666 4.68738 33.75C4.68738 33.2334 5.10832 32.8125 5.62488 32.8125H14.9999V30.9375H5.62488C4.07425 30.9375 2.81238 32.1994 2.81238 33.75C2.81238 35.3006 4.07425 36.5625 5.62488 36.5625H13.1249C13.6414 36.5625 14.0624 36.9834 14.0624 37.5C14.0624 38.0166 13.6414 38.4375 13.1249 38.4375H7.49988C5.94925 38.4375 4.68738 39.6994 4.68738 41.25C4.68738 42.8006 5.94925 44.0625 7.49988 44.0625H11.2499C11.7664 44.0625 12.1874 44.4834 12.1874 45C12.1874 45.5166 11.7664 45.9375 11.2499 45.9375H3.74988C2.19925 45.9375 0.937378 47.1994 0.937378 48.75C0.937378 50.3006 2.19925 51.5625 3.74988 51.5625H15.9374V49.6875H3.74988C3.23332 49.6875 2.81238 49.2666 2.81238 48.75C2.81238 48.2334 3.23332 47.8125 3.74988 47.8125H11.2499C12.8005 47.8125 14.0624 46.5506 14.0624 45C14.0624 43.4494 12.8005 42.1875 11.2499 42.1875H7.49988C6.98332 42.1875 6.56238 41.7666 6.56238 41.25C6.56238 40.7334 6.98332 40.3125 7.49988 40.3125Z" fill="url(#paint9_linear)"/>
<defs>
<linearGradient id="paint0_linear" x1="23.6166" y1="50.625" x2="31.6516" y2="50.625" gradientUnits="userSpaceOnUse">
<stop stop-color="#DBC266"/>
<stop offset="0.463542" stop-color="#AE8930"/>
<stop offset="0.827015" stop-color="#CFA43D"/>
<stop offset="0.906096" stop-color="#F5E38B"/>
</linearGradient>
<linearGradient id="paint1_linear" x1="25.7232" y1="50.625" x2="27.3302" y2="50.625" gradientUnits="userSpaceOnUse">
<stop stop-color="#DBC266"/>
<stop offset="0.463542" stop-color="#AE8930"/>
<stop offset="0.827015" stop-color="#CFA43D"/>
<stop offset="0.906096" stop-color="#F5E38B"/>
</linearGradient>
<linearGradient id="paint2_linear" x1="13.6738" y1="36.5625" x2="63.4907" y2="36.5625" gradientUnits="userSpaceOnUse">
<stop stop-color="#DBC266"/>
<stop offset="0.463542" stop-color="#AE8930"/>
<stop offset="0.827015" stop-color="#CFA43D"/>
<stop offset="0.906096" stop-color="#F5E38B"/>
</linearGradient>
<linearGradient id="paint3_linear" x1="31.3482" y1="41.25" x2="32.9552" y2="41.25" gradientUnits="userSpaceOnUse">
<stop stop-color="#DBC266"/>
<stop offset="0.463542" stop-color="#AE8930"/>
<stop offset="0.827015" stop-color="#CFA43D"/>
<stop offset="0.906096" stop-color="#F5E38B"/>
</linearGradient>
<linearGradient id="paint4_linear" x1="35.0982" y1="41.25" x2="36.7052" y2="41.25" gradientUnits="userSpaceOnUse">
<stop stop-color="#DBC266"/>
<stop offset="0.463542" stop-color="#AE8930"/>
<stop offset="0.827015" stop-color="#CFA43D"/>
<stop offset="0.906096" stop-color="#F5E38B"/>
</linearGradient>
<linearGradient id="paint5_linear" x1="38.8482" y1="41.25" x2="40.4552" y2="41.25" gradientUnits="userSpaceOnUse">
<stop stop-color="#DBC266"/>
<stop offset="0.463542" stop-color="#AE8930"/>
<stop offset="0.827015" stop-color="#CFA43D"/>
<stop offset="0.906096" stop-color="#F5E38B"/>
</linearGradient>
<linearGradient id="paint6_linear" x1="32.9916" y1="37.5" x2="41.0266" y2="37.5" gradientUnits="userSpaceOnUse">
<stop stop-color="#DBC266"/>
<stop offset="0.463542" stop-color="#AE8930"/>
<stop offset="0.827015" stop-color="#CFA43D"/>
<stop offset="0.906096" stop-color="#F5E38B"/>
</linearGradient>
<linearGradient id="paint7_linear" x1="35.9834" y1="10.3125" x2="52.0533" y2="10.3125" gradientUnits="userSpaceOnUse">
<stop stop-color="#DBC266"/>
<stop offset="0.463542" stop-color="#AE8930"/>
<stop offset="0.827015" stop-color="#CFA43D"/>
<stop offset="0.906096" stop-color="#F5E38B"/>
</linearGradient>
<linearGradient id="paint8_linear" x1="41.0739" y1="8.76891" x2="44.0524" y2="8.76891" gradientUnits="userSpaceOnUse">
<stop stop-color="#DBC266"/>
<stop offset="0.463542" stop-color="#AE8930"/>
<stop offset="0.827015" stop-color="#CFA43D"/>
<stop offset="0.906096" stop-color="#F5E38B"/>
</linearGradient>
<linearGradient id="paint9_linear" x1="4.22417" y1="41.25" x2="17.0801" y2="41.25" gradientUnits="userSpaceOnUse">
<stop stop-color="#DBC266"/>
<stop offset="0.463542" stop-color="#AE8930"/>
<stop offset="0.827015" stop-color="#CFA43D"/>
<stop offset="0.906096" stop-color="#F5E38B"/>
</linearGradient>
</defs>
</svg>
