<svg width="60" height="54" viewBox="0 0 60 54" fill="none" xmlns="http://www.w3.org/2000/svg">
<path d="M47.6999 42.1427C47.168 41.7738 46.4378 41.9065 46.0693 42.4384C45.7121 42.954 45.3073 43.4553 44.8656 43.9287C44.5697 44.2461 44.1626 44.6289 43.7197 45.0057C43.2268 45.4253 43.1673 46.1648 43.5867 46.6578C43.8185 46.9302 44.1481 47.0701 44.4797 47.0701C44.7482 47.0701 45.0181 46.9783 45.2388 46.7906C45.7556 46.3507 46.2195 45.9138 46.5797 45.527C47.0979 44.9717 47.5744 44.3817 47.9958 43.7733C48.3644 43.2414 48.232 42.5113 47.6999 42.1427Z" fill="url(#paint0_linear)"/>
<path d="M42.5945 47.3974C42.3196 46.8115 41.6221 46.5593 41.0359 46.8341L40.9993 46.8506C40.4071 47.1118 40.139 47.8037 40.4004 48.3958C40.5938 48.8341 41.0229 49.0948 41.473 49.0948C41.6311 49.0948 41.7918 49.0626 41.9455 48.9948C41.9741 48.9822 42.0025 48.9693 42.031 48.9561C42.6169 48.6812 42.8692 47.9836 42.5945 47.3974Z" fill="url(#paint1_linear)"/>
<path d="M56.499 0.0471191H3.50097C1.57043 0.0471191 0 1.61778 0 3.54809V36.3901C0 38.3202 1.57043 39.8908 3.50097 39.8908H28.179C29.2251 44.317 31.5908 47.4517 33.6583 49.4601C36.6761 52.3919 40.1355 53.9531 41.4725 53.9531C42.8093 53.9531 46.2687 52.392 49.2866 49.4602C51.3542 47.4517 53.7199 44.317 54.7659 39.8909H56.499C58.4295 39.8909 60 38.3204 60 36.3902V3.54809C60 1.61778 58.4295 0.0471191 56.499 0.0471191ZM52.9687 35.0882C52.9688 41.2626 50.1187 45.3582 47.7276 47.7067C44.8913 50.4926 41.9819 51.5762 41.4725 51.6092C40.9629 51.5762 38.0534 50.4927 35.2171 47.7067C32.8263 45.3582 29.9762 41.2626 29.9762 35.0882V29.3172C34.0109 28.1504 37.7862 26.5535 41.4728 24.4549C45.0763 26.5002 49.0208 28.1681 52.9687 29.3165V35.0882ZM57.6563 36.3901C57.6563 37.028 57.137 37.547 56.499 37.547H55.1735C55.2633 36.7618 55.3125 35.9429 55.3125 35.0882V28.4287C55.3125 27.8997 54.9581 27.4365 54.4478 27.2978C50.1924 26.1423 45.9102 24.3416 42.0644 22.0905C41.6987 21.8765 41.2462 21.8768 40.8803 22.0907C36.9255 24.4057 32.8749 26.1087 28.4971 27.2978C27.9868 27.4366 27.6324 27.8998 27.6324 28.4287V35.0882C27.6324 35.9429 27.6815 36.7618 27.7714 37.547H3.50097C2.86289 37.547 2.34375 37.0279 2.34375 36.3901V16.4531H57.6563V36.3901ZM57.6563 14.1095H2.34375V9.42222H57.6563V14.1095ZM57.6563 7.07836H2.34375V3.54809C2.34375 2.91 2.86289 2.39086 3.50097 2.39086H56.499C57.137 2.39086 57.6563 2.91 57.6563 3.54809V7.07836Z" fill="url(#paint2_linear)"/>
<path d="M14.0621 24.6567C13.3556 24.6567 12.658 24.7996 12.0123 25.0719C11.3815 24.8046 10.6882 24.6567 9.96116 24.6567C7.0534 24.6567 4.68762 27.0223 4.68762 29.9299C4.68762 32.8376 7.05328 35.2034 9.96116 35.2034C10.6882 35.2034 11.3815 35.0555 12.0122 34.7882C12.658 35.0605 13.3556 35.2034 14.0621 35.2034C16.97 35.2034 19.3358 32.8376 19.3358 29.9299C19.3358 27.0223 16.97 24.6567 14.0621 24.6567ZM9.96116 32.8596C8.34562 32.8596 7.03137 31.5455 7.03137 29.9299C7.03137 28.3145 8.34562 27.0005 9.96116 27.0005C11.5765 27.0005 12.8907 28.3145 12.8907 29.9299C12.8907 31.5454 11.5765 32.8596 9.96116 32.8596ZM14.3526 32.8453C14.9093 32.0097 15.2345 31.0071 15.2345 29.9301C15.2345 28.853 14.9093 27.8507 14.3528 27.015C15.8322 27.1613 16.9919 28.4128 16.9919 29.9301C16.9919 31.4473 15.8322 32.699 14.3526 32.8453Z" fill="url(#paint3_linear)"/>
<path d="M11.887 19.3828H5.85925C5.21203 19.3828 4.68738 19.9075 4.68738 20.5547C4.68738 21.2018 5.21203 21.7266 5.85925 21.7266H11.887C12.5342 21.7266 13.0589 21.2017 13.0589 20.5547C13.0589 19.9075 12.5342 19.3828 11.887 19.3828Z" fill="url(#paint4_linear)"/>
<path d="M15.3511 19.3828H15.2955C14.6483 19.3828 14.1237 19.9075 14.1237 20.5547C14.1237 21.2018 14.6483 21.7266 15.2955 21.7266H15.3511C15.9982 21.7266 16.5229 21.2017 16.5229 20.5547C16.5229 19.9075 15.9982 19.3828 15.3511 19.3828Z" fill="url(#paint5_linear)"/>
<path d="M47.9049 32.3937C47.4476 31.9363 46.7057 31.9361 46.2478 32.3936L39.981 38.6599L36.697 35.3757C36.2393 34.9185 35.4973 34.9182 35.0397 35.3757C34.5821 35.8335 34.5819 36.5755 35.0397 37.0331L39.1524 41.1459C39.3812 41.3748 39.6811 41.4893 39.981 41.4893C40.2809 41.4893 40.5809 41.3748 40.8095 41.1459L47.9048 34.0511C48.3626 33.5936 48.3626 32.8515 47.9049 32.3937Z" fill="url(#paint6_linear)"/>
<defs>
<linearGradient id="paint0_linear" x1="44.3803" y1="44.502" x2="48.5776" y2="44.502" gradientUnits="userSpaceOnUse">
<stop stop-color="#DBC266"/>
<stop offset="0.463542" stop-color="#AE8930"/>
<stop offset="0.827015" stop-color="#CFA43D"/>
<stop offset="0.906096" stop-color="#F5E38B"/>
</linearGradient>
<linearGradient id="paint1_linear" x1="40.8273" y1="47.9089" x2="42.8888" y2="47.9089" gradientUnits="userSpaceOnUse">
<stop stop-color="#DBC266"/>
<stop offset="0.463542" stop-color="#AE8930"/>
<stop offset="0.827015" stop-color="#CFA43D"/>
<stop offset="0.906096" stop-color="#F5E38B"/>
</linearGradient>
<linearGradient id="paint2_linear" x1="13.1472" y1="27.0001" x2="64.571" y2="27.0001" gradientUnits="userSpaceOnUse">
<stop stop-color="#DBC266"/>
<stop offset="0.463542" stop-color="#AE8930"/>
<stop offset="0.827015" stop-color="#CFA43D"/>
<stop offset="0.906096" stop-color="#F5E38B"/>
</linearGradient>
<linearGradient id="paint3_linear" x1="7.89733" y1="29.9301" x2="20.4517" y2="29.9301" gradientUnits="userSpaceOnUse">
<stop stop-color="#DBC266"/>
<stop offset="0.463542" stop-color="#AE8930"/>
<stop offset="0.827015" stop-color="#CFA43D"/>
<stop offset="0.906096" stop-color="#F5E38B"/>
</linearGradient>
<linearGradient id="paint4_linear" x1="6.52174" y1="20.5547" x2="13.6967" y2="20.5547" gradientUnits="userSpaceOnUse">
<stop stop-color="#DBC266"/>
<stop offset="0.463542" stop-color="#AE8930"/>
<stop offset="0.827015" stop-color="#CFA43D"/>
<stop offset="0.906096" stop-color="#F5E38B"/>
</linearGradient>
<linearGradient id="paint5_linear" x1="14.6494" y1="20.5547" x2="16.7057" y2="20.5547" gradientUnits="userSpaceOnUse">
<stop stop-color="#DBC266"/>
<stop offset="0.463542" stop-color="#AE8930"/>
<stop offset="0.827015" stop-color="#CFA43D"/>
<stop offset="0.906096" stop-color="#F5E38B"/>
</linearGradient>
<linearGradient id="paint6_linear" x1="37.6659" y1="36.7699" x2="49.2806" y2="36.7699" gradientUnits="userSpaceOnUse">
<stop stop-color="#DBC266"/>
<stop offset="0.463542" stop-color="#AE8930"/>
<stop offset="0.827015" stop-color="#CFA43D"/>
<stop offset="0.906096" stop-color="#F5E38B"/>
</linearGradient>
</defs>
</svg>
