<svg width="236" height="52" viewBox="0 0 236 52" fill="none" xmlns="http://www.w3.org/2000/svg">
<path d="M200 4H236L216 28L236 52H200V4Z" fill="#FBF2A6"/>
<path d="M200 4H236L216 28L236 52H200V4Z" fill="url(#paint0_linear)"/>
<path d="M200 52V45.0455L206 43V47.9091L200 52Z" fill="#554112"/>
<path d="M0 0H206V24V48H0V0Z" fill="#FF1D1D"/>
<path d="M0 0H206V24V48H0V0Z" fill="url(#paint1_linear)"/>
<path d="M64.73 18.5C66.09 18.5 67.16 18.825 67.94 19.475C68.72 20.125 69.11 21.02 69.11 22.16C69.11 23.3 68.72 24.195 67.94 24.845C67.16 25.495 66.09 25.82 64.73 25.82H62.135V29H60.635V18.5H64.73ZM64.685 24.515C65.635 24.515 66.36 24.315 66.86 23.915C67.36 23.505 67.61 22.92 67.61 22.16C67.61 21.4 67.36 20.82 66.86 20.42C66.36 20.01 65.635 19.805 64.685 19.805H62.135V24.515H64.685ZM77.4942 26.375H71.9142L70.7592 29H69.2142L73.9692 18.5H75.4542L80.2242 29H78.6492L77.4942 26.375ZM76.9692 25.175L74.7042 20.03L72.4392 25.175H76.9692ZM86.5849 29.12C85.5349 29.12 84.5849 28.89 83.7349 28.43C82.8949 27.96 82.2349 27.32 81.7549 26.51C81.2749 25.69 81.0349 24.77 81.0349 23.75C81.0349 22.73 81.2749 21.815 81.7549 21.005C82.2349 20.185 82.8999 19.545 83.7499 19.085C84.5999 18.615 85.5499 18.38 86.5999 18.38C87.4199 18.38 88.1699 18.52 88.8499 18.8C89.5299 19.07 90.1099 19.475 90.5899 20.015L89.6149 20.96C88.8249 20.13 87.8399 19.715 86.6599 19.715C85.8799 19.715 85.1749 19.89 84.5449 20.24C83.9149 20.59 83.4199 21.075 83.0599 21.695C82.7099 22.305 82.5349 22.99 82.5349 23.75C82.5349 24.51 82.7099 25.2 83.0599 25.82C83.4199 26.43 83.9149 26.91 84.5449 27.26C85.1749 27.61 85.8799 27.785 86.6599 27.785C87.8299 27.785 88.8149 27.365 89.6149 26.525L90.5899 27.47C90.1099 28.01 89.5249 28.42 88.8349 28.7C88.1549 28.98 87.4049 29.12 86.5849 29.12ZM101.701 18.5V29H100.231V19.805H94.1415V29H92.6565V18.5H101.701ZM109.071 18.5C110.431 18.5 111.501 18.825 112.281 19.475C113.061 20.125 113.451 21.02 113.451 22.16C113.451 23.3 113.061 24.195 112.281 24.845C111.501 25.495 110.431 25.82 109.071 25.82H106.476V29H104.976V18.5H109.071ZM109.026 24.515C109.976 24.515 110.701 24.315 111.201 23.915C111.701 23.505 111.951 22.92 111.951 22.16C111.951 21.4 111.701 20.82 111.201 20.42C110.701 20.01 109.976 19.805 109.026 19.805H106.476V24.515H109.026ZM120.409 29.12C119.349 29.12 118.394 28.89 117.544 28.43C116.694 27.96 116.024 27.315 115.534 26.495C115.054 25.675 114.814 24.76 114.814 23.75C114.814 22.74 115.054 21.825 115.534 21.005C116.024 20.185 116.694 19.545 117.544 19.085C118.394 18.615 119.349 18.38 120.409 18.38C121.459 18.38 122.409 18.615 123.259 19.085C124.109 19.545 124.774 20.185 125.254 21.005C125.734 21.815 125.974 22.73 125.974 23.75C125.974 24.77 125.734 25.69 125.254 26.51C124.774 27.32 124.109 27.96 123.259 28.43C122.409 28.89 121.459 29.12 120.409 29.12ZM120.409 27.785C121.179 27.785 121.869 27.61 122.479 27.26C123.099 26.91 123.584 26.43 123.934 25.82C124.294 25.2 124.474 24.51 124.474 23.75C124.474 22.99 124.294 22.305 123.934 21.695C123.584 21.075 123.099 20.59 122.479 20.24C121.869 19.89 121.179 19.715 120.409 19.715C119.639 19.715 118.939 19.89 118.309 20.24C117.689 20.59 117.199 21.075 116.839 21.695C116.489 22.305 116.314 22.99 116.314 23.75C116.314 24.51 116.489 25.2 116.839 25.82C117.199 26.43 117.689 26.91 118.309 27.26C118.939 27.61 119.639 27.785 120.409 27.785ZM138.111 27.695V31.295H136.716V29H128.076L128.061 31.295H126.666L126.681 27.695H127.191C127.851 27.655 128.316 27.135 128.586 26.135C128.856 25.125 129.021 23.705 129.081 21.875L129.186 18.5H136.566V27.695H138.111ZM130.401 22.01C130.351 23.49 130.231 24.715 130.041 25.685C129.861 26.655 129.566 27.325 129.156 27.695H135.081V19.805H130.476L130.401 22.01ZM147.03 26.375H141.45L140.295 29H138.75L143.505 18.5H144.99L149.76 29H148.185L147.03 26.375ZM146.505 25.175L144.24 20.03L141.975 25.175H146.505ZM159.894 24.38H157.899V29H156.429V24.38H154.419L151.479 29H149.724L153.189 23.54L149.979 18.5H151.584L154.389 23.06H156.429V18.5H157.899V23.06H159.909L162.729 18.5H164.334L161.124 23.57L164.589 29H162.834L159.894 24.38ZM172.841 26.375H167.261L166.106 29H164.561L169.316 18.5H170.801L175.571 29H173.996L172.841 26.375ZM172.316 25.175L170.051 20.03L167.786 25.175H172.316Z" fill="white"/>
<path d="M32 24.4904V30.4904C32 31.0424 32.449 31.4904 33 31.4904H38V24.4904H32Z" fill="white"/>
<path d="M46 20.4904H42.836C43.063 20.3354 43.258 20.1814 43.394 20.0434C44.201 19.2324 44.201 17.9124 43.394 17.1014C42.61 16.3114 41.244 16.3134 40.461 17.1014C40.027 17.5364 38.877 19.3074 39.036 20.4904H38.964C39.122 19.3074 37.972 17.5364 37.539 17.1014C36.755 16.3134 35.389 16.3134 34.606 17.1014C33.8 17.9124 33.8 19.2324 34.605 20.0434C34.742 20.1814 34.937 20.3354 35.164 20.4904H32C31.449 20.4904 31 20.9394 31 21.4904V22.9904C31 23.2664 31.224 23.4904 31.5 23.4904H38V21.4904H40V23.4904H46.5C46.776 23.4904 47 23.2664 47 22.9904V21.4904C47 20.9394 46.552 20.4904 46 20.4904ZM37.941 20.4574C37.941 20.4574 37.899 20.4904 37.756 20.4904C37.065 20.4904 35.746 19.7724 35.315 19.3384C34.896 18.9164 34.896 18.2284 35.315 17.8064C35.518 17.6024 35.787 17.4904 36.073 17.4904C36.358 17.4904 36.627 17.6024 36.83 17.8064C37.504 18.4844 38.174 20.2164 37.941 20.4574ZM40.243 20.4904C40.101 20.4904 40.059 20.4584 40.059 20.4574C39.826 20.2164 40.496 18.4844 41.17 17.8064C41.573 17.3994 42.278 17.3974 42.685 17.8064C43.105 18.2284 43.105 18.9164 42.685 19.3384C42.254 19.7724 40.935 20.4904 40.243 20.4904Z" fill="white"/>
<path d="M40 24.4904V31.4904H45C45.552 31.4904 46 31.0424 46 30.4904V24.4904H40Z" fill="white"/>
<defs>
<linearGradient id="paint0_linear" x1="200" y1="28" x2="236" y2="28" gradientUnits="userSpaceOnUse">
<stop stop-color="#AE8930"/>
<stop offset="0.333692" stop-color="#AA852C"/>
<stop offset="1" stop-color="#F5E38B"/>
</linearGradient>
<linearGradient id="paint1_linear" x1="2.97115" y1="24" x2="225.808" y2="24" gradientUnits="userSpaceOnUse">
<stop stop-color="#DBC266"/>
<stop offset="0.463542" stop-color="#AE8930"/>
<stop offset="0.827015" stop-color="#CFA43D"/>
<stop offset="0.906096" stop-color="#F5E38B"/>
</linearGradient>
</defs>
</svg>
