<svg width="30" height="32" viewBox="0 0 30 32" fill="none" xmlns="http://www.w3.org/2000/svg">
<path d="M8.60643 21.0696H26.2385C28.2378 21.0696 29.8688 19.4386 29.8688 17.4393V10.0208C29.8688 10.0142 29.8688 10.0011 29.8688 9.9945C29.8688 9.97477 29.8688 9.96162 29.8688 9.94189C29.8688 9.92874 29.8688 9.91558 29.8622 9.90243C29.8622 9.88928 29.8556 9.86955 29.8556 9.85639C29.8556 9.84324 29.849 9.83009 29.849 9.81693C29.8425 9.80378 29.8425 9.79063 29.8359 9.7709C29.8293 9.75774 29.8293 9.74459 29.8227 9.73144C29.8162 9.71828 29.8162 9.70513 29.8096 9.69198C29.803 9.67882 29.7964 9.66567 29.7899 9.64594C29.7833 9.63279 29.7767 9.61963 29.7701 9.61306C29.7635 9.5999 29.757 9.58675 29.7504 9.5736C29.7438 9.56044 29.7372 9.55387 29.7307 9.54071C29.7241 9.52756 29.7109 9.51441 29.7044 9.50125C29.6978 9.4881 29.6912 9.48152 29.6781 9.46837C29.6715 9.45522 29.6583 9.44864 29.6517 9.43549C29.6452 9.42233 29.632 9.41576 29.6254 9.4026C29.6189 9.38945 29.6057 9.38287 29.5991 9.3763C29.586 9.36314 29.5794 9.35657 29.5663 9.34341C29.5531 9.33684 29.5465 9.32368 29.5334 9.31711C29.5202 9.31053 29.5071 9.29738 29.4939 9.2908C29.4808 9.28422 29.4742 9.27765 29.461 9.27107C29.4479 9.26449 29.4347 9.25792 29.4216 9.24476C29.4084 9.23819 29.3953 9.23161 29.3821 9.22503C29.3689 9.21846 29.3558 9.21188 29.3426 9.2053C29.3295 9.19873 29.3163 9.19215 29.3032 9.18557C29.29 9.179 29.2769 9.179 29.2637 9.17242C29.2506 9.16584 29.2308 9.15927 29.2177 9.15927C29.2045 9.15927 29.1914 9.15269 29.1848 9.15269C29.1651 9.14611 29.1519 9.14611 29.1322 9.14611C29.1256 9.14611 29.119 9.13954 29.1059 9.13954L6.75839 6.05508V2.93774C6.75839 2.90486 6.75839 2.87198 6.75181 2.84567C6.75181 2.83909 6.75181 2.83252 6.74523 2.81936C6.74523 2.79963 6.73866 2.7799 6.73866 2.76017C6.73208 2.74044 6.73208 2.72729 6.7255 2.70756C6.7255 2.69441 6.71893 2.68783 6.71893 2.67468C6.71235 2.65495 6.70577 2.63522 6.6992 2.61549C6.6992 2.60891 6.69262 2.59576 6.69262 2.58918C6.68604 2.56945 6.67947 2.5563 6.66631 2.53657C6.65974 2.52999 6.65974 2.51684 6.65316 2.51026C6.64658 2.49711 6.64001 2.48395 6.62685 2.4708C6.62028 2.45765 6.6137 2.45107 6.60712 2.43792C6.60055 2.42476 6.59397 2.41819 6.58739 2.40503C6.58082 2.39188 6.56766 2.37873 6.56109 2.36557C6.55451 2.359 6.54793 2.35242 6.54136 2.34584C6.5282 2.33269 6.51505 2.31954 6.5019 2.30638C6.49532 2.29981 6.48874 2.29323 6.48217 2.28665C6.46901 2.2735 6.45586 2.26035 6.43613 2.24719C6.42955 2.24062 6.4164 2.23404 6.40982 2.22746C6.39667 2.21431 6.38352 2.20773 6.37036 2.19458C6.35063 2.18143 6.3309 2.16827 6.31775 2.1617C6.31117 2.15512 6.3046 2.15512 6.29802 2.14854C6.27171 2.13539 6.23883 2.12224 6.21252 2.10908L1.36552 0.0703186C0.911732 -0.120405 0.392176 0.0900486 0.201453 0.543838C0.0107294 0.997628 0.221183 1.51718 0.674972 1.70791L4.97611 3.52307V7.54798V8.18592V13.079V17.4524V22.9768C4.97611 24.8183 6.35721 26.3441 8.13948 26.5743C7.81723 27.1136 7.6265 27.7449 7.6265 28.4157C7.6265 30.3953 9.23779 32 11.2108 32C13.1838 32 14.7951 30.3887 14.7951 28.4157C14.7951 27.7581 14.6175 27.1333 14.3018 26.6072H22.2859C21.9702 27.1399 21.7926 27.7581 21.7926 28.4157C21.7926 30.3953 23.4039 32 25.3769 32C27.3499 32 28.9612 30.3887 28.9612 28.4157C28.9612 26.4427 27.3499 24.8315 25.3769 24.8315H8.60643C7.58047 24.8315 6.75181 23.9962 6.75181 22.9768V20.5698C7.2911 20.8855 7.92903 21.0696 8.60643 21.0696ZM13.0259 28.4092C13.0259 29.4088 12.2104 30.2177 11.2174 30.2177C10.2243 30.2177 9.40878 29.4022 9.40878 28.4092C9.40878 27.4161 10.2243 26.6006 11.2174 26.6006C12.2104 26.6006 13.0259 27.4095 13.0259 28.4092ZM27.1921 28.4092C27.1921 29.4088 26.3766 30.2177 25.3835 30.2177C24.3904 30.2177 23.5749 29.4022 23.5749 28.4092C23.5749 27.4161 24.3904 26.6006 25.3835 26.6006C26.3766 26.6006 27.1921 27.4095 27.1921 28.4092ZM26.2385 19.2939H8.60643C7.58047 19.2939 6.75181 18.4587 6.75181 17.4393V13.0658V8.17277V7.84393L28.0931 10.7837V17.4327C28.0931 18.4652 27.2578 19.2939 26.2385 19.2939Z" fill="#2958F9"/>
<path d="M8.60643 21.0696H26.2385C28.2378 21.0696 29.8688 19.4386 29.8688 17.4393V10.0208C29.8688 10.0142 29.8688 10.0011 29.8688 9.9945C29.8688 9.97477 29.8688 9.96162 29.8688 9.94189C29.8688 9.92874 29.8688 9.91558 29.8622 9.90243C29.8622 9.88928 29.8556 9.86955 29.8556 9.85639C29.8556 9.84324 29.849 9.83009 29.849 9.81693C29.8425 9.80378 29.8425 9.79063 29.8359 9.7709C29.8293 9.75774 29.8293 9.74459 29.8227 9.73144C29.8162 9.71828 29.8162 9.70513 29.8096 9.69198C29.803 9.67882 29.7964 9.66567 29.7899 9.64594C29.7833 9.63279 29.7767 9.61963 29.7701 9.61306C29.7635 9.5999 29.757 9.58675 29.7504 9.5736C29.7438 9.56044 29.7372 9.55387 29.7307 9.54071C29.7241 9.52756 29.7109 9.51441 29.7044 9.50125C29.6978 9.4881 29.6912 9.48152 29.6781 9.46837C29.6715 9.45522 29.6583 9.44864 29.6517 9.43549C29.6452 9.42233 29.632 9.41576 29.6254 9.4026C29.6189 9.38945 29.6057 9.38287 29.5991 9.3763C29.586 9.36314 29.5794 9.35657 29.5663 9.34341C29.5531 9.33684 29.5465 9.32368 29.5334 9.31711C29.5202 9.31053 29.5071 9.29738 29.4939 9.2908C29.4808 9.28422 29.4742 9.27765 29.461 9.27107C29.4479 9.26449 29.4347 9.25792 29.4216 9.24476C29.4084 9.23819 29.3953 9.23161 29.3821 9.22503C29.3689 9.21846 29.3558 9.21188 29.3426 9.2053C29.3295 9.19873 29.3163 9.19215 29.3032 9.18557C29.29 9.179 29.2769 9.179 29.2637 9.17242C29.2506 9.16584 29.2308 9.15927 29.2177 9.15927C29.2045 9.15927 29.1914 9.15269 29.1848 9.15269C29.1651 9.14611 29.1519 9.14611 29.1322 9.14611C29.1256 9.14611 29.119 9.13954 29.1059 9.13954L6.75839 6.05508V2.93774C6.75839 2.90486 6.75839 2.87198 6.75181 2.84567C6.75181 2.83909 6.75181 2.83252 6.74523 2.81936C6.74523 2.79963 6.73866 2.7799 6.73866 2.76017C6.73208 2.74044 6.73208 2.72729 6.7255 2.70756C6.7255 2.69441 6.71893 2.68783 6.71893 2.67468C6.71235 2.65495 6.70577 2.63522 6.6992 2.61549C6.6992 2.60891 6.69262 2.59576 6.69262 2.58918C6.68604 2.56945 6.67947 2.5563 6.66631 2.53657C6.65974 2.52999 6.65974 2.51684 6.65316 2.51026C6.64658 2.49711 6.64001 2.48395 6.62685 2.4708C6.62028 2.45765 6.6137 2.45107 6.60712 2.43792C6.60055 2.42476 6.59397 2.41819 6.58739 2.40503C6.58082 2.39188 6.56766 2.37873 6.56109 2.36557C6.55451 2.359 6.54793 2.35242 6.54136 2.34584C6.5282 2.33269 6.51505 2.31954 6.5019 2.30638C6.49532 2.29981 6.48874 2.29323 6.48217 2.28665C6.46901 2.2735 6.45586 2.26035 6.43613 2.24719C6.42955 2.24062 6.4164 2.23404 6.40982 2.22746C6.39667 2.21431 6.38352 2.20773 6.37036 2.19458C6.35063 2.18143 6.3309 2.16827 6.31775 2.1617C6.31117 2.15512 6.3046 2.15512 6.29802 2.14854C6.27171 2.13539 6.23883 2.12224 6.21252 2.10908L1.36552 0.0703186C0.911732 -0.120405 0.392176 0.0900486 0.201453 0.543838C0.0107294 0.997628 0.221183 1.51718 0.674972 1.70791L4.97611 3.52307V7.54798V8.18592V13.079V17.4524V22.9768C4.97611 24.8183 6.35721 26.3441 8.13948 26.5743C7.81723 27.1136 7.6265 27.7449 7.6265 28.4157C7.6265 30.3953 9.23779 32 11.2108 32C13.1838 32 14.7951 30.3887 14.7951 28.4157C14.7951 27.7581 14.6175 27.1333 14.3018 26.6072H22.2859C21.9702 27.1399 21.7926 27.7581 21.7926 28.4157C21.7926 30.3953 23.4039 32 25.3769 32C27.3499 32 28.9612 30.3887 28.9612 28.4157C28.9612 26.4427 27.3499 24.8315 25.3769 24.8315H8.60643C7.58047 24.8315 6.75181 23.9962 6.75181 22.9768V20.5698C7.2911 20.8855 7.92903 21.0696 8.60643 21.0696ZM13.0259 28.4092C13.0259 29.4088 12.2104 30.2177 11.2174 30.2177C10.2243 30.2177 9.40878 29.4022 9.40878 28.4092C9.40878 27.4161 10.2243 26.6006 11.2174 26.6006C12.2104 26.6006 13.0259 27.4095 13.0259 28.4092ZM27.1921 28.4092C27.1921 29.4088 26.3766 30.2177 25.3835 30.2177C24.3904 30.2177 23.5749 29.4022 23.5749 28.4092C23.5749 27.4161 24.3904 26.6006 25.3835 26.6006C26.3766 26.6006 27.1921 27.4095 27.1921 28.4092ZM26.2385 19.2939H8.60643C7.58047 19.2939 6.75181 18.4587 6.75181 17.4393V13.0658V8.17277V7.84393L28.0931 10.7837V17.4327C28.0931 18.4652 27.2578 19.2939 26.2385 19.2939Z" fill="url(#paint0_linear)"/>
<defs>
<linearGradient id="paint0_linear" x1="21.869" y1="0.980031" x2="7.83466" y2="25.3733" gradientUnits="userSpaceOnUse">
<stop offset="1" stop-color="#1B2232"/>
</linearGradient>
</defs>
</svg>
