<svg width="40" height="40" viewBox="0 0 40 40" fill="none" xmlns="http://www.w3.org/2000/svg">
<path d="M33.9142 10.1708C33.7774 10.3005 33.6747 10.4623 33.6153 10.6419C33.5559 10.8214 33.5417 11.013 33.5739 11.1994L34.141 14.5137L31.192 12.9137C31.0195 12.8134 30.8239 12.7606 30.6248 12.7606C30.4257 12.7606 30.2301 12.8134 30.0577 12.9137L27.2221 14.5137L27.7892 11.0851C27.7892 10.7423 27.7892 10.3994 27.4489 10.1708L25.067 7.88511L28.3563 7.31368C28.6966 7.31368 29.0369 6.97083 29.1503 6.74225L30.6248 3.65654L32.0994 6.85654C32.3262 7.08511 32.6665 7.42797 33.0068 7.42797L36.2961 7.88511L33.9142 10.1708ZM39.8123 6.74225C39.7704 6.51536 39.6613 6.30658 39.4993 6.14338C39.3373 5.98019 39.1301 5.87023 38.9049 5.82797L33.9142 5.14225L31.6457 0.570825C31.3054 -0.229175 30.0577 -0.229175 29.604 0.570825L27.3355 5.14225L22.4582 5.82797C22.2457 5.85129 22.0442 5.93461 21.8767 6.06832C21.7092 6.20203 21.5826 6.3807 21.5114 6.58373C21.4403 6.78677 21.4276 7.00593 21.4747 7.21595C21.5218 7.42597 21.6268 7.61831 21.7776 7.77083L25.4072 11.3137L24.4998 16.3423C24.47 16.5555 24.5005 16.7728 24.5879 16.9693C24.6753 17.1658 24.816 17.3334 24.9938 17.4528C25.1716 17.5723 25.3793 17.6387 25.5929 17.6444C25.8065 17.6501 26.0174 17.5949 26.2012 17.4851L30.7383 15.1994L35.1619 17.4851C35.3343 17.5854 35.5299 17.6382 35.729 17.6382C35.9281 17.6382 36.1237 17.5854 36.2961 17.4851C36.6364 17.2565 36.8633 16.7994 36.7498 16.3423L35.9559 11.3137L39.4721 7.88511C39.8123 7.54225 39.9258 7.08511 39.8123 6.74225ZM19.2822 37.028C15.3586 37.0336 11.5535 35.6726 8.51161 33.1754C5.46969 30.6783 3.37786 27.1986 2.5904 23.3256C1.80294 19.4526 2.36826 15.4244 4.1906 11.9232C6.01295 8.42202 8.98031 5.6631 12.5901 4.11368C11.6091 7.22828 11.4235 10.5419 12.0507 13.7479C12.6778 16.9539 14.0974 19.9487 16.178 22.4553C18.2587 24.9619 20.9332 26.8992 23.954 28.088C26.9749 29.2768 30.2446 29.6787 33.4605 29.2565C31.9337 31.6545 29.8378 33.6313 27.3623 35.0081C24.8868 36.385 22.1098 37.1185 19.2822 37.1423V37.028ZM35.3887 26.5137C32.2701 27.3319 28.9851 27.2408 25.9158 26.2512C22.8466 25.2615 20.1194 23.4139 18.0517 20.9234C15.9839 18.433 14.6607 15.402 14.236 12.1833C13.8113 8.96462 14.3026 5.69059 15.6526 2.74225C15.7215 2.54612 15.736 2.33475 15.6944 2.13094C15.6529 1.92713 15.5569 1.73862 15.4168 1.58574C15.2768 1.43285 15.0979 1.32139 14.8996 1.26338C14.7013 1.20537 14.4911 1.203 14.2915 1.25654C11.1583 2.10019 8.28683 3.72651 5.9429 5.98499C3.59897 8.24348 1.85828 11.0612 0.881891 14.1773C-0.0944946 17.2935 -0.27503 20.6075 0.356992 23.8126C0.989013 27.0177 2.41317 30.0105 4.49769 32.5139C6.5822 35.0173 9.25973 36.9505 12.2825 38.1346C15.3053 39.3187 18.5756 39.7155 21.791 39.2882C25.0063 38.8609 28.0628 37.6234 30.6775 35.6901C33.2922 33.7569 35.3808 31.1903 36.7498 28.228C36.8499 28.0268 36.8888 27.8002 36.8616 27.5769C36.8344 27.3535 36.7423 27.1431 36.5969 26.9723C36.4516 26.8014 36.2594 26.6776 36.0444 26.6163C35.8295 26.5551 35.6014 26.5591 35.3887 26.628V26.5137Z" fill="url(#paint0_linear)"/>
<defs>
<linearGradient id="paint0_linear" x1="8.72308" y1="19.7129" x2="42.8921" y2="19.7129" gradientUnits="userSpaceOnUse">
<stop stop-color="#DBC266"/>
<stop offset="0.463542" stop-color="#AE8930"/>
<stop offset="0.827015" stop-color="#CFA43D"/>
<stop offset="0.906096" stop-color="#F5E38B"/>
</linearGradient>
</defs>
</svg>
