<svg width="28" height="40" viewBox="0 0 28 40" fill="none" xmlns="http://www.w3.org/2000/svg">
<mask id="mask0" mask-type="alpha" maskUnits="userSpaceOnUse" x="0" y="0" width="28" height="40">
<g clip-path="url(#clip0)">
<path d="M20.35 28C20.0583 28 19.7785 28.1171 19.5722 28.3254C19.3659 28.5338 19.25 28.8164 19.25 29.1111V36.8889L14.19 34.8889C14.0512 34.8277 13.9014 34.7961 13.75 34.7961C13.5986 34.7961 13.4488 34.8277 13.31 34.8889L8.25 36.8889V29.1111C8.25 28.8164 8.13411 28.5338 7.92782 28.3254C7.72153 28.1171 7.44174 28 7.15 28C6.85827 28 6.57848 28.1171 6.37219 28.3254C6.1659 28.5338 6.05 28.8164 6.05 29.1111V38.5556C6.03376 38.7477 6.06732 38.9409 6.14739 39.116C6.22746 39.2911 6.35127 39.4421 6.50665 39.5542C6.66204 39.6663 6.84364 39.7357 7.03359 39.7554C7.22354 39.7751 7.4153 39.7445 7.59 39.6667L13.75 37.1111L19.91 39.5555C20.0772 39.6531 20.2669 39.7044 20.46 39.7044C20.6531 39.7044 20.8428 39.6531 21.01 39.5555C21.23 39.2222 21.45 38.8889 21.45 38.4444V29.1111C21.45 28.5556 21.01 28 20.35 28ZM13.75 20.2222C12.0871 20.2222 10.4923 19.555 9.31644 18.3672C8.14059 17.1795 7.48 15.5686 7.48 13.8889C7.48 12.2092 8.14059 10.5983 9.31644 9.41055C10.4923 8.22281 12.0871 7.55556 13.75 7.55556C15.4129 7.55556 17.0077 8.22281 18.1836 9.41055C19.3594 10.5983 20.02 12.2092 20.02 13.8889C20.02 15.5686 19.3594 17.1795 18.1836 18.3672C17.0077 19.555 15.4129 20.2222 13.75 20.2222ZM13.75 5.33333C11.5036 5.33333 9.34924 6.23472 7.76081 7.8392C6.17238 9.44368 5.28 11.6198 5.28 13.8889C5.28 16.158 6.17238 18.3341 7.76081 19.9386C9.34924 21.5431 11.5036 22.4444 13.75 22.4444C15.9964 22.4444 18.1508 21.5431 19.7392 19.9386C21.3276 18.3341 22.22 16.158 22.22 13.8889C22.22 11.6198 21.3276 9.44368 19.7392 7.8392C18.1508 6.23472 15.9964 5.33333 13.75 5.33333ZM23.87 14.4444L24.97 16.1111L23.32 17.2222C23.1493 17.3457 23.0172 17.5159 22.9393 17.7128C22.8613 17.9097 22.8407 18.125 22.88 18.3333L23.21 20.2222L21.34 20.6667C21.1216 20.7077 20.9207 20.8147 20.7636 20.9733C20.6065 21.132 20.5007 21.335 20.46 21.5556L20.02 23.4444L18.15 23.1111C17.9438 23.0714 17.7306 23.0922 17.5357 23.171C17.3408 23.2497 17.1723 23.3832 17.05 23.5556L15.95 25.1111L14.3 24.1111C14.1328 24.0136 13.9431 23.9622 13.75 23.9622C13.5569 23.9622 13.3672 24.0136 13.2 24.1111L11.55 25.2222L10.45 23.5556C10.3278 23.3832 10.1592 23.2497 9.9643 23.171C9.76938 23.0922 9.55623 23.0714 9.35 23.1111L7.48 23.4444L7.04 21.5556C6.99933 21.335 6.89349 21.132 6.73642 20.9733C6.57934 20.8147 6.37839 20.7077 6.16 20.6667L4.4 20.2222L4.73 18.3333C4.73 17.8889 4.73 17.4444 4.29 17.2222L2.75 16.1111L3.74 14.4444C3.83655 14.2755 3.88738 14.0839 3.88738 13.8889C3.88738 13.6938 3.83655 13.5022 3.74 13.3333L2.64 11.6667L4.29 10.5556C4.62 10.3333 4.84 9.88889 4.73 9.44444L4.4 7.55556L6.27 7.11111C6.71 7 7.04 6.66667 7.15 6.22222L7.48 4.44444L9.35 4.77778C9.79 4.77778 10.23 4.77778 10.45 4.33333L11.55 2.77778L13.2 3.77778C13.53 4 13.97 4 14.3 3.77778L15.95 2.66667L17.05 4.33333C17.27 4.66667 17.71 4.88889 18.15 4.77778L20.02 4.44444L20.46 6.33333C20.57 6.77778 20.9 7.11111 21.34 7.22222L23.21 7.66667L22.88 9.55556C22.88 10 22.88 10.4444 23.32 10.6667L24.86 11.7778L23.87 13.4444C23.7735 13.6134 23.7226 13.805 23.7226 14C23.7226 14.195 23.7735 14.3866 23.87 14.5556V14.4444ZM26.07 13.8889L27.28 12C27.61 11.4444 27.5 10.7778 27.06 10.4444L25.19 9.11111L25.52 6.88889C25.63 6.22222 25.3 5.77778 24.75 5.55556L22.55 5.11111L22 2.88889C21.9739 2.74158 21.9185 2.60113 21.8373 2.47596C21.7561 2.35078 21.6507 2.24347 21.5274 2.16046C21.4042 2.07744 21.2656 2.02044 21.1199 1.99287C20.9743 1.96529 20.8247 1.96772 20.68 2L18.48 2.33333L17.16 0.444444C17.0733 0.327714 16.9647 0.22937 16.8404 0.155028C16.7161 0.0806866 16.5786 0.0318025 16.4356 0.0111673C16.2926 -0.00946798 16.1469 -0.00145027 16.007 0.0347626C15.8671 0.0709755 15.7356 0.134674 15.62 0.222222L13.75 1.33333L11.88 0.222222C11.7644 0.134674 11.6329 0.0709755 11.493 0.0347626C11.3531 -0.00145027 11.2074 -0.00946798 11.0644 0.0111673C10.9214 0.0318025 10.7839 0.0806866 10.6596 0.155028C10.5353 0.22937 10.4267 0.327714 10.34 0.444444L9.02 2.33333L6.82 2C6.54309 1.9316 6.2507 1.97447 6.00447 2.11956C5.75823 2.26465 5.57737 2.50063 5.5 2.77778L5.06 5L2.86 5.55556C2.71417 5.58196 2.57512 5.63786 2.4512 5.71988C2.32728 5.80191 2.22104 5.90838 2.13886 6.0329C2.05667 6.15742 2.00024 6.29742 1.97294 6.44452C1.94565 6.59161 1.94805 6.74276 1.98 6.88889L2.31 9.11111L0.440004 10.4444C0.206614 10.6213 0.0523181 10.8845 0.0110601 11.1762C-0.030198 11.4679 0.0449616 11.7643 0.220004 12L1.32 13.8889L0.220004 15.7778C0.0449616 16.0135 -0.030198 16.3099 0.0110601 16.6016C0.0523181 16.8933 0.206614 17.1565 0.440004 17.3333L2.31 18.6667L1.98 20.8889C1.87 21.5556 2.2 22 2.75 22.2222L4.95 22.6667L5.5 24.8889C5.61 25.5556 6.16 26 6.82 25.7778L9.02 25.4444L10.34 27.3333C10.67 27.7778 11.33 27.8889 11.88 27.5556L13.75 26.4444L15.62 27.5556L16.28 27.7778C16.61 27.7778 16.94 27.6667 17.16 27.3333L18.48 25.4444L20.68 25.7778C21.34 25.8889 21.78 25.5556 22 25L22.44 22.7778L24.64 22.2222C25.3 22.1111 25.74 21.5556 25.52 20.8889L25.19 18.6667L27.06 17.3333C27.5 17 27.61 16.3333 27.28 15.7778L26.18 13.8889H26.07Z" fill="url(#paint0_linear)"/>
</g>
</mask>
<g mask="url(#mask0)">
<rect x="3.87695" y="-17.9927" width="64.8064" height="61" rx="10" transform="rotate(32.5428 3.87695 -17.9927)" fill="url(#paint1_linear)"/>
</g>
<defs>
<linearGradient id="paint0_linear" x1="6.01963" y1="19.8806" x2="29.5648" y2="19.8806" gradientUnits="userSpaceOnUse">
<stop stop-color="#DBC266"/>
<stop offset="0.463542" stop-color="#AE8930"/>
<stop offset="0.827015" stop-color="#CFA43D"/>
<stop offset="0.906096" stop-color="#F5E38B"/>
</linearGradient>
<linearGradient id="paint1_linear" x1="18.0773" y1="12.5073" x2="73.6206" y2="12.5073" gradientUnits="userSpaceOnUse">
<stop stop-color="#DBC266"/>
<stop offset="0.463542" stop-color="#AE8930"/>
<stop offset="0.827015" stop-color="#CFA43D"/>
<stop offset="0.906096" stop-color="#F5E38B"/>
</linearGradient>
<clipPath id="clip0">
<rect width="27.5" height="40" fill="white"/>
</clipPath>
</defs>
</svg>
