<svg width="16" height="16" viewBox="0 0 16 16" fill="none" xmlns="http://www.w3.org/2000/svg">
<path d="M7.10417 1.2575C7.471 0.514237 8.53087 0.51426 8.89766 1.25754L10.5492 4.60419C10.6948 4.89934 10.9764 5.10392 11.3021 5.15126L14.9956 5.6881C15.8158 5.80731 16.1433 6.8153 15.5498 7.39381L12.8772 9.99871C12.6415 10.2284 12.5339 10.5595 12.5896 10.8839L13.2205 14.5625C13.3606 15.3794 12.5032 16.0024 11.7695 15.6167L8.4663 13.88C8.17498 13.7269 7.82694 13.7269 7.53562 13.88L4.23203 15.6168C3.4984 16.0024 2.64099 15.3795 2.78109 14.5626L3.41201 10.8839C3.46764 10.5595 3.36008 10.2284 3.12438 9.99871L0.451811 7.39381C-0.141732 6.8153 0.185742 5.80731 1.00596 5.6881L4.69954 5.15126C5.02523 5.10392 5.30678 4.89935 5.45244 4.60423L7.10417 1.2575Z" fill="#F2C94C"/>
</svg>
