<svg width="1920" height="3" viewBox="0 0 1920 3" fill="none" xmlns="http://www.w3.org/2000/svg">
<rect width="1923" height="3" fill="url(#paint0_linear)"/>
<mask id="mask0" mask-type="alpha" maskUnits="userSpaceOnUse" x="0" y="0" width="1920" height="3">
<rect width="1920" height="3" fill="url(#paint1_linear)"/>
</mask>
<g mask="url(#mask0)">
<rect width="293.734" height="4.31256" transform="matrix(0.718705 -0.669589 0.669725 0.71889 49.4463 89.0444)" fill="#2958F9"/>
<rect width="293.734" height="4.31256" transform="matrix(0.718705 -0.669589 0.669725 0.71889 49.4463 89.0444)" fill="url(#paint2_linear)"/>
<rect width="293.734" height="4.31256" transform="matrix(0.718705 -0.669589 0.669725 0.71889 -9.07764 26.2261)" fill="#2958F9"/>
<rect width="293.734" height="4.31256" transform="matrix(0.718705 -0.669589 0.669725 0.71889 -9.07764 26.2261)" fill="url(#paint3_linear)"/>
<rect width="293.734" height="4.31256" transform="matrix(0.718704 -0.669589 0.669725 0.71889 107.97 151.863)" fill="#2958F9"/>
<rect width="293.734" height="4.31256" transform="matrix(0.718704 -0.669589 0.669725 0.71889 107.97 151.863)" fill="url(#paint4_linear)"/>
<rect width="293.734" height="4.31256" transform="matrix(0.718705 -0.669589 0.669725 0.71889 55.2986 95.3267)" fill="#2958F9"/>
<rect width="293.734" height="4.31256" transform="matrix(0.718705 -0.669589 0.669725 0.71889 55.2986 95.3267)" fill="url(#paint5_linear)"/>
<rect width="293.734" height="4.31256" transform="matrix(0.718705 -0.669589 0.669725 0.71889 -3.22528 32.5078)" fill="#2958F9"/>
<rect width="293.734" height="4.31256" transform="matrix(0.718705 -0.669589 0.669725 0.71889 -3.22528 32.5078)" fill="url(#paint6_linear)"/>
<rect width="293.734" height="4.31256" transform="matrix(0.718705 -0.669588 0.669725 0.71889 113.823 158.145)" fill="#2958F9"/>
<rect width="293.734" height="4.31256" transform="matrix(0.718705 -0.669588 0.669725 0.71889 113.823 158.145)" fill="url(#paint7_linear)"/>
<rect width="293.734" height="4.31256" transform="matrix(0.718705 -0.669589 0.669725 0.71889 61.1511 101.608)" fill="#2958F9"/>
<rect width="293.734" height="4.31256" transform="matrix(0.718705 -0.669589 0.669725 0.71889 61.1511 101.608)" fill="url(#paint8_linear)"/>
<rect width="293.734" height="4.31256" transform="matrix(0.718705 -0.669589 0.669725 0.71889 2.62714 38.79)" fill="#2958F9"/>
<rect width="293.734" height="4.31256" transform="matrix(0.718705 -0.669589 0.669725 0.71889 2.62714 38.79)" fill="url(#paint9_linear)"/>
<rect width="293.734" height="4.31256" transform="matrix(0.718705 -0.669588 0.669725 0.71889 119.675 164.427)" fill="#2958F9"/>
<rect width="293.734" height="4.31256" transform="matrix(0.718705 -0.669588 0.669725 0.71889 119.675 164.427)" fill="url(#paint10_linear)"/>
<rect width="293.734" height="4.31256" transform="matrix(0.718705 -0.669589 0.669725 0.71889 67.0034 107.89)" fill="#2958F9"/>
<rect width="293.734" height="4.31256" transform="matrix(0.718705 -0.669589 0.669725 0.71889 67.0034 107.89)" fill="url(#paint11_linear)"/>
<rect width="293.734" height="4.31256" transform="matrix(0.718705 -0.669589 0.669725 0.71889 8.47949 45.0718)" fill="#2958F9"/>
<rect width="293.734" height="4.31256" transform="matrix(0.718705 -0.669589 0.669725 0.71889 8.47949 45.0718)" fill="url(#paint12_linear)"/>
<rect width="293.734" height="4.31256" transform="matrix(0.718705 -0.669589 0.669725 0.71889 125.527 170.708)" fill="#2958F9"/>
<rect width="293.734" height="4.31256" transform="matrix(0.718705 -0.669589 0.669725 0.71889 125.527 170.708)" fill="url(#paint13_linear)"/>
<rect width="293.734" height="4.31256" transform="matrix(0.718705 -0.669589 0.669725 0.71889 72.8558 114.172)" fill="#2958F9"/>
<rect width="293.734" height="4.31256" transform="matrix(0.718705 -0.669589 0.669725 0.71889 72.8558 114.172)" fill="url(#paint14_linear)"/>
<rect width="293.734" height="4.31256" transform="matrix(0.718705 -0.669589 0.669725 0.71889 14.3319 51.3535)" fill="#2958F9"/>
<rect width="293.734" height="4.31256" transform="matrix(0.718705 -0.669589 0.669725 0.71889 14.3319 51.3535)" fill="url(#paint15_linear)"/>
<rect width="293.734" height="4.31256" transform="matrix(0.718705 -0.669589 0.669725 0.71889 131.38 176.991)" fill="#2958F9"/>
<rect width="293.734" height="4.31256" transform="matrix(0.718705 -0.669589 0.669725 0.71889 131.38 176.991)" fill="url(#paint16_linear)"/>
<rect width="293.734" height="4.31256" transform="matrix(0.718705 -0.669589 0.669725 0.71889 78.7082 120.454)" fill="#2958F9"/>
<rect width="293.734" height="4.31256" transform="matrix(0.718705 -0.669589 0.669725 0.71889 78.7082 120.454)" fill="url(#paint17_linear)"/>
<rect width="293.734" height="4.31256" transform="matrix(0.718705 -0.669589 0.669725 0.71889 20.1843 57.6353)" fill="#2958F9"/>
<rect width="293.734" height="4.31256" transform="matrix(0.718705 -0.669589 0.669725 0.71889 20.1843 57.6353)" fill="url(#paint18_linear)"/>
<rect width="293.734" height="4.31256" transform="matrix(0.718705 -0.669588 0.669725 0.71889 137.232 183.272)" fill="#2958F9"/>
<rect width="293.734" height="4.31256" transform="matrix(0.718705 -0.669588 0.669725 0.71889 137.232 183.272)" fill="url(#paint19_linear)"/>
<rect width="293.734" height="4.31256" transform="matrix(0.718705 -0.669589 0.669725 0.71889 -32.4872 1.09863)" fill="#2958F9"/>
<rect width="293.734" height="4.31256" transform="matrix(0.718705 -0.669589 0.669725 0.71889 -32.4872 1.09863)" fill="url(#paint20_linear)"/>
<rect width="293.734" height="4.31256" transform="matrix(0.718705 -0.669589 0.669725 0.71889 84.5606 126.736)" fill="#2958F9"/>
<rect width="293.734" height="4.31256" transform="matrix(0.718705 -0.669589 0.669725 0.71889 84.5606 126.736)" fill="url(#paint21_linear)"/>
<rect width="293.734" height="4.31256" transform="matrix(0.718705 -0.669589 0.669725 0.71889 26.0367 63.9175)" fill="#2958F9"/>
<rect width="293.734" height="4.31256" transform="matrix(0.718705 -0.669589 0.669725 0.71889 26.0367 63.9175)" fill="url(#paint22_linear)"/>
<rect width="293.734" height="4.31256" transform="matrix(0.718705 -0.669589 0.669725 0.71889 143.085 189.554)" fill="#2958F9"/>
<rect width="293.734" height="4.31256" transform="matrix(0.718705 -0.669589 0.669725 0.71889 143.085 189.554)" fill="url(#paint23_linear)"/>
<rect width="293.734" height="4.31256" transform="matrix(0.718705 -0.669589 0.669725 0.71889 -26.6348 7.38086)" fill="#2958F9"/>
<rect width="293.734" height="4.31256" transform="matrix(0.718705 -0.669589 0.669725 0.71889 -26.6348 7.38086)" fill="url(#paint24_linear)"/>
<rect width="293.734" height="4.31256" transform="matrix(0.718705 -0.669589 0.669725 0.71889 90.413 133.018)" fill="#2958F9"/>
<rect width="293.734" height="4.31256" transform="matrix(0.718705 -0.669589 0.669725 0.71889 90.413 133.018)" fill="url(#paint25_linear)"/>
<rect width="293.734" height="4.31256" transform="matrix(0.718705 -0.669589 0.669725 0.71889 31.8891 70.1992)" fill="#2958F9"/>
<rect width="293.734" height="4.31256" transform="matrix(0.718705 -0.669589 0.669725 0.71889 31.8891 70.1992)" fill="url(#paint26_linear)"/>
<rect width="293.734" height="4.31256" transform="matrix(0.718705 -0.669589 0.669725 0.71889 148.937 195.836)" fill="#2958F9"/>
<rect width="293.734" height="4.31256" transform="matrix(0.718705 -0.669589 0.669725 0.71889 148.937 195.836)" fill="url(#paint27_linear)"/>
<rect width="293.734" height="4.31256" transform="matrix(0.718705 -0.669589 0.669725 0.71889 -20.7824 13.6626)" fill="#2958F9"/>
<rect width="293.734" height="4.31256" transform="matrix(0.718705 -0.669589 0.669725 0.71889 -20.7824 13.6626)" fill="url(#paint28_linear)"/>
<rect width="293.734" height="4.31256" transform="matrix(0.718705 -0.669589 0.669725 0.71889 96.2654 139.299)" fill="#2958F9"/>
<rect width="293.734" height="4.31256" transform="matrix(0.718705 -0.669589 0.669725 0.71889 96.2654 139.299)" fill="url(#paint29_linear)"/>
<rect width="293.734" height="4.31256" transform="matrix(0.718705 -0.669589 0.669725 0.71889 37.7415 76.481)" fill="#2958F9"/>
<rect width="293.734" height="4.31256" transform="matrix(0.718705 -0.669589 0.669725 0.71889 37.7415 76.481)" fill="url(#paint30_linear)"/>
<rect width="293.734" height="4.31256" transform="matrix(0.718705 -0.669589 0.669725 0.71889 -14.9301 19.9443)" fill="#2958F9"/>
<rect width="293.734" height="4.31256" transform="matrix(0.718705 -0.669589 0.669725 0.71889 -14.9301 19.9443)" fill="url(#paint31_linear)"/>
<rect width="293.734" height="4.31256" transform="matrix(0.718705 -0.669589 0.669725 0.71889 102.118 145.581)" fill="#2958F9"/>
<rect width="293.734" height="4.31256" transform="matrix(0.718705 -0.669589 0.669725 0.71889 102.118 145.581)" fill="url(#paint32_linear)"/>
<rect width="293.734" height="4.31256" transform="matrix(0.718705 -0.669589 0.669725 0.71889 43.5939 82.7627)" fill="#2958F9"/>
<rect width="293.734" height="4.31256" transform="matrix(0.718705 -0.669589 0.669725 0.71889 43.5939 82.7627)" fill="url(#paint33_linear)"/>
<rect width="293.734" height="4.31256" transform="matrix(0.718705 -0.669589 0.669725 0.71889 748.048 117.333)" fill="#2958F9"/>
<rect width="293.734" height="4.31256" transform="matrix(0.718705 -0.669589 0.669725 0.71889 748.048 117.333)" fill="url(#paint34_linear)"/>
<rect width="293.734" height="4.31256" transform="matrix(0.718705 -0.669589 0.669725 0.71889 689.524 54.5142)" fill="#2958F9"/>
<rect width="293.734" height="4.31256" transform="matrix(0.718705 -0.669589 0.669725 0.71889 689.524 54.5142)" fill="url(#paint35_linear)"/>
<rect width="293.734" height="4.31256" transform="matrix(0.718704 -0.669589 0.669725 0.71889 806.572 180.151)" fill="#2958F9"/>
<rect width="293.734" height="4.31256" transform="matrix(0.718704 -0.669589 0.669725 0.71889 806.572 180.151)" fill="url(#paint36_linear)"/>
<rect width="293.734" height="4.31256" transform="matrix(0.718705 -0.669589 0.669725 0.71889 636.852 -2.02246)" fill="#2958F9"/>
<rect width="293.734" height="4.31256" transform="matrix(0.718705 -0.669589 0.669725 0.71889 636.852 -2.02246)" fill="url(#paint37_linear)"/>
<rect width="293.734" height="4.31256" transform="matrix(0.718705 -0.669589 0.669725 0.71889 753.9 123.615)" fill="#2958F9"/>
<rect width="293.734" height="4.31256" transform="matrix(0.718705 -0.669589 0.669725 0.71889 753.9 123.615)" fill="url(#paint38_linear)"/>
<rect width="293.734" height="4.31256" transform="matrix(0.718705 -0.669589 0.669725 0.71889 695.376 60.7959)" fill="#2958F9"/>
<rect width="293.734" height="4.31256" transform="matrix(0.718705 -0.669589 0.669725 0.71889 695.376 60.7959)" fill="url(#paint39_linear)"/>
<rect width="293.734" height="4.31256" transform="matrix(0.718705 -0.669588 0.669725 0.71889 812.424 186.433)" fill="#2958F9"/>
<rect width="293.734" height="4.31256" transform="matrix(0.718705 -0.669588 0.669725 0.71889 812.424 186.433)" fill="url(#paint40_linear)"/>
<rect width="293.734" height="4.31256" transform="matrix(0.718705 -0.669589 0.669725 0.71889 642.705 4.25928)" fill="#2958F9"/>
<rect width="293.734" height="4.31256" transform="matrix(0.718705 -0.669589 0.669725 0.71889 642.705 4.25928)" fill="url(#paint41_linear)"/>
<rect width="293.734" height="4.31256" transform="matrix(0.718705 -0.669589 0.669725 0.71889 759.753 129.896)" fill="#2958F9"/>
<rect width="293.734" height="4.31256" transform="matrix(0.718705 -0.669589 0.669725 0.71889 759.753 129.896)" fill="url(#paint42_linear)"/>
<rect width="293.734" height="4.31256" transform="matrix(0.718705 -0.669589 0.669725 0.71889 701.229 67.0781)" fill="#2958F9"/>
<rect width="293.734" height="4.31256" transform="matrix(0.718705 -0.669589 0.669725 0.71889 701.229 67.0781)" fill="url(#paint43_linear)"/>
<rect width="293.734" height="4.31256" transform="matrix(0.718705 -0.669588 0.669725 0.71889 818.277 192.715)" fill="#2958F9"/>
<rect width="293.734" height="4.31256" transform="matrix(0.718705 -0.669588 0.669725 0.71889 818.277 192.715)" fill="url(#paint44_linear)"/>
<rect width="293.734" height="4.31256" transform="matrix(0.718705 -0.669589 0.669725 0.71889 648.557 10.5415)" fill="#2958F9"/>
<rect width="293.734" height="4.31256" transform="matrix(0.718705 -0.669589 0.669725 0.71889 648.557 10.5415)" fill="url(#paint45_linear)"/>
<rect width="293.734" height="4.31256" transform="matrix(0.718705 -0.669589 0.669725 0.71889 765.605 136.178)" fill="#2958F9"/>
<rect width="293.734" height="4.31256" transform="matrix(0.718705 -0.669589 0.669725 0.71889 765.605 136.178)" fill="url(#paint46_linear)"/>
<rect width="293.734" height="4.31256" transform="matrix(0.718705 -0.669589 0.669725 0.71889 707.081 73.3599)" fill="#2958F9"/>
<rect width="293.734" height="4.31256" transform="matrix(0.718705 -0.669589 0.669725 0.71889 707.081 73.3599)" fill="url(#paint47_linear)"/>
<rect width="293.734" height="4.31256" transform="matrix(0.718705 -0.669589 0.669725 0.71889 824.129 198.997)" fill="#2958F9"/>
<rect width="293.734" height="4.31256" transform="matrix(0.718705 -0.669589 0.669725 0.71889 824.129 198.997)" fill="url(#paint48_linear)"/>
<rect width="293.734" height="4.31256" transform="matrix(0.718705 -0.669589 0.669725 0.71889 654.41 16.8232)" fill="#2958F9"/>
<rect width="293.734" height="4.31256" transform="matrix(0.718705 -0.669589 0.669725 0.71889 654.41 16.8232)" fill="url(#paint49_linear)"/>
<rect width="293.734" height="4.31256" transform="matrix(0.718705 -0.669589 0.669725 0.71889 771.457 142.46)" fill="#2958F9"/>
<rect width="293.734" height="4.31256" transform="matrix(0.718705 -0.669589 0.669725 0.71889 771.457 142.46)" fill="url(#paint50_linear)"/>
<rect width="293.734" height="4.31256" transform="matrix(0.718705 -0.669589 0.669725 0.71889 712.933 79.6416)" fill="#2958F9"/>
<rect width="293.734" height="4.31256" transform="matrix(0.718705 -0.669589 0.669725 0.71889 712.933 79.6416)" fill="url(#paint51_linear)"/>
<rect width="293.734" height="4.31256" transform="matrix(0.718705 -0.669589 0.669725 0.71889 660.262 23.105)" fill="#2958F9"/>
<rect width="293.734" height="4.31256" transform="matrix(0.718705 -0.669589 0.669725 0.71889 660.262 23.105)" fill="url(#paint52_linear)"/>
<rect width="293.734" height="4.31256" transform="matrix(0.718705 -0.669589 0.669725 0.71889 777.31 148.742)" fill="#2958F9"/>
<rect width="293.734" height="4.31256" transform="matrix(0.718705 -0.669589 0.669725 0.71889 777.31 148.742)" fill="url(#paint53_linear)"/>
<rect width="293.734" height="4.31256" transform="matrix(0.718705 -0.669589 0.669725 0.71889 718.786 85.9233)" fill="#2958F9"/>
<rect width="293.734" height="4.31256" transform="matrix(0.718705 -0.669589 0.669725 0.71889 718.786 85.9233)" fill="url(#paint54_linear)"/>
<rect width="293.734" height="4.31256" transform="matrix(0.718705 -0.669589 0.669725 0.71889 666.114 29.3867)" fill="#2958F9"/>
<rect width="293.734" height="4.31256" transform="matrix(0.718705 -0.669589 0.669725 0.71889 666.114 29.3867)" fill="url(#paint55_linear)"/>
<rect width="293.734" height="4.31256" transform="matrix(0.718705 -0.669589 0.669725 0.71889 783.162 155.024)" fill="#2958F9"/>
<rect width="293.734" height="4.31256" transform="matrix(0.718705 -0.669589 0.669725 0.71889 783.162 155.024)" fill="url(#paint56_linear)"/>
<rect width="293.734" height="4.31256" transform="matrix(0.718705 -0.669589 0.669725 0.71889 724.638 92.2056)" fill="#2958F9"/>
<rect width="293.734" height="4.31256" transform="matrix(0.718705 -0.669589 0.669725 0.71889 724.638 92.2056)" fill="url(#paint57_linear)"/>
<rect width="293.734" height="4.31256" transform="matrix(0.718705 -0.669589 0.669725 0.71889 671.967 35.6689)" fill="#2958F9"/>
<rect width="293.734" height="4.31256" transform="matrix(0.718705 -0.669589 0.669725 0.71889 671.967 35.6689)" fill="url(#paint58_linear)"/>
<rect width="293.734" height="4.31256" transform="matrix(0.718705 -0.669589 0.669725 0.71889 789.015 161.306)" fill="#2958F9"/>
<rect width="293.734" height="4.31256" transform="matrix(0.718705 -0.669589 0.669725 0.71889 789.015 161.306)" fill="url(#paint59_linear)"/>
<rect width="293.734" height="4.31256" transform="matrix(0.718705 -0.669589 0.669725 0.71889 730.491 98.4873)" fill="#2958F9"/>
<rect width="293.734" height="4.31256" transform="matrix(0.718705 -0.669589 0.669725 0.71889 730.491 98.4873)" fill="url(#paint60_linear)"/>
<rect width="293.734" height="4.31256" transform="matrix(0.718705 -0.669589 0.669725 0.71889 677.819 41.9507)" fill="#2958F9"/>
<rect width="293.734" height="4.31256" transform="matrix(0.718705 -0.669589 0.669725 0.71889 677.819 41.9507)" fill="url(#paint61_linear)"/>
<rect width="293.734" height="4.31256" transform="matrix(0.718705 -0.669589 0.669725 0.71889 794.867 167.587)" fill="#2958F9"/>
<rect width="293.734" height="4.31256" transform="matrix(0.718705 -0.669589 0.669725 0.71889 794.867 167.587)" fill="url(#paint62_linear)"/>
<rect width="293.734" height="4.31256" transform="matrix(0.718705 -0.669589 0.669725 0.71889 736.343 104.769)" fill="#2958F9"/>
<rect width="293.734" height="4.31256" transform="matrix(0.718705 -0.669589 0.669725 0.71889 736.343 104.769)" fill="url(#paint63_linear)"/>
<rect width="293.734" height="4.31256" transform="matrix(0.718705 -0.669589 0.669725 0.71889 683.672 48.2324)" fill="#2958F9"/>
<rect width="293.734" height="4.31256" transform="matrix(0.718705 -0.669589 0.669725 0.71889 683.672 48.2324)" fill="url(#paint64_linear)"/>
<rect width="293.734" height="4.31256" transform="matrix(0.718705 -0.669589 0.669725 0.71889 800.719 173.869)" fill="#2958F9"/>
<rect width="293.734" height="4.31256" transform="matrix(0.718705 -0.669589 0.669725 0.71889 800.719 173.869)" fill="url(#paint65_linear)"/>
<rect width="293.734" height="4.31256" transform="matrix(0.718705 -0.669589 0.669725 0.71889 742.195 111.051)" fill="#2958F9"/>
<rect width="293.734" height="4.31256" transform="matrix(0.718705 -0.669589 0.669725 0.71889 742.195 111.051)" fill="url(#paint66_linear)"/>
<rect width="293.734" height="4.31256" transform="matrix(0.718705 -0.669589 0.669725 0.71889 1231 18.6958)" fill="#2958F9"/>
<rect width="293.734" height="4.31256" transform="matrix(0.718705 -0.669589 0.669725 0.71889 1231 18.6958)" fill="url(#paint67_linear)"/>
<rect width="293.734" height="4.31256" transform="matrix(0.718705 -0.669589 0.669725 0.71889 1348.05 144.333)" fill="#2958F9"/>
<rect width="293.734" height="4.31256" transform="matrix(0.718705 -0.669589 0.669725 0.71889 1348.05 144.333)" fill="url(#paint68_linear)"/>
<rect width="293.734" height="4.31256" transform="matrix(0.718705 -0.669589 0.669725 0.71889 1289.52 81.5142)" fill="#2958F9"/>
<rect width="293.734" height="4.31256" transform="matrix(0.718705 -0.669589 0.669725 0.71889 1289.52 81.5142)" fill="url(#paint69_linear)"/>
<rect width="293.734" height="4.31256" transform="matrix(0.718705 -0.669589 0.669725 0.71889 1236.85 24.9775)" fill="#2958F9"/>
<rect width="293.734" height="4.31256" transform="matrix(0.718705 -0.669589 0.669725 0.71889 1236.85 24.9775)" fill="url(#paint70_linear)"/>
<rect width="293.734" height="4.31256" transform="matrix(0.718705 -0.669589 0.669725 0.71889 1353.9 150.615)" fill="#2958F9"/>
<rect width="293.734" height="4.31256" transform="matrix(0.718705 -0.669589 0.669725 0.71889 1353.9 150.615)" fill="url(#paint71_linear)"/>
<rect width="293.734" height="4.31256" transform="matrix(0.718705 -0.669589 0.669725 0.71889 1295.38 87.7959)" fill="#2958F9"/>
<rect width="293.734" height="4.31256" transform="matrix(0.718705 -0.669589 0.669725 0.71889 1295.38 87.7959)" fill="url(#paint72_linear)"/>
<rect width="293.734" height="4.31256" transform="matrix(0.718705 -0.669589 0.669725 0.71889 1242.7 31.2593)" fill="#2958F9"/>
<rect width="293.734" height="4.31256" transform="matrix(0.718705 -0.669589 0.669725 0.71889 1242.7 31.2593)" fill="url(#paint73_linear)"/>
<rect width="293.734" height="4.31256" transform="matrix(0.718705 -0.669589 0.669725 0.71889 1359.75 156.896)" fill="#2958F9"/>
<rect width="293.734" height="4.31256" transform="matrix(0.718705 -0.669589 0.669725 0.71889 1359.75 156.896)" fill="url(#paint74_linear)"/>
<rect width="293.734" height="4.31256" transform="matrix(0.718705 -0.669589 0.669725 0.71889 1301.23 94.0781)" fill="#2958F9"/>
<rect width="293.734" height="4.31256" transform="matrix(0.718705 -0.669589 0.669725 0.71889 1301.23 94.0781)" fill="url(#paint75_linear)"/>
<rect width="293.734" height="4.31256" transform="matrix(0.718705 -0.669589 0.669725 0.71889 1248.56 37.5415)" fill="#2958F9"/>
<rect width="293.734" height="4.31256" transform="matrix(0.718705 -0.669589 0.669725 0.71889 1248.56 37.5415)" fill="url(#paint76_linear)"/>
<rect width="293.734" height="4.31256" transform="matrix(0.718705 -0.669589 0.669725 0.71889 1365.6 163.178)" fill="#2958F9"/>
<rect width="293.734" height="4.31256" transform="matrix(0.718705 -0.669589 0.669725 0.71889 1365.6 163.178)" fill="url(#paint77_linear)"/>
<rect width="293.734" height="4.31256" transform="matrix(0.718705 -0.669589 0.669725 0.71889 1307.08 100.36)" fill="#2958F9"/>
<rect width="293.734" height="4.31256" transform="matrix(0.718705 -0.669589 0.669725 0.71889 1307.08 100.36)" fill="url(#paint78_linear)"/>
<rect width="293.734" height="4.31256" transform="matrix(0.718705 -0.669589 0.669725 0.71889 1254.41 43.8232)" fill="#2958F9"/>
<rect width="293.734" height="4.31256" transform="matrix(0.718705 -0.669589 0.669725 0.71889 1254.41 43.8232)" fill="url(#paint79_linear)"/>
<rect width="293.734" height="4.31256" transform="matrix(0.718705 -0.669589 0.669725 0.71889 1371.46 169.46)" fill="#2958F9"/>
<rect width="293.734" height="4.31256" transform="matrix(0.718705 -0.669589 0.669725 0.71889 1371.46 169.46)" fill="url(#paint80_linear)"/>
<rect width="293.734" height="4.31256" transform="matrix(0.718705 -0.669589 0.669725 0.71889 1312.93 106.642)" fill="#2958F9"/>
<rect width="293.734" height="4.31256" transform="matrix(0.718705 -0.669589 0.669725 0.71889 1312.93 106.642)" fill="url(#paint81_linear)"/>
<rect width="293.734" height="4.31256" transform="matrix(0.718705 -0.669589 0.669725 0.71889 1260.26 50.105)" fill="#2958F9"/>
<rect width="293.734" height="4.31256" transform="matrix(0.718705 -0.669589 0.669725 0.71889 1260.26 50.105)" fill="url(#paint82_linear)"/>
<rect width="293.734" height="4.31256" transform="matrix(0.718705 -0.669589 0.669725 0.71889 1377.31 175.742)" fill="#2958F9"/>
<rect width="293.734" height="4.31256" transform="matrix(0.718705 -0.669589 0.669725 0.71889 1377.31 175.742)" fill="url(#paint83_linear)"/>
<rect width="293.734" height="4.31256" transform="matrix(0.718705 -0.669589 0.669725 0.71889 1318.79 112.923)" fill="#2958F9"/>
<rect width="293.734" height="4.31256" transform="matrix(0.718705 -0.669589 0.669725 0.71889 1318.79 112.923)" fill="url(#paint84_linear)"/>
<rect width="293.734" height="4.31256" transform="matrix(0.718705 -0.669589 0.669725 0.71889 1266.11 56.3867)" fill="#2958F9"/>
<rect width="293.734" height="4.31256" transform="matrix(0.718705 -0.669589 0.669725 0.71889 1266.11 56.3867)" fill="url(#paint85_linear)"/>
<rect width="293.734" height="4.31256" transform="matrix(0.718705 -0.669589 0.669725 0.71889 1383.16 182.024)" fill="#2958F9"/>
<rect width="293.734" height="4.31256" transform="matrix(0.718705 -0.669589 0.669725 0.71889 1383.16 182.024)" fill="url(#paint86_linear)"/>
<rect width="293.734" height="4.31256" transform="matrix(0.718705 -0.669589 0.669725 0.71889 1324.64 119.206)" fill="#2958F9"/>
<rect width="293.734" height="4.31256" transform="matrix(0.718705 -0.669589 0.669725 0.71889 1324.64 119.206)" fill="url(#paint87_linear)"/>
<rect width="293.734" height="4.31256" transform="matrix(0.718705 -0.669589 0.669725 0.71889 1271.97 62.6689)" fill="#2958F9"/>
<rect width="293.734" height="4.31256" transform="matrix(0.718705 -0.669589 0.669725 0.71889 1271.97 62.6689)" fill="url(#paint88_linear)"/>
<rect width="293.734" height="4.31256" transform="matrix(0.718705 -0.669589 0.669725 0.71889 1389.01 188.306)" fill="#2958F9"/>
<rect width="293.734" height="4.31256" transform="matrix(0.718705 -0.669589 0.669725 0.71889 1389.01 188.306)" fill="url(#paint89_linear)"/>
<rect width="293.734" height="4.31256" transform="matrix(0.718705 -0.669589 0.669725 0.71889 1330.49 125.487)" fill="#2958F9"/>
<rect width="293.734" height="4.31256" transform="matrix(0.718705 -0.669589 0.669725 0.71889 1330.49 125.487)" fill="url(#paint90_linear)"/>
<rect width="293.734" height="4.31256" transform="matrix(0.718705 -0.669589 0.669725 0.71889 1277.82 68.9507)" fill="#2958F9"/>
<rect width="293.734" height="4.31256" transform="matrix(0.718705 -0.669589 0.669725 0.71889 1277.82 68.9507)" fill="url(#paint91_linear)"/>
<rect width="293.734" height="4.31256" transform="matrix(0.718705 -0.669589 0.669725 0.71889 1394.87 194.587)" fill="#2958F9"/>
<rect width="293.734" height="4.31256" transform="matrix(0.718705 -0.669589 0.669725 0.71889 1394.87 194.587)" fill="url(#paint92_linear)"/>
<rect width="293.734" height="4.31256" transform="matrix(0.718705 -0.669589 0.669725 0.71889 1336.34 131.769)" fill="#2958F9"/>
<rect width="293.734" height="4.31256" transform="matrix(0.718705 -0.669589 0.669725 0.71889 1336.34 131.769)" fill="url(#paint93_linear)"/>
<rect width="293.734" height="4.31256" transform="matrix(0.718705 -0.669589 0.669725 0.71889 1283.67 75.2324)" fill="#2958F9"/>
<rect width="293.734" height="4.31256" transform="matrix(0.718705 -0.669589 0.669725 0.71889 1283.67 75.2324)" fill="url(#paint94_linear)"/>
<rect width="293.734" height="4.31256" transform="matrix(0.718705 -0.669589 0.669725 0.71889 1342.2 138.051)" fill="#2958F9"/>
<rect width="293.734" height="4.31256" transform="matrix(0.718705 -0.669589 0.669725 0.71889 1342.2 138.051)" fill="url(#paint95_linear)"/>
<rect width="293.734" height="4.31256" transform="matrix(0.718705 -0.669589 0.669725 0.71889 440.048 100.333)" fill="#2958F9"/>
<rect width="293.734" height="4.31256" transform="matrix(0.718705 -0.669589 0.669725 0.71889 440.048 100.333)" fill="url(#paint96_linear)"/>
<rect width="293.734" height="4.31256" transform="matrix(0.718705 -0.669589 0.669725 0.71889 381.524 37.5142)" fill="#2958F9"/>
<rect width="293.734" height="4.31256" transform="matrix(0.718705 -0.669589 0.669725 0.71889 381.524 37.5142)" fill="url(#paint97_linear)"/>
<rect width="293.734" height="4.31256" transform="matrix(0.718704 -0.669589 0.669725 0.71889 498.572 163.151)" fill="#2958F9"/>
<rect width="293.734" height="4.31256" transform="matrix(0.718704 -0.669589 0.669725 0.71889 498.572 163.151)" fill="url(#paint98_linear)"/>
<rect width="293.734" height="4.31256" transform="matrix(0.718705 -0.669589 0.669725 0.71889 445.9 106.615)" fill="#2958F9"/>
<rect width="293.734" height="4.31256" transform="matrix(0.718705 -0.669589 0.669725 0.71889 445.9 106.615)" fill="url(#paint99_linear)"/>
<rect width="293.734" height="4.31256" transform="matrix(0.718705 -0.669589 0.669725 0.71889 387.376 43.7959)" fill="#2958F9"/>
<rect width="293.734" height="4.31256" transform="matrix(0.718705 -0.669589 0.669725 0.71889 387.376 43.7959)" fill="url(#paint100_linear)"/>
<rect width="293.734" height="4.31256" transform="matrix(0.718705 -0.669588 0.669725 0.71889 504.424 169.433)" fill="#2958F9"/>
<rect width="293.734" height="4.31256" transform="matrix(0.718705 -0.669588 0.669725 0.71889 504.424 169.433)" fill="url(#paint101_linear)"/>
<rect width="293.734" height="4.31256" transform="matrix(0.718705 -0.669589 0.669725 0.71889 451.753 112.896)" fill="#2958F9"/>
<rect width="293.734" height="4.31256" transform="matrix(0.718705 -0.669589 0.669725 0.71889 451.753 112.896)" fill="url(#paint102_linear)"/>
<rect width="293.734" height="4.31256" transform="matrix(0.718705 -0.669589 0.669725 0.71889 393.229 50.0781)" fill="#2958F9"/>
<rect width="293.734" height="4.31256" transform="matrix(0.718705 -0.669589 0.669725 0.71889 393.229 50.0781)" fill="url(#paint103_linear)"/>
<rect width="293.734" height="4.31256" transform="matrix(0.718705 -0.669588 0.669725 0.71889 510.277 175.715)" fill="#2958F9"/>
<rect width="293.734" height="4.31256" transform="matrix(0.718705 -0.669588 0.669725 0.71889 510.277 175.715)" fill="url(#paint104_linear)"/>
<rect width="293.734" height="4.31256" transform="matrix(0.718705 -0.669589 0.669725 0.71889 457.605 119.178)" fill="#2958F9"/>
<rect width="293.734" height="4.31256" transform="matrix(0.718705 -0.669589 0.669725 0.71889 457.605 119.178)" fill="url(#paint105_linear)"/>
<rect width="293.734" height="4.31256" transform="matrix(0.718705 -0.669589 0.669725 0.71889 399.081 56.3599)" fill="#2958F9"/>
<rect width="293.734" height="4.31256" transform="matrix(0.718705 -0.669589 0.669725 0.71889 399.081 56.3599)" fill="url(#paint106_linear)"/>
<rect width="293.734" height="4.31256" transform="matrix(0.718705 -0.669589 0.669725 0.71889 516.129 181.997)" fill="#2958F9"/>
<rect width="293.734" height="4.31256" transform="matrix(0.718705 -0.669589 0.669725 0.71889 516.129 181.997)" fill="url(#paint107_linear)"/>
<rect width="293.734" height="4.31256" transform="matrix(0.718705 -0.669589 0.669725 0.71889 346.41 -0.176758)" fill="#2958F9"/>
<rect width="293.734" height="4.31256" transform="matrix(0.718705 -0.669589 0.669725 0.71889 346.41 -0.176758)" fill="url(#paint108_linear)"/>
<rect width="293.734" height="4.31256" transform="matrix(0.718705 -0.669589 0.669725 0.71889 463.457 125.46)" fill="#2958F9"/>
<rect width="293.734" height="4.31256" transform="matrix(0.718705 -0.669589 0.669725 0.71889 463.457 125.46)" fill="url(#paint109_linear)"/>
<rect width="293.734" height="4.31256" transform="matrix(0.718705 -0.669589 0.669725 0.71889 404.933 62.6416)" fill="#2958F9"/>
<rect width="293.734" height="4.31256" transform="matrix(0.718705 -0.669589 0.669725 0.71889 404.933 62.6416)" fill="url(#paint110_linear)"/>
<rect width="293.734" height="4.31256" transform="matrix(0.718705 -0.669589 0.669725 0.71889 521.981 188.279)" fill="#2958F9"/>
<rect width="293.734" height="4.31256" transform="matrix(0.718705 -0.669589 0.669725 0.71889 521.981 188.279)" fill="url(#paint111_linear)"/>
<rect width="293.734" height="4.31256" transform="matrix(0.718705 -0.669589 0.669725 0.71889 352.262 6.10498)" fill="#2958F9"/>
<rect width="293.734" height="4.31256" transform="matrix(0.718705 -0.669589 0.669725 0.71889 352.262 6.10498)" fill="url(#paint112_linear)"/>
<rect width="293.734" height="4.31256" transform="matrix(0.718705 -0.669589 0.669725 0.71889 469.31 131.742)" fill="#2958F9"/>
<rect width="293.734" height="4.31256" transform="matrix(0.718705 -0.669589 0.669725 0.71889 469.31 131.742)" fill="url(#paint113_linear)"/>
<rect width="293.734" height="4.31256" transform="matrix(0.718705 -0.669589 0.669725 0.71889 410.786 68.9233)" fill="#2958F9"/>
<rect width="293.734" height="4.31256" transform="matrix(0.718705 -0.669589 0.669725 0.71889 410.786 68.9233)" fill="url(#paint114_linear)"/>
<rect width="293.734" height="4.31256" transform="matrix(0.718705 -0.669588 0.669725 0.71889 527.834 194.561)" fill="#2958F9"/>
<rect width="293.734" height="4.31256" transform="matrix(0.718705 -0.669588 0.669725 0.71889 527.834 194.561)" fill="url(#paint115_linear)"/>
<rect width="293.734" height="4.31256" transform="matrix(0.718705 -0.669589 0.669725 0.71889 358.114 12.3867)" fill="#2958F9"/>
<rect width="293.734" height="4.31256" transform="matrix(0.718705 -0.669589 0.669725 0.71889 358.114 12.3867)" fill="url(#paint116_linear)"/>
<rect width="293.734" height="4.31256" transform="matrix(0.718705 -0.669589 0.669725 0.71889 475.162 138.024)" fill="#2958F9"/>
<rect width="293.734" height="4.31256" transform="matrix(0.718705 -0.669589 0.669725 0.71889 475.162 138.024)" fill="url(#paint117_linear)"/>
<rect width="293.734" height="4.31256" transform="matrix(0.718705 -0.669589 0.669725 0.71889 416.638 75.2056)" fill="#2958F9"/>
<rect width="293.734" height="4.31256" transform="matrix(0.718705 -0.669589 0.669725 0.71889 416.638 75.2056)" fill="url(#paint118_linear)"/>
<rect width="293.734" height="4.31256" transform="matrix(0.718705 -0.669589 0.669725 0.71889 363.967 18.6689)" fill="#2958F9"/>
<rect width="293.734" height="4.31256" transform="matrix(0.718705 -0.669589 0.669725 0.71889 363.967 18.6689)" fill="url(#paint119_linear)"/>
<rect width="293.734" height="4.31256" transform="matrix(0.718705 -0.669589 0.669725 0.71889 481.015 144.306)" fill="#2958F9"/>
<rect width="293.734" height="4.31256" transform="matrix(0.718705 -0.669589 0.669725 0.71889 481.015 144.306)" fill="url(#paint120_linear)"/>
<rect width="293.734" height="4.31256" transform="matrix(0.718705 -0.669589 0.669725 0.71889 422.491 81.4873)" fill="#2958F9"/>
<rect width="293.734" height="4.31256" transform="matrix(0.718705 -0.669589 0.669725 0.71889 422.491 81.4873)" fill="url(#paint121_linear)"/>
<rect width="293.734" height="4.31256" transform="matrix(0.718705 -0.669589 0.669725 0.71889 369.819 24.9507)" fill="#2958F9"/>
<rect width="293.734" height="4.31256" transform="matrix(0.718705 -0.669589 0.669725 0.71889 369.819 24.9507)" fill="url(#paint122_linear)"/>
<rect width="293.734" height="4.31256" transform="matrix(0.718705 -0.669589 0.669725 0.71889 486.867 150.587)" fill="#2958F9"/>
<rect width="293.734" height="4.31256" transform="matrix(0.718705 -0.669589 0.669725 0.71889 486.867 150.587)" fill="url(#paint123_linear)"/>
<rect width="293.734" height="4.31256" transform="matrix(0.718705 -0.669589 0.669725 0.71889 428.343 87.769)" fill="#2958F9"/>
<rect width="293.734" height="4.31256" transform="matrix(0.718705 -0.669589 0.669725 0.71889 428.343 87.769)" fill="url(#paint124_linear)"/>
<rect width="293.734" height="4.31256" transform="matrix(0.718705 -0.669589 0.669725 0.71889 375.672 31.2324)" fill="#2958F9"/>
<rect width="293.734" height="4.31256" transform="matrix(0.718705 -0.669589 0.669725 0.71889 375.672 31.2324)" fill="url(#paint125_linear)"/>
<rect width="293.734" height="4.31256" transform="matrix(0.718705 -0.669589 0.669725 0.71889 492.719 156.869)" fill="#2958F9"/>
<rect width="293.734" height="4.31256" transform="matrix(0.718705 -0.669589 0.669725 0.71889 492.719 156.869)" fill="url(#paint126_linear)"/>
<rect width="293.734" height="4.31256" transform="matrix(0.718705 -0.669589 0.669725 0.71889 434.195 94.0508)" fill="#2958F9"/>
<rect width="293.734" height="4.31256" transform="matrix(0.718705 -0.669589 0.669725 0.71889 434.195 94.0508)" fill="url(#paint127_linear)"/>
<rect width="293.734" height="4.31256" transform="matrix(0.718705 -0.669589 0.669725 0.71889 1021.6 2.98389)" fill="#2958F9"/>
<rect width="293.734" height="4.31256" transform="matrix(0.718705 -0.669589 0.669725 0.71889 1021.6 2.98389)" fill="url(#paint128_linear)"/>
<rect width="293.734" height="4.31256" transform="matrix(0.718705 -0.669589 0.669725 0.71889 1138.65 128.621)" fill="#2958F9"/>
<rect width="293.734" height="4.31256" transform="matrix(0.718705 -0.669589 0.669725 0.71889 1138.65 128.621)" fill="url(#paint129_linear)"/>
<rect width="293.734" height="4.31256" transform="matrix(0.718705 -0.669589 0.669725 0.71889 1080.13 65.8022)" fill="#2958F9"/>
<rect width="293.734" height="4.31256" transform="matrix(0.718705 -0.669589 0.669725 0.71889 1080.13 65.8022)" fill="url(#paint130_linear)"/>
<rect width="293.734" height="4.31256" transform="matrix(0.718704 -0.669589 0.669725 0.71889 1197.17 191.439)" fill="#2958F9"/>
<rect width="293.734" height="4.31256" transform="matrix(0.718704 -0.669589 0.669725 0.71889 1197.17 191.439)" fill="url(#paint131_linear)"/>
<rect width="293.734" height="4.31256" transform="matrix(0.718705 -0.669589 0.669725 0.71889 1027.45 9.26562)" fill="#2958F9"/>
<rect width="293.734" height="4.31256" transform="matrix(0.718705 -0.669589 0.669725 0.71889 1027.45 9.26562)" fill="url(#paint132_linear)"/>
<rect width="293.734" height="4.31256" transform="matrix(0.718705 -0.669589 0.669725 0.71889 1144.5 134.903)" fill="#2958F9"/>
<rect width="293.734" height="4.31256" transform="matrix(0.718705 -0.669589 0.669725 0.71889 1144.5 134.903)" fill="url(#paint133_linear)"/>
<rect width="293.734" height="4.31256" transform="matrix(0.718705 -0.669589 0.669725 0.71889 1085.98 72.084)" fill="#2958F9"/>
<rect width="293.734" height="4.31256" transform="matrix(0.718705 -0.669589 0.669725 0.71889 1085.98 72.084)" fill="url(#paint134_linear)"/>
<rect width="293.734" height="4.31256" transform="matrix(0.718705 -0.669588 0.669725 0.71889 1203.03 197.721)" fill="#2958F9"/>
<rect width="293.734" height="4.31256" transform="matrix(0.718705 -0.669588 0.669725 0.71889 1203.03 197.721)" fill="url(#paint135_linear)"/>
<rect width="293.734" height="4.31256" transform="matrix(0.718705 -0.669589 0.669725 0.71889 1033.31 15.5474)" fill="#2958F9"/>
<rect width="293.734" height="4.31256" transform="matrix(0.718705 -0.669589 0.669725 0.71889 1033.31 15.5474)" fill="url(#paint136_linear)"/>
<rect width="293.734" height="4.31256" transform="matrix(0.718705 -0.669589 0.669725 0.71889 1150.35 141.185)" fill="#2958F9"/>
<rect width="293.734" height="4.31256" transform="matrix(0.718705 -0.669589 0.669725 0.71889 1150.35 141.185)" fill="url(#paint137_linear)"/>
<rect width="293.734" height="4.31256" transform="matrix(0.718705 -0.669589 0.669725 0.71889 1091.83 78.3662)" fill="#2958F9"/>
<rect width="293.734" height="4.31256" transform="matrix(0.718705 -0.669589 0.669725 0.71889 1091.83 78.3662)" fill="url(#paint138_linear)"/>
<rect width="293.734" height="4.31256" transform="matrix(0.718705 -0.669589 0.669725 0.71889 1039.16 21.8296)" fill="#2958F9"/>
<rect width="293.734" height="4.31256" transform="matrix(0.718705 -0.669589 0.669725 0.71889 1039.16 21.8296)" fill="url(#paint139_linear)"/>
<rect width="293.734" height="4.31256" transform="matrix(0.718705 -0.669589 0.669725 0.71889 1156.21 147.466)" fill="#2958F9"/>
<rect width="293.734" height="4.31256" transform="matrix(0.718705 -0.669589 0.669725 0.71889 1156.21 147.466)" fill="url(#paint140_linear)"/>
<rect width="293.734" height="4.31256" transform="matrix(0.718705 -0.669589 0.669725 0.71889 1097.68 84.6479)" fill="#2958F9"/>
<rect width="293.734" height="4.31256" transform="matrix(0.718705 -0.669589 0.669725 0.71889 1097.68 84.6479)" fill="url(#paint141_linear)"/>
<rect width="293.734" height="4.31256" transform="matrix(0.718705 -0.669589 0.669725 0.71889 1045.01 28.1113)" fill="#2958F9"/>
<rect width="293.734" height="4.31256" transform="matrix(0.718705 -0.669589 0.669725 0.71889 1045.01 28.1113)" fill="url(#paint142_linear)"/>
<rect width="293.734" height="4.31256" transform="matrix(0.718705 -0.669589 0.669725 0.71889 1162.06 153.748)" fill="#2958F9"/>
<rect width="293.734" height="4.31256" transform="matrix(0.718705 -0.669589 0.669725 0.71889 1162.06 153.748)" fill="url(#paint143_linear)"/>
<rect width="293.734" height="4.31256" transform="matrix(0.718705 -0.669589 0.669725 0.71889 1103.54 90.9297)" fill="#2958F9"/>
<rect width="293.734" height="4.31256" transform="matrix(0.718705 -0.669589 0.669725 0.71889 1103.54 90.9297)" fill="url(#paint144_linear)"/>
<rect width="293.734" height="4.31256" transform="matrix(0.718705 -0.669589 0.669725 0.71889 1050.86 34.3931)" fill="#2958F9"/>
<rect width="293.734" height="4.31256" transform="matrix(0.718705 -0.669589 0.669725 0.71889 1050.86 34.3931)" fill="url(#paint145_linear)"/>
<rect width="293.734" height="4.31256" transform="matrix(0.718705 -0.669589 0.669725 0.71889 1167.91 160.03)" fill="#2958F9"/>
<rect width="293.734" height="4.31256" transform="matrix(0.718705 -0.669589 0.669725 0.71889 1167.91 160.03)" fill="url(#paint146_linear)"/>
<rect width="293.734" height="4.31256" transform="matrix(0.718705 -0.669589 0.669725 0.71889 1109.39 97.2114)" fill="#2958F9"/>
<rect width="293.734" height="4.31256" transform="matrix(0.718705 -0.669589 0.669725 0.71889 1109.39 97.2114)" fill="url(#paint147_linear)"/>
<rect width="293.734" height="4.31256" transform="matrix(0.718705 -0.669589 0.669725 0.71889 1056.72 40.6748)" fill="#2958F9"/>
<rect width="293.734" height="4.31256" transform="matrix(0.718705 -0.669589 0.669725 0.71889 1056.72 40.6748)" fill="url(#paint148_linear)"/>
<rect width="293.734" height="4.31256" transform="matrix(0.718705 -0.669589 0.669725 0.71889 1173.76 166.312)" fill="#2958F9"/>
<rect width="293.734" height="4.31256" transform="matrix(0.718705 -0.669589 0.669725 0.71889 1173.76 166.312)" fill="url(#paint149_linear)"/>
<rect width="293.734" height="4.31256" transform="matrix(0.718705 -0.669589 0.669725 0.71889 1115.24 103.494)" fill="#2958F9"/>
<rect width="293.734" height="4.31256" transform="matrix(0.718705 -0.669589 0.669725 0.71889 1115.24 103.494)" fill="url(#paint150_linear)"/>
<rect width="293.734" height="4.31256" transform="matrix(0.718705 -0.669589 0.669725 0.71889 1062.57 46.957)" fill="#2958F9"/>
<rect width="293.734" height="4.31256" transform="matrix(0.718705 -0.669589 0.669725 0.71889 1062.57 46.957)" fill="url(#paint151_linear)"/>
<rect width="293.734" height="4.31256" transform="matrix(0.718705 -0.669589 0.669725 0.71889 1179.62 172.594)" fill="#2958F9"/>
<rect width="293.734" height="4.31256" transform="matrix(0.718705 -0.669589 0.669725 0.71889 1179.62 172.594)" fill="url(#paint152_linear)"/>
<rect width="293.734" height="4.31256" transform="matrix(0.718705 -0.669589 0.669725 0.71889 1121.09 109.775)" fill="#2958F9"/>
<rect width="293.734" height="4.31256" transform="matrix(0.718705 -0.669589 0.669725 0.71889 1121.09 109.775)" fill="url(#paint153_linear)"/>
<rect width="293.734" height="4.31256" transform="matrix(0.718705 -0.669589 0.669725 0.71889 1068.42 53.2388)" fill="#2958F9"/>
<rect width="293.734" height="4.31256" transform="matrix(0.718705 -0.669589 0.669725 0.71889 1068.42 53.2388)" fill="url(#paint154_linear)"/>
<rect width="293.734" height="4.31256" transform="matrix(0.718705 -0.669589 0.669725 0.71889 1185.47 178.875)" fill="#2958F9"/>
<rect width="293.734" height="4.31256" transform="matrix(0.718705 -0.669589 0.669725 0.71889 1185.47 178.875)" fill="url(#paint155_linear)"/>
<rect width="293.734" height="4.31256" transform="matrix(0.718705 -0.669589 0.669725 0.71889 1126.94 116.057)" fill="#2958F9"/>
<rect width="293.734" height="4.31256" transform="matrix(0.718705 -0.669589 0.669725 0.71889 1126.94 116.057)" fill="url(#paint156_linear)"/>
<rect width="293.734" height="4.31256" transform="matrix(0.718705 -0.669589 0.669725 0.71889 1074.27 59.5205)" fill="#2958F9"/>
<rect width="293.734" height="4.31256" transform="matrix(0.718705 -0.669589 0.669725 0.71889 1074.27 59.5205)" fill="url(#paint157_linear)"/>
<rect width="293.734" height="4.31256" transform="matrix(0.718705 -0.669589 0.669725 0.71889 1191.32 185.157)" fill="#2958F9"/>
<rect width="293.734" height="4.31256" transform="matrix(0.718705 -0.669589 0.669725 0.71889 1191.32 185.157)" fill="url(#paint158_linear)"/>
<rect width="293.734" height="4.31256" transform="matrix(0.718705 -0.669589 0.669725 0.71889 1132.8 122.339)" fill="#2958F9"/>
<rect width="293.734" height="4.31256" transform="matrix(0.718705 -0.669589 0.669725 0.71889 1132.8 122.339)" fill="url(#paint159_linear)"/>
<rect width="293.734" height="4.31256" transform="matrix(0.718705 -0.669589 0.669725 0.71889 1584.6 29.9839)" fill="#2958F9"/>
<rect width="293.734" height="4.31256" transform="matrix(0.718705 -0.669589 0.669725 0.71889 1584.6 29.9839)" fill="url(#paint160_linear)"/>
<rect width="293.734" height="4.31256" transform="matrix(0.718705 -0.669589 0.669725 0.71889 1701.65 155.621)" fill="#2958F9"/>
<rect width="293.734" height="4.31256" transform="matrix(0.718705 -0.669589 0.669725 0.71889 1701.65 155.621)" fill="url(#paint161_linear)"/>
<rect width="293.734" height="4.31256" transform="matrix(0.718705 -0.669589 0.669725 0.71889 1643.13 92.8022)" fill="#2958F9"/>
<rect width="293.734" height="4.31256" transform="matrix(0.718705 -0.669589 0.669725 0.71889 1643.13 92.8022)" fill="url(#paint162_linear)"/>
<rect width="293.734" height="4.31256" transform="matrix(0.718705 -0.669589 0.669725 0.71889 1590.45 36.2656)" fill="#2958F9"/>
<rect width="293.734" height="4.31256" transform="matrix(0.718705 -0.669589 0.669725 0.71889 1590.45 36.2656)" fill="url(#paint163_linear)"/>
<rect width="293.734" height="4.31256" transform="matrix(0.718705 -0.669589 0.669725 0.71889 1707.5 161.903)" fill="#2958F9"/>
<rect width="293.734" height="4.31256" transform="matrix(0.718705 -0.669589 0.669725 0.71889 1707.5 161.903)" fill="url(#paint164_linear)"/>
<rect width="293.734" height="4.31256" transform="matrix(0.718705 -0.669589 0.669725 0.71889 1648.98 99.084)" fill="#2958F9"/>
<rect width="293.734" height="4.31256" transform="matrix(0.718705 -0.669589 0.669725 0.71889 1648.98 99.084)" fill="url(#paint165_linear)"/>
<rect width="293.734" height="4.31256" transform="matrix(0.718705 -0.669589 0.669725 0.71889 1596.31 42.5474)" fill="#2958F9"/>
<rect width="293.734" height="4.31256" transform="matrix(0.718705 -0.669589 0.669725 0.71889 1596.31 42.5474)" fill="url(#paint166_linear)"/>
<rect width="293.734" height="4.31256" transform="matrix(0.718705 -0.669589 0.669725 0.71889 1713.35 168.185)" fill="#2958F9"/>
<rect width="293.734" height="4.31256" transform="matrix(0.718705 -0.669589 0.669725 0.71889 1713.35 168.185)" fill="url(#paint167_linear)"/>
<rect width="293.734" height="4.31256" transform="matrix(0.718705 -0.669589 0.669725 0.71889 1654.83 105.366)" fill="#2958F9"/>
<rect width="293.734" height="4.31256" transform="matrix(0.718705 -0.669589 0.669725 0.71889 1654.83 105.366)" fill="url(#paint168_linear)"/>
<rect width="293.734" height="4.31256" transform="matrix(0.718705 -0.669589 0.669725 0.71889 1602.16 48.8296)" fill="#2958F9"/>
<rect width="293.734" height="4.31256" transform="matrix(0.718705 -0.669589 0.669725 0.71889 1602.16 48.8296)" fill="url(#paint169_linear)"/>
<rect width="293.734" height="4.31256" transform="matrix(0.718705 -0.669589 0.669725 0.71889 1719.21 174.466)" fill="#2958F9"/>
<rect width="293.734" height="4.31256" transform="matrix(0.718705 -0.669589 0.669725 0.71889 1719.21 174.466)" fill="url(#paint170_linear)"/>
<rect width="293.734" height="4.31256" transform="matrix(0.718705 -0.669589 0.669725 0.71889 1660.68 111.648)" fill="#2958F9"/>
<rect width="293.734" height="4.31256" transform="matrix(0.718705 -0.669589 0.669725 0.71889 1660.68 111.648)" fill="url(#paint171_linear)"/>
<rect width="293.734" height="4.31256" transform="matrix(0.718705 -0.669589 0.669725 0.71889 1608.01 55.1113)" fill="#2958F9"/>
<rect width="293.734" height="4.31256" transform="matrix(0.718705 -0.669589 0.669725 0.71889 1608.01 55.1113)" fill="url(#paint172_linear)"/>
<rect width="293.734" height="4.31256" transform="matrix(0.718705 -0.669589 0.669725 0.71889 1725.06 180.748)" fill="#2958F9"/>
<rect width="293.734" height="4.31256" transform="matrix(0.718705 -0.669589 0.669725 0.71889 1725.06 180.748)" fill="url(#paint173_linear)"/>
<rect width="293.734" height="4.31256" transform="matrix(0.718705 -0.669589 0.669725 0.71889 1666.54 117.93)" fill="#2958F9"/>
<rect width="293.734" height="4.31256" transform="matrix(0.718705 -0.669589 0.669725 0.71889 1666.54 117.93)" fill="url(#paint174_linear)"/>
<rect width="293.734" height="4.31256" transform="matrix(0.718705 -0.669589 0.669725 0.71889 1613.86 61.3931)" fill="#2958F9"/>
<rect width="293.734" height="4.31256" transform="matrix(0.718705 -0.669589 0.669725 0.71889 1613.86 61.3931)" fill="url(#paint175_linear)"/>
<rect width="293.734" height="4.31256" transform="matrix(0.718705 -0.669589 0.669725 0.71889 1730.91 187.03)" fill="#2958F9"/>
<rect width="293.734" height="4.31256" transform="matrix(0.718705 -0.669589 0.669725 0.71889 1730.91 187.03)" fill="url(#paint176_linear)"/>
<rect width="293.734" height="4.31256" transform="matrix(0.718705 -0.669589 0.669725 0.71889 1672.39 124.211)" fill="#2958F9"/>
<rect width="293.734" height="4.31256" transform="matrix(0.718705 -0.669589 0.669725 0.71889 1672.39 124.211)" fill="url(#paint177_linear)"/>
<rect width="293.734" height="4.31256" transform="matrix(0.718705 -0.669589 0.669725 0.71889 1619.72 67.6748)" fill="#2958F9"/>
<rect width="293.734" height="4.31256" transform="matrix(0.718705 -0.669589 0.669725 0.71889 1619.72 67.6748)" fill="url(#paint178_linear)"/>
<rect width="293.734" height="4.31256" transform="matrix(0.718705 -0.669589 0.669725 0.71889 1736.76 193.312)" fill="#2958F9"/>
<rect width="293.734" height="4.31256" transform="matrix(0.718705 -0.669589 0.669725 0.71889 1736.76 193.312)" fill="url(#paint179_linear)"/>
<rect width="293.734" height="4.31256" transform="matrix(0.718705 -0.669589 0.669725 0.71889 1678.24 130.494)" fill="#2958F9"/>
<rect width="293.734" height="4.31256" transform="matrix(0.718705 -0.669589 0.669725 0.71889 1678.24 130.494)" fill="url(#paint180_linear)"/>
<rect width="293.734" height="4.31256" transform="matrix(0.718705 -0.669589 0.669725 0.71889 1625.57 73.957)" fill="#2958F9"/>
<rect width="293.734" height="4.31256" transform="matrix(0.718705 -0.669589 0.669725 0.71889 1625.57 73.957)" fill="url(#paint181_linear)"/>
<rect width="293.734" height="4.31256" transform="matrix(0.718705 -0.669589 0.669725 0.71889 1742.62 199.594)" fill="#2958F9"/>
<rect width="293.734" height="4.31256" transform="matrix(0.718705 -0.669589 0.669725 0.71889 1742.62 199.594)" fill="url(#paint182_linear)"/>
<rect width="293.734" height="4.31256" transform="matrix(0.718705 -0.669589 0.669725 0.71889 1684.09 136.775)" fill="#2958F9"/>
<rect width="293.734" height="4.31256" transform="matrix(0.718705 -0.669589 0.669725 0.71889 1684.09 136.775)" fill="url(#paint183_linear)"/>
<rect width="293.734" height="4.31256" transform="matrix(0.718705 -0.669589 0.669725 0.71889 1631.42 80.2388)" fill="#2958F9"/>
<rect width="293.734" height="4.31256" transform="matrix(0.718705 -0.669589 0.669725 0.71889 1631.42 80.2388)" fill="url(#paint184_linear)"/>
<rect width="293.734" height="4.31256" transform="matrix(0.718705 -0.669589 0.669725 0.71889 1689.94 143.057)" fill="#2958F9"/>
<rect width="293.734" height="4.31256" transform="matrix(0.718705 -0.669589 0.669725 0.71889 1689.94 143.057)" fill="url(#paint185_linear)"/>
<rect width="293.734" height="4.31256" transform="matrix(0.718705 -0.669589 0.669725 0.71889 1637.27 86.5205)" fill="#2958F9"/>
<rect width="293.734" height="4.31256" transform="matrix(0.718705 -0.669589 0.669725 0.71889 1637.27 86.5205)" fill="url(#paint186_linear)"/>
<rect width="293.734" height="4.31256" transform="matrix(0.718705 -0.669589 0.669725 0.71889 1695.8 149.339)" fill="#2958F9"/>
<rect width="293.734" height="4.31256" transform="matrix(0.718705 -0.669589 0.669725 0.71889 1695.8 149.339)" fill="url(#paint187_linear)"/>
</g>
<defs>
<linearGradient id="paint0_linear" x1="421.367" y1="1.5" x2="2069.5" y2="1.50543" gradientUnits="userSpaceOnUse">
<stop stop-color="#DBC266"/>
<stop offset="0.463542" stop-color="#AE8930"/>
<stop offset="0.827015" stop-color="#CFA43D"/>
<stop offset="0.906096" stop-color="#F5E38B"/>
</linearGradient>
<linearGradient id="paint1_linear" x1="420.71" y1="1.5" x2="2066.27" y2="1.50541" gradientUnits="userSpaceOnUse">
<stop stop-color="#DBC266"/>
<stop offset="0.463542" stop-color="#AE8930"/>
<stop offset="0.827015" stop-color="#CFA43D"/>
<stop offset="0.906096" stop-color="#F5E38B"/>
</linearGradient>
<linearGradient id="paint2_linear" x1="214.717" y1="0.132072" x2="214.682" y2="4.50741" gradientUnits="userSpaceOnUse">
<stop offset="1" stop-color="#1B2232"/>
</linearGradient>
<linearGradient id="paint3_linear" x1="214.717" y1="0.132072" x2="214.682" y2="4.50741" gradientUnits="userSpaceOnUse">
<stop offset="1" stop-color="#1B2232"/>
</linearGradient>
<linearGradient id="paint4_linear" x1="214.717" y1="0.132072" x2="214.682" y2="4.50741" gradientUnits="userSpaceOnUse">
<stop offset="1" stop-color="#1B2232"/>
</linearGradient>
<linearGradient id="paint5_linear" x1="214.717" y1="0.132072" x2="214.682" y2="4.50741" gradientUnits="userSpaceOnUse">
<stop offset="1" stop-color="#1B2232"/>
</linearGradient>
<linearGradient id="paint6_linear" x1="214.717" y1="0.132072" x2="214.682" y2="4.50741" gradientUnits="userSpaceOnUse">
<stop offset="1" stop-color="#1B2232"/>
</linearGradient>
<linearGradient id="paint7_linear" x1="214.717" y1="0.132072" x2="214.682" y2="4.50741" gradientUnits="userSpaceOnUse">
<stop offset="1" stop-color="#1B2232"/>
</linearGradient>
<linearGradient id="paint8_linear" x1="214.717" y1="0.132072" x2="214.682" y2="4.50741" gradientUnits="userSpaceOnUse">
<stop offset="1" stop-color="#1B2232"/>
</linearGradient>
<linearGradient id="paint9_linear" x1="214.717" y1="0.132072" x2="214.682" y2="4.50741" gradientUnits="userSpaceOnUse">
<stop offset="1" stop-color="#1B2232"/>
</linearGradient>
<linearGradient id="paint10_linear" x1="214.717" y1="0.132072" x2="214.682" y2="4.50741" gradientUnits="userSpaceOnUse">
<stop offset="1" stop-color="#1B2232"/>
</linearGradient>
<linearGradient id="paint11_linear" x1="214.717" y1="0.132072" x2="214.682" y2="4.50741" gradientUnits="userSpaceOnUse">
<stop offset="1" stop-color="#1B2232"/>
</linearGradient>
<linearGradient id="paint12_linear" x1="214.717" y1="0.132072" x2="214.682" y2="4.50741" gradientUnits="userSpaceOnUse">
<stop offset="1" stop-color="#1B2232"/>
</linearGradient>
<linearGradient id="paint13_linear" x1="214.717" y1="0.132072" x2="214.682" y2="4.50741" gradientUnits="userSpaceOnUse">
<stop offset="1" stop-color="#1B2232"/>
</linearGradient>
<linearGradient id="paint14_linear" x1="214.717" y1="0.132072" x2="214.682" y2="4.50741" gradientUnits="userSpaceOnUse">
<stop offset="1" stop-color="#1B2232"/>
</linearGradient>
<linearGradient id="paint15_linear" x1="214.717" y1="0.132072" x2="214.682" y2="4.50741" gradientUnits="userSpaceOnUse">
<stop offset="1" stop-color="#1B2232"/>
</linearGradient>
<linearGradient id="paint16_linear" x1="214.717" y1="0.132072" x2="214.682" y2="4.50741" gradientUnits="userSpaceOnUse">
<stop offset="1" stop-color="#1B2232"/>
</linearGradient>
<linearGradient id="paint17_linear" x1="214.717" y1="0.132072" x2="214.682" y2="4.50741" gradientUnits="userSpaceOnUse">
<stop offset="1" stop-color="#1B2232"/>
</linearGradient>
<linearGradient id="paint18_linear" x1="214.717" y1="0.132072" x2="214.682" y2="4.50741" gradientUnits="userSpaceOnUse">
<stop offset="1" stop-color="#1B2232"/>
</linearGradient>
<linearGradient id="paint19_linear" x1="214.717" y1="0.132072" x2="214.682" y2="4.50741" gradientUnits="userSpaceOnUse">
<stop offset="1" stop-color="#1B2232"/>
</linearGradient>
<linearGradient id="paint20_linear" x1="214.717" y1="0.132072" x2="214.682" y2="4.50741" gradientUnits="userSpaceOnUse">
<stop offset="1" stop-color="#1B2232"/>
</linearGradient>
<linearGradient id="paint21_linear" x1="214.717" y1="0.132072" x2="214.682" y2="4.50741" gradientUnits="userSpaceOnUse">
<stop offset="1" stop-color="#1B2232"/>
</linearGradient>
<linearGradient id="paint22_linear" x1="214.717" y1="0.132072" x2="214.682" y2="4.50741" gradientUnits="userSpaceOnUse">
<stop offset="1" stop-color="#1B2232"/>
</linearGradient>
<linearGradient id="paint23_linear" x1="214.717" y1="0.132072" x2="214.682" y2="4.50741" gradientUnits="userSpaceOnUse">
<stop offset="1" stop-color="#1B2232"/>
</linearGradient>
<linearGradient id="paint24_linear" x1="214.717" y1="0.132072" x2="214.682" y2="4.50741" gradientUnits="userSpaceOnUse">
<stop offset="1" stop-color="#1B2232"/>
</linearGradient>
<linearGradient id="paint25_linear" x1="214.717" y1="0.132072" x2="214.682" y2="4.50741" gradientUnits="userSpaceOnUse">
<stop offset="1" stop-color="#1B2232"/>
</linearGradient>
<linearGradient id="paint26_linear" x1="214.717" y1="0.132072" x2="214.682" y2="4.50741" gradientUnits="userSpaceOnUse">
<stop offset="1" stop-color="#1B2232"/>
</linearGradient>
<linearGradient id="paint27_linear" x1="214.717" y1="0.132072" x2="214.682" y2="4.50741" gradientUnits="userSpaceOnUse">
<stop offset="1" stop-color="#1B2232"/>
</linearGradient>
<linearGradient id="paint28_linear" x1="214.717" y1="0.132072" x2="214.682" y2="4.50741" gradientUnits="userSpaceOnUse">
<stop offset="1" stop-color="#1B2232"/>
</linearGradient>
<linearGradient id="paint29_linear" x1="214.717" y1="0.132072" x2="214.682" y2="4.50741" gradientUnits="userSpaceOnUse">
<stop offset="1" stop-color="#1B2232"/>
</linearGradient>
<linearGradient id="paint30_linear" x1="214.717" y1="0.132072" x2="214.682" y2="4.50741" gradientUnits="userSpaceOnUse">
<stop offset="1" stop-color="#1B2232"/>
</linearGradient>
<linearGradient id="paint31_linear" x1="214.717" y1="0.132072" x2="214.682" y2="4.50741" gradientUnits="userSpaceOnUse">
<stop offset="1" stop-color="#1B2232"/>
</linearGradient>
<linearGradient id="paint32_linear" x1="214.717" y1="0.132072" x2="214.682" y2="4.50741" gradientUnits="userSpaceOnUse">
<stop offset="1" stop-color="#1B2232"/>
</linearGradient>
<linearGradient id="paint33_linear" x1="214.717" y1="0.132072" x2="214.682" y2="4.50741" gradientUnits="userSpaceOnUse">
<stop offset="1" stop-color="#1B2232"/>
</linearGradient>
<linearGradient id="paint34_linear" x1="214.717" y1="0.132072" x2="214.682" y2="4.50741" gradientUnits="userSpaceOnUse">
<stop offset="1" stop-color="#1B2232"/>
</linearGradient>
<linearGradient id="paint35_linear" x1="214.717" y1="0.132072" x2="214.682" y2="4.50741" gradientUnits="userSpaceOnUse">
<stop offset="1" stop-color="#1B2232"/>
</linearGradient>
<linearGradient id="paint36_linear" x1="214.717" y1="0.132072" x2="214.682" y2="4.50741" gradientUnits="userSpaceOnUse">
<stop offset="1" stop-color="#1B2232"/>
</linearGradient>
<linearGradient id="paint37_linear" x1="214.717" y1="0.132072" x2="214.682" y2="4.50741" gradientUnits="userSpaceOnUse">
<stop offset="1" stop-color="#1B2232"/>
</linearGradient>
<linearGradient id="paint38_linear" x1="214.717" y1="0.132072" x2="214.682" y2="4.50741" gradientUnits="userSpaceOnUse">
<stop offset="1" stop-color="#1B2232"/>
</linearGradient>
<linearGradient id="paint39_linear" x1="214.717" y1="0.132072" x2="214.682" y2="4.50741" gradientUnits="userSpaceOnUse">
<stop offset="1" stop-color="#1B2232"/>
</linearGradient>
<linearGradient id="paint40_linear" x1="214.717" y1="0.132072" x2="214.682" y2="4.50741" gradientUnits="userSpaceOnUse">
<stop offset="1" stop-color="#1B2232"/>
</linearGradient>
<linearGradient id="paint41_linear" x1="214.717" y1="0.132072" x2="214.682" y2="4.50741" gradientUnits="userSpaceOnUse">
<stop offset="1" stop-color="#1B2232"/>
</linearGradient>
<linearGradient id="paint42_linear" x1="214.717" y1="0.132072" x2="214.682" y2="4.50741" gradientUnits="userSpaceOnUse">
<stop offset="1" stop-color="#1B2232"/>
</linearGradient>
<linearGradient id="paint43_linear" x1="214.717" y1="0.132072" x2="214.682" y2="4.50741" gradientUnits="userSpaceOnUse">
<stop offset="1" stop-color="#1B2232"/>
</linearGradient>
<linearGradient id="paint44_linear" x1="214.717" y1="0.132072" x2="214.682" y2="4.50741" gradientUnits="userSpaceOnUse">
<stop offset="1" stop-color="#1B2232"/>
</linearGradient>
<linearGradient id="paint45_linear" x1="214.717" y1="0.132072" x2="214.682" y2="4.50741" gradientUnits="userSpaceOnUse">
<stop offset="1" stop-color="#1B2232"/>
</linearGradient>
<linearGradient id="paint46_linear" x1="214.717" y1="0.132072" x2="214.682" y2="4.50741" gradientUnits="userSpaceOnUse">
<stop offset="1" stop-color="#1B2232"/>
</linearGradient>
<linearGradient id="paint47_linear" x1="214.717" y1="0.132072" x2="214.682" y2="4.50741" gradientUnits="userSpaceOnUse">
<stop offset="1" stop-color="#1B2232"/>
</linearGradient>
<linearGradient id="paint48_linear" x1="214.717" y1="0.132072" x2="214.682" y2="4.50741" gradientUnits="userSpaceOnUse">
<stop offset="1" stop-color="#1B2232"/>
</linearGradient>
<linearGradient id="paint49_linear" x1="214.717" y1="0.132072" x2="214.682" y2="4.50741" gradientUnits="userSpaceOnUse">
<stop offset="1" stop-color="#1B2232"/>
</linearGradient>
<linearGradient id="paint50_linear" x1="214.717" y1="0.132072" x2="214.682" y2="4.50741" gradientUnits="userSpaceOnUse">
<stop offset="1" stop-color="#1B2232"/>
</linearGradient>
<linearGradient id="paint51_linear" x1="214.717" y1="0.132072" x2="214.682" y2="4.50741" gradientUnits="userSpaceOnUse">
<stop offset="1" stop-color="#1B2232"/>
</linearGradient>
<linearGradient id="paint52_linear" x1="214.717" y1="0.132072" x2="214.682" y2="4.50741" gradientUnits="userSpaceOnUse">
<stop offset="1" stop-color="#1B2232"/>
</linearGradient>
<linearGradient id="paint53_linear" x1="214.717" y1="0.132072" x2="214.682" y2="4.50741" gradientUnits="userSpaceOnUse">
<stop offset="1" stop-color="#1B2232"/>
</linearGradient>
<linearGradient id="paint54_linear" x1="214.717" y1="0.132072" x2="214.682" y2="4.50741" gradientUnits="userSpaceOnUse">
<stop offset="1" stop-color="#1B2232"/>
</linearGradient>
<linearGradient id="paint55_linear" x1="214.717" y1="0.132072" x2="214.682" y2="4.50741" gradientUnits="userSpaceOnUse">
<stop offset="1" stop-color="#1B2232"/>
</linearGradient>
<linearGradient id="paint56_linear" x1="214.717" y1="0.132072" x2="214.682" y2="4.50741" gradientUnits="userSpaceOnUse">
<stop offset="1" stop-color="#1B2232"/>
</linearGradient>
<linearGradient id="paint57_linear" x1="214.717" y1="0.132072" x2="214.682" y2="4.50741" gradientUnits="userSpaceOnUse">
<stop offset="1" stop-color="#1B2232"/>
</linearGradient>
<linearGradient id="paint58_linear" x1="214.717" y1="0.132072" x2="214.682" y2="4.50741" gradientUnits="userSpaceOnUse">
<stop offset="1" stop-color="#1B2232"/>
</linearGradient>
<linearGradient id="paint59_linear" x1="214.717" y1="0.132072" x2="214.682" y2="4.50741" gradientUnits="userSpaceOnUse">
<stop offset="1" stop-color="#1B2232"/>
</linearGradient>
<linearGradient id="paint60_linear" x1="214.717" y1="0.132072" x2="214.682" y2="4.50741" gradientUnits="userSpaceOnUse">
<stop offset="1" stop-color="#1B2232"/>
</linearGradient>
<linearGradient id="paint61_linear" x1="214.717" y1="0.132072" x2="214.682" y2="4.50741" gradientUnits="userSpaceOnUse">
<stop offset="1" stop-color="#1B2232"/>
</linearGradient>
<linearGradient id="paint62_linear" x1="214.717" y1="0.132072" x2="214.682" y2="4.50741" gradientUnits="userSpaceOnUse">
<stop offset="1" stop-color="#1B2232"/>
</linearGradient>
<linearGradient id="paint63_linear" x1="214.717" y1="0.132072" x2="214.682" y2="4.50741" gradientUnits="userSpaceOnUse">
<stop offset="1" stop-color="#1B2232"/>
</linearGradient>
<linearGradient id="paint64_linear" x1="214.717" y1="0.132072" x2="214.682" y2="4.50741" gradientUnits="userSpaceOnUse">
<stop offset="1" stop-color="#1B2232"/>
</linearGradient>
<linearGradient id="paint65_linear" x1="214.717" y1="0.132072" x2="214.682" y2="4.50741" gradientUnits="userSpaceOnUse">
<stop offset="1" stop-color="#1B2232"/>
</linearGradient>
<linearGradient id="paint66_linear" x1="214.717" y1="0.132072" x2="214.682" y2="4.50741" gradientUnits="userSpaceOnUse">
<stop offset="1" stop-color="#1B2232"/>
</linearGradient>
<linearGradient id="paint67_linear" x1="214.717" y1="0.132072" x2="214.682" y2="4.50741" gradientUnits="userSpaceOnUse">
<stop offset="1" stop-color="#1B2232"/>
</linearGradient>
<linearGradient id="paint68_linear" x1="214.717" y1="0.132072" x2="214.682" y2="4.50741" gradientUnits="userSpaceOnUse">
<stop offset="1" stop-color="#1B2232"/>
</linearGradient>
<linearGradient id="paint69_linear" x1="214.717" y1="0.132072" x2="214.682" y2="4.50741" gradientUnits="userSpaceOnUse">
<stop offset="1" stop-color="#1B2232"/>
</linearGradient>
<linearGradient id="paint70_linear" x1="214.717" y1="0.132072" x2="214.682" y2="4.50741" gradientUnits="userSpaceOnUse">
<stop offset="1" stop-color="#1B2232"/>
</linearGradient>
<linearGradient id="paint71_linear" x1="214.717" y1="0.132072" x2="214.682" y2="4.50741" gradientUnits="userSpaceOnUse">
<stop offset="1" stop-color="#1B2232"/>
</linearGradient>
<linearGradient id="paint72_linear" x1="214.717" y1="0.132072" x2="214.682" y2="4.50741" gradientUnits="userSpaceOnUse">
<stop offset="1" stop-color="#1B2232"/>
</linearGradient>
<linearGradient id="paint73_linear" x1="214.717" y1="0.132072" x2="214.682" y2="4.50741" gradientUnits="userSpaceOnUse">
<stop offset="1" stop-color="#1B2232"/>
</linearGradient>
<linearGradient id="paint74_linear" x1="214.717" y1="0.132072" x2="214.682" y2="4.50741" gradientUnits="userSpaceOnUse">
<stop offset="1" stop-color="#1B2232"/>
</linearGradient>
<linearGradient id="paint75_linear" x1="214.717" y1="0.132072" x2="214.682" y2="4.50741" gradientUnits="userSpaceOnUse">
<stop offset="1" stop-color="#1B2232"/>
</linearGradient>
<linearGradient id="paint76_linear" x1="214.717" y1="0.132072" x2="214.682" y2="4.50741" gradientUnits="userSpaceOnUse">
<stop offset="1" stop-color="#1B2232"/>
</linearGradient>
<linearGradient id="paint77_linear" x1="214.717" y1="0.132072" x2="214.682" y2="4.50741" gradientUnits="userSpaceOnUse">
<stop offset="1" stop-color="#1B2232"/>
</linearGradient>
<linearGradient id="paint78_linear" x1="214.717" y1="0.132072" x2="214.682" y2="4.50741" gradientUnits="userSpaceOnUse">
<stop offset="1" stop-color="#1B2232"/>
</linearGradient>
<linearGradient id="paint79_linear" x1="214.717" y1="0.132072" x2="214.682" y2="4.50741" gradientUnits="userSpaceOnUse">
<stop offset="1" stop-color="#1B2232"/>
</linearGradient>
<linearGradient id="paint80_linear" x1="214.717" y1="0.132072" x2="214.682" y2="4.50741" gradientUnits="userSpaceOnUse">
<stop offset="1" stop-color="#1B2232"/>
</linearGradient>
<linearGradient id="paint81_linear" x1="214.717" y1="0.132072" x2="214.682" y2="4.50741" gradientUnits="userSpaceOnUse">
<stop offset="1" stop-color="#1B2232"/>
</linearGradient>
<linearGradient id="paint82_linear" x1="214.717" y1="0.132072" x2="214.682" y2="4.50741" gradientUnits="userSpaceOnUse">
<stop offset="1" stop-color="#1B2232"/>
</linearGradient>
<linearGradient id="paint83_linear" x1="214.717" y1="0.132072" x2="214.682" y2="4.50741" gradientUnits="userSpaceOnUse">
<stop offset="1" stop-color="#1B2232"/>
</linearGradient>
<linearGradient id="paint84_linear" x1="214.717" y1="0.132072" x2="214.682" y2="4.50741" gradientUnits="userSpaceOnUse">
<stop offset="1" stop-color="#1B2232"/>
</linearGradient>
<linearGradient id="paint85_linear" x1="214.717" y1="0.132072" x2="214.682" y2="4.50741" gradientUnits="userSpaceOnUse">
<stop offset="1" stop-color="#1B2232"/>
</linearGradient>
<linearGradient id="paint86_linear" x1="214.717" y1="0.132072" x2="214.682" y2="4.50741" gradientUnits="userSpaceOnUse">
<stop offset="1" stop-color="#1B2232"/>
</linearGradient>
<linearGradient id="paint87_linear" x1="214.717" y1="0.132072" x2="214.682" y2="4.50741" gradientUnits="userSpaceOnUse">
<stop offset="1" stop-color="#1B2232"/>
</linearGradient>
<linearGradient id="paint88_linear" x1="214.717" y1="0.132072" x2="214.682" y2="4.50741" gradientUnits="userSpaceOnUse">
<stop offset="1" stop-color="#1B2232"/>
</linearGradient>
<linearGradient id="paint89_linear" x1="214.717" y1="0.132072" x2="214.682" y2="4.50741" gradientUnits="userSpaceOnUse">
<stop offset="1" stop-color="#1B2232"/>
</linearGradient>
<linearGradient id="paint90_linear" x1="214.717" y1="0.132072" x2="214.682" y2="4.50741" gradientUnits="userSpaceOnUse">
<stop offset="1" stop-color="#1B2232"/>
</linearGradient>
<linearGradient id="paint91_linear" x1="214.717" y1="0.132072" x2="214.682" y2="4.50741" gradientUnits="userSpaceOnUse">
<stop offset="1" stop-color="#1B2232"/>
</linearGradient>
<linearGradient id="paint92_linear" x1="214.717" y1="0.132072" x2="214.682" y2="4.50741" gradientUnits="userSpaceOnUse">
<stop offset="1" stop-color="#1B2232"/>
</linearGradient>
<linearGradient id="paint93_linear" x1="214.717" y1="0.132072" x2="214.682" y2="4.50741" gradientUnits="userSpaceOnUse">
<stop offset="1" stop-color="#1B2232"/>
</linearGradient>
<linearGradient id="paint94_linear" x1="214.717" y1="0.132072" x2="214.682" y2="4.50741" gradientUnits="userSpaceOnUse">
<stop offset="1" stop-color="#1B2232"/>
</linearGradient>
<linearGradient id="paint95_linear" x1="214.717" y1="0.132072" x2="214.682" y2="4.50741" gradientUnits="userSpaceOnUse">
<stop offset="1" stop-color="#1B2232"/>
</linearGradient>
<linearGradient id="paint96_linear" x1="214.717" y1="0.132072" x2="214.682" y2="4.50741" gradientUnits="userSpaceOnUse">
<stop offset="1" stop-color="#1B2232"/>
</linearGradient>
<linearGradient id="paint97_linear" x1="214.717" y1="0.132072" x2="214.682" y2="4.50741" gradientUnits="userSpaceOnUse">
<stop offset="1" stop-color="#1B2232"/>
</linearGradient>
<linearGradient id="paint98_linear" x1="214.717" y1="0.132072" x2="214.682" y2="4.50741" gradientUnits="userSpaceOnUse">
<stop offset="1" stop-color="#1B2232"/>
</linearGradient>
<linearGradient id="paint99_linear" x1="214.717" y1="0.132072" x2="214.682" y2="4.50741" gradientUnits="userSpaceOnUse">
<stop offset="1" stop-color="#1B2232"/>
</linearGradient>
<linearGradient id="paint100_linear" x1="214.717" y1="0.132072" x2="214.682" y2="4.50741" gradientUnits="userSpaceOnUse">
<stop offset="1" stop-color="#1B2232"/>
</linearGradient>
<linearGradient id="paint101_linear" x1="214.717" y1="0.132072" x2="214.682" y2="4.50741" gradientUnits="userSpaceOnUse">
<stop offset="1" stop-color="#1B2232"/>
</linearGradient>
<linearGradient id="paint102_linear" x1="214.717" y1="0.132072" x2="214.682" y2="4.50741" gradientUnits="userSpaceOnUse">
<stop offset="1" stop-color="#1B2232"/>
</linearGradient>
<linearGradient id="paint103_linear" x1="214.717" y1="0.132072" x2="214.682" y2="4.50741" gradientUnits="userSpaceOnUse">
<stop offset="1" stop-color="#1B2232"/>
</linearGradient>
<linearGradient id="paint104_linear" x1="214.717" y1="0.132072" x2="214.682" y2="4.50741" gradientUnits="userSpaceOnUse">
<stop offset="1" stop-color="#1B2232"/>
</linearGradient>
<linearGradient id="paint105_linear" x1="214.717" y1="0.132072" x2="214.682" y2="4.50741" gradientUnits="userSpaceOnUse">
<stop offset="1" stop-color="#1B2232"/>
</linearGradient>
<linearGradient id="paint106_linear" x1="214.717" y1="0.132072" x2="214.682" y2="4.50741" gradientUnits="userSpaceOnUse">
<stop offset="1" stop-color="#1B2232"/>
</linearGradient>
<linearGradient id="paint107_linear" x1="214.717" y1="0.132072" x2="214.682" y2="4.50741" gradientUnits="userSpaceOnUse">
<stop offset="1" stop-color="#1B2232"/>
</linearGradient>
<linearGradient id="paint108_linear" x1="214.717" y1="0.132072" x2="214.682" y2="4.50741" gradientUnits="userSpaceOnUse">
<stop offset="1" stop-color="#1B2232"/>
</linearGradient>
<linearGradient id="paint109_linear" x1="214.717" y1="0.132072" x2="214.682" y2="4.50741" gradientUnits="userSpaceOnUse">
<stop offset="1" stop-color="#1B2232"/>
</linearGradient>
<linearGradient id="paint110_linear" x1="214.717" y1="0.132072" x2="214.682" y2="4.50741" gradientUnits="userSpaceOnUse">
<stop offset="1" stop-color="#1B2232"/>
</linearGradient>
<linearGradient id="paint111_linear" x1="214.717" y1="0.132072" x2="214.682" y2="4.50741" gradientUnits="userSpaceOnUse">
<stop offset="1" stop-color="#1B2232"/>
</linearGradient>
<linearGradient id="paint112_linear" x1="214.717" y1="0.132072" x2="214.682" y2="4.50741" gradientUnits="userSpaceOnUse">
<stop offset="1" stop-color="#1B2232"/>
</linearGradient>
<linearGradient id="paint113_linear" x1="214.717" y1="0.132072" x2="214.682" y2="4.50741" gradientUnits="userSpaceOnUse">
<stop offset="1" stop-color="#1B2232"/>
</linearGradient>
<linearGradient id="paint114_linear" x1="214.717" y1="0.132072" x2="214.682" y2="4.50741" gradientUnits="userSpaceOnUse">
<stop offset="1" stop-color="#1B2232"/>
</linearGradient>
<linearGradient id="paint115_linear" x1="214.717" y1="0.132072" x2="214.682" y2="4.50741" gradientUnits="userSpaceOnUse">
<stop offset="1" stop-color="#1B2232"/>
</linearGradient>
<linearGradient id="paint116_linear" x1="214.717" y1="0.132072" x2="214.682" y2="4.50741" gradientUnits="userSpaceOnUse">
<stop offset="1" stop-color="#1B2232"/>
</linearGradient>
<linearGradient id="paint117_linear" x1="214.717" y1="0.132072" x2="214.682" y2="4.50741" gradientUnits="userSpaceOnUse">
<stop offset="1" stop-color="#1B2232"/>
</linearGradient>
<linearGradient id="paint118_linear" x1="214.717" y1="0.132072" x2="214.682" y2="4.50741" gradientUnits="userSpaceOnUse">
<stop offset="1" stop-color="#1B2232"/>
</linearGradient>
<linearGradient id="paint119_linear" x1="214.717" y1="0.132072" x2="214.682" y2="4.50741" gradientUnits="userSpaceOnUse">
<stop offset="1" stop-color="#1B2232"/>
</linearGradient>
<linearGradient id="paint120_linear" x1="214.717" y1="0.132072" x2="214.682" y2="4.50741" gradientUnits="userSpaceOnUse">
<stop offset="1" stop-color="#1B2232"/>
</linearGradient>
<linearGradient id="paint121_linear" x1="214.717" y1="0.132072" x2="214.682" y2="4.50741" gradientUnits="userSpaceOnUse">
<stop offset="1" stop-color="#1B2232"/>
</linearGradient>
<linearGradient id="paint122_linear" x1="214.717" y1="0.132072" x2="214.682" y2="4.50741" gradientUnits="userSpaceOnUse">
<stop offset="1" stop-color="#1B2232"/>
</linearGradient>
<linearGradient id="paint123_linear" x1="214.717" y1="0.132072" x2="214.682" y2="4.50741" gradientUnits="userSpaceOnUse">
<stop offset="1" stop-color="#1B2232"/>
</linearGradient>
<linearGradient id="paint124_linear" x1="214.717" y1="0.132072" x2="214.682" y2="4.50741" gradientUnits="userSpaceOnUse">
<stop offset="1" stop-color="#1B2232"/>
</linearGradient>
<linearGradient id="paint125_linear" x1="214.717" y1="0.132072" x2="214.682" y2="4.50741" gradientUnits="userSpaceOnUse">
<stop offset="1" stop-color="#1B2232"/>
</linearGradient>
<linearGradient id="paint126_linear" x1="214.717" y1="0.132072" x2="214.682" y2="4.50741" gradientUnits="userSpaceOnUse">
<stop offset="1" stop-color="#1B2232"/>
</linearGradient>
<linearGradient id="paint127_linear" x1="214.717" y1="0.132072" x2="214.682" y2="4.50741" gradientUnits="userSpaceOnUse">
<stop offset="1" stop-color="#1B2232"/>
</linearGradient>
<linearGradient id="paint128_linear" x1="214.717" y1="0.132072" x2="214.682" y2="4.50741" gradientUnits="userSpaceOnUse">
<stop offset="1" stop-color="#1B2232"/>
</linearGradient>
<linearGradient id="paint129_linear" x1="214.717" y1="0.132072" x2="214.682" y2="4.50741" gradientUnits="userSpaceOnUse">
<stop offset="1" stop-color="#1B2232"/>
</linearGradient>
<linearGradient id="paint130_linear" x1="214.717" y1="0.132072" x2="214.682" y2="4.50741" gradientUnits="userSpaceOnUse">
<stop offset="1" stop-color="#1B2232"/>
</linearGradient>
<linearGradient id="paint131_linear" x1="214.717" y1="0.132072" x2="214.682" y2="4.50741" gradientUnits="userSpaceOnUse">
<stop offset="1" stop-color="#1B2232"/>
</linearGradient>
<linearGradient id="paint132_linear" x1="214.717" y1="0.132072" x2="214.682" y2="4.50741" gradientUnits="userSpaceOnUse">
<stop offset="1" stop-color="#1B2232"/>
</linearGradient>
<linearGradient id="paint133_linear" x1="214.717" y1="0.132072" x2="214.682" y2="4.50741" gradientUnits="userSpaceOnUse">
<stop offset="1" stop-color="#1B2232"/>
</linearGradient>
<linearGradient id="paint134_linear" x1="214.717" y1="0.132072" x2="214.682" y2="4.50741" gradientUnits="userSpaceOnUse">
<stop offset="1" stop-color="#1B2232"/>
</linearGradient>
<linearGradient id="paint135_linear" x1="214.717" y1="0.132072" x2="214.682" y2="4.50741" gradientUnits="userSpaceOnUse">
<stop offset="1" stop-color="#1B2232"/>
</linearGradient>
<linearGradient id="paint136_linear" x1="214.717" y1="0.132072" x2="214.682" y2="4.50741" gradientUnits="userSpaceOnUse">
<stop offset="1" stop-color="#1B2232"/>
</linearGradient>
<linearGradient id="paint137_linear" x1="214.717" y1="0.132072" x2="214.682" y2="4.50741" gradientUnits="userSpaceOnUse">
<stop offset="1" stop-color="#1B2232"/>
</linearGradient>
<linearGradient id="paint138_linear" x1="214.717" y1="0.132072" x2="214.682" y2="4.50741" gradientUnits="userSpaceOnUse">
<stop offset="1" stop-color="#1B2232"/>
</linearGradient>
<linearGradient id="paint139_linear" x1="214.717" y1="0.132072" x2="214.682" y2="4.50741" gradientUnits="userSpaceOnUse">
<stop offset="1" stop-color="#1B2232"/>
</linearGradient>
<linearGradient id="paint140_linear" x1="214.717" y1="0.132072" x2="214.682" y2="4.50741" gradientUnits="userSpaceOnUse">
<stop offset="1" stop-color="#1B2232"/>
</linearGradient>
<linearGradient id="paint141_linear" x1="214.717" y1="0.132072" x2="214.682" y2="4.50741" gradientUnits="userSpaceOnUse">
<stop offset="1" stop-color="#1B2232"/>
</linearGradient>
<linearGradient id="paint142_linear" x1="214.717" y1="0.132072" x2="214.682" y2="4.50741" gradientUnits="userSpaceOnUse">
<stop offset="1" stop-color="#1B2232"/>
</linearGradient>
<linearGradient id="paint143_linear" x1="214.717" y1="0.132072" x2="214.682" y2="4.50741" gradientUnits="userSpaceOnUse">
<stop offset="1" stop-color="#1B2232"/>
</linearGradient>
<linearGradient id="paint144_linear" x1="214.717" y1="0.132072" x2="214.682" y2="4.50741" gradientUnits="userSpaceOnUse">
<stop offset="1" stop-color="#1B2232"/>
</linearGradient>
<linearGradient id="paint145_linear" x1="214.717" y1="0.132072" x2="214.682" y2="4.50741" gradientUnits="userSpaceOnUse">
<stop offset="1" stop-color="#1B2232"/>
</linearGradient>
<linearGradient id="paint146_linear" x1="214.717" y1="0.132072" x2="214.682" y2="4.50741" gradientUnits="userSpaceOnUse">
<stop offset="1" stop-color="#1B2232"/>
</linearGradient>
<linearGradient id="paint147_linear" x1="214.717" y1="0.132072" x2="214.682" y2="4.50741" gradientUnits="userSpaceOnUse">
<stop offset="1" stop-color="#1B2232"/>
</linearGradient>
<linearGradient id="paint148_linear" x1="214.717" y1="0.132072" x2="214.682" y2="4.50741" gradientUnits="userSpaceOnUse">
<stop offset="1" stop-color="#1B2232"/>
</linearGradient>
<linearGradient id="paint149_linear" x1="214.717" y1="0.132072" x2="214.682" y2="4.50741" gradientUnits="userSpaceOnUse">
<stop offset="1" stop-color="#1B2232"/>
</linearGradient>
<linearGradient id="paint150_linear" x1="214.717" y1="0.132072" x2="214.682" y2="4.50741" gradientUnits="userSpaceOnUse">
<stop offset="1" stop-color="#1B2232"/>
</linearGradient>
<linearGradient id="paint151_linear" x1="214.717" y1="0.132072" x2="214.682" y2="4.50741" gradientUnits="userSpaceOnUse">
<stop offset="1" stop-color="#1B2232"/>
</linearGradient>
<linearGradient id="paint152_linear" x1="214.717" y1="0.132072" x2="214.682" y2="4.50741" gradientUnits="userSpaceOnUse">
<stop offset="1" stop-color="#1B2232"/>
</linearGradient>
<linearGradient id="paint153_linear" x1="214.717" y1="0.132072" x2="214.682" y2="4.50741" gradientUnits="userSpaceOnUse">
<stop offset="1" stop-color="#1B2232"/>
</linearGradient>
<linearGradient id="paint154_linear" x1="214.717" y1="0.132072" x2="214.682" y2="4.50741" gradientUnits="userSpaceOnUse">
<stop offset="1" stop-color="#1B2232"/>
</linearGradient>
<linearGradient id="paint155_linear" x1="214.717" y1="0.132072" x2="214.682" y2="4.50741" gradientUnits="userSpaceOnUse">
<stop offset="1" stop-color="#1B2232"/>
</linearGradient>
<linearGradient id="paint156_linear" x1="214.717" y1="0.132072" x2="214.682" y2="4.50741" gradientUnits="userSpaceOnUse">
<stop offset="1" stop-color="#1B2232"/>
</linearGradient>
<linearGradient id="paint157_linear" x1="214.717" y1="0.132072" x2="214.682" y2="4.50741" gradientUnits="userSpaceOnUse">
<stop offset="1" stop-color="#1B2232"/>
</linearGradient>
<linearGradient id="paint158_linear" x1="214.717" y1="0.132072" x2="214.682" y2="4.50741" gradientUnits="userSpaceOnUse">
<stop offset="1" stop-color="#1B2232"/>
</linearGradient>
<linearGradient id="paint159_linear" x1="214.717" y1="0.132072" x2="214.682" y2="4.50741" gradientUnits="userSpaceOnUse">
<stop offset="1" stop-color="#1B2232"/>
</linearGradient>
<linearGradient id="paint160_linear" x1="214.717" y1="0.132072" x2="214.682" y2="4.50741" gradientUnits="userSpaceOnUse">
<stop offset="1" stop-color="#1B2232"/>
</linearGradient>
<linearGradient id="paint161_linear" x1="214.717" y1="0.132072" x2="214.682" y2="4.50741" gradientUnits="userSpaceOnUse">
<stop offset="1" stop-color="#1B2232"/>
</linearGradient>
<linearGradient id="paint162_linear" x1="214.717" y1="0.132072" x2="214.682" y2="4.50741" gradientUnits="userSpaceOnUse">
<stop offset="1" stop-color="#1B2232"/>
</linearGradient>
<linearGradient id="paint163_linear" x1="214.717" y1="0.132072" x2="214.682" y2="4.50741" gradientUnits="userSpaceOnUse">
<stop offset="1" stop-color="#1B2232"/>
</linearGradient>
<linearGradient id="paint164_linear" x1="214.717" y1="0.132072" x2="214.682" y2="4.50741" gradientUnits="userSpaceOnUse">
<stop offset="1" stop-color="#1B2232"/>
</linearGradient>
<linearGradient id="paint165_linear" x1="214.717" y1="0.132072" x2="214.682" y2="4.50741" gradientUnits="userSpaceOnUse">
<stop offset="1" stop-color="#1B2232"/>
</linearGradient>
<linearGradient id="paint166_linear" x1="214.717" y1="0.132072" x2="214.682" y2="4.50741" gradientUnits="userSpaceOnUse">
<stop offset="1" stop-color="#1B2232"/>
</linearGradient>
<linearGradient id="paint167_linear" x1="214.717" y1="0.132072" x2="214.682" y2="4.50741" gradientUnits="userSpaceOnUse">
<stop offset="1" stop-color="#1B2232"/>
</linearGradient>
<linearGradient id="paint168_linear" x1="214.717" y1="0.132072" x2="214.682" y2="4.50741" gradientUnits="userSpaceOnUse">
<stop offset="1" stop-color="#1B2232"/>
</linearGradient>
<linearGradient id="paint169_linear" x1="214.717" y1="0.132072" x2="214.682" y2="4.50741" gradientUnits="userSpaceOnUse">
<stop offset="1" stop-color="#1B2232"/>
</linearGradient>
<linearGradient id="paint170_linear" x1="214.717" y1="0.132072" x2="214.682" y2="4.50741" gradientUnits="userSpaceOnUse">
<stop offset="1" stop-color="#1B2232"/>
</linearGradient>
<linearGradient id="paint171_linear" x1="214.717" y1="0.132072" x2="214.682" y2="4.50741" gradientUnits="userSpaceOnUse">
<stop offset="1" stop-color="#1B2232"/>
</linearGradient>
<linearGradient id="paint172_linear" x1="214.717" y1="0.132072" x2="214.682" y2="4.50741" gradientUnits="userSpaceOnUse">
<stop offset="1" stop-color="#1B2232"/>
</linearGradient>
<linearGradient id="paint173_linear" x1="214.717" y1="0.132072" x2="214.682" y2="4.50741" gradientUnits="userSpaceOnUse">
<stop offset="1" stop-color="#1B2232"/>
</linearGradient>
<linearGradient id="paint174_linear" x1="214.717" y1="0.132072" x2="214.682" y2="4.50741" gradientUnits="userSpaceOnUse">
<stop offset="1" stop-color="#1B2232"/>
</linearGradient>
<linearGradient id="paint175_linear" x1="214.717" y1="0.132072" x2="214.682" y2="4.50741" gradientUnits="userSpaceOnUse">
<stop offset="1" stop-color="#1B2232"/>
</linearGradient>
<linearGradient id="paint176_linear" x1="214.717" y1="0.132072" x2="214.682" y2="4.50741" gradientUnits="userSpaceOnUse">
<stop offset="1" stop-color="#1B2232"/>
</linearGradient>
<linearGradient id="paint177_linear" x1="214.717" y1="0.132072" x2="214.682" y2="4.50741" gradientUnits="userSpaceOnUse">
<stop offset="1" stop-color="#1B2232"/>
</linearGradient>
<linearGradient id="paint178_linear" x1="214.717" y1="0.132072" x2="214.682" y2="4.50741" gradientUnits="userSpaceOnUse">
<stop offset="1" stop-color="#1B2232"/>
</linearGradient>
<linearGradient id="paint179_linear" x1="214.717" y1="0.132072" x2="214.682" y2="4.50741" gradientUnits="userSpaceOnUse">
<stop offset="1" stop-color="#1B2232"/>
</linearGradient>
<linearGradient id="paint180_linear" x1="214.717" y1="0.132072" x2="214.682" y2="4.50741" gradientUnits="userSpaceOnUse">
<stop offset="1" stop-color="#1B2232"/>
</linearGradient>
<linearGradient id="paint181_linear" x1="214.717" y1="0.132072" x2="214.682" y2="4.50741" gradientUnits="userSpaceOnUse">
<stop offset="1" stop-color="#1B2232"/>
</linearGradient>
<linearGradient id="paint182_linear" x1="214.717" y1="0.132072" x2="214.682" y2="4.50741" gradientUnits="userSpaceOnUse">
<stop offset="1" stop-color="#1B2232"/>
</linearGradient>
<linearGradient id="paint183_linear" x1="214.717" y1="0.132072" x2="214.682" y2="4.50741" gradientUnits="userSpaceOnUse">
<stop offset="1" stop-color="#1B2232"/>
</linearGradient>
<linearGradient id="paint184_linear" x1="214.717" y1="0.132072" x2="214.682" y2="4.50741" gradientUnits="userSpaceOnUse">
<stop offset="1" stop-color="#1B2232"/>
</linearGradient>
<linearGradient id="paint185_linear" x1="214.717" y1="0.132072" x2="214.682" y2="4.50741" gradientUnits="userSpaceOnUse">
<stop offset="1" stop-color="#1B2232"/>
</linearGradient>
<linearGradient id="paint186_linear" x1="214.717" y1="0.132072" x2="214.682" y2="4.50741" gradientUnits="userSpaceOnUse">
<stop offset="1" stop-color="#1B2232"/>
</linearGradient>
<linearGradient id="paint187_linear" x1="214.717" y1="0.132072" x2="214.682" y2="4.50741" gradientUnits="userSpaceOnUse">
<stop offset="1" stop-color="#1B2232"/>
</linearGradient>
</defs>
</svg>
