<?xml version="1.0" encoding="utf-8"?>
<!-- Generator: Adobe Illustrator 24.1.2, SVG Export Plug-In . SVG Version: 6.00 Build 0)  -->
<svg version="1.1" id="Слой_1" xmlns="http://www.w3.org/2000/svg" xmlns:xlink="http://www.w3.org/1999/xlink" x="0px" y="0px"
	 viewBox="0 0 3 352" style="enable-background:new 0 0 3 352;" xml:space="preserve">
<style type="text/css">
	.st0{fill:url(#SVGID_1_);}
	.st1{fill:url(#SVGID_2_);filter:url(#Adobe_OpacityMaskFilter);}
	.st2{mask:url(#mask0_1_);}
	.st3{fill:#2958F9;}
	.st4{fill:url(#SVGID_3_);}
	.st5{fill:url(#SVGID_4_);}
	.st6{fill:url(#SVGID_5_);}
	.st7{fill:url(#SVGID_6_);}
	.st8{fill:url(#SVGID_7_);}
	.st9{fill:url(#SVGID_8_);}
	.st10{fill:url(#SVGID_9_);}
	.st11{fill:url(#SVGID_10_);}
	.st12{fill:url(#SVGID_11_);}
	.st13{fill:url(#SVGID_12_);}
	.st14{fill:url(#SVGID_13_);}
	.st15{fill:url(#SVGID_14_);}
	.st16{fill:url(#SVGID_15_);}
	.st17{fill:url(#SVGID_16_);}
	.st18{fill:url(#SVGID_17_);}
	.st19{fill:url(#SVGID_18_);}
	.st20{fill:url(#SVGID_19_);}
	.st21{fill:url(#SVGID_20_);}
	.st22{fill:url(#SVGID_21_);}
	.st23{fill:url(#SVGID_22_);}
	.st24{fill:url(#SVGID_23_);}
	.st25{fill:url(#SVGID_24_);}
	.st26{fill:url(#SVGID_25_);}
	.st27{fill:url(#SVGID_26_);}
	.st28{fill:url(#SVGID_27_);}
	.st29{fill:url(#SVGID_28_);}
	.st30{fill:url(#SVGID_29_);}
	.st31{fill:url(#SVGID_30_);}
	.st32{fill:url(#SVGID_31_);}
	.st33{fill:url(#SVGID_32_);}
	.st34{fill:url(#SVGID_33_);}
	.st35{fill:url(#SVGID_34_);}
</style>
<linearGradient id="SVGID_1_" gradientUnits="userSpaceOnUse" x1="-69.8931" y1="990.3849" x2="231.7012" y2="990.3848" gradientTransform="matrix(6.123234e-17 1 1 -6.123234e-17 -988.8897 147)">
	<stop  offset="0" style="stop-color:#DBC266"/>
	<stop  offset="0.4635" style="stop-color:#AE8930"/>
	<stop  offset="0.827" style="stop-color:#CFA43D"/>
	<stop  offset="0.9061" style="stop-color:#F5E38B"/>
</linearGradient>
<rect x="0" y="0" class="st0" width="3" height="351.9"/>
<defs>
	<filter id="Adobe_OpacityMaskFilter" filterUnits="userSpaceOnUse" x="-195.9" y="-32.3" width="394.5" height="393.1">
		<feColorMatrix  type="matrix" values="1 0 0 0 0  0 1 0 0 0  0 0 1 0 0  0 0 0 1 0"/>
	</filter>
</defs>
<mask maskUnits="userSpaceOnUse" x="-195.9" y="-32.3" width="394.5" height="393.1" id="mask0_1_">
	
		<linearGradient id="SVGID_2_" gradientUnits="userSpaceOnUse" x1="-69.8931" y1="990.3849" x2="231.7012" y2="990.3848" gradientTransform="matrix(6.123234e-17 1 1 -6.123234e-17 -988.8897 147)">
		<stop  offset="0" style="stop-color:#DBC266"/>
		<stop  offset="0.4635" style="stop-color:#AE8930"/>
		<stop  offset="0.827" style="stop-color:#CFA43D"/>
		<stop  offset="0.9061" style="stop-color:#F5E38B"/>
	</linearGradient>
	<rect x="0" y="0" class="st1" width="3" height="351.9"/>
</mask>
<g class="st2">
	<polygon class="st3" points="-86,49.2 110.6,259 107.5,261.9 -89.1,52.1 	"/>
	
		<linearGradient id="SVGID_3_" gradientUnits="userSpaceOnUse" x1="196.9564" y1="717.9678" x2="196.9214" y2="713.6263" gradientTransform="matrix(0.6838 0.7296 0.7337 -0.6795 -648.8296 497.9337)">
		<stop  offset="1" style="stop-color:#1B2232"/>
		<stop  offset="1" style="stop-color:#000000"/>
	</linearGradient>
	<polygon class="st4" points="-86,49.2 110.6,259 107.5,261.9 -89.1,52.1 	"/>
	<polygon class="st3" points="-23.2,-9 173.5,200.8 170.3,203.7 -26.3,-6.1 	"/>
	
		<linearGradient id="SVGID_4_" gradientUnits="userSpaceOnUse" x1="196.9564" y1="717.9678" x2="196.9214" y2="713.6263" gradientTransform="matrix(0.6838 0.7296 0.7337 -0.6795 -586.0118 439.7581)">
		<stop  offset="1" style="stop-color:#1B2232"/>
		<stop  offset="1" style="stop-color:#000000"/>
	</linearGradient>
	<polygon class="st5" points="-23.2,-9 173.5,200.8 170.3,203.7 -26.3,-6.1 	"/>
	<polygon class="st3" points="-148.8,107.3 47.8,317.1 44.7,320.1 -152,110.2 	"/>
	
		<linearGradient id="SVGID_5_" gradientUnits="userSpaceOnUse" x1="196.9564" y1="717.9678" x2="196.9214" y2="713.6263" gradientTransform="matrix(0.6838 0.7296 0.7337 -0.6795 -711.6472 556.1097)">
		<stop  offset="1" style="stop-color:#1B2232"/>
		<stop  offset="1" style="stop-color:#000000"/>
	</linearGradient>
	<polygon class="st6" points="-148.8,107.3 47.8,317.1 44.7,320.1 -152,110.2 	"/>
	<polygon class="st3" points="-92.3,55 104.4,264.8 101.2,267.7 -95.4,57.9 	"/>
	
		<linearGradient id="SVGID_6_" gradientUnits="userSpaceOnUse" x1="196.9564" y1="717.9678" x2="196.9214" y2="713.6263" gradientTransform="matrix(0.6838 0.7296 0.7337 -0.6795 -655.1114 503.7512)">
		<stop  offset="1" style="stop-color:#1B2232"/>
		<stop  offset="1" style="stop-color:#000000"/>
	</linearGradient>
	<polygon class="st7" points="-92.3,55 104.4,264.8 101.2,267.7 -95.4,57.9 	"/>
	<polygon class="st3" points="-29.5,-3.2 167.2,206.6 164,209.5 -32.6,-0.3 	"/>
	
		<linearGradient id="SVGID_7_" gradientUnits="userSpaceOnUse" x1="196.9564" y1="717.9678" x2="196.9214" y2="713.6263" gradientTransform="matrix(0.6838 0.7296 0.7337 -0.6795 -592.2935 445.5756)">
		<stop  offset="1" style="stop-color:#1B2232"/>
		<stop  offset="1" style="stop-color:#000000"/>
	</linearGradient>
	<polygon class="st8" points="-29.5,-3.2 167.2,206.6 164,209.5 -32.6,-0.3 	"/>
	<polygon class="st3" points="-155.1,113.1 41.5,323 38.4,325.9 -158.2,116.1 	"/>
	
		<linearGradient id="SVGID_8_" gradientUnits="userSpaceOnUse" x1="196.9564" y1="717.9678" x2="196.9214" y2="713.6263" gradientTransform="matrix(0.6838 0.7296 0.7337 -0.6795 -717.9292 561.9266)">
		<stop  offset="1" style="stop-color:#1B2232"/>
		<stop  offset="1" style="stop-color:#000000"/>
	</linearGradient>
	<polygon class="st9" points="-155.1,113.1 41.5,323 38.4,325.9 -158.2,116.1 	"/>
	<polygon class="st3" points="-98.6,60.8 98.1,270.6 94.9,273.5 -101.7,63.7 	"/>
	
		<linearGradient id="SVGID_9_" gradientUnits="userSpaceOnUse" x1="196.9564" y1="717.9678" x2="196.9214" y2="713.6263" gradientTransform="matrix(0.6838 0.7296 0.7337 -0.6795 -661.3932 509.5688)">
		<stop  offset="1" style="stop-color:#1B2232"/>
		<stop  offset="1" style="stop-color:#000000"/>
	</linearGradient>
	<polygon class="st10" points="-98.6,60.8 98.1,270.6 94.9,273.5 -101.7,63.7 	"/>
	<polygon class="st3" points="-35.8,2.6 160.9,212.4 157.8,215.3 -38.9,5.5 	"/>
	
		<linearGradient id="SVGID_10_" gradientUnits="userSpaceOnUse" x1="196.9564" y1="717.9678" x2="196.9214" y2="713.6263" gradientTransform="matrix(0.6838 0.7296 0.7337 -0.6795 -598.5753 451.3932)">
		<stop  offset="1" style="stop-color:#1B2232"/>
		<stop  offset="1" style="stop-color:#000000"/>
	</linearGradient>
	<polygon class="st11" points="-35.8,2.6 160.9,212.4 157.8,215.3 -38.9,5.5 	"/>
	<polygon class="st3" points="-161.4,119 35.3,328.8 32.1,331.7 -164.5,121.9 	"/>
	
		<linearGradient id="SVGID_11_" gradientUnits="userSpaceOnUse" x1="196.9564" y1="717.9678" x2="196.9214" y2="713.6263" gradientTransform="matrix(0.6838 0.7296 0.7337 -0.6795 -724.2112 567.7446)">
		<stop  offset="1" style="stop-color:#1B2232"/>
		<stop  offset="1" style="stop-color:#000000"/>
	</linearGradient>
	<polygon class="st12" points="-161.4,119 35.3,328.8 32.1,331.7 -164.5,121.9 	"/>
	<polygon class="st3" points="-104.8,66.6 91.8,276.4 88.7,279.3 -108,69.5 	"/>
	
		<linearGradient id="SVGID_12_" gradientUnits="userSpaceOnUse" x1="196.9564" y1="717.9678" x2="196.9214" y2="713.6263" gradientTransform="matrix(0.6838 0.7296 0.7337 -0.6795 -667.6752 515.3862)">
		<stop  offset="1" style="stop-color:#1B2232"/>
		<stop  offset="1" style="stop-color:#000000"/>
	</linearGradient>
	<polygon class="st13" points="-104.8,66.6 91.8,276.4 88.7,279.3 -108,69.5 	"/>
	<polygon class="st3" points="-42,8.4 154.6,218.2 151.5,221.2 -45.2,11.3 	"/>
	
		<linearGradient id="SVGID_13_" gradientUnits="userSpaceOnUse" x1="196.9564" y1="717.9678" x2="196.9214" y2="713.6263" gradientTransform="matrix(0.6838 0.7296 0.7337 -0.6795 -604.8571 457.2107)">
		<stop  offset="1" style="stop-color:#1B2232"/>
		<stop  offset="1" style="stop-color:#000000"/>
	</linearGradient>
	<polygon class="st14" points="-42,8.4 154.6,218.2 151.5,221.2 -45.2,11.3 	"/>
	<polygon class="st3" points="-167.7,124.8 29,334.6 25.8,337.5 -170.8,127.7 	"/>
	
		<linearGradient id="SVGID_14_" gradientUnits="userSpaceOnUse" x1="196.9564" y1="717.9678" x2="196.9214" y2="713.6263" gradientTransform="matrix(0.6838 0.7296 0.7337 -0.6795 -730.4932 573.5616)">
		<stop  offset="1" style="stop-color:#1B2232"/>
		<stop  offset="1" style="stop-color:#000000"/>
	</linearGradient>
	<polygon class="st15" points="-167.7,124.8 29,334.6 25.8,337.5 -170.8,127.7 	"/>
	<polygon class="st3" points="-111.1,72.4 85.5,282.2 82.4,285.1 -114.3,75.3 	"/>
	
		<linearGradient id="SVGID_15_" gradientUnits="userSpaceOnUse" x1="196.9564" y1="717.9678" x2="196.9214" y2="713.6263" gradientTransform="matrix(0.6838 0.7296 0.7337 -0.6795 -673.9572 521.2039)">
		<stop  offset="1" style="stop-color:#1B2232"/>
		<stop  offset="1" style="stop-color:#000000"/>
	</linearGradient>
	<polygon class="st16" points="-111.1,72.4 85.5,282.2 82.4,285.1 -114.3,75.3 	"/>
	<polygon class="st3" points="-48.3,14.2 148.3,224.1 145.2,227 -51.5,17.2 	"/>
	
		<linearGradient id="SVGID_16_" gradientUnits="userSpaceOnUse" x1="196.9564" y1="717.9678" x2="196.9214" y2="713.6263" gradientTransform="matrix(0.6838 0.7296 0.7337 -0.6795 -611.1389 463.0283)">
		<stop  offset="1" style="stop-color:#1B2232"/>
		<stop  offset="1" style="stop-color:#000000"/>
	</linearGradient>
	<polygon class="st17" points="-48.3,14.2 148.3,224.1 145.2,227 -51.5,17.2 	"/>
	<polygon class="st3" points="-173.9,130.6 22.7,340.4 19.6,343.3 -177.1,133.5 	"/>
	
		<linearGradient id="SVGID_17_" gradientUnits="userSpaceOnUse" x1="196.9564" y1="717.9678" x2="196.9214" y2="713.6263" gradientTransform="matrix(0.6838 0.7296 0.7337 -0.6795 -736.7742 579.3796)">
		<stop  offset="1" style="stop-color:#1B2232"/>
		<stop  offset="1" style="stop-color:#000000"/>
	</linearGradient>
	<polygon class="st18" points="-173.9,130.6 22.7,340.4 19.6,343.3 -177.1,133.5 	"/>
	<polygon class="st3" points="-117.4,78.2 79.2,288.1 76.1,291 -120.6,81.1 	"/>
	
		<linearGradient id="SVGID_18_" gradientUnits="userSpaceOnUse" x1="196.9564" y1="717.9678" x2="196.9214" y2="713.6263" gradientTransform="matrix(0.6838 0.7296 0.7337 -0.6795 -680.2382 527.0214)">
		<stop  offset="1" style="stop-color:#1B2232"/>
		<stop  offset="1" style="stop-color:#000000"/>
	</linearGradient>
	<polygon class="st19" points="-117.4,78.2 79.2,288.1 76.1,291 -120.6,81.1 	"/>
	<polygon class="st3" points="-54.6,20.1 142,229.9 138.9,232.8 -57.7,23 	"/>
	
		<linearGradient id="SVGID_19_" gradientUnits="userSpaceOnUse" x1="196.9564" y1="717.9678" x2="196.9214" y2="713.6263" gradientTransform="matrix(0.6838 0.7296 0.7337 -0.6795 -617.4207 468.8459)">
		<stop  offset="1" style="stop-color:#1B2232"/>
		<stop  offset="1" style="stop-color:#000000"/>
	</linearGradient>
	<polygon class="st20" points="-54.6,20.1 142,229.9 138.9,232.8 -57.7,23 	"/>
	<polygon class="st3" points="-180.2,136.4 16.4,346.2 13.3,349.1 -183.4,139.3 	"/>
	
		<linearGradient id="SVGID_20_" gradientUnits="userSpaceOnUse" x1="196.9564" y1="717.9678" x2="196.9214" y2="713.6263" gradientTransform="matrix(0.6838 0.7296 0.7337 -0.6795 -743.0562 585.1967)">
		<stop  offset="1" style="stop-color:#1B2232"/>
		<stop  offset="1" style="stop-color:#000000"/>
	</linearGradient>
	<polygon class="st21" points="-180.2,136.4 16.4,346.2 13.3,349.1 -183.4,139.3 	"/>
	<polygon class="st3" points="1.9,-32.3 198.6,177.5 195.4,180.4 -1.2,-29.4 	"/>
	
		<linearGradient id="SVGID_21_" gradientUnits="userSpaceOnUse" x1="196.9564" y1="717.9678" x2="196.9214" y2="713.6263" gradientTransform="matrix(0.6838 0.7296 0.7337 -0.6795 -560.8846 416.4879)">
		<stop  offset="1" style="stop-color:#1B2232"/>
		<stop  offset="1" style="stop-color:#000000"/>
	</linearGradient>
	<polygon class="st22" points="1.9,-32.3 198.6,177.5 195.4,180.4 -1.2,-29.4 	"/>
	<polygon class="st3" points="-123.7,84.1 72.9,293.9 69.8,296.8 -126.8,87 	"/>
	
		<linearGradient id="SVGID_22_" gradientUnits="userSpaceOnUse" x1="196.9564" y1="717.9678" x2="196.9214" y2="713.6263" gradientTransform="matrix(0.6838 0.7296 0.7337 -0.6795 -686.5202 532.8389)">
		<stop  offset="1" style="stop-color:#1B2232"/>
		<stop  offset="1" style="stop-color:#000000"/>
	</linearGradient>
	<polygon class="st23" points="-123.7,84.1 72.9,293.9 69.8,296.8 -126.8,87 	"/>
	<polygon class="st3" points="-60.9,25.9 135.8,235.7 132.6,238.6 -64,28.8 	"/>
	
		<linearGradient id="SVGID_23_" gradientUnits="userSpaceOnUse" x1="196.9564" y1="717.9678" x2="196.9214" y2="713.6263" gradientTransform="matrix(0.6838 0.7296 0.7337 -0.6795 -623.7025 474.6634)">
		<stop  offset="1" style="stop-color:#1B2232"/>
		<stop  offset="1" style="stop-color:#000000"/>
	</linearGradient>
	<polygon class="st24" points="-60.9,25.9 135.8,235.7 132.6,238.6 -64,28.8 	"/>
	<polygon class="st3" points="-186.5,142.2 10.1,352 7,355 -189.7,145.1 	"/>
	
		<linearGradient id="SVGID_24_" gradientUnits="userSpaceOnUse" x1="196.9564" y1="717.9678" x2="196.9214" y2="713.6263" gradientTransform="matrix(0.6838 0.7296 0.7337 -0.6795 -749.3382 591.0146)">
		<stop  offset="1" style="stop-color:#1B2232"/>
		<stop  offset="1" style="stop-color:#000000"/>
	</linearGradient>
	<polygon class="st25" points="-186.5,142.2 10.1,352 7,355 -189.7,145.1 	"/>
	<polygon class="st3" points="-4.3,-26.5 192.3,183.3 189.2,186.2 -7.5,-23.6 	"/>
	
		<linearGradient id="SVGID_25_" gradientUnits="userSpaceOnUse" x1="196.9564" y1="717.9678" x2="196.9214" y2="713.6263" gradientTransform="matrix(0.6838 0.7296 0.7337 -0.6795 -567.1664 422.3055)">
		<stop  offset="1" style="stop-color:#1B2232"/>
		<stop  offset="1" style="stop-color:#000000"/>
	</linearGradient>
	<polygon class="st26" points="-4.3,-26.5 192.3,183.3 189.2,186.2 -7.5,-23.6 	"/>
	<polygon class="st3" points="-130,89.9 66.7,299.7 63.5,302.6 -133.1,92.8 	"/>
	
		<linearGradient id="SVGID_26_" gradientUnits="userSpaceOnUse" x1="196.9564" y1="717.9678" x2="196.9214" y2="713.6263" gradientTransform="matrix(0.6838 0.7296 0.7337 -0.6795 -692.8022 538.6566)">
		<stop  offset="1" style="stop-color:#1B2232"/>
		<stop  offset="1" style="stop-color:#000000"/>
	</linearGradient>
	<polygon class="st27" points="-130,89.9 66.7,299.7 63.5,302.6 -133.1,92.8 	"/>
	<polygon class="st3" points="-67.2,31.7 129.5,241.5 126.3,244.4 -70.3,34.6 	"/>
	
		<linearGradient id="SVGID_27_" gradientUnits="userSpaceOnUse" x1="196.9564" y1="717.9678" x2="196.9214" y2="713.6263" gradientTransform="matrix(0.6838 0.7296 0.7337 -0.6795 -629.9843 480.481)">
		<stop  offset="1" style="stop-color:#1B2232"/>
		<stop  offset="1" style="stop-color:#000000"/>
	</linearGradient>
	<polygon class="st28" points="-67.2,31.7 129.5,241.5 126.3,244.4 -70.3,34.6 	"/>
	<polygon class="st3" points="-192.8,148.1 3.8,357.9 0.7,360.8 -195.9,151 	"/>
	
		<linearGradient id="SVGID_28_" gradientUnits="userSpaceOnUse" x1="196.9564" y1="717.9678" x2="196.9214" y2="713.6263" gradientTransform="matrix(0.6838 0.7296 0.7337 -0.6795 -755.6202 596.8317)">
		<stop  offset="1" style="stop-color:#1B2232"/>
		<stop  offset="1" style="stop-color:#000000"/>
	</linearGradient>
	<polygon class="st29" points="-192.8,148.1 3.8,357.9 0.7,360.8 -195.9,151 	"/>
	<polygon class="st3" points="-10.6,-20.7 186,189.2 182.9,192.1 -13.8,-17.8 	"/>
	
		<linearGradient id="SVGID_29_" gradientUnits="userSpaceOnUse" x1="196.9564" y1="717.9678" x2="196.9214" y2="713.6263" gradientTransform="matrix(0.6838 0.7296 0.7337 -0.6795 -573.4482 428.123)">
		<stop  offset="1" style="stop-color:#1B2232"/>
		<stop  offset="1" style="stop-color:#000000"/>
	</linearGradient>
	<polygon class="st30" points="-10.6,-20.7 186,189.2 182.9,192.1 -13.8,-17.8 	"/>
	<polygon class="st3" points="-136.3,95.7 60.4,305.5 57.2,308.4 -139.4,98.6 	"/>
	
		<linearGradient id="SVGID_30_" gradientUnits="userSpaceOnUse" x1="196.9564" y1="717.9678" x2="196.9214" y2="713.6263" gradientTransform="matrix(0.6838 0.7296 0.7337 -0.6795 -699.0842 544.4741)">
		<stop  offset="1" style="stop-color:#1B2232"/>
		<stop  offset="1" style="stop-color:#000000"/>
	</linearGradient>
	<polygon class="st31" points="-136.3,95.7 60.4,305.5 57.2,308.4 -139.4,98.6 	"/>
	<polygon class="st3" points="-73.4,37.5 123.2,247.3 120.1,250.2 -76.6,40.4 	"/>
	
		<linearGradient id="SVGID_31_" gradientUnits="userSpaceOnUse" x1="196.9564" y1="717.9678" x2="196.9214" y2="713.6263" gradientTransform="matrix(0.6838 0.7296 0.7337 -0.6795 -636.266 486.2985)">
		<stop  offset="1" style="stop-color:#1B2232"/>
		<stop  offset="1" style="stop-color:#000000"/>
	</linearGradient>
	<polygon class="st32" points="-73.4,37.5 123.2,247.3 120.1,250.2 -76.6,40.4 	"/>
	<polygon class="st3" points="-16.9,-14.8 179.7,195 176.6,197.9 -20,-11.9 	"/>
	
		<linearGradient id="SVGID_32_" gradientUnits="userSpaceOnUse" x1="196.9564" y1="717.9678" x2="196.9214" y2="713.6263" gradientTransform="matrix(0.6838 0.7296 0.7337 -0.6795 -579.73 433.9406)">
		<stop  offset="1" style="stop-color:#1B2232"/>
		<stop  offset="1" style="stop-color:#000000"/>
	</linearGradient>
	<polygon class="st33" points="-16.9,-14.8 179.7,195 176.6,197.9 -20,-11.9 	"/>
	<polygon class="st3" points="-142.5,101.5 54.1,311.3 51,314.2 -145.7,104.4 	"/>
	
		<linearGradient id="SVGID_33_" gradientUnits="userSpaceOnUse" x1="196.9564" y1="717.9678" x2="196.9214" y2="713.6263" gradientTransform="matrix(0.6838 0.7296 0.7337 -0.6795 -705.3652 550.2917)">
		<stop  offset="1" style="stop-color:#1B2232"/>
		<stop  offset="1" style="stop-color:#000000"/>
	</linearGradient>
	<polygon class="st34" points="-142.5,101.5 54.1,311.3 51,314.2 -145.7,104.4 	"/>
	<polygon class="st3" points="-79.7,43.3 116.9,253.1 113.8,256.1 -82.9,46.2 	"/>
	
		<linearGradient id="SVGID_34_" gradientUnits="userSpaceOnUse" x1="196.9564" y1="717.9678" x2="196.9214" y2="713.6263" gradientTransform="matrix(0.6838 0.7296 0.7337 -0.6795 -642.5478 492.1161)">
		<stop  offset="1" style="stop-color:#1B2232"/>
		<stop  offset="1" style="stop-color:#000000"/>
	</linearGradient>
	<polygon class="st35" points="-79.7,43.3 116.9,253.1 113.8,256.1 -82.9,46.2 	"/>
</g>
</svg>
