<svg width="354" height="3" viewBox="0 0 354 3" fill="none" xmlns="http://www.w3.org/2000/svg">
<rect width="354" height="3" fill="url(#paint0_linear)"/>
<mask id="mask0" mask-type="alpha" maskUnits="userSpaceOnUse" x="0" y="0" width="354" height="3">
<rect width="354" height="3" fill="url(#paint1_linear)"/>
</mask>
<g mask="url(#mask0)">
<rect x="49.4463" y="89.004" width="288.475" height="4.29279" transform="rotate(-42.973 49.4463 89.004)" fill="#2958F9"/>
<rect x="49.4463" y="89.004" width="288.475" height="4.29279" transform="rotate(-42.973 49.4463 89.004)" fill="url(#paint2_linear)"/>
<rect x="-9.07762" y="26.1855" width="288.475" height="4.29279" transform="rotate(-42.973 -9.07762 26.1855)" fill="#2958F9"/>
<rect x="-9.07762" y="26.1855" width="288.475" height="4.29279" transform="rotate(-42.973 -9.07762 26.1855)" fill="url(#paint3_linear)"/>
<rect x="107.97" y="151.822" width="288.475" height="4.29279" transform="rotate(-42.973 107.97 151.822)" fill="#2958F9"/>
<rect x="107.97" y="151.822" width="288.475" height="4.29279" transform="rotate(-42.973 107.97 151.822)" fill="url(#paint4_linear)"/>
<rect x="55.2987" y="95.2859" width="288.475" height="4.29279" transform="rotate(-42.973 55.2987 95.2859)" fill="#2958F9"/>
<rect x="55.2987" y="95.2859" width="288.475" height="4.29279" transform="rotate(-42.973 55.2987 95.2859)" fill="url(#paint5_linear)"/>
<rect x="-3.22523" y="32.4674" width="288.475" height="4.29279" transform="rotate(-42.973 -3.22523 32.4674)" fill="#2958F9"/>
<rect x="-3.22523" y="32.4674" width="288.475" height="4.29279" transform="rotate(-42.973 -3.22523 32.4674)" fill="url(#paint6_linear)"/>
<rect x="113.823" y="158.104" width="288.475" height="4.29279" transform="rotate(-42.973 113.823 158.104)" fill="#2958F9"/>
<rect x="113.823" y="158.104" width="288.475" height="4.29279" transform="rotate(-42.973 113.823 158.104)" fill="url(#paint7_linear)"/>
<rect x="61.1511" y="101.568" width="288.475" height="4.29279" transform="rotate(-42.973 61.1511 101.568)" fill="#2958F9"/>
<rect x="61.1511" y="101.568" width="288.475" height="4.29279" transform="rotate(-42.973 61.1511 101.568)" fill="url(#paint8_linear)"/>
<rect x="2.62717" y="38.7492" width="288.475" height="4.29279" transform="rotate(-42.973 2.62717 38.7492)" fill="#2958F9"/>
<rect x="2.62717" y="38.7492" width="288.475" height="4.29279" transform="rotate(-42.973 2.62717 38.7492)" fill="url(#paint9_linear)"/>
<rect x="119.675" y="164.386" width="288.475" height="4.29279" transform="rotate(-42.973 119.675 164.386)" fill="#2958F9"/>
<rect x="119.675" y="164.386" width="288.475" height="4.29279" transform="rotate(-42.973 119.675 164.386)" fill="url(#paint10_linear)"/>
<rect x="67.0035" y="107.85" width="288.475" height="4.29279" transform="rotate(-42.973 67.0035 107.85)" fill="#2958F9"/>
<rect x="67.0035" y="107.85" width="288.475" height="4.29279" transform="rotate(-42.973 67.0035 107.85)" fill="url(#paint11_linear)"/>
<rect x="8.47955" y="45.0311" width="288.475" height="4.29279" transform="rotate(-42.973 8.47955 45.0311)" fill="#2958F9"/>
<rect x="8.47955" y="45.0311" width="288.475" height="4.29279" transform="rotate(-42.973 8.47955 45.0311)" fill="url(#paint12_linear)"/>
<rect x="125.527" y="170.668" width="288.475" height="4.29279" transform="rotate(-42.973 125.527 170.668)" fill="#2958F9"/>
<rect x="125.527" y="170.668" width="288.475" height="4.29279" transform="rotate(-42.973 125.527 170.668)" fill="url(#paint13_linear)"/>
<rect x="72.8559" y="114.131" width="288.475" height="4.29279" transform="rotate(-42.973 72.8559 114.131)" fill="#2958F9"/>
<rect x="72.8559" y="114.131" width="288.475" height="4.29279" transform="rotate(-42.973 72.8559 114.131)" fill="url(#paint14_linear)"/>
<rect x="14.3319" y="51.3129" width="288.475" height="4.29279" transform="rotate(-42.973 14.3319 51.3129)" fill="#2958F9"/>
<rect x="14.3319" y="51.3129" width="288.475" height="4.29279" transform="rotate(-42.973 14.3319 51.3129)" fill="url(#paint15_linear)"/>
<rect x="131.38" y="176.95" width="288.475" height="4.29279" transform="rotate(-42.973 131.38 176.95)" fill="#2958F9"/>
<rect x="131.38" y="176.95" width="288.475" height="4.29279" transform="rotate(-42.973 131.38 176.95)" fill="url(#paint16_linear)"/>
<rect x="78.7082" y="120.413" width="288.475" height="4.29279" transform="rotate(-42.973 78.7082 120.413)" fill="#2958F9"/>
<rect x="78.7082" y="120.413" width="288.475" height="4.29279" transform="rotate(-42.973 78.7082 120.413)" fill="url(#paint17_linear)"/>
<rect x="20.1843" y="57.5948" width="288.475" height="4.29279" transform="rotate(-42.973 20.1843 57.5948)" fill="#2958F9"/>
<rect x="20.1843" y="57.5948" width="288.475" height="4.29279" transform="rotate(-42.973 20.1843 57.5948)" fill="url(#paint18_linear)"/>
<rect x="137.232" y="183.232" width="288.475" height="4.29279" transform="rotate(-42.973 137.232 183.232)" fill="#2958F9"/>
<rect x="137.232" y="183.232" width="288.475" height="4.29279" transform="rotate(-42.973 137.232 183.232)" fill="url(#paint19_linear)"/>
<rect x="-32.4872" y="1.05814" width="288.475" height="4.29279" transform="rotate(-42.973 -32.4872 1.05814)" fill="#2958F9"/>
<rect x="-32.4872" y="1.05814" width="288.475" height="4.29279" transform="rotate(-42.973 -32.4872 1.05814)" fill="url(#paint20_linear)"/>
<rect x="84.5606" y="126.695" width="288.475" height="4.29279" transform="rotate(-42.973 84.5606 126.695)" fill="#2958F9"/>
<rect x="84.5606" y="126.695" width="288.475" height="4.29279" transform="rotate(-42.973 84.5606 126.695)" fill="url(#paint21_linear)"/>
<rect x="26.0367" y="63.8766" width="288.475" height="4.29279" transform="rotate(-42.973 26.0367 63.8766)" fill="#2958F9"/>
<rect x="26.0367" y="63.8766" width="288.475" height="4.29279" transform="rotate(-42.973 26.0367 63.8766)" fill="url(#paint22_linear)"/>
<rect x="143.085" y="189.514" width="288.475" height="4.29279" transform="rotate(-42.973 143.085 189.514)" fill="#2958F9"/>
<rect x="143.085" y="189.514" width="288.475" height="4.29279" transform="rotate(-42.973 143.085 189.514)" fill="url(#paint23_linear)"/>
<rect x="-26.6348" y="7.33999" width="288.475" height="4.29279" transform="rotate(-42.973 -26.6348 7.33999)" fill="#2958F9"/>
<rect x="-26.6348" y="7.33999" width="288.475" height="4.29279" transform="rotate(-42.973 -26.6348 7.33999)" fill="url(#paint24_linear)"/>
<rect x="90.413" y="132.977" width="288.475" height="4.29279" transform="rotate(-42.973 90.413 132.977)" fill="#2958F9"/>
<rect x="90.413" y="132.977" width="288.475" height="4.29279" transform="rotate(-42.973 90.413 132.977)" fill="url(#paint25_linear)"/>
<rect x="31.8891" y="70.1585" width="288.475" height="4.29279" transform="rotate(-42.973 31.8891 70.1585)" fill="#2958F9"/>
<rect x="31.8891" y="70.1585" width="288.475" height="4.29279" transform="rotate(-42.973 31.8891 70.1585)" fill="url(#paint26_linear)"/>
<rect x="148.937" y="195.795" width="288.475" height="4.29279" transform="rotate(-42.973 148.937 195.795)" fill="#2958F9"/>
<rect x="148.937" y="195.795" width="288.475" height="4.29279" transform="rotate(-42.973 148.937 195.795)" fill="url(#paint27_linear)"/>
<rect x="-20.7824" y="13.6218" width="288.475" height="4.29279" transform="rotate(-42.973 -20.7824 13.6218)" fill="#2958F9"/>
<rect x="-20.7824" y="13.6218" width="288.475" height="4.29279" transform="rotate(-42.973 -20.7824 13.6218)" fill="url(#paint28_linear)"/>
<rect x="96.2654" y="139.259" width="288.475" height="4.29279" transform="rotate(-42.973 96.2654 139.259)" fill="#2958F9"/>
<rect x="96.2654" y="139.259" width="288.475" height="4.29279" transform="rotate(-42.973 96.2654 139.259)" fill="url(#paint29_linear)"/>
<rect x="37.7415" y="76.4403" width="288.475" height="4.29279" transform="rotate(-42.973 37.7415 76.4403)" fill="#2958F9"/>
<rect x="37.7415" y="76.4403" width="288.475" height="4.29279" transform="rotate(-42.973 37.7415 76.4403)" fill="url(#paint30_linear)"/>
<rect x="-14.93" y="19.9037" width="288.475" height="4.29279" transform="rotate(-42.973 -14.93 19.9037)" fill="#2958F9"/>
<rect x="-14.93" y="19.9037" width="288.475" height="4.29279" transform="rotate(-42.973 -14.93 19.9037)" fill="url(#paint31_linear)"/>
<rect x="102.118" y="145.541" width="288.475" height="4.29279" transform="rotate(-42.973 102.118 145.541)" fill="#2958F9"/>
<rect x="102.118" y="145.541" width="288.475" height="4.29279" transform="rotate(-42.973 102.118 145.541)" fill="url(#paint32_linear)"/>
<rect x="43.5939" y="82.7222" width="288.475" height="4.29279" transform="rotate(-42.973 43.5939 82.7222)" fill="#2958F9"/>
<rect x="43.5939" y="82.7222" width="288.475" height="4.29279" transform="rotate(-42.973 43.5939 82.7222)" fill="url(#paint33_linear)"/>
</g>
<defs>
<linearGradient id="paint0_linear" x1="77.5684" y1="1.5" x2="380.969" y2="1.50018" gradientUnits="userSpaceOnUse">
<stop stop-color="#DBC266"/>
<stop offset="0.463542" stop-color="#AE8930"/>
<stop offset="0.827015" stop-color="#CFA43D"/>
<stop offset="0.906096" stop-color="#F5E38B"/>
</linearGradient>
<linearGradient id="paint1_linear" x1="77.5684" y1="1.5" x2="380.969" y2="1.50018" gradientUnits="userSpaceOnUse">
<stop stop-color="#DBC266"/>
<stop offset="0.463542" stop-color="#AE8930"/>
<stop offset="0.827015" stop-color="#CFA43D"/>
<stop offset="0.906096" stop-color="#F5E38B"/>
</linearGradient>
<linearGradient id="paint2_linear" x1="260.319" y1="89.1355" x2="260.284" y2="93.4907" gradientUnits="userSpaceOnUse">
<stop offset="1" stop-color="#1B2232"/>
</linearGradient>
<linearGradient id="paint3_linear" x1="201.795" y1="26.317" x2="201.76" y2="30.6723" gradientUnits="userSpaceOnUse">
<stop offset="1" stop-color="#1B2232"/>
</linearGradient>
<linearGradient id="paint4_linear" x1="318.843" y1="151.954" x2="318.808" y2="156.309" gradientUnits="userSpaceOnUse">
<stop offset="1" stop-color="#1B2232"/>
</linearGradient>
<linearGradient id="paint5_linear" x1="266.171" y1="95.4173" x2="266.136" y2="99.7726" gradientUnits="userSpaceOnUse">
<stop offset="1" stop-color="#1B2232"/>
</linearGradient>
<linearGradient id="paint6_linear" x1="207.647" y1="32.5988" x2="207.613" y2="36.9541" gradientUnits="userSpaceOnUse">
<stop offset="1" stop-color="#1B2232"/>
</linearGradient>
<linearGradient id="paint7_linear" x1="324.695" y1="158.236" x2="324.66" y2="162.591" gradientUnits="userSpaceOnUse">
<stop offset="1" stop-color="#1B2232"/>
</linearGradient>
<linearGradient id="paint8_linear" x1="272.024" y1="101.699" x2="271.989" y2="106.054" gradientUnits="userSpaceOnUse">
<stop offset="1" stop-color="#1B2232"/>
</linearGradient>
<linearGradient id="paint9_linear" x1="213.5" y1="38.8807" x2="213.465" y2="43.236" gradientUnits="userSpaceOnUse">
<stop offset="1" stop-color="#1B2232"/>
</linearGradient>
<linearGradient id="paint10_linear" x1="330.547" y1="164.518" x2="330.513" y2="168.873" gradientUnits="userSpaceOnUse">
<stop offset="1" stop-color="#1B2232"/>
</linearGradient>
<linearGradient id="paint11_linear" x1="277.876" y1="107.981" x2="277.841" y2="112.336" gradientUnits="userSpaceOnUse">
<stop offset="1" stop-color="#1B2232"/>
</linearGradient>
<linearGradient id="paint12_linear" x1="219.352" y1="45.1625" x2="219.317" y2="49.5178" gradientUnits="userSpaceOnUse">
<stop offset="1" stop-color="#1B2232"/>
</linearGradient>
<linearGradient id="paint13_linear" x1="336.4" y1="170.8" x2="336.365" y2="175.155" gradientUnits="userSpaceOnUse">
<stop offset="1" stop-color="#1B2232"/>
</linearGradient>
<linearGradient id="paint14_linear" x1="283.728" y1="114.263" x2="283.694" y2="118.618" gradientUnits="userSpaceOnUse">
<stop offset="1" stop-color="#1B2232"/>
</linearGradient>
<linearGradient id="paint15_linear" x1="225.204" y1="51.4444" x2="225.17" y2="55.7996" gradientUnits="userSpaceOnUse">
<stop offset="1" stop-color="#1B2232"/>
</linearGradient>
<linearGradient id="paint16_linear" x1="342.252" y1="177.081" x2="342.218" y2="181.437" gradientUnits="userSpaceOnUse">
<stop offset="1" stop-color="#1B2232"/>
</linearGradient>
<linearGradient id="paint17_linear" x1="289.581" y1="120.545" x2="289.546" y2="124.9" gradientUnits="userSpaceOnUse">
<stop offset="1" stop-color="#1B2232"/>
</linearGradient>
<linearGradient id="paint18_linear" x1="231.057" y1="57.7262" x2="231.022" y2="62.0815" gradientUnits="userSpaceOnUse">
<stop offset="1" stop-color="#1B2232"/>
</linearGradient>
<linearGradient id="paint19_linear" x1="348.105" y1="183.363" x2="348.07" y2="187.718" gradientUnits="userSpaceOnUse">
<stop offset="1" stop-color="#1B2232"/>
</linearGradient>
<linearGradient id="paint20_linear" x1="178.385" y1="1.18961" x2="178.351" y2="5.54487" gradientUnits="userSpaceOnUse">
<stop offset="1" stop-color="#1B2232"/>
</linearGradient>
<linearGradient id="paint21_linear" x1="295.433" y1="126.827" x2="295.398" y2="131.182" gradientUnits="userSpaceOnUse">
<stop offset="1" stop-color="#1B2232"/>
</linearGradient>
<linearGradient id="paint22_linear" x1="236.909" y1="64.0081" x2="236.874" y2="68.3633" gradientUnits="userSpaceOnUse">
<stop offset="1" stop-color="#1B2232"/>
</linearGradient>
<linearGradient id="paint23_linear" x1="353.957" y1="189.645" x2="353.922" y2="194" gradientUnits="userSpaceOnUse">
<stop offset="1" stop-color="#1B2232"/>
</linearGradient>
<linearGradient id="paint24_linear" x1="184.238" y1="7.47146" x2="184.203" y2="11.8267" gradientUnits="userSpaceOnUse">
<stop offset="1" stop-color="#1B2232"/>
</linearGradient>
<linearGradient id="paint25_linear" x1="301.285" y1="133.108" x2="301.251" y2="137.464" gradientUnits="userSpaceOnUse">
<stop offset="1" stop-color="#1B2232"/>
</linearGradient>
<linearGradient id="paint26_linear" x1="242.762" y1="70.2899" x2="242.727" y2="74.6452" gradientUnits="userSpaceOnUse">
<stop offset="1" stop-color="#1B2232"/>
</linearGradient>
<linearGradient id="paint27_linear" x1="359.809" y1="195.927" x2="359.775" y2="200.282" gradientUnits="userSpaceOnUse">
<stop offset="1" stop-color="#1B2232"/>
</linearGradient>
<linearGradient id="paint28_linear" x1="190.09" y1="13.7533" x2="190.055" y2="18.1086" gradientUnits="userSpaceOnUse">
<stop offset="1" stop-color="#1B2232"/>
</linearGradient>
<linearGradient id="paint29_linear" x1="307.138" y1="139.39" x2="307.103" y2="143.746" gradientUnits="userSpaceOnUse">
<stop offset="1" stop-color="#1B2232"/>
</linearGradient>
<linearGradient id="paint30_linear" x1="248.614" y1="76.5718" x2="248.579" y2="80.927" gradientUnits="userSpaceOnUse">
<stop offset="1" stop-color="#1B2232"/>
</linearGradient>
<linearGradient id="paint31_linear" x1="195.942" y1="20.0351" x2="195.908" y2="24.3904" gradientUnits="userSpaceOnUse">
<stop offset="1" stop-color="#1B2232"/>
</linearGradient>
<linearGradient id="paint32_linear" x1="312.99" y1="145.672" x2="312.956" y2="150.027" gradientUnits="userSpaceOnUse">
<stop offset="1" stop-color="#1B2232"/>
</linearGradient>
<linearGradient id="paint33_linear" x1="254.466" y1="82.8536" x2="254.432" y2="87.2089" gradientUnits="userSpaceOnUse">
<stop offset="1" stop-color="#1B2232"/>
</linearGradient>
</defs>
</svg>
