<svg width="383" height="3" viewBox="0 0 383 3" fill="none" xmlns="http://www.w3.org/2000/svg">
<rect x="0.000793457" width="382" height="3" fill="url(#paint0_linear)"/>
<mask id="mask0" mask-type="alpha" maskUnits="userSpaceOnUse" x="0" y="0" width="383" height="3">
<rect x="0.000793457" width="382" height="3" fill="url(#paint1_linear)"/>
</mask>
<g mask="url(#mask0)">
<rect width="290.888" height="4.36905" transform="matrix(0.725515 -0.675902 0.675863 0.725445 73.4471 88.9756)" fill="white"/>
<rect width="290.888" height="4.36905" transform="matrix(0.725515 -0.675902 0.675863 0.725445 14.9232 26.1572)" fill="white"/>
<rect width="290.888" height="4.36905" transform="matrix(0.725515 -0.675902 0.675863 0.725445 131.971 151.794)" fill="white"/>
<rect width="290.888" height="4.36905" transform="matrix(0.725515 -0.675902 0.675863 0.725445 79.2995 95.2578)" fill="white"/>
<rect width="290.888" height="4.36905" transform="matrix(0.725515 -0.675902 0.675863 0.725445 20.7756 32.439)" fill="white"/>
<rect width="290.888" height="4.36905" transform="matrix(0.725515 -0.675902 0.675863 0.725445 137.823 158.076)" fill="white"/>
<rect width="290.888" height="4.36905" transform="matrix(0.725515 -0.675902 0.675863 0.725445 85.1519 101.54)" fill="white"/>
<rect width="290.888" height="4.36905" transform="matrix(0.725515 -0.675902 0.675863 0.725445 26.628 38.7212)" fill="white"/>
<rect width="290.888" height="4.36905" transform="matrix(0.725515 -0.675902 0.675863 0.725445 143.676 164.358)" fill="white"/>
<rect width="290.888" height="4.36905" transform="matrix(0.725515 -0.675902 0.675863 0.725445 91.0043 107.821)" fill="white"/>
<rect width="290.888" height="4.36905" transform="matrix(0.725515 -0.675902 0.675863 0.725445 32.4803 45.0029)" fill="white"/>
<rect width="290.888" height="4.36905" transform="matrix(0.725515 -0.675902 0.675863 0.725445 149.528 170.64)" fill="white"/>
<rect width="290.888" height="4.36905" transform="matrix(0.725515 -0.675902 0.675863 0.725445 96.8566 114.103)" fill="white"/>
<rect width="290.888" height="4.36905" transform="matrix(0.725515 -0.675902 0.675863 0.725445 38.3327 51.2847)" fill="white"/>
<rect width="290.888" height="4.36905" transform="matrix(0.725515 -0.675902 0.675863 0.725445 155.381 176.922)" fill="white"/>
<rect width="290.888" height="4.36905" transform="matrix(0.725515 -0.675902 0.675863 0.725445 102.709 120.385)" fill="white"/>
<rect width="290.888" height="4.36905" transform="matrix(0.725515 -0.675902 0.675863 0.725445 44.1851 57.5664)" fill="white"/>
<rect width="290.888" height="4.36905" transform="matrix(0.725515 -0.675902 0.675863 0.725445 161.233 183.204)" fill="white"/>
<rect width="290.888" height="4.36905" transform="matrix(0.725515 -0.675902 0.675863 0.725445 -8.48637 1.02979)" fill="white"/>
<rect width="290.888" height="4.36905" transform="matrix(0.725515 -0.675902 0.675863 0.725445 108.561 126.667)" fill="white"/>
<rect width="290.888" height="4.36905" transform="matrix(0.725515 -0.675902 0.675863 0.725445 50.0375 63.8481)" fill="white"/>
<rect width="290.888" height="4.36905" transform="matrix(0.725515 -0.675902 0.675863 0.725445 167.085 189.485)" fill="white"/>
<rect width="290.888" height="4.36905" transform="matrix(0.725515 -0.675902 0.675863 0.725445 -2.634 7.31152)" fill="white"/>
<rect width="290.888" height="4.36905" transform="matrix(0.725515 -0.675902 0.675863 0.725445 114.414 132.949)" fill="white"/>
<rect width="290.888" height="4.36905" transform="matrix(0.725515 -0.675902 0.675863 0.725445 55.8899 70.1304)" fill="white"/>
<rect width="290.888" height="4.36905" transform="matrix(0.725515 -0.675902 0.675863 0.725445 172.938 195.767)" fill="white"/>
<rect width="290.888" height="4.36905" transform="matrix(0.725515 -0.675902 0.675863 0.725445 3.21841 13.5938)" fill="white"/>
<rect width="290.888" height="4.36905" transform="matrix(0.725515 -0.675902 0.675863 0.725445 120.266 139.23)" fill="white"/>
<rect width="290.888" height="4.36905" transform="matrix(0.725515 -0.675902 0.675863 0.725445 61.7423 76.4121)" fill="white"/>
<rect width="290.888" height="4.36905" transform="matrix(0.725515 -0.675902 0.675863 0.725445 9.0708 19.8755)" fill="white"/>
<rect width="290.888" height="4.36905" transform="matrix(0.725515 -0.675902 0.675863 0.725445 126.119 145.512)" fill="white"/>
<rect width="290.888" height="4.36905" transform="matrix(0.725515 -0.675902 0.675863 0.725445 67.5947 82.6938)" fill="white"/>
</g>
<defs>
<linearGradient id="paint0_linear" x1="83.7046" y1="1.5" x2="411.103" y2="1.50021" gradientUnits="userSpaceOnUse">
<stop stop-color="#DBC266"/>
<stop offset="0.463542" stop-color="#AE8930"/>
<stop offset="0.827015" stop-color="#CFA43D"/>
<stop offset="0.906096" stop-color="#F5E38B"/>
</linearGradient>
<linearGradient id="paint1_linear" x1="83.7046" y1="1.5" x2="411.103" y2="1.50021" gradientUnits="userSpaceOnUse">
<stop stop-color="#DBC266"/>
<stop offset="0.463542" stop-color="#AE8930"/>
<stop offset="0.827015" stop-color="#CFA43D"/>
<stop offset="0.906096" stop-color="#F5E38B"/>
</linearGradient>
</defs>
</svg>
