<svg width="24" height="24" viewBox="0 0 24 24" fill="none" xmlns="http://www.w3.org/2000/svg">
<path d="M12.0003 14.4023C13.3242 14.4023 14.4036 13.3249 14.4036 12C14.4036 11.477 14.2325 10.9941 13.9492 10.5997C13.5128 9.9945 12.8032 9.59766 12.0018 9.59766C11.1999 9.59766 10.4908 9.99401 10.0533 10.5992C9.7691 10.9936 9.59944 11.4765 9.59895 11.9995C9.5975 13.3244 10.6759 14.4023 12.0003 14.4023Z" fill="#2958F9"/>
<path d="M12.0003 14.4023C13.3242 14.4023 14.4036 13.3249 14.4036 12C14.4036 11.477 14.2325 10.9941 13.9492 10.5997C13.5128 9.9945 12.8032 9.59766 12.0018 9.59766C11.1999 9.59766 10.4908 9.99401 10.0533 10.5992C9.7691 10.9936 9.59944 11.4765 9.59895 11.9995C9.5975 13.3244 10.6759 14.4023 12.0003 14.4023Z" fill="url(#paint0_linear)"/>
<path d="M17.2463 9.06143V7.04773V6.74805L16.9451 6.74901L14.9324 6.7553L14.9401 9.06916L17.2463 9.06143Z" fill="#2958F9"/>
<path d="M17.2463 9.06143V7.04773V6.74805L16.9451 6.74901L14.9324 6.7553L14.9401 9.06916L17.2463 9.06143Z" fill="url(#paint1_linear)"/>
<path d="M12.0008 0C5.38402 0 0.000793457 5.38323 0.000793457 12C0.000793457 18.6163 5.38402 24 12.0008 24C18.6171 24 24.0008 18.6163 24.0008 12C24.0008 5.38323 18.618 0 12.0008 0ZM18.8254 10.5997V16.1874C18.8254 17.6428 17.6421 18.8256 16.1877 18.8256H7.81389C6.35897 18.8256 5.17617 17.6428 5.17617 16.1874V10.5997V7.81358C5.17617 6.35866 6.35897 5.17586 7.81389 5.17586H16.1872C17.6421 5.17586 18.8254 6.35866 18.8254 7.81358V10.5997Z" fill="#2958F9"/>
<path d="M12.0008 0C5.38402 0 0.000793457 5.38323 0.000793457 12C0.000793457 18.6163 5.38402 24 12.0008 24C18.6171 24 24.0008 18.6163 24.0008 12C24.0008 5.38323 18.618 0 12.0008 0ZM18.8254 10.5997V16.1874C18.8254 17.6428 17.6421 18.8256 16.1877 18.8256H7.81389C6.35897 18.8256 5.17617 17.6428 5.17617 16.1874V10.5997V7.81358C5.17617 6.35866 6.35897 5.17586 7.81389 5.17586H16.1872C17.6421 5.17586 18.8254 6.35866 18.8254 7.81358V10.5997Z" fill="url(#paint2_linear)"/>
<path d="M15.7338 11.9999C15.7338 14.0576 14.0594 15.7329 12.0008 15.7329C9.94214 15.7329 8.26825 14.0576 8.26825 11.9999C8.26825 11.505 8.36686 11.0317 8.54281 10.5996H6.50542V16.1873C6.50542 16.9094 7.09175 17.4943 7.81341 17.4943H16.1867C16.9074 17.4943 17.4947 16.9094 17.4947 16.1873V10.5996H15.4564C15.6338 11.0317 15.7338 11.505 15.7338 11.9999Z" fill="#2958F9"/>
<path d="M15.7338 11.9999C15.7338 14.0576 14.0594 15.7329 12.0008 15.7329C9.94214 15.7329 8.26825 14.0576 8.26825 11.9999C8.26825 11.505 8.36686 11.0317 8.54281 10.5996H6.50542V16.1873C6.50542 16.9094 7.09175 17.4943 7.81341 17.4943H16.1867C16.9074 17.4943 17.4947 16.9094 17.4947 16.1873V10.5996H15.4564C15.6338 11.0317 15.7338 11.505 15.7338 11.9999Z" fill="url(#paint3_linear)"/>
<defs>
<linearGradient id="paint0_linear" x1="13.1111" y1="9.7448" x2="11.0841" y2="13.5359" gradientUnits="userSpaceOnUse">
<stop offset="1" stop-color="#1B2232"/>
</linearGradient>
<linearGradient id="paint1_linear" x1="16.6238" y1="6.81913" x2="15.6429" y2="8.64807" gradientUnits="userSpaceOnUse">
<stop offset="1" stop-color="#1B2232"/>
</linearGradient>
<linearGradient id="paint2_linear" x1="17.5445" y1="0.735" x2="7.41946" y2="19.6724" gradientUnits="userSpaceOnUse">
<stop offset="1" stop-color="#1B2232"/>
</linearGradient>
<linearGradient id="paint3_linear" x1="14.5385" y1="10.8108" x2="12.4292" y2="17.0987" gradientUnits="userSpaceOnUse">
<stop offset="1" stop-color="#1B2232"/>
</linearGradient>
</defs>
</svg>
