<svg width="48" height="48" viewBox="0 0 48 48" fill="none" xmlns="http://www.w3.org/2000/svg">
<rect x="0.5" y="0.5" width="47" height="47" rx="23.5" stroke="url(#paint0_linear)"/>
<g clip-path="url(#clip0)">
<path d="M32.9824 20.292C32.9402 19.3356 32.7855 18.6781 32.564 18.1084C32.3354 17.5036 31.9838 16.9621 31.5231 16.512C31.073 16.0549 30.528 15.6997 29.9302 15.4747C29.3571 15.2531 28.703 15.0985 27.7466 15.0563C26.7831 15.0106 26.4772 15 24.0334 15C21.5895 15 21.2836 15.0106 20.3237 15.0527C19.3673 15.0949 18.7097 15.2497 18.1401 15.4711C17.5352 15.6997 16.9937 16.0513 16.5436 16.512C16.0865 16.9621 15.7314 17.5072 15.5063 18.1049C15.2848 18.6781 15.1301 19.3321 15.0879 20.2885C15.0422 21.252 15.0316 21.5579 15.0316 24.0018C15.0316 26.4456 15.0422 26.7515 15.0844 27.7115C15.1265 28.6679 15.2813 29.3254 15.5029 29.8952C15.7314 30.4999 16.0865 31.0414 16.5436 31.4915C16.9937 31.9486 17.5388 32.3038 18.1365 32.5288C18.7097 32.7504 19.3637 32.905 20.3202 32.9472C21.2801 32.9895 21.5861 32.9999 24.0299 32.9999C26.4738 32.9999 26.7797 32.9895 27.7396 32.9472C28.696 32.905 29.3536 32.7504 29.9232 32.5288C31.1329 32.0611 32.0893 31.1047 32.557 29.8952C32.7784 29.322 32.9332 28.6679 32.9754 27.7115C33.0175 26.7515 33.0281 26.4456 33.0281 24.0018C33.0281 21.5579 33.0245 21.252 32.9824 20.292ZM31.3614 27.6411C31.3227 28.5202 31.175 28.9949 31.052 29.3114C30.7495 30.0956 30.1272 30.7179 29.343 31.0204C29.0265 31.1434 28.5484 31.2911 27.6727 31.3297C26.7233 31.372 26.4386 31.3824 24.0369 31.3824C21.6353 31.3824 21.347 31.372 20.401 31.3297C19.5219 31.2911 19.0472 31.1434 18.7307 31.0204C18.3405 30.8761 17.9853 30.6476 17.697 30.3487C17.3981 30.0568 17.1696 29.7052 17.0253 29.315C16.9023 28.9985 16.7546 28.5202 16.716 27.6447C16.6737 26.6953 16.6633 26.4104 16.6633 24.0088C16.6633 21.6071 16.6737 21.3188 16.716 20.373C16.7546 19.4939 16.9023 19.0192 17.0253 18.7027C17.1696 18.3123 17.3981 17.9573 17.7006 17.6688C17.9923 17.3699 18.344 17.1414 18.7343 16.9973C19.0508 16.8742 19.5291 16.7266 20.4046 16.6878C21.354 16.6457 21.6388 16.6351 24.0404 16.6351C26.4456 16.6351 26.7303 16.6457 27.6763 16.6878C28.5554 16.7266 29.0301 16.8742 29.3466 16.9973C29.7368 17.1414 30.092 17.3699 30.3803 17.6688C30.6792 17.9607 30.9077 18.3123 31.052 18.7027C31.175 19.0192 31.3227 19.4973 31.3614 20.373C31.4036 21.3224 31.4142 21.6071 31.4142 24.0088C31.4142 26.4104 31.4036 26.6917 31.3614 27.6411Z" fill="url(#paint1_linear)"/>
<path d="M24.0334 19.3779C21.4806 19.3779 19.4094 21.449 19.4094 24.0019C19.4094 26.5548 21.4806 28.6258 24.0334 28.6258C26.5863 28.6258 28.6573 26.5548 28.6573 24.0019C28.6573 21.449 26.5863 19.3779 24.0334 19.3779ZM24.0334 27.0013C22.3773 27.0013 21.0339 25.6581 21.0339 24.0019C21.0339 22.3456 22.3773 21.0024 24.0334 21.0024C25.6896 21.0024 27.0328 22.3456 27.0328 24.0019C27.0328 25.6581 25.6896 27.0013 24.0334 27.0013Z" fill="url(#paint2_linear)"/>
<path d="M29.9197 19.1952C29.9197 19.7913 29.4364 20.2747 28.8401 20.2747C28.244 20.2747 27.7606 19.7913 27.7606 19.1952C27.7606 18.5989 28.244 18.1157 28.8401 18.1157C29.4364 18.1157 29.9197 18.5989 29.9197 19.1952Z" fill="url(#paint3_linear)"/>
</g>
<defs>
<linearGradient id="paint0_linear" x1="10.5178" y1="24" x2="51.6568" y2="24" gradientUnits="userSpaceOnUse">
<stop stop-color="#DBC266"/>
<stop offset="0.463542" stop-color="#AE8930"/>
<stop offset="0.827015" stop-color="#CFA43D"/>
<stop offset="0.906096" stop-color="#F5E38B"/>
</linearGradient>
<linearGradient id="paint1_linear" x1="18.975" y1="24" x2="34.3991" y2="24" gradientUnits="userSpaceOnUse">
<stop stop-color="#DBC266"/>
<stop offset="0.463542" stop-color="#AE8930"/>
<stop offset="0.827015" stop-color="#CFA43D"/>
<stop offset="0.906096" stop-color="#F5E38B"/>
</linearGradient>
<linearGradient id="paint2_linear" x1="21.4358" y1="24.0019" x2="29.3619" y2="24.0019" gradientUnits="userSpaceOnUse">
<stop stop-color="#DBC266"/>
<stop offset="0.463542" stop-color="#AE8930"/>
<stop offset="0.827015" stop-color="#CFA43D"/>
<stop offset="0.906096" stop-color="#F5E38B"/>
</linearGradient>
<linearGradient id="paint3_linear" x1="28.2337" y1="19.1952" x2="30.0842" y2="19.1952" gradientUnits="userSpaceOnUse">
<stop stop-color="#DBC266"/>
<stop offset="0.463542" stop-color="#AE8930"/>
<stop offset="0.827015" stop-color="#CFA43D"/>
<stop offset="0.906096" stop-color="#F5E38B"/>
</linearGradient>
<clipPath id="clip0">
<rect width="18" height="18" fill="white" transform="translate(15 15)"/>
</clipPath>
</defs>
</svg>
