<svg width="280" height="352" viewBox="0 0 280 352" fill="none" xmlns="http://www.w3.org/2000/svg">
<mask id="mask0" mask-type="alpha" maskUnits="userSpaceOnUse" x="0" y="0" width="280" height="352">
<path d="M260 -1.74846e-06C271.046 -7.82811e-07 280 8.9543 280 20L280 332C280 343.046 271.046 352 260 352L-2.55242e-07 352L3.05176e-05 -2.44784e-05L260 -1.74846e-06Z" fill="url(#paint0_linear)"/>
</mask>
<g mask="url(#mask0)">
<rect x="37.1331" y="-80" width="531.395" height="4.29279" transform="rotate(47.027 37.1331 -80)" fill="#2958F9"/>
<rect x="37.1331" y="-80" width="531.395" height="4.29279" transform="rotate(47.027 37.1331 -80)" fill="url(#paint1_linear)"/>
<rect x="-88.5039" y="37.0478" width="531.395" height="4.29279" transform="rotate(47.027 -88.5039 37.0478)" fill="#2958F9"/>
<rect x="-88.5039" y="37.0478" width="531.395" height="4.29279" transform="rotate(47.027 -88.5039 37.0478)" fill="url(#paint2_linear)"/>
<rect x="-25.6854" y="-21.4761" width="531.395" height="4.29279" transform="rotate(47.027 -25.6854 -21.4761)" fill="#2958F9"/>
<rect x="-25.6854" y="-21.4761" width="531.395" height="4.29279" transform="rotate(47.027 -25.6854 -21.4761)" fill="url(#paint3_linear)"/>
<rect x="-151.322" y="95.5717" width="531.395" height="4.29279" transform="rotate(47.027 -151.322 95.5717)" fill="#2958F9"/>
<rect x="-151.322" y="95.5717" width="531.395" height="4.29279" transform="rotate(47.027 -151.322 95.5717)" fill="url(#paint4_linear)"/>
<rect x="30.8512" y="-74.1476" width="531.395" height="4.29279" transform="rotate(47.027 30.8512 -74.1476)" fill="#2958F9"/>
<rect x="30.8512" y="-74.1476" width="531.395" height="4.29279" transform="rotate(47.027 30.8512 -74.1476)" fill="url(#paint5_linear)"/>
<rect x="-94.7858" y="42.9002" width="531.395" height="4.29279" transform="rotate(47.027 -94.7858 42.9002)" fill="#2958F9"/>
<rect x="-94.7858" y="42.9002" width="531.395" height="4.29279" transform="rotate(47.027 -94.7858 42.9002)" fill="url(#paint6_linear)"/>
<rect x="-31.9673" y="-15.6237" width="531.395" height="4.29279" transform="rotate(47.027 -31.9673 -15.6237)" fill="#2958F9"/>
<rect x="-31.9673" y="-15.6237" width="531.395" height="4.29279" transform="rotate(47.027 -31.9673 -15.6237)" fill="url(#paint7_linear)"/>
<rect x="-157.604" y="101.424" width="531.395" height="4.29279" transform="rotate(47.027 -157.604 101.424)" fill="#2958F9"/>
<rect x="-157.604" y="101.424" width="531.395" height="4.29279" transform="rotate(47.027 -157.604 101.424)" fill="url(#paint8_linear)"/>
<rect x="24.5693" y="-68.2952" width="531.395" height="4.29279" transform="rotate(47.027 24.5693 -68.2952)" fill="#2958F9"/>
<rect x="24.5693" y="-68.2952" width="531.395" height="4.29279" transform="rotate(47.027 24.5693 -68.2952)" fill="url(#paint9_linear)"/>
<rect x="-101.068" y="48.7526" width="531.395" height="4.29279" transform="rotate(47.027 -101.068 48.7526)" fill="#2958F9"/>
<rect x="-101.068" y="48.7526" width="531.395" height="4.29279" transform="rotate(47.027 -101.068 48.7526)" fill="url(#paint10_linear)"/>
<rect x="-38.2491" y="-9.7713" width="531.395" height="4.29279" transform="rotate(47.027 -38.2491 -9.7713)" fill="#2958F9"/>
<rect x="-38.2491" y="-9.7713" width="531.395" height="4.29279" transform="rotate(47.027 -38.2491 -9.7713)" fill="url(#paint11_linear)"/>
<rect x="-163.886" y="107.276" width="531.395" height="4.29279" transform="rotate(47.027 -163.886 107.276)" fill="#2958F9"/>
<rect x="-163.886" y="107.276" width="531.395" height="4.29279" transform="rotate(47.027 -163.886 107.276)" fill="url(#paint12_linear)"/>
<rect x="18.2875" y="-62.4428" width="531.395" height="4.29279" transform="rotate(47.027 18.2875 -62.4428)" fill="#2958F9"/>
<rect x="18.2875" y="-62.4428" width="531.395" height="4.29279" transform="rotate(47.027 18.2875 -62.4428)" fill="url(#paint13_linear)"/>
<rect x="-107.349" y="54.605" width="531.395" height="4.29279" transform="rotate(47.027 -107.349 54.605)" fill="#2958F9"/>
<rect x="-107.349" y="54.605" width="531.395" height="4.29279" transform="rotate(47.027 -107.349 54.605)" fill="url(#paint14_linear)"/>
<rect x="-44.5309" y="-3.91895" width="531.395" height="4.29279" transform="rotate(47.027 -44.5309 -3.91895)" fill="#2958F9"/>
<rect x="-44.5309" y="-3.91895" width="531.395" height="4.29279" transform="rotate(47.027 -44.5309 -3.91895)" fill="url(#paint15_linear)"/>
<rect x="-170.168" y="113.129" width="531.395" height="4.29279" transform="rotate(47.027 -170.168 113.129)" fill="#2958F9"/>
<rect x="-170.168" y="113.129" width="531.395" height="4.29279" transform="rotate(47.027 -170.168 113.129)" fill="url(#paint16_linear)"/>
<rect x="12.0057" y="-56.5905" width="531.395" height="4.29279" transform="rotate(47.027 12.0057 -56.5905)" fill="#2958F9"/>
<rect x="12.0057" y="-56.5905" width="531.395" height="4.29279" transform="rotate(47.027 12.0057 -56.5905)" fill="url(#paint17_linear)"/>
<rect x="-113.631" y="60.4574" width="531.395" height="4.29279" transform="rotate(47.027 -113.631 60.4574)" fill="#2958F9"/>
<rect x="-113.631" y="60.4574" width="531.395" height="4.29279" transform="rotate(47.027 -113.631 60.4574)" fill="url(#paint18_linear)"/>
<rect x="-50.8128" y="1.93347" width="531.395" height="4.29279" transform="rotate(47.027 -50.8128 1.93347)" fill="#2958F9"/>
<rect x="-50.8128" y="1.93347" width="531.395" height="4.29279" transform="rotate(47.027 -50.8128 1.93347)" fill="url(#paint19_linear)"/>
<rect x="-176.45" y="118.981" width="531.395" height="4.29279" transform="rotate(47.027 -176.45 118.981)" fill="#2958F9"/>
<rect x="-176.45" y="118.981" width="531.395" height="4.29279" transform="rotate(47.027 -176.45 118.981)" fill="url(#paint20_linear)"/>
<rect x="5.72382" y="-50.738" width="531.395" height="4.29279" transform="rotate(47.027 5.72382 -50.738)" fill="#2958F9"/>
<rect x="5.72382" y="-50.738" width="531.395" height="4.29279" transform="rotate(47.027 5.72382 -50.738)" fill="url(#paint21_linear)"/>
<rect x="-119.913" y="66.3098" width="531.395" height="4.29279" transform="rotate(47.027 -119.913 66.3098)" fill="#2958F9"/>
<rect x="-119.913" y="66.3098" width="531.395" height="4.29279" transform="rotate(47.027 -119.913 66.3098)" fill="url(#paint22_linear)"/>
<rect x="-57.0947" y="7.78589" width="531.395" height="4.29279" transform="rotate(47.027 -57.0947 7.78589)" fill="#2958F9"/>
<rect x="-57.0947" y="7.78589" width="531.395" height="4.29279" transform="rotate(47.027 -57.0947 7.78589)" fill="url(#paint23_linear)"/>
<rect x="-182.732" y="124.834" width="531.395" height="4.29279" transform="rotate(47.027 -182.732 124.834)" fill="#2958F9"/>
<rect x="-182.732" y="124.834" width="531.395" height="4.29279" transform="rotate(47.027 -182.732 124.834)" fill="url(#paint24_linear)"/>
<rect x="-0.558044" y="-44.8856" width="531.395" height="4.29279" transform="rotate(47.027 -0.558044 -44.8856)" fill="#2958F9"/>
<rect x="-0.558044" y="-44.8856" width="531.395" height="4.29279" transform="rotate(47.027 -0.558044 -44.8856)" fill="url(#paint25_linear)"/>
<rect x="-126.195" y="72.1622" width="531.395" height="4.29279" transform="rotate(47.027 -126.195 72.1622)" fill="#2958F9"/>
<rect x="-126.195" y="72.1622" width="531.395" height="4.29279" transform="rotate(47.027 -126.195 72.1622)" fill="url(#paint26_linear)"/>
<rect x="-63.3765" y="13.6382" width="531.395" height="4.29279" transform="rotate(47.027 -63.3765 13.6382)" fill="#2958F9"/>
<rect x="-63.3765" y="13.6382" width="531.395" height="4.29279" transform="rotate(47.027 -63.3765 13.6382)" fill="url(#paint27_linear)"/>
<rect x="-189.013" y="130.686" width="531.395" height="4.29279" transform="rotate(47.027 -189.013 130.686)" fill="#2958F9"/>
<rect x="-189.013" y="130.686" width="531.395" height="4.29279" transform="rotate(47.027 -189.013 130.686)" fill="url(#paint28_linear)"/>
<rect x="-6.83984" y="-39.0333" width="531.395" height="4.29279" transform="rotate(47.027 -6.83984 -39.0333)" fill="#2958F9"/>
<rect x="-6.83984" y="-39.0333" width="531.395" height="4.29279" transform="rotate(47.027 -6.83984 -39.0333)" fill="url(#paint29_linear)"/>
<rect x="-132.477" y="78.0145" width="531.395" height="4.29279" transform="rotate(47.027 -132.477 78.0145)" fill="#2958F9"/>
<rect x="-132.477" y="78.0145" width="531.395" height="4.29279" transform="rotate(47.027 -132.477 78.0145)" fill="url(#paint30_linear)"/>
<rect x="-69.6583" y="19.4907" width="531.395" height="4.29279" transform="rotate(47.027 -69.6583 19.4907)" fill="#2958F9"/>
<rect x="-69.6583" y="19.4907" width="531.395" height="4.29279" transform="rotate(47.027 -69.6583 19.4907)" fill="url(#paint31_linear)"/>
<rect x="-195.295" y="136.538" width="531.395" height="4.29279" transform="rotate(47.027 -195.295 136.538)" fill="#2958F9"/>
<rect x="-195.295" y="136.538" width="531.395" height="4.29279" transform="rotate(47.027 -195.295 136.538)" fill="url(#paint32_linear)"/>
<rect x="-13.1217" y="-33.1808" width="531.395" height="4.29279" transform="rotate(47.027 -13.1217 -33.1808)" fill="#2958F9"/>
<rect x="-13.1217" y="-33.1808" width="531.395" height="4.29279" transform="rotate(47.027 -13.1217 -33.1808)" fill="url(#paint33_linear)"/>
<rect x="-138.759" y="83.8669" width="531.395" height="4.29279" transform="rotate(47.027 -138.759 83.8669)" fill="#2958F9"/>
<rect x="-138.759" y="83.8669" width="531.395" height="4.29279" transform="rotate(47.027 -138.759 83.8669)" fill="url(#paint34_linear)"/>
<rect x="-75.9402" y="25.343" width="531.395" height="4.29279" transform="rotate(47.027 -75.9402 25.343)" fill="#2958F9"/>
<rect x="-75.9402" y="25.343" width="531.395" height="4.29279" transform="rotate(47.027 -75.9402 25.343)" fill="url(#paint35_linear)"/>
<rect x="-201.577" y="142.391" width="531.395" height="4.29279" transform="rotate(47.027 -201.577 142.391)" fill="#2958F9"/>
<rect x="-201.577" y="142.391" width="531.395" height="4.29279" transform="rotate(47.027 -201.577 142.391)" fill="url(#paint36_linear)"/>
<rect x="-19.4036" y="-27.3285" width="531.395" height="4.29279" transform="rotate(47.027 -19.4036 -27.3285)" fill="#2958F9"/>
<rect x="-19.4036" y="-27.3285" width="531.395" height="4.29279" transform="rotate(47.027 -19.4036 -27.3285)" fill="url(#paint37_linear)"/>
<rect x="-145.041" y="89.7193" width="531.395" height="4.29279" transform="rotate(47.027 -145.041 89.7193)" fill="#2958F9"/>
<rect x="-145.041" y="89.7193" width="531.395" height="4.29279" transform="rotate(47.027 -145.041 89.7193)" fill="url(#paint38_linear)"/>
<rect x="-82.222" y="31.1954" width="531.395" height="4.29279" transform="rotate(47.027 -82.222 31.1954)" fill="#2958F9"/>
<rect x="-82.222" y="31.1954" width="531.395" height="4.29279" transform="rotate(47.027 -82.222 31.1954)" fill="url(#paint39_linear)"/>
<rect x="-207.859" y="148.243" width="531.395" height="4.29279" transform="rotate(47.027 -207.859 148.243)" fill="#2958F9"/>
<rect x="-207.859" y="148.243" width="531.395" height="4.29279" transform="rotate(47.027 -207.859 148.243)" fill="url(#paint40_linear)"/>
<rect x="189.496" y="-168.952" width="531.395" height="4.29279" transform="rotate(47.027 189.496 -168.952)" fill="#2958F9"/>
<rect x="189.496" y="-168.952" width="531.395" height="4.29279" transform="rotate(47.027 189.496 -168.952)" fill="url(#paint41_linear)"/>
<rect x="252.315" y="-227.476" width="531.395" height="4.29279" transform="rotate(47.027 252.315 -227.476)" fill="#2958F9"/>
<rect x="252.315" y="-227.476" width="531.395" height="4.29279" transform="rotate(47.027 252.315 -227.476)" fill="url(#paint42_linear)"/>
<rect x="126.678" y="-110.428" width="531.395" height="4.29279" transform="rotate(47.027 126.678 -110.428)" fill="#2958F9"/>
<rect x="126.678" y="-110.428" width="531.395" height="4.29279" transform="rotate(47.027 126.678 -110.428)" fill="url(#paint43_linear)"/>
<rect x="183.214" y="-163.1" width="531.395" height="4.29279" transform="rotate(47.027 183.214 -163.1)" fill="#2958F9"/>
<rect x="183.214" y="-163.1" width="531.395" height="4.29279" transform="rotate(47.027 183.214 -163.1)" fill="url(#paint44_linear)"/>
<rect x="246.033" y="-221.624" width="531.395" height="4.29279" transform="rotate(47.027 246.033 -221.624)" fill="#2958F9"/>
<rect x="246.033" y="-221.624" width="531.395" height="4.29279" transform="rotate(47.027 246.033 -221.624)" fill="url(#paint45_linear)"/>
<rect x="120.396" y="-104.576" width="531.395" height="4.29279" transform="rotate(47.027 120.396 -104.576)" fill="#2958F9"/>
<rect x="120.396" y="-104.576" width="531.395" height="4.29279" transform="rotate(47.027 120.396 -104.576)" fill="url(#paint46_linear)"/>
<rect x="176.932" y="-157.247" width="531.395" height="4.29279" transform="rotate(47.027 176.932 -157.247)" fill="#2958F9"/>
<rect x="176.932" y="-157.247" width="531.395" height="4.29279" transform="rotate(47.027 176.932 -157.247)" fill="url(#paint47_linear)"/>
<rect x="239.751" y="-215.771" width="531.395" height="4.29279" transform="rotate(47.027 239.751 -215.771)" fill="#2958F9"/>
<rect x="239.751" y="-215.771" width="531.395" height="4.29279" transform="rotate(47.027 239.751 -215.771)" fill="url(#paint48_linear)"/>
<rect x="114.114" y="-98.7235" width="531.395" height="4.29279" transform="rotate(47.027 114.114 -98.7235)" fill="#2958F9"/>
<rect x="114.114" y="-98.7235" width="531.395" height="4.29279" transform="rotate(47.027 114.114 -98.7235)" fill="url(#paint49_linear)"/>
<rect x="170.651" y="-151.395" width="531.395" height="4.29279" transform="rotate(47.027 170.651 -151.395)" fill="#2958F9"/>
<rect x="170.651" y="-151.395" width="531.395" height="4.29279" transform="rotate(47.027 170.651 -151.395)" fill="url(#paint50_linear)"/>
<rect x="233.469" y="-209.919" width="531.395" height="4.29279" transform="rotate(47.027 233.469 -209.919)" fill="#2958F9"/>
<rect x="233.469" y="-209.919" width="531.395" height="4.29279" transform="rotate(47.027 233.469 -209.919)" fill="url(#paint51_linear)"/>
<rect x="107.832" y="-92.8711" width="531.395" height="4.29279" transform="rotate(47.027 107.832 -92.8711)" fill="#2958F9"/>
<rect x="107.832" y="-92.8711" width="531.395" height="4.29279" transform="rotate(47.027 107.832 -92.8711)" fill="url(#paint52_linear)"/>
<rect x="164.369" y="-145.543" width="531.395" height="4.29279" transform="rotate(47.027 164.369 -145.543)" fill="#2958F9"/>
<rect x="164.369" y="-145.543" width="531.395" height="4.29279" transform="rotate(47.027 164.369 -145.543)" fill="url(#paint53_linear)"/>
<rect x="227.187" y="-204.067" width="531.395" height="4.29279" transform="rotate(47.027 227.187 -204.067)" fill="#2958F9"/>
<rect x="227.187" y="-204.067" width="531.395" height="4.29279" transform="rotate(47.027 227.187 -204.067)" fill="url(#paint54_linear)"/>
<rect x="101.55" y="-87.0187" width="531.395" height="4.29279" transform="rotate(47.027 101.55 -87.0187)" fill="#2958F9"/>
<rect x="101.55" y="-87.0187" width="531.395" height="4.29279" transform="rotate(47.027 101.55 -87.0187)" fill="url(#paint55_linear)"/>
<rect x="158.087" y="-139.69" width="531.395" height="4.29279" transform="rotate(47.027 158.087 -139.69)" fill="#2958F9"/>
<rect x="158.087" y="-139.69" width="531.395" height="4.29279" transform="rotate(47.027 158.087 -139.69)" fill="url(#paint56_linear)"/>
<rect x="220.905" y="-198.214" width="531.395" height="4.29279" transform="rotate(47.027 220.905 -198.214)" fill="#2958F9"/>
<rect x="220.905" y="-198.214" width="531.395" height="4.29279" transform="rotate(47.027 220.905 -198.214)" fill="url(#paint57_linear)"/>
<rect x="95.2684" y="-81.1663" width="531.395" height="4.29279" transform="rotate(47.027 95.2684 -81.1663)" fill="#2958F9"/>
<rect x="95.2684" y="-81.1663" width="531.395" height="4.29279" transform="rotate(47.027 95.2684 -81.1663)" fill="url(#paint58_linear)"/>
<rect x="277.442" y="-250.886" width="531.395" height="4.29279" transform="rotate(47.027 277.442 -250.886)" fill="#2958F9"/>
<rect x="277.442" y="-250.886" width="531.395" height="4.29279" transform="rotate(47.027 277.442 -250.886)" fill="url(#paint59_linear)"/>
<rect x="151.805" y="-133.838" width="531.395" height="4.29279" transform="rotate(47.027 151.805 -133.838)" fill="#2958F9"/>
<rect x="151.805" y="-133.838" width="531.395" height="4.29279" transform="rotate(47.027 151.805 -133.838)" fill="url(#paint60_linear)"/>
<rect x="214.623" y="-192.362" width="531.395" height="4.29279" transform="rotate(47.027 214.623 -192.362)" fill="#2958F9"/>
<rect x="214.623" y="-192.362" width="531.395" height="4.29279" transform="rotate(47.027 214.623 -192.362)" fill="url(#paint61_linear)"/>
<rect x="88.9866" y="-75.314" width="531.395" height="4.29279" transform="rotate(47.027 88.9866 -75.314)" fill="#2958F9"/>
<rect x="88.9866" y="-75.314" width="531.395" height="4.29279" transform="rotate(47.027 88.9866 -75.314)" fill="url(#paint62_linear)"/>
<rect x="271.16" y="-245.033" width="531.395" height="4.29279" transform="rotate(47.027 271.16 -245.033)" fill="#2958F9"/>
<rect x="271.16" y="-245.033" width="531.395" height="4.29279" transform="rotate(47.027 271.16 -245.033)" fill="url(#paint63_linear)"/>
<rect x="145.523" y="-127.985" width="531.395" height="4.29279" transform="rotate(47.027 145.523 -127.985)" fill="#2958F9"/>
<rect x="145.523" y="-127.985" width="531.395" height="4.29279" transform="rotate(47.027 145.523 -127.985)" fill="url(#paint64_linear)"/>
<rect x="208.342" y="-186.509" width="531.395" height="4.29279" transform="rotate(47.027 208.342 -186.509)" fill="#2958F9"/>
<rect x="208.342" y="-186.509" width="531.395" height="4.29279" transform="rotate(47.027 208.342 -186.509)" fill="url(#paint65_linear)"/>
<rect x="82.7047" y="-69.4615" width="531.395" height="4.29279" transform="rotate(47.027 82.7047 -69.4615)" fill="#2958F9"/>
<rect x="82.7047" y="-69.4615" width="531.395" height="4.29279" transform="rotate(47.027 82.7047 -69.4615)" fill="url(#paint66_linear)"/>
<rect x="264.878" y="-239.181" width="531.395" height="4.29279" transform="rotate(47.027 264.878 -239.181)" fill="#2958F9"/>
<rect x="264.878" y="-239.181" width="531.395" height="4.29279" transform="rotate(47.027 264.878 -239.181)" fill="url(#paint67_linear)"/>
<rect x="139.241" y="-122.133" width="531.395" height="4.29279" transform="rotate(47.027 139.241 -122.133)" fill="#2958F9"/>
<rect x="139.241" y="-122.133" width="531.395" height="4.29279" transform="rotate(47.027 139.241 -122.133)" fill="url(#paint68_linear)"/>
<rect x="202.06" y="-180.657" width="531.395" height="4.29279" transform="rotate(47.027 202.06 -180.657)" fill="#2958F9"/>
<rect x="202.06" y="-180.657" width="531.395" height="4.29279" transform="rotate(47.027 202.06 -180.657)" fill="url(#paint69_linear)"/>
<rect x="76.4229" y="-63.6092" width="531.395" height="4.29279" transform="rotate(47.027 76.4229 -63.6092)" fill="#2958F9"/>
<rect x="76.4229" y="-63.6092" width="531.395" height="4.29279" transform="rotate(47.027 76.4229 -63.6092)" fill="url(#paint70_linear)"/>
<rect x="258.596" y="-233.328" width="531.395" height="4.29279" transform="rotate(47.027 258.596 -233.328)" fill="#2958F9"/>
<rect x="258.596" y="-233.328" width="531.395" height="4.29279" transform="rotate(47.027 258.596 -233.328)" fill="url(#paint71_linear)"/>
<rect x="132.959" y="-116.281" width="531.395" height="4.29279" transform="rotate(47.027 132.959 -116.281)" fill="#2958F9"/>
<rect x="132.959" y="-116.281" width="531.395" height="4.29279" transform="rotate(47.027 132.959 -116.281)" fill="url(#paint72_linear)"/>
<rect x="195.778" y="-174.805" width="531.395" height="4.29279" transform="rotate(47.027 195.778 -174.805)" fill="#2958F9"/>
<rect x="195.778" y="-174.805" width="531.395" height="4.29279" transform="rotate(47.027 195.778 -174.805)" fill="url(#paint73_linear)"/>
<rect x="70.141" y="-57.7568" width="531.395" height="4.29279" transform="rotate(47.027 70.141 -57.7568)" fill="#2958F9"/>
<rect x="70.141" y="-57.7568" width="531.395" height="4.29279" transform="rotate(47.027 70.141 -57.7568)" fill="url(#paint74_linear)"/>
</g>
<defs>
<linearGradient id="paint0_linear" x1="140" y1="77.1302" x2="140" y2="378.817" gradientUnits="userSpaceOnUse">
<stop stop-color="#DBC266"/>
<stop offset="0.463542" stop-color="#AE8930"/>
<stop offset="0.827015" stop-color="#CFA43D"/>
<stop offset="0.906096" stop-color="#F5E38B"/>
</linearGradient>
<linearGradient id="paint1_linear" x1="425.577" y1="-79.8685" x2="425.558" y2="-75.5131" gradientUnits="userSpaceOnUse">
<stop offset="1" stop-color="#1B2232"/>
</linearGradient>
<linearGradient id="paint2_linear" x1="299.94" y1="37.1793" x2="299.921" y2="41.5347" gradientUnits="userSpaceOnUse">
<stop offset="1" stop-color="#1B2232"/>
</linearGradient>
<linearGradient id="paint3_linear" x1="362.759" y1="-21.3446" x2="362.74" y2="-16.9891" gradientUnits="userSpaceOnUse">
<stop offset="1" stop-color="#1B2232"/>
</linearGradient>
<linearGradient id="paint4_linear" x1="237.122" y1="95.7032" x2="237.103" y2="100.059" gradientUnits="userSpaceOnUse">
<stop offset="1" stop-color="#1B2232"/>
</linearGradient>
<linearGradient id="paint5_linear" x1="419.295" y1="-74.0161" x2="419.277" y2="-69.6607" gradientUnits="userSpaceOnUse">
<stop offset="1" stop-color="#1B2232"/>
</linearGradient>
<linearGradient id="paint6_linear" x1="293.658" y1="43.0317" x2="293.64" y2="47.3871" gradientUnits="userSpaceOnUse">
<stop offset="1" stop-color="#1B2232"/>
</linearGradient>
<linearGradient id="paint7_linear" x1="356.477" y1="-15.4923" x2="356.458" y2="-11.1368" gradientUnits="userSpaceOnUse">
<stop offset="1" stop-color="#1B2232"/>
</linearGradient>
<linearGradient id="paint8_linear" x1="230.84" y1="101.556" x2="230.821" y2="105.911" gradientUnits="userSpaceOnUse">
<stop offset="1" stop-color="#1B2232"/>
</linearGradient>
<linearGradient id="paint9_linear" x1="413.014" y1="-68.1638" x2="412.995" y2="-63.8083" gradientUnits="userSpaceOnUse">
<stop offset="1" stop-color="#1B2232"/>
</linearGradient>
<linearGradient id="paint10_linear" x1="287.377" y1="48.884" x2="287.358" y2="53.2395" gradientUnits="userSpaceOnUse">
<stop offset="1" stop-color="#1B2232"/>
</linearGradient>
<linearGradient id="paint11_linear" x1="350.195" y1="-9.63983" x2="350.176" y2="-5.28437" gradientUnits="userSpaceOnUse">
<stop offset="1" stop-color="#1B2232"/>
</linearGradient>
<linearGradient id="paint12_linear" x1="224.558" y1="107.408" x2="224.539" y2="111.763" gradientUnits="userSpaceOnUse">
<stop offset="1" stop-color="#1B2232"/>
</linearGradient>
<linearGradient id="paint13_linear" x1="406.732" y1="-62.3113" x2="406.713" y2="-57.9559" gradientUnits="userSpaceOnUse">
<stop offset="1" stop-color="#1B2232"/>
</linearGradient>
<linearGradient id="paint14_linear" x1="281.095" y1="54.7364" x2="281.076" y2="59.0919" gradientUnits="userSpaceOnUse">
<stop offset="1" stop-color="#1B2232"/>
</linearGradient>
<linearGradient id="paint15_linear" x1="343.913" y1="-3.78748" x2="343.894" y2="0.567984" gradientUnits="userSpaceOnUse">
<stop offset="1" stop-color="#1B2232"/>
</linearGradient>
<linearGradient id="paint16_linear" x1="218.276" y1="113.26" x2="218.257" y2="117.616" gradientUnits="userSpaceOnUse">
<stop offset="1" stop-color="#1B2232"/>
</linearGradient>
<linearGradient id="paint17_linear" x1="400.45" y1="-56.459" x2="400.431" y2="-52.1035" gradientUnits="userSpaceOnUse">
<stop offset="1" stop-color="#1B2232"/>
</linearGradient>
<linearGradient id="paint18_linear" x1="274.813" y1="60.5889" x2="274.794" y2="64.9443" gradientUnits="userSpaceOnUse">
<stop offset="1" stop-color="#1B2232"/>
</linearGradient>
<linearGradient id="paint19_linear" x1="337.631" y1="2.06494" x2="337.613" y2="6.4204" gradientUnits="userSpaceOnUse">
<stop offset="1" stop-color="#1B2232"/>
</linearGradient>
<linearGradient id="paint20_linear" x1="211.994" y1="119.113" x2="211.976" y2="123.468" gradientUnits="userSpaceOnUse">
<stop offset="1" stop-color="#1B2232"/>
</linearGradient>
<linearGradient id="paint21_linear" x1="394.168" y1="-50.6066" x2="394.149" y2="-46.2511" gradientUnits="userSpaceOnUse">
<stop offset="1" stop-color="#1B2232"/>
</linearGradient>
<linearGradient id="paint22_linear" x1="268.531" y1="66.4412" x2="268.512" y2="70.7967" gradientUnits="userSpaceOnUse">
<stop offset="1" stop-color="#1B2232"/>
</linearGradient>
<linearGradient id="paint23_linear" x1="331.35" y1="7.91736" x2="331.331" y2="12.2728" gradientUnits="userSpaceOnUse">
<stop offset="1" stop-color="#1B2232"/>
</linearGradient>
<linearGradient id="paint24_linear" x1="205.713" y1="124.965" x2="205.694" y2="129.321" gradientUnits="userSpaceOnUse">
<stop offset="1" stop-color="#1B2232"/>
</linearGradient>
<linearGradient id="paint25_linear" x1="387.886" y1="-44.7542" x2="387.867" y2="-40.3987" gradientUnits="userSpaceOnUse">
<stop offset="1" stop-color="#1B2232"/>
</linearGradient>
<linearGradient id="paint26_linear" x1="262.249" y1="72.2936" x2="262.23" y2="76.6491" gradientUnits="userSpaceOnUse">
<stop offset="1" stop-color="#1B2232"/>
</linearGradient>
<linearGradient id="paint27_linear" x1="325.068" y1="13.7697" x2="325.049" y2="18.1252" gradientUnits="userSpaceOnUse">
<stop offset="1" stop-color="#1B2232"/>
</linearGradient>
<linearGradient id="paint28_linear" x1="199.431" y1="130.818" x2="199.412" y2="135.173" gradientUnits="userSpaceOnUse">
<stop offset="1" stop-color="#1B2232"/>
</linearGradient>
<linearGradient id="paint29_linear" x1="381.604" y1="-38.9018" x2="381.586" y2="-34.5463" gradientUnits="userSpaceOnUse">
<stop offset="1" stop-color="#1B2232"/>
</linearGradient>
<linearGradient id="paint30_linear" x1="255.967" y1="78.146" x2="255.949" y2="82.5015" gradientUnits="userSpaceOnUse">
<stop offset="1" stop-color="#1B2232"/>
</linearGradient>
<linearGradient id="paint31_linear" x1="318.786" y1="19.6221" x2="318.767" y2="23.9776" gradientUnits="userSpaceOnUse">
<stop offset="1" stop-color="#1B2232"/>
</linearGradient>
<linearGradient id="paint32_linear" x1="193.149" y1="136.67" x2="193.13" y2="141.025" gradientUnits="userSpaceOnUse">
<stop offset="1" stop-color="#1B2232"/>
</linearGradient>
<linearGradient id="paint33_linear" x1="375.322" y1="-33.0494" x2="375.304" y2="-28.6939" gradientUnits="userSpaceOnUse">
<stop offset="1" stop-color="#1B2232"/>
</linearGradient>
<linearGradient id="paint34_linear" x1="249.686" y1="83.9984" x2="249.667" y2="88.3539" gradientUnits="userSpaceOnUse">
<stop offset="1" stop-color="#1B2232"/>
</linearGradient>
<linearGradient id="paint35_linear" x1="312.504" y1="25.4745" x2="312.485" y2="29.8299" gradientUnits="userSpaceOnUse">
<stop offset="1" stop-color="#1B2232"/>
</linearGradient>
<linearGradient id="paint36_linear" x1="186.867" y1="142.522" x2="186.848" y2="146.878" gradientUnits="userSpaceOnUse">
<stop offset="1" stop-color="#1B2232"/>
</linearGradient>
<linearGradient id="paint37_linear" x1="369.041" y1="-27.197" x2="369.022" y2="-22.8416" gradientUnits="userSpaceOnUse">
<stop offset="1" stop-color="#1B2232"/>
</linearGradient>
<linearGradient id="paint38_linear" x1="243.404" y1="89.8508" x2="243.385" y2="94.2062" gradientUnits="userSpaceOnUse">
<stop offset="1" stop-color="#1B2232"/>
</linearGradient>
<linearGradient id="paint39_linear" x1="306.222" y1="31.3269" x2="306.203" y2="35.6824" gradientUnits="userSpaceOnUse">
<stop offset="1" stop-color="#1B2232"/>
</linearGradient>
<linearGradient id="paint40_linear" x1="180.585" y1="148.375" x2="180.566" y2="152.73" gradientUnits="userSpaceOnUse">
<stop offset="1" stop-color="#1B2232"/>
</linearGradient>
<linearGradient id="paint41_linear" x1="577.94" y1="-168.821" x2="577.921" y2="-164.465" gradientUnits="userSpaceOnUse">
<stop offset="1" stop-color="#1B2232"/>
</linearGradient>
<linearGradient id="paint42_linear" x1="640.759" y1="-227.345" x2="640.74" y2="-222.989" gradientUnits="userSpaceOnUse">
<stop offset="1" stop-color="#1B2232"/>
</linearGradient>
<linearGradient id="paint43_linear" x1="515.122" y1="-110.297" x2="515.103" y2="-105.941" gradientUnits="userSpaceOnUse">
<stop offset="1" stop-color="#1B2232"/>
</linearGradient>
<linearGradient id="paint44_linear" x1="571.658" y1="-162.968" x2="571.64" y2="-158.613" gradientUnits="userSpaceOnUse">
<stop offset="1" stop-color="#1B2232"/>
</linearGradient>
<linearGradient id="paint45_linear" x1="634.477" y1="-221.492" x2="634.458" y2="-217.137" gradientUnits="userSpaceOnUse">
<stop offset="1" stop-color="#1B2232"/>
</linearGradient>
<linearGradient id="paint46_linear" x1="508.84" y1="-104.444" x2="508.821" y2="-100.089" gradientUnits="userSpaceOnUse">
<stop offset="1" stop-color="#1B2232"/>
</linearGradient>
<linearGradient id="paint47_linear" x1="565.377" y1="-157.116" x2="565.358" y2="-152.761" gradientUnits="userSpaceOnUse">
<stop offset="1" stop-color="#1B2232"/>
</linearGradient>
<linearGradient id="paint48_linear" x1="628.195" y1="-215.64" x2="628.176" y2="-211.284" gradientUnits="userSpaceOnUse">
<stop offset="1" stop-color="#1B2232"/>
</linearGradient>
<linearGradient id="paint49_linear" x1="502.558" y1="-98.592" x2="502.539" y2="-94.2366" gradientUnits="userSpaceOnUse">
<stop offset="1" stop-color="#1B2232"/>
</linearGradient>
<linearGradient id="paint50_linear" x1="559.095" y1="-151.264" x2="559.076" y2="-146.908" gradientUnits="userSpaceOnUse">
<stop offset="1" stop-color="#1B2232"/>
</linearGradient>
<linearGradient id="paint51_linear" x1="621.913" y1="-209.787" x2="621.894" y2="-205.432" gradientUnits="userSpaceOnUse">
<stop offset="1" stop-color="#1B2232"/>
</linearGradient>
<linearGradient id="paint52_linear" x1="496.276" y1="-92.7396" x2="496.257" y2="-88.3842" gradientUnits="userSpaceOnUse">
<stop offset="1" stop-color="#1B2232"/>
</linearGradient>
<linearGradient id="paint53_linear" x1="552.813" y1="-145.411" x2="552.794" y2="-141.056" gradientUnits="userSpaceOnUse">
<stop offset="1" stop-color="#1B2232"/>
</linearGradient>
<linearGradient id="paint54_linear" x1="615.631" y1="-203.935" x2="615.613" y2="-199.58" gradientUnits="userSpaceOnUse">
<stop offset="1" stop-color="#1B2232"/>
</linearGradient>
<linearGradient id="paint55_linear" x1="489.994" y1="-86.8873" x2="489.976" y2="-82.5318" gradientUnits="userSpaceOnUse">
<stop offset="1" stop-color="#1B2232"/>
</linearGradient>
<linearGradient id="paint56_linear" x1="546.531" y1="-139.559" x2="546.512" y2="-135.203" gradientUnits="userSpaceOnUse">
<stop offset="1" stop-color="#1B2232"/>
</linearGradient>
<linearGradient id="paint57_linear" x1="609.35" y1="-198.083" x2="609.331" y2="-193.727" gradientUnits="userSpaceOnUse">
<stop offset="1" stop-color="#1B2232"/>
</linearGradient>
<linearGradient id="paint58_linear" x1="483.713" y1="-81.0349" x2="483.694" y2="-76.6794" gradientUnits="userSpaceOnUse">
<stop offset="1" stop-color="#1B2232"/>
</linearGradient>
<linearGradient id="paint59_linear" x1="665.886" y1="-250.754" x2="665.867" y2="-246.399" gradientUnits="userSpaceOnUse">
<stop offset="1" stop-color="#1B2232"/>
</linearGradient>
<linearGradient id="paint60_linear" x1="540.249" y1="-133.706" x2="540.23" y2="-129.351" gradientUnits="userSpaceOnUse">
<stop offset="1" stop-color="#1B2232"/>
</linearGradient>
<linearGradient id="paint61_linear" x1="603.068" y1="-192.23" x2="603.049" y2="-187.875" gradientUnits="userSpaceOnUse">
<stop offset="1" stop-color="#1B2232"/>
</linearGradient>
<linearGradient id="paint62_linear" x1="477.431" y1="-75.1825" x2="477.412" y2="-70.827" gradientUnits="userSpaceOnUse">
<stop offset="1" stop-color="#1B2232"/>
</linearGradient>
<linearGradient id="paint63_linear" x1="659.604" y1="-244.902" x2="659.586" y2="-240.546" gradientUnits="userSpaceOnUse">
<stop offset="1" stop-color="#1B2232"/>
</linearGradient>
<linearGradient id="paint64_linear" x1="533.967" y1="-127.854" x2="533.949" y2="-123.499" gradientUnits="userSpaceOnUse">
<stop offset="1" stop-color="#1B2232"/>
</linearGradient>
<linearGradient id="paint65_linear" x1="596.786" y1="-186.378" x2="596.767" y2="-182.022" gradientUnits="userSpaceOnUse">
<stop offset="1" stop-color="#1B2232"/>
</linearGradient>
<linearGradient id="paint66_linear" x1="471.149" y1="-69.3301" x2="471.13" y2="-64.9746" gradientUnits="userSpaceOnUse">
<stop offset="1" stop-color="#1B2232"/>
</linearGradient>
<linearGradient id="paint67_linear" x1="653.322" y1="-239.049" x2="653.304" y2="-234.694" gradientUnits="userSpaceOnUse">
<stop offset="1" stop-color="#1B2232"/>
</linearGradient>
<linearGradient id="paint68_linear" x1="527.686" y1="-122.002" x2="527.667" y2="-117.646" gradientUnits="userSpaceOnUse">
<stop offset="1" stop-color="#1B2232"/>
</linearGradient>
<linearGradient id="paint69_linear" x1="590.504" y1="-180.526" x2="590.485" y2="-176.17" gradientUnits="userSpaceOnUse">
<stop offset="1" stop-color="#1B2232"/>
</linearGradient>
<linearGradient id="paint70_linear" x1="464.867" y1="-63.4777" x2="464.848" y2="-59.1223" gradientUnits="userSpaceOnUse">
<stop offset="1" stop-color="#1B2232"/>
</linearGradient>
<linearGradient id="paint71_linear" x1="647.041" y1="-233.197" x2="647.022" y2="-228.842" gradientUnits="userSpaceOnUse">
<stop offset="1" stop-color="#1B2232"/>
</linearGradient>
<linearGradient id="paint72_linear" x1="521.404" y1="-116.149" x2="521.385" y2="-111.794" gradientUnits="userSpaceOnUse">
<stop offset="1" stop-color="#1B2232"/>
</linearGradient>
<linearGradient id="paint73_linear" x1="584.222" y1="-174.673" x2="584.203" y2="-170.318" gradientUnits="userSpaceOnUse">
<stop offset="1" stop-color="#1B2232"/>
</linearGradient>
<linearGradient id="paint74_linear" x1="458.585" y1="-57.6253" x2="458.566" y2="-53.2698" gradientUnits="userSpaceOnUse">
<stop offset="1" stop-color="#1B2232"/>
</linearGradient>
</defs>
</svg>
