<svg width="1920" height="496" viewBox="0 0 1920 496" fill="none" xmlns="http://www.w3.org/2000/svg">
<g opacity="0.35">
<mask id="mask0" mask-type="alpha" maskUnits="userSpaceOnUse" x="-9" y="-1" width="1937" height="497">
<path d="M1908 -1.74845e-06C1919.05 -7.82807e-07 1928 8.9543 1928 20L1928 476C1928 487.046 1919.05 496 1908 496L-8.00029 496L-8.00024 -0.00016925L1908 -1.74845e-06Z" fill="url(#paint0_linear)"/>
</mask>
<g mask="url(#mask0)">
<rect x="724.004" y="-261.722" width="1237.71" height="4.29279" transform="rotate(47.027 724.004 -261.722)" fill="#221904"/>
<rect x="598.367" y="-144.675" width="1237.71" height="4.29279" transform="rotate(47.027 598.367 -144.675)" fill="#221904"/>
<rect x="661.186" y="-203.198" width="1237.71" height="4.29279" transform="rotate(47.027 661.186 -203.198)" fill="#221904"/>
<rect x="535.549" y="-86.1506" width="1237.71" height="4.29279" transform="rotate(47.027 535.549 -86.1506)" fill="#221904"/>
<rect x="717.722" y="-255.87" width="1237.71" height="4.29279" transform="rotate(47.027 717.722 -255.87)" fill="#221904"/>
<rect x="592.085" y="-138.822" width="1237.71" height="4.29279" transform="rotate(47.027 592.085 -138.822)" fill="#221904"/>
<rect x="654.904" y="-197.346" width="1237.71" height="4.29279" transform="rotate(47.027 654.904 -197.346)" fill="#221904"/>
<rect x="529.267" y="-80.2983" width="1237.71" height="4.29279" transform="rotate(47.027 529.267 -80.2983)" fill="#221904"/>
<rect x="711.44" y="-250.018" width="1237.71" height="4.29279" transform="rotate(47.027 711.44 -250.018)" fill="#221904"/>
<rect x="585.803" y="-132.97" width="1237.71" height="4.29279" transform="rotate(47.027 585.803 -132.97)" fill="#221904"/>
<rect x="648.622" y="-191.494" width="1237.71" height="4.29279" transform="rotate(47.027 648.622 -191.494)" fill="#221904"/>
<rect x="522.985" y="-74.4458" width="1237.71" height="4.29279" transform="rotate(47.027 522.985 -74.4458)" fill="#221904"/>
<rect x="705.159" y="-244.165" width="1237.71" height="4.29279" transform="rotate(47.027 705.159 -244.165)" fill="#221904"/>
<rect x="579.522" y="-127.117" width="1237.71" height="4.29279" transform="rotate(47.027 579.522 -127.117)" fill="#221904"/>
<rect x="642.34" y="-185.641" width="1237.71" height="4.29279" transform="rotate(47.027 642.34 -185.641)" fill="#221904"/>
<rect x="516.703" y="-68.5935" width="1237.71" height="4.29279" transform="rotate(47.027 516.703 -68.5935)" fill="#221904"/>
<rect x="698.877" y="-238.313" width="1237.71" height="4.29279" transform="rotate(47.027 698.877 -238.313)" fill="#221904"/>
<rect x="573.24" y="-121.265" width="1237.71" height="4.29279" transform="rotate(47.027 573.24 -121.265)" fill="#221904"/>
<rect x="636.058" y="-179.789" width="1237.71" height="4.29279" transform="rotate(47.027 636.058 -179.789)" fill="#221904"/>
<rect x="510.421" y="-62.7412" width="1237.71" height="4.29279" transform="rotate(47.027 510.421 -62.7412)" fill="#221904"/>
<rect x="692.595" y="-232.46" width="1237.71" height="4.29279" transform="rotate(47.027 692.595 -232.46)" fill="#221904"/>
<rect x="566.958" y="-115.413" width="1237.71" height="4.29279" transform="rotate(47.027 566.958 -115.413)" fill="#221904"/>
<rect x="629.776" y="-173.937" width="1237.71" height="4.29279" transform="rotate(47.027 629.776 -173.937)" fill="#221904"/>
<rect x="504.139" y="-56.8887" width="1237.71" height="4.29279" transform="rotate(47.027 504.139 -56.8887)" fill="#221904"/>
<rect x="686.313" y="-226.608" width="1237.71" height="4.29279" transform="rotate(47.027 686.313 -226.608)" fill="#221904"/>
<rect x="560.676" y="-109.56" width="1237.71" height="4.29279" transform="rotate(47.027 560.676 -109.56)" fill="#221904"/>
<rect x="623.494" y="-168.084" width="1237.71" height="4.29279" transform="rotate(47.027 623.494 -168.084)" fill="#221904"/>
<rect x="497.858" y="-51.0364" width="1237.71" height="4.29279" transform="rotate(47.027 497.858 -51.0364)" fill="#221904"/>
<rect x="680.031" y="-220.756" width="1237.71" height="4.29279" transform="rotate(47.027 680.031 -220.756)" fill="#221904"/>
<rect x="554.394" y="-103.708" width="1237.71" height="4.29279" transform="rotate(47.027 554.394 -103.708)" fill="#221904"/>
<rect x="617.213" y="-162.232" width="1237.71" height="4.29279" transform="rotate(47.027 617.213 -162.232)" fill="#221904"/>
<rect x="491.576" y="-45.1841" width="1237.71" height="4.29279" transform="rotate(47.027 491.576 -45.1841)" fill="#221904"/>
<rect x="673.749" y="-214.903" width="1237.71" height="4.29279" transform="rotate(47.027 673.749 -214.903)" fill="#221904"/>
<rect x="548.112" y="-97.8555" width="1237.71" height="4.29279" transform="rotate(47.027 548.112 -97.8555)" fill="#221904"/>
<rect x="610.931" y="-156.379" width="1237.71" height="4.29279" transform="rotate(47.027 610.931 -156.379)" fill="#221904"/>
<rect x="485.294" y="-39.3315" width="1237.71" height="4.29279" transform="rotate(47.027 485.294 -39.3315)" fill="#221904"/>
<rect x="667.467" y="-209.051" width="1237.71" height="4.29279" transform="rotate(47.027 667.467 -209.051)" fill="#221904"/>
<rect x="541.83" y="-92.0032" width="1237.71" height="4.29279" transform="rotate(47.027 541.83 -92.0032)" fill="#221904"/>
<rect x="604.649" y="-150.527" width="1237.71" height="4.29279" transform="rotate(47.027 604.649 -150.527)" fill="#221904"/>
<rect x="479.012" y="-33.4792" width="1237.71" height="4.29279" transform="rotate(47.027 479.012 -33.4792)" fill="#221904"/>
<rect x="264.133" y="-251" width="1332.43" height="4.29279" transform="rotate(47.027 264.133 -251)" fill="#221904"/>
<rect x="138.496" y="-133.952" width="1332.43" height="4.29279" transform="rotate(47.027 138.496 -133.952)" fill="#221904"/>
<rect x="201.314" y="-192.476" width="1332.43" height="4.29279" transform="rotate(47.027 201.314 -192.476)" fill="#221904"/>
<rect x="75.6773" y="-75.4282" width="1332.43" height="4.29279" transform="rotate(47.027 75.6773 -75.4282)" fill="#221904"/>
<rect x="257.851" y="-245.148" width="1332.43" height="4.29279" transform="rotate(47.027 257.851 -245.148)" fill="#221904"/>
<rect x="132.214" y="-128.1" width="1332.43" height="4.29279" transform="rotate(47.027 132.214 -128.1)" fill="#221904"/>
<rect x="195.032" y="-186.624" width="1332.43" height="4.29279" transform="rotate(47.027 195.032 -186.624)" fill="#221904"/>
<rect x="69.3954" y="-69.5759" width="1332.43" height="4.29279" transform="rotate(47.027 69.3954 -69.5759)" fill="#221904"/>
<rect x="251.569" y="-239.295" width="1332.43" height="4.29279" transform="rotate(47.027 251.569 -239.295)" fill="#221904"/>
<rect x="125.932" y="-122.247" width="1332.43" height="4.29279" transform="rotate(47.027 125.932 -122.247)" fill="#221904"/>
<rect x="188.751" y="-180.771" width="1332.43" height="4.29279" transform="rotate(47.027 188.751 -180.771)" fill="#221904"/>
<rect x="63.1136" y="-63.7234" width="1332.43" height="4.29279" transform="rotate(47.027 63.1136 -63.7234)" fill="#221904"/>
<rect x="245.287" y="-233.443" width="1332.43" height="4.29279" transform="rotate(47.027 245.287 -233.443)" fill="#221904"/>
<rect x="119.65" y="-116.395" width="1332.43" height="4.29279" transform="rotate(47.027 119.65 -116.395)" fill="#221904"/>
<rect x="182.469" y="-174.919" width="1332.43" height="4.29279" transform="rotate(47.027 182.469 -174.919)" fill="#221904"/>
<rect x="56.8317" y="-57.8711" width="1332.43" height="4.29279" transform="rotate(47.027 56.8317 -57.8711)" fill="#221904"/>
<rect x="239.005" y="-227.59" width="1332.43" height="4.29279" transform="rotate(47.027 239.005 -227.59)" fill="#221904"/>
<rect x="113.368" y="-110.543" width="1332.43" height="4.29279" transform="rotate(47.027 113.368 -110.543)" fill="#221904"/>
<rect x="176.187" y="-169.067" width="1332.43" height="4.29279" transform="rotate(47.027 176.187 -169.067)" fill="#221904"/>
<rect x="50.5499" y="-52.0188" width="1332.43" height="4.29279" transform="rotate(47.027 50.5499 -52.0188)" fill="#221904"/>
<rect x="232.723" y="-221.738" width="1332.43" height="4.29279" transform="rotate(47.027 232.723 -221.738)" fill="#221904"/>
<rect x="107.087" y="-104.69" width="1332.43" height="4.29279" transform="rotate(47.027 107.087 -104.69)" fill="#221904"/>
<rect x="169.905" y="-163.214" width="1332.43" height="4.29279" transform="rotate(47.027 169.905 -163.214)" fill="#221904"/>
<rect x="44.2681" y="-46.1663" width="1332.43" height="4.29279" transform="rotate(47.027 44.2681 -46.1663)" fill="#221904"/>
<rect x="226.442" y="-215.886" width="1332.43" height="4.29279" transform="rotate(47.027 226.442 -215.886)" fill="#221904"/>
<rect x="100.805" y="-98.8379" width="1332.43" height="4.29279" transform="rotate(47.027 100.805 -98.8379)" fill="#221904"/>
<rect x="163.623" y="-157.362" width="1332.43" height="4.29279" transform="rotate(47.027 163.623 -157.362)" fill="#221904"/>
<rect x="37.9862" y="-40.314" width="1332.43" height="4.29279" transform="rotate(47.027 37.9862 -40.314)" fill="#221904"/>
<rect x="220.16" y="-210.033" width="1332.43" height="4.29279" transform="rotate(47.027 220.16 -210.033)" fill="#221904"/>
<rect x="94.5228" y="-92.9854" width="1332.43" height="4.29279" transform="rotate(47.027 94.5228 -92.9854)" fill="#221904"/>
<rect x="157.341" y="-151.509" width="1332.43" height="4.29279" transform="rotate(47.027 157.341 -151.509)" fill="#221904"/>
<rect x="31.7043" y="-34.4617" width="1332.43" height="4.29279" transform="rotate(47.027 31.7043 -34.4617)" fill="#221904"/>
<rect x="213.878" y="-204.181" width="1332.43" height="4.29279" transform="rotate(47.027 213.878 -204.181)" fill="#221904"/>
<rect x="88.241" y="-87.1331" width="1332.43" height="4.29279" transform="rotate(47.027 88.241 -87.1331)" fill="#221904"/>
<rect x="151.059" y="-145.657" width="1332.43" height="4.29279" transform="rotate(47.027 151.059 -145.657)" fill="#221904"/>
<rect x="25.4225" y="-28.6091" width="1332.43" height="4.29279" transform="rotate(47.027 25.4225 -28.6091)" fill="#221904"/>
<rect x="207.596" y="-198.328" width="1332.43" height="4.29279" transform="rotate(47.027 207.596 -198.328)" fill="#221904"/>
<rect x="81.9591" y="-81.2808" width="1332.43" height="4.29279" transform="rotate(47.027 81.9591 -81.2808)" fill="#221904"/>
<rect x="144.778" y="-139.805" width="1332.43" height="4.29279" transform="rotate(47.027 144.778 -139.805)" fill="#221904"/>
<rect x="19.1407" y="-22.7568" width="1332.43" height="4.29279" transform="rotate(47.027 19.1407 -22.7568)" fill="#221904"/>
<rect x="1157.16" y="-299.31" width="1203.92" height="4.29279" transform="rotate(47.027 1157.16 -299.31)" fill="#221904"/>
<rect x="1031.52" y="-182.262" width="1203.92" height="4.29279" transform="rotate(47.027 1031.52 -182.262)" fill="#221904"/>
<rect x="1094.34" y="-240.786" width="1203.92" height="4.29279" transform="rotate(47.027 1094.34 -240.786)" fill="#221904"/>
<rect x="968.703" y="-123.739" width="1203.92" height="4.29279" transform="rotate(47.027 968.703 -123.739)" fill="#221904"/>
<rect x="1150.88" y="-293.458" width="1203.92" height="4.29279" transform="rotate(47.027 1150.88 -293.458)" fill="#221904"/>
<rect x="1025.24" y="-176.41" width="1203.92" height="4.29279" transform="rotate(47.027 1025.24 -176.41)" fill="#221904"/>
<rect x="1088.06" y="-234.934" width="1203.92" height="4.29279" transform="rotate(47.027 1088.06 -234.934)" fill="#221904"/>
<rect x="962.422" y="-117.886" width="1203.92" height="4.29279" transform="rotate(47.027 962.422 -117.886)" fill="#221904"/>
<rect x="1144.6" y="-287.605" width="1203.92" height="4.29279" transform="rotate(47.027 1144.6 -287.605)" fill="#221904"/>
<rect x="1018.96" y="-170.558" width="1203.92" height="4.29279" transform="rotate(47.027 1018.96 -170.558)" fill="#221904"/>
<rect x="1081.78" y="-229.082" width="1203.92" height="4.29279" transform="rotate(47.027 1081.78 -229.082)" fill="#221904"/>
<rect x="956.14" y="-112.034" width="1203.92" height="4.29279" transform="rotate(47.027 956.14 -112.034)" fill="#221904"/>
<rect x="1138.31" y="-281.753" width="1203.92" height="4.29279" transform="rotate(47.027 1138.31 -281.753)" fill="#221904"/>
<rect x="1012.68" y="-164.705" width="1203.92" height="4.29279" transform="rotate(47.027 1012.68 -164.705)" fill="#221904"/>
<rect x="1075.49" y="-223.229" width="1203.92" height="4.29279" transform="rotate(47.027 1075.49 -223.229)" fill="#221904"/>
<rect x="949.858" y="-106.181" width="1203.92" height="4.29279" transform="rotate(47.027 949.858 -106.181)" fill="#221904"/>
<rect x="1132.03" y="-275.901" width="1203.92" height="4.29279" transform="rotate(47.027 1132.03 -275.901)" fill="#221904"/>
<rect x="1006.39" y="-158.853" width="1203.92" height="4.29279" transform="rotate(47.027 1006.39 -158.853)" fill="#221904"/>
<rect x="1069.21" y="-217.377" width="1203.92" height="4.29279" transform="rotate(47.027 1069.21 -217.377)" fill="#221904"/>
<rect x="943.576" y="-100.329" width="1203.92" height="4.29279" transform="rotate(47.027 943.576 -100.329)" fill="#221904"/>
<rect x="1125.75" y="-270.048" width="1203.92" height="4.29279" transform="rotate(47.027 1125.75 -270.048)" fill="#221904"/>
<rect x="1000.11" y="-153" width="1203.92" height="4.29279" transform="rotate(47.027 1000.11 -153)" fill="#221904"/>
<rect x="1062.93" y="-211.524" width="1203.92" height="4.29279" transform="rotate(47.027 1062.93 -211.524)" fill="#221904"/>
<rect x="937.294" y="-94.4766" width="1203.92" height="4.29279" transform="rotate(47.027 937.294 -94.4766)" fill="#221904"/>
<rect x="1119.47" y="-264.196" width="1203.92" height="4.29279" transform="rotate(47.027 1119.47 -264.196)" fill="#221904"/>
<rect x="993.831" y="-147.148" width="1203.92" height="4.29279" transform="rotate(47.027 993.831 -147.148)" fill="#221904"/>
<rect x="1056.65" y="-205.672" width="1203.92" height="4.29279" transform="rotate(47.027 1056.65 -205.672)" fill="#221904"/>
<rect x="931.012" y="-88.6243" width="1203.92" height="4.29279" transform="rotate(47.027 931.012 -88.6243)" fill="#221904"/>
<rect x="1113.19" y="-258.344" width="1203.92" height="4.29279" transform="rotate(47.027 1113.19 -258.344)" fill="#221904"/>
<rect x="987.549" y="-141.296" width="1203.92" height="4.29279" transform="rotate(47.027 987.549 -141.296)" fill="#221904"/>
<rect x="1050.37" y="-199.82" width="1203.92" height="4.29279" transform="rotate(47.027 1050.37 -199.82)" fill="#221904"/>
<rect x="924.73" y="-82.772" width="1203.92" height="4.29279" transform="rotate(47.027 924.73 -82.772)" fill="#221904"/>
<rect x="1106.9" y="-252.491" width="1203.92" height="4.29279" transform="rotate(47.027 1106.9 -252.491)" fill="#221904"/>
<rect x="981.267" y="-135.443" width="1203.92" height="4.29279" transform="rotate(47.027 981.267 -135.443)" fill="#221904"/>
<rect x="1044.09" y="-193.967" width="1203.92" height="4.29279" transform="rotate(47.027 1044.09 -193.967)" fill="#221904"/>
<rect x="918.449" y="-76.9194" width="1203.92" height="4.29279" transform="rotate(47.027 918.449 -76.9194)" fill="#221904"/>
<rect x="1100.62" y="-246.639" width="1203.92" height="4.29279" transform="rotate(47.027 1100.62 -246.639)" fill="#221904"/>
<rect x="974.985" y="-129.591" width="1203.92" height="4.29279" transform="rotate(47.027 974.985 -129.591)" fill="#221904"/>
<rect x="1037.8" y="-188.115" width="1203.92" height="4.29279" transform="rotate(47.027 1037.8 -188.115)" fill="#221904"/>
<rect x="912.167" y="-71.0671" width="1203.92" height="4.29279" transform="rotate(47.027 912.167 -71.0671)" fill="#221904"/>
<rect x="1569.13" y="-360" width="925.93" height="4.29279" transform="rotate(47.027 1569.13 -360)" fill="#221904"/>
<rect x="1443.5" y="-242.952" width="925.93" height="4.29279" transform="rotate(47.027 1443.5 -242.952)" fill="#221904"/>
<rect x="1506.31" y="-301.476" width="925.93" height="4.29279" transform="rotate(47.027 1506.31 -301.476)" fill="#221904"/>
<rect x="1380.68" y="-184.428" width="925.93" height="4.29279" transform="rotate(47.027 1380.68 -184.428)" fill="#221904"/>
<rect x="1562.85" y="-354.148" width="925.93" height="4.29279" transform="rotate(47.027 1562.85 -354.148)" fill="#221904"/>
<rect x="1437.21" y="-237.1" width="925.93" height="4.29279" transform="rotate(47.027 1437.21 -237.1)" fill="#221904"/>
<rect x="1500.03" y="-295.624" width="925.93" height="4.29279" transform="rotate(47.027 1500.03 -295.624)" fill="#221904"/>
<rect x="1374.4" y="-178.576" width="925.93" height="4.29279" transform="rotate(47.027 1374.4 -178.576)" fill="#221904"/>
<rect x="1556.57" y="-348.295" width="925.93" height="4.29279" transform="rotate(47.027 1556.57 -348.295)" fill="#221904"/>
<rect x="1430.93" y="-231.247" width="925.93" height="4.29279" transform="rotate(47.027 1430.93 -231.247)" fill="#221904"/>
<rect x="1493.75" y="-289.771" width="925.93" height="4.29279" transform="rotate(47.027 1493.75 -289.771)" fill="#221904"/>
<rect x="1368.11" y="-172.723" width="925.93" height="4.29279" transform="rotate(47.027 1368.11 -172.723)" fill="#221904"/>
<rect x="1550.29" y="-342.443" width="925.93" height="4.29279" transform="rotate(47.027 1550.29 -342.443)" fill="#221904"/>
<rect x="1424.65" y="-225.395" width="925.93" height="4.29279" transform="rotate(47.027 1424.65 -225.395)" fill="#221904"/>
<rect x="1487.47" y="-283.919" width="925.93" height="4.29279" transform="rotate(47.027 1487.47 -283.919)" fill="#221904"/>
<rect x="1361.83" y="-166.871" width="925.93" height="4.29279" transform="rotate(47.027 1361.83 -166.871)" fill="#221904"/>
<rect x="1544.01" y="-336.59" width="925.93" height="4.29279" transform="rotate(47.027 1544.01 -336.59)" fill="#221904"/>
<rect x="1418.37" y="-219.543" width="925.93" height="4.29279" transform="rotate(47.027 1418.37 -219.543)" fill="#221904"/>
<rect x="1481.19" y="-278.067" width="925.93" height="4.29279" transform="rotate(47.027 1481.19 -278.067)" fill="#221904"/>
<rect x="1355.55" y="-161.019" width="925.93" height="4.29279" transform="rotate(47.027 1355.55 -161.019)" fill="#221904"/>
<rect x="1537.72" y="-330.738" width="925.93" height="4.29279" transform="rotate(47.027 1537.72 -330.738)" fill="#221904"/>
<rect x="1412.09" y="-213.69" width="925.93" height="4.29279" transform="rotate(47.027 1412.09 -213.69)" fill="#221904"/>
<rect x="1474.91" y="-272.214" width="925.93" height="4.29279" transform="rotate(47.027 1474.91 -272.214)" fill="#221904"/>
<rect x="1349.27" y="-155.166" width="925.93" height="4.29279" transform="rotate(47.027 1349.27 -155.166)" fill="#221904"/>
<rect x="1531.44" y="-324.886" width="925.93" height="4.29279" transform="rotate(47.027 1531.44 -324.886)" fill="#221904"/>
<rect x="1405.8" y="-207.838" width="925.93" height="4.29279" transform="rotate(47.027 1405.8 -207.838)" fill="#221904"/>
<rect x="1468.62" y="-266.362" width="925.93" height="4.29279" transform="rotate(47.027 1468.62 -266.362)" fill="#221904"/>
<rect x="1342.99" y="-149.314" width="925.93" height="4.29279" transform="rotate(47.027 1342.99 -149.314)" fill="#221904"/>
<rect x="1525.16" y="-319.033" width="925.93" height="4.29279" transform="rotate(47.027 1525.16 -319.033)" fill="#221904"/>
<rect x="1399.52" y="-201.985" width="925.93" height="4.29279" transform="rotate(47.027 1399.52 -201.985)" fill="#221904"/>
<rect x="1462.34" y="-260.509" width="925.93" height="4.29279" transform="rotate(47.027 1462.34 -260.509)" fill="#221904"/>
<rect x="1336.7" y="-143.462" width="925.93" height="4.29279" transform="rotate(47.027 1336.7 -143.462)" fill="#221904"/>
<rect x="1518.88" y="-313.181" width="925.93" height="4.29279" transform="rotate(47.027 1518.88 -313.181)" fill="#221904"/>
<rect x="1393.24" y="-196.133" width="925.93" height="4.29279" transform="rotate(47.027 1393.24 -196.133)" fill="#221904"/>
<rect x="1456.06" y="-254.657" width="925.93" height="4.29279" transform="rotate(47.027 1456.06 -254.657)" fill="#221904"/>
<rect x="1330.42" y="-137.609" width="925.93" height="4.29279" transform="rotate(47.027 1330.42 -137.609)" fill="#221904"/>
<rect x="1512.6" y="-307.328" width="925.93" height="4.29279" transform="rotate(47.027 1512.6 -307.328)" fill="#221904"/>
<rect x="1386.96" y="-190.281" width="925.93" height="4.29279" transform="rotate(47.027 1386.96 -190.281)" fill="#221904"/>
<rect x="1449.78" y="-248.805" width="925.93" height="4.29279" transform="rotate(47.027 1449.78 -248.805)" fill="#221904"/>
<rect x="1324.14" y="-131.757" width="925.93" height="4.29279" transform="rotate(47.027 1324.14 -131.757)" fill="#221904"/>
<rect x="-159.867" y="-202" width="1316.76" height="4.29279" transform="rotate(47.027 -159.867 -202)" fill="#221904"/>
<rect x="-285.504" y="-84.9521" width="1316.76" height="4.29279" transform="rotate(47.027 -285.504 -84.9521)" fill="#221904"/>
<rect x="-222.686" y="-143.476" width="1316.76" height="4.29279" transform="rotate(47.027 -222.686 -143.476)" fill="#221904"/>
<rect x="-348.323" y="-26.4282" width="1316.76" height="4.29279" transform="rotate(47.027 -348.323 -26.4282)" fill="#221904"/>
<rect x="-166.149" y="-196.148" width="1316.76" height="4.29279" transform="rotate(47.027 -166.149 -196.148)" fill="#221904"/>
<rect x="-291.786" y="-79.0999" width="1316.76" height="4.29279" transform="rotate(47.027 -291.786 -79.0999)" fill="#221904"/>
<rect x="-228.968" y="-137.624" width="1316.76" height="4.29279" transform="rotate(47.027 -228.968 -137.624)" fill="#221904"/>
<rect x="-354.604" y="-20.5759" width="1316.76" height="4.29279" transform="rotate(47.027 -354.604 -20.5759)" fill="#221904"/>
<rect x="-172.431" y="-190.295" width="1316.76" height="4.29279" transform="rotate(47.027 -172.431 -190.295)" fill="#221904"/>
<rect x="-298.068" y="-73.2473" width="1316.76" height="4.29279" transform="rotate(47.027 -298.068 -73.2473)" fill="#221904"/>
<rect x="-235.249" y="-131.771" width="1316.76" height="4.29279" transform="rotate(47.027 -235.249 -131.771)" fill="#221904"/>
<rect x="-360.886" y="-14.7234" width="1316.76" height="4.29279" transform="rotate(47.027 -360.886 -14.7234)" fill="#221904"/>
<rect x="-178.713" y="-184.443" width="1316.76" height="4.29279" transform="rotate(47.027 -178.713 -184.443)" fill="#221904"/>
<rect x="-304.35" y="-67.395" width="1316.76" height="4.29279" transform="rotate(47.027 -304.35 -67.395)" fill="#221904"/>
<rect x="-241.531" y="-125.919" width="1316.76" height="4.29279" transform="rotate(47.027 -241.531 -125.919)" fill="#221904"/>
<rect x="-367.168" y="-8.87109" width="1316.76" height="4.29279" transform="rotate(47.027 -367.168 -8.87109)" fill="#221904"/>
<rect x="-184.995" y="-178.59" width="1316.76" height="4.29279" transform="rotate(47.027 -184.995 -178.59)" fill="#221904"/>
<rect x="-310.632" y="-61.5427" width="1316.76" height="4.29279" transform="rotate(47.027 -310.632 -61.5427)" fill="#221904"/>
<rect x="-247.813" y="-120.067" width="1316.76" height="4.29279" transform="rotate(47.027 -247.813 -120.067)" fill="#221904"/>
<rect x="-373.45" y="-3.0188" width="1316.76" height="4.29279" transform="rotate(47.027 -373.45 -3.0188)" fill="#221904"/>
<rect x="-191.276" y="-172.738" width="1316.76" height="4.29279" transform="rotate(47.027 -191.276 -172.738)" fill="#221904"/>
<rect x="-316.913" y="-55.6902" width="1316.76" height="4.29279" transform="rotate(47.027 -316.913 -55.6902)" fill="#221904"/>
<rect x="-254.095" y="-114.214" width="1316.76" height="4.29279" transform="rotate(47.027 -254.095 -114.214)" fill="#221904"/>
<rect x="-379.732" y="2.83374" width="1316.76" height="4.29279" transform="rotate(47.027 -379.732 2.83374)" fill="#221904"/>
<rect x="-197.558" y="-166.886" width="1316.76" height="4.29279" transform="rotate(47.027 -197.558 -166.886)" fill="#221904"/>
<rect x="-323.195" y="-49.8379" width="1316.76" height="4.29279" transform="rotate(47.027 -323.195 -49.8379)" fill="#221904"/>
<rect x="-260.377" y="-108.362" width="1316.76" height="4.29279" transform="rotate(47.027 -260.377 -108.362)" fill="#221904"/>
<rect x="-386.014" y="8.68604" width="1316.76" height="4.29279" transform="rotate(47.027 -386.014 8.68604)" fill="#221904"/>
<rect x="-203.84" y="-161.033" width="1316.76" height="4.29279" transform="rotate(47.027 -203.84 -161.033)" fill="#221904"/>
<rect x="-329.477" y="-43.9854" width="1316.76" height="4.29279" transform="rotate(47.027 -329.477 -43.9854)" fill="#221904"/>
<rect x="-266.659" y="-102.509" width="1316.76" height="4.29279" transform="rotate(47.027 -266.659 -102.509)" fill="#221904"/>
<rect x="-392.296" y="14.5383" width="1316.76" height="4.29279" transform="rotate(47.027 -392.296 14.5383)" fill="#221904"/>
<rect x="-210.122" y="-155.181" width="1316.76" height="4.29279" transform="rotate(47.027 -210.122 -155.181)" fill="#221904"/>
<rect x="-335.759" y="-38.1331" width="1316.76" height="4.29279" transform="rotate(47.027 -335.759 -38.1331)" fill="#221904"/>
<rect x="-272.94" y="-96.657" width="1316.76" height="4.29279" transform="rotate(47.027 -272.94 -96.657)" fill="#221904"/>
<rect x="-398.577" y="20.3909" width="1316.76" height="4.29279" transform="rotate(47.027 -398.577 20.3909)" fill="#221904"/>
<rect x="-216.404" y="-149.328" width="1316.76" height="4.29279" transform="rotate(47.027 -216.404 -149.328)" fill="#221904"/>
<rect x="-342.041" y="-32.2808" width="1316.76" height="4.29279" transform="rotate(47.027 -342.041 -32.2808)" fill="#221904"/>
<rect x="-279.222" y="-90.8047" width="1316.76" height="4.29279" transform="rotate(47.027 -279.222 -90.8047)" fill="#221904"/>
<rect x="-404.859" y="26.2432" width="1316.76" height="4.29279" transform="rotate(47.027 -404.859 26.2432)" fill="#221904"/>
</g>
</g>
<defs>
<linearGradient id="paint0_linear" x1="960" y1="108.683" x2="960" y2="533.787" gradientUnits="userSpaceOnUse">
<stop stop-color="#DBC266"/>
<stop offset="0.463542" stop-color="#AE8930"/>
<stop offset="0.827015" stop-color="#CFA43D"/>
<stop offset="0.906096" stop-color="#F5E38B"/>
</linearGradient>
</defs>
</svg>
