<svg width="158" height="110" viewBox="0 0 158 110" fill="none" xmlns="http://www.w3.org/2000/svg">
<mask id="mask0" mask-type="alpha" maskUnits="userSpaceOnUse" x="0" y="0" width="158" height="95">
<path d="M0 57.5347C6.28581 57.429 12.5716 57.3868 18.8574 57.3083L37.7148 57.1785C50.2865 57.103 62.8581 57.1091 75.4327 57.0698C88.0043 57.106 100.576 57.103 113.148 57.1755L132.005 57.3053C138.291 57.3838 151.43 57.426 157.716 57.5317C151.43 57.6373 138.291 57.6826 132.005 57.7581L113.148 57.8879C100.576 57.9603 88.0043 57.9573 75.4327 57.9935C62.8611 57.9543 50.2895 57.9603 37.7148 57.8849L18.8574 57.7551C12.5716 57.6856 6.28581 57.6403 0 57.5347Z" fill="#353535"/>
<path d="M0 80.0928C6.28581 79.9871 12.5716 79.9418 18.8574 79.8664L37.7148 79.7366C50.2865 79.6611 62.8581 79.6671 75.4327 79.6279C88.0043 79.6641 100.576 79.6611 113.148 79.7336L132.005 79.8633C138.291 79.9388 151.43 79.9841 157.716 80.0897C151.43 80.1954 138.291 80.2407 132.005 80.3161L113.148 80.4459C100.576 80.5214 88.0043 80.5154 75.4327 80.5516C62.8611 80.5123 50.2895 80.5214 37.7148 80.4429L18.8574 80.3131C12.5716 80.2437 6.28581 80.1984 0 80.0928Z" fill="#353535"/>
<path d="M153.684 45.3305C147.978 50.5557 141.408 50.4198 134.379 48.6358C132.038 48.0442 128.474 46.716 124.52 45.5297C117.31 43.3653 112.06 44.9441 109.737 45.9644C105.515 48.1046 103.808 51.2228 103.34 51.7842C103.953 50.9904 106.677 45.5267 114.963 43.951C119.473 43.2295 124.898 44.1955 130.612 45.7833C136.255 47.2473 142.813 49.9308 149.277 47.1537C152.391 45.91 155.149 43.7789 156.565 40.9535C158.06 38.1341 157.514 34.7653 155.677 32.5014C154.067 30.0804 151.192 28.713 148.685 29.3952C146.202 29.9929 144.329 32.1663 144.293 34.3518C144.302 34.8257 144.377 35.2845 144.489 35.7252C144.851 36.6097 145.64 37.802 147.277 38.1039C149.962 38.602 148.358 36.3984 148.866 34.8951C149.376 33.3949 150.334 32.6734 148.996 31.5203C148.996 31.5203 153.955 32.3052 152.454 36.7848C152.454 36.7848 151.883 37.6904 152.427 38.2186C152.968 38.7469 153.656 37.793 153.656 37.793C153.656 37.793 152.629 41.7926 148.014 40.7271C143.601 39.7068 142.224 33.2651 145.945 30.3763C146.679 29.7363 147.576 29.2443 148.573 28.9847C151.264 28.2089 154.406 29.682 156.094 32.1905C158.051 34.5208 158.689 38.2156 157.097 41.2221C156.305 42.825 155.109 44.1955 153.684 45.3305Z" fill="#353535"/>
<path d="M106.889 40.6728C106.889 40.6728 105.708 43.4982 108.312 43.2657C110.912 43.0273 116.497 35.6981 123.07 37.7538C129.64 39.8124 131.791 39.6706 133.721 37.8866C133.721 37.8866 131.274 42.7496 126.474 41.5481C121.672 40.3437 110.187 39.9 103.062 50.4953C103.065 50.4953 102.702 43.8906 106.889 40.6728Z" fill="#353535"/>
<path d="M144.688 45.8617C141.32 48.3189 137.693 46.6224 134.216 45.0226C129.673 42.9307 125.281 43.305 125.281 43.305C125.281 43.305 129.9 41.9617 134.968 43.5676C140.034 45.1735 144.413 42.8643 144.912 40.235C144.909 40.235 148.056 43.4016 144.688 45.8617Z" fill="#353535"/>
<path d="M149.126 51.6303C149.464 52.3759 149.524 53.2241 147.325 53.9093C145.866 54.3621 144.075 54.2444 142.547 54.0241C140.191 53.6829 138.085 53.2664 138.085 53.2664C138.085 53.2664 135.666 53.1185 136.98 55.5907C136.98 55.5907 135.3 55.1892 134.128 53.4505C132.956 51.7148 129.181 48.8079 127.988 50.453C126.794 52.0952 128.954 52.6295 127.072 54.658C127.072 54.658 122.291 47.2352 116.213 46.8367C110.514 46.4655 107.227 49.2486 107.227 49.2486C107.227 49.2486 112.084 43.2416 123.795 46.6254C135.503 50.0093 136.705 52.4785 142.193 51.9623C142.193 51.9623 145.758 51.7027 147.352 51.2047C148.008 50.9994 148.884 51.096 149.126 51.6303Z" fill="#353535"/>
<path d="M4.60033 45.3305C10.3062 50.5557 16.8759 50.4198 23.9078 48.6358C26.2488 48.0442 29.813 46.716 33.767 45.5297C40.974 43.3653 46.2268 44.9441 48.5496 45.9644C52.7724 48.1046 54.479 51.2228 54.9472 51.7842C54.334 50.9904 51.6095 45.5267 43.324 43.951C38.8143 43.2295 33.3894 44.1955 27.6745 45.7833C22.032 47.2473 15.4774 49.9308 9.01036 47.1537C5.89615 45.91 3.13837 43.7789 1.72172 40.9535C0.226541 38.1341 0.773265 34.7653 2.60977 32.5014C4.21974 30.0804 7.09532 28.713 9.60239 29.3952C12.0853 29.9929 13.9611 32.1663 13.9943 34.3518C13.9852 34.8257 13.9097 35.2845 13.798 35.7252C13.4355 36.6097 12.6471 37.802 11.01 38.1039C8.32469 38.602 9.92861 36.3984 9.42116 34.8951C8.91068 33.3949 7.95316 32.6734 9.29127 31.5203C9.29127 31.5203 4.3315 32.3052 5.83272 36.7848C5.83272 36.7848 6.40361 37.6904 5.8599 38.2186C5.31922 38.7469 4.63053 37.793 4.63053 37.793C4.63053 37.793 5.65753 41.7926 10.273 40.7271C14.686 39.7068 16.0634 33.2651 12.342 30.3763C11.6081 29.7363 10.7109 29.2443 9.71415 28.9847C7.02282 28.2089 3.88143 29.682 2.19293 32.1905C0.235603 34.5208 -0.401737 38.2156 1.1901 41.2221C1.97847 42.825 3.17462 44.1955 4.60033 45.3305Z" fill="#353535"/>
<path d="M51.395 40.6728C51.395 40.6728 52.576 43.4982 49.9723 43.2657C47.3686 43.0273 41.7866 35.6981 35.2138 37.7538C28.641 39.8124 26.4934 39.6706 24.5633 37.8866C24.5633 37.8866 27.0099 42.7496 31.8096 41.5481C36.6123 40.3437 48.0965 39.9 55.2221 50.4953C55.219 50.4953 55.5845 43.8906 51.395 40.6728Z" fill="#353535"/>
<path d="M13.5956 45.8617C16.9635 48.3189 20.5882 46.6224 24.0679 45.0226C28.6108 42.9307 33.0027 43.305 33.0027 43.305C33.0027 43.305 28.3843 41.9617 23.3158 43.5676C18.2503 45.1735 13.8704 42.8643 13.3721 40.235C13.3751 40.235 10.2276 43.4016 13.5956 45.8617Z" fill="#353535"/>
<path d="M9.15837 51.6303C8.82007 52.3759 8.75966 53.2241 10.9586 53.9093C12.4176 54.3621 14.2088 54.2444 15.7372 54.0241C18.0932 53.6829 20.1986 53.2664 20.1986 53.2664C20.1986 53.2664 22.618 53.1185 21.3041 55.5907C21.3041 55.5907 22.9835 55.1892 24.1555 53.4505C25.3275 51.7148 29.1032 48.8079 30.2963 50.453C31.4895 52.0952 29.3297 52.6295 31.2116 54.658C31.2116 54.658 35.9931 47.2352 42.0705 46.8367C47.7703 46.4655 51.0537 49.2486 51.0537 49.2486C51.0537 49.2486 46.1966 43.2416 34.4859 46.6254C22.7781 50.0093 21.5759 52.4785 16.0876 51.9623C16.0876 51.9623 12.5263 51.7027 10.9284 51.2047C10.279 50.9994 9.40002 51.096 9.15837 51.6303Z" fill="#353535"/>
<path fill-rule="evenodd" clip-rule="evenodd" d="M100.561 30.7113C100.561 18.7308 90.8447 9.02058 78.8583 9.02347L78.858 9.02347C66.8713 9.02347 57.1554 18.734 57.1554 30.7113C57.1554 42.6887 66.8713 52.3992 78.858 52.3992C90.8447 52.3992 100.561 42.6887 100.561 30.7113ZM78.8578 7.02347C91.9482 7.02032 102.561 17.6253 102.561 30.7113C102.561 43.7945 91.9481 54.3992 78.858 54.3992C65.768 54.3992 55.1554 43.7945 55.1554 30.7113C55.1554 17.6282 65.768 7.02347 78.8578 7.02347Z" fill="#353535"/>
<path d="M49.8998 21.1091C50.0146 20.7409 50.1717 20.4662 50.3922 20.3001C50.6066 20.1432 50.8936 20.0798 51.2349 20.1824C51.9931 20.4149 52.1018 21.1574 51.9508 21.6525C51.9327 21.7098 51.9115 21.7612 51.8964 21.7883L51.694 22.1173L52.5036 22.3649C52.9415 22.4977 52.9627 22.4645 53.159 22.0026L53.304 22.0479L52.863 23.4818L52.718 23.4365C52.8086 22.9746 52.7845 22.9444 52.3525 22.8116L50.2895 22.1777C49.8273 22.0358 49.8001 22.0902 49.631 22.4886L49.486 22.4434L49.8998 21.1091ZM51.5128 22.066C51.5642 22.0147 51.6427 21.8849 51.6971 21.7068C51.8028 21.3597 51.7605 20.8737 51.105 20.6714C50.5341 20.4964 50.1898 20.8012 50.0569 21.2359C50.0116 21.3868 50.0025 21.5046 50.0297 21.5468C50.0539 21.5981 50.1113 21.6344 50.2502 21.6766L51.5128 22.066Z" fill="black"/>
<path d="M55.8443 16.2582C55.8141 16.3216 55.7809 16.3729 55.7446 16.4333C55.5422 16.7744 55.355 16.9193 54.9472 16.9827C54.6089 17.037 54.2162 17.0612 53.89 17.0914C53.6846 17.1095 53.6242 17.1578 53.5003 17.4083L53.4158 17.5774L54.18 17.9577C54.5938 18.163 54.6451 18.1237 54.8777 17.7555L55.0137 17.8249L54.3642 19.1229L54.2283 19.0535C54.3854 18.6278 54.3854 18.5856 53.9716 18.3773L52.0323 17.4083C51.6185 17.2031 51.5793 17.2483 51.3406 17.6106L51.2047 17.5411L51.8239 16.3035C52.0021 15.9503 52.1653 15.733 52.3797 15.6092C52.6063 15.4734 52.8902 15.4523 53.1862 15.6002C53.603 15.8085 53.7329 16.2069 53.7088 16.6446C53.9021 16.6325 54.334 16.5873 54.627 16.551C54.9744 16.4997 55.1435 16.4695 55.3187 16.4182C55.5241 16.3579 55.6359 16.2733 55.7205 16.1767L55.8443 16.2582ZM53.3674 17.2634C53.4943 17.0099 53.5366 16.8318 53.4943 16.6597C53.449 16.4001 53.2919 16.225 53.0291 16.0922C52.5096 15.8326 52.1471 16.0832 51.9599 16.4575C51.8904 16.5993 51.8662 16.6899 51.8783 16.7382C51.8904 16.7986 51.9327 16.8378 52.0595 16.9012L53.2496 17.4959L53.3674 17.2634Z" fill="black"/>
<path d="M57.7503 12.0684C57.8439 12.1801 58.2004 12.6359 58.297 12.7778L56.6961 14.8787L56.5753 14.7852C56.8502 14.3595 56.8351 14.2992 56.4817 14.0305L54.772 12.7295C54.3854 12.4367 54.328 12.4669 54.0531 12.7687L53.9323 12.6751L54.9412 11.353C55.2523 10.9455 55.3761 10.7734 55.4094 10.7191C55.5211 10.7976 55.8594 11.027 56.1011 11.184L56.0225 11.3288C55.8473 11.2564 55.7205 11.2292 55.5936 11.2081C55.3973 11.1689 55.2915 11.2443 55.0952 11.5039L54.7811 11.9145C54.6784 12.0473 54.6844 12.0654 54.8113 12.162L55.7688 12.8895L56.1343 12.4095C56.382 12.0835 56.3336 12.0141 56.0769 11.7394L56.1796 11.6066L57.0707 12.2857L56.968 12.4186C56.6146 12.2374 56.5451 12.2405 56.3065 12.5514L55.944 13.0283L56.8049 13.6834C57.1069 13.9128 57.2066 13.8373 57.3757 13.626L57.6808 13.2245C57.8832 12.9619 57.8772 12.8864 57.8349 12.7084C57.8077 12.5574 57.6989 12.331 57.6144 12.171L57.7503 12.0684Z" fill="black"/>
<path d="M61.9549 9.25807L61.8583 9.14035C62.1724 8.82037 62.1633 8.78415 61.7828 8.34343L60.3571 6.64396C60.6591 7.69142 61.1122 9.34259 61.2753 9.83161L61.1666 9.92217C60.7044 9.66257 59.2727 8.91697 58.3212 8.43097C59.4781 9.9433 59.7499 10.2753 59.8164 10.3568C60.0157 10.5863 60.1486 10.5319 60.4567 10.3236L60.5564 10.4414L59.5717 11.2715L59.472 11.1538C59.6925 10.9243 59.7499 10.7915 59.5928 10.538C59.463 10.3327 59.3421 10.1818 58.1702 8.57285C58.004 8.34343 57.9043 8.30721 57.5087 8.5819L57.409 8.46418L58.1339 7.85442L60.8313 9.18563L60.0369 6.24852L60.7648 5.63574L60.8645 5.75347C60.5413 6.09759 60.5292 6.17305 60.7829 6.4568L62.1452 8.03855C62.5379 8.47022 62.5681 8.47927 62.9638 8.2076L63.0635 8.32532L61.9549 9.25807Z" fill="black"/>
<path d="M64.7489 7.34427L64.6734 7.21145C65.0389 6.95185 65.0661 6.91261 64.8426 6.50812L63.7914 4.62148C63.5649 4.21397 63.5166 4.21397 63.1027 4.38905L63.0272 4.25623L64.3019 3.54686L64.3774 3.67968C64.0059 3.9423 63.9787 3.98154 64.2083 4.38905L65.2594 6.27568C65.486 6.6832 65.5343 6.67716 65.9511 6.49906L66.0266 6.63188L64.7489 7.34427Z" fill="black"/>
<path d="M70.1467 1.32517C69.8326 1.46101 69.7419 1.58477 69.8144 1.82324C69.8507 1.94399 69.9171 2.16133 70.0863 2.63223L70.2826 3.18464C70.4669 3.70686 70.5484 4.12946 70.3612 4.54603C70.2101 4.88109 69.8869 5.08334 69.5335 5.2071C69.2375 5.31276 68.8962 5.36407 68.6092 5.27049C68.2166 5.14371 67.9447 4.84185 67.7302 4.24417L67.2651 2.93711C67.102 2.47526 67.0506 2.46017 66.6277 2.56884L66.5764 2.42395L67.9236 1.94701L67.9749 2.0919C67.5732 2.26396 67.549 2.3183 67.7121 2.78014L68.1682 4.06003C68.434 4.80865 68.9324 5.0924 69.5486 4.87506C70.2766 4.61546 70.3461 4.08418 70.044 3.23293L69.8597 2.71071C69.6936 2.23981 69.609 2.04964 69.5486 1.91682C69.452 1.69042 69.304 1.64515 68.9173 1.75985L68.866 1.61496L70.0954 1.17726L70.1467 1.32517Z" fill="black"/>
<path d="M75.922 3.68874L75.9009 3.53781C76.3359 3.43518 76.3479 3.40197 76.2664 2.82542L75.9764 0.627871C75.6683 1.67231 75.1639 3.3084 75.037 3.80647L74.8981 3.82458C74.6504 3.35971 73.8409 1.95908 73.3002 1.04142C73.4633 2.93711 73.5146 3.36575 73.5267 3.46536C73.572 3.76722 73.714 3.79137 74.0855 3.7793L74.1067 3.93023L72.829 4.10229L72.8078 3.95136C73.1159 3.87589 73.2367 3.79439 73.2398 3.49857C73.2398 3.25708 73.2186 3.06389 73.0948 1.07764C73.0797 0.793894 73.0132 0.709373 72.533 0.730504L72.5118 0.579573L73.4482 0.452791L75.0068 3.02163L75.916 0.120744L76.8645 0L76.8856 0.15093C76.4295 0.265638 76.3781 0.322991 76.4386 0.697299L76.7376 2.76203C76.8373 3.33556 76.8554 3.35971 77.3357 3.34462L77.3568 3.49555L75.922 3.68874Z" fill="black"/>
<path d="M84.4793 0.389396C85.3976 0.543345 86.0983 1.38252 85.9201 2.44809C85.7268 3.59818 84.8025 4.18379 83.8178 4.01776C82.8422 3.85476 82.1867 2.96729 82.3589 1.93492C82.5159 0.975006 83.3466 0.202242 84.4793 0.389396ZM84.3373 0.570512C83.7362 0.470898 83.1049 0.881429 82.9388 1.88361C82.7727 2.88579 83.1956 3.70685 83.9568 3.83363C84.5578 3.93324 85.174 3.54082 85.3462 2.50846C85.5335 1.38252 85.0381 0.688238 84.3373 0.570512ZM84.1773 3.72194C84.6696 4.24416 85.2042 4.73016 85.6664 4.99579L85.606 5.11956C85.3492 5.0773 85.0472 4.99881 84.8931 4.92938C84.5397 4.76638 83.9839 4.19888 83.6033 3.82155L84.1773 3.72194Z" fill="black"/>
<path d="M92.2029 2.89786C91.8737 2.79824 91.7257 2.83447 91.629 3.06388C91.5807 3.17859 91.4901 3.38989 91.3149 3.85778L91.1095 4.40716C90.9131 4.92636 90.7047 5.30067 90.2909 5.4999C89.9586 5.65989 89.5841 5.60555 89.2337 5.47273C88.9377 5.36104 88.6447 5.18295 88.4876 4.92636C88.2701 4.57922 88.255 4.17171 88.4786 3.57705L88.9679 2.27904C89.1401 1.82022 89.1099 1.77494 88.7172 1.58778L88.7716 1.44591L90.1097 1.95002L90.0553 2.09189C89.6385 1.96511 89.5811 1.98926 89.4119 2.44809L88.9347 3.71892C88.6568 4.4615 88.8531 4.99881 89.4633 5.22823C90.1852 5.4999 90.5839 5.13767 90.901 4.29548L91.0974 3.77627C91.2726 3.30839 91.33 3.10916 91.3723 2.96729C91.4417 2.73184 91.3602 2.60204 90.9886 2.43903L91.043 2.29716L92.2633 2.75598L92.2029 2.89786Z" fill="black"/>
<path d="M94.0817 7.78499L94.1602 7.65519C94.4865 7.80008 94.5499 7.77593 94.5922 7.56161C94.6405 7.34427 94.6888 7.05448 94.7674 6.70432L93.7615 6.09758C93.5592 6.26059 93.3809 6.39944 93.1997 6.55037C92.9158 6.79186 92.9581 6.86733 93.3115 7.14504L93.2329 7.27484L92.1576 6.62584L92.2361 6.49604C92.5503 6.6349 92.6469 6.64999 93.0608 6.33002L95.5014 4.47357L95.6675 4.53696C95.4772 5.50895 95.2688 6.58056 95.0725 7.56161C94.9758 8.05666 94.997 8.11703 95.302 8.3555L95.2235 8.4853L94.0817 7.78499ZM95.1178 5.02598C94.7281 5.33689 94.3113 5.6629 93.9518 5.94665L94.8218 6.47189L95.1178 5.02598Z" fill="black"/>
<path d="M99.2016 10.6436C99.0657 10.7493 98.5673 11.0632 98.4162 11.1507L96.5254 9.4724L96.625 9.35769C97.0268 9.6505 97.0781 9.65653 97.3832 9.31241L98.815 7.70047C99.1231 7.35635 99.0989 7.299 98.8029 6.97903L98.9025 6.86432L99.993 7.83027L99.8933 7.94498C99.5399 7.6884 99.4795 7.66425 99.1684 8.01441L97.7004 9.66861C97.4799 9.91613 97.4617 10.0007 97.6913 10.212C97.6943 10.215 97.9843 10.4806 98.0085 10.5017C98.2169 10.6859 98.2984 10.7161 98.4827 10.698C98.679 10.6829 98.9086 10.5953 99.1019 10.4987L99.2016 10.6436Z" fill="black"/>
<path d="M99.848 12.6933L99.9658 12.5967C100.286 12.9106 100.331 12.9317 100.688 12.6389L102.358 11.2715C102.721 10.9757 102.708 10.9274 102.464 10.5531L102.582 10.4565L103.503 11.5824L103.385 11.679C103.062 11.362 103.017 11.3409 102.654 11.6367L100.984 13.0042C100.621 13.3 100.636 13.3453 100.884 13.7226L100.766 13.8192L99.848 12.6933Z" fill="black"/>
<path d="M105.711 16.5933C105.838 16.4635 105.962 16.3186 106.016 16.219C106.101 16.0711 106.107 16.0047 105.959 15.7451L105.69 15.2742L103.391 16.5873C103.023 16.7986 102.992 16.865 103.222 17.3298L103.089 17.4053L102.304 16.0318L102.437 15.9564C102.714 16.379 102.784 16.388 103.159 16.1767L105.457 14.8636L105.213 14.435C105.064 14.1754 104.992 14.115 104.805 14.118C104.678 14.115 104.542 14.1422 104.334 14.1814L104.252 14.0396C104.557 13.9037 104.868 13.7618 105.143 13.623L105.206 13.7317C105.134 13.8675 105.167 13.9158 105.243 14.0486L106.312 15.9171C106.387 16.0499 106.427 16.0771 106.56 16.0952L106.623 16.2099C106.403 16.3367 106.073 16.551 105.811 16.7291L105.711 16.5933Z" fill="black"/>
<path d="M108.517 21.8155C108.354 21.4714 108.275 21.4261 107.874 21.3355C107.418 21.2329 106.998 21.1635 106.454 21.0699C106.315 21.0488 106.249 21.0548 106.125 21.0971L105.493 21.3144C105.068 21.4623 105.052 21.5167 105.17 22.0117L105.025 22.06L104.518 20.5839L104.663 20.5356C104.886 20.9824 104.907 21.0156 105.339 20.8677L106.004 20.6413C106.107 20.605 106.146 20.5688 106.267 20.436C106.539 20.1402 106.804 19.8564 107.191 19.4127C107.472 19.0927 107.517 19.0203 107.433 18.658L107.578 18.6097L108.013 19.8745L107.868 19.9228C107.689 19.5697 107.629 19.6149 107.487 19.7659C107.164 20.119 106.786 20.5175 106.472 20.8677C106.88 20.9341 107.541 21.0337 107.874 21.082C108.173 21.1122 108.218 21.079 108.118 20.6594L108.263 20.6111L108.662 21.7732L108.517 21.8155Z" fill="black"/>
<path d="M42.0765 55.1168C46.3839 52.4574 49.2534 48.5483 54.8566 51.8507C52.9687 50.2508 51.3014 50.0999 50.1385 50.0727C46.2117 49.9459 43.2515 54.8119 40.6901 53.529C41.9376 52.1857 40.4575 51.0568 39.3188 51.1926C38.0803 51.3496 37.2859 52.7623 37.6877 53.9818C38.325 55.9499 40.9227 55.8262 42.0765 55.1168Z" fill="#353535"/>
<path d="M116.074 55.479C111.767 52.8196 108.898 48.9105 103.294 52.2129C105.182 50.613 106.85 50.4621 108.013 50.4349C111.939 50.3081 114.899 55.1772 117.461 53.8912C116.213 52.548 117.694 51.419 118.832 51.5548C120.071 51.7118 120.865 53.1245 120.463 54.344C119.826 56.3152 117.228 56.1914 116.074 55.479Z" fill="#353535"/>
<path d="M19.83 65.0027C19.4615 63.5689 18.8514 62.1592 16.8095 62.1592C15.1149 62.1592 14.5289 63.3968 14.5289 64.5258C14.5289 66.023 15.4865 66.7837 17.2897 67.7195C19.8965 69.0658 21.0262 70.0649 21.0262 72.1267C21.0262 74.4057 19.0477 76.1444 16.2446 76.1444C14.9397 76.1444 13.81 75.7762 12.919 75.429C12.7468 74.8223 12.484 73.3432 12.333 72.1719L13.0066 71.9969C13.4415 73.4518 14.396 75.3415 16.6584 75.3415C18.2231 75.3415 19.1806 74.2548 19.1806 72.8451C19.1806 71.1728 18.2895 70.4996 16.3775 69.4582C14.097 68.2206 12.8132 67.1792 12.8132 65.1567C12.8132 63.2248 14.4202 61.3985 17.2897 61.3985C18.507 61.3985 19.7032 61.7245 20.1593 61.8121C20.2469 62.5939 20.3345 63.4632 20.5066 64.8729L19.83 65.0027Z" fill="black"/>
<path d="M35.9085 75.8184V75.2117C37.3222 75.0366 37.4943 74.8223 37.1893 73.9952C36.9053 73.147 36.4734 72.0633 36.0173 70.6928H31.3233C30.9759 71.6708 30.6497 72.5161 30.3446 73.4065C29.8674 74.8193 30.1694 74.9913 31.9516 75.2087V75.8154H26.9344V75.2087C28.3027 75.0336 28.6501 74.8827 29.4113 72.9296L33.9089 61.5283L34.6036 61.3985C35.972 65.1114 37.4732 69.2167 38.8415 72.9749C39.5362 74.8645 39.7326 75.0366 41.2761 75.2117V75.8184H35.9085ZM33.7367 64.2451C33.042 66.1136 32.302 68.0878 31.6495 69.8053H35.7122L33.7367 64.2451Z" fill="black"/>
<path d="M57.6385 72.2142C57.5086 72.8874 56.8562 75.1453 56.6387 75.8184H46.5349V75.2117C48.5134 75.0155 48.6855 74.9068 48.6855 73.0624V64.4413C48.6855 62.5939 48.4681 62.4882 46.7312 62.3132V61.7064H52.5549V62.3132C50.8151 62.4882 50.5764 62.5728 50.5764 64.4413V73.2798C50.5764 74.6049 50.7516 74.9098 51.9901 74.931C52.0112 74.931 53.5759 74.9521 53.7057 74.9521C54.8143 74.9521 55.1405 74.8223 55.6389 74.2789C56.1826 73.7145 56.6387 72.8451 56.9649 72.0421L57.6385 72.2142Z" fill="black"/>
<path d="M72.3276 75.8184V75.2117C73.7412 75.0366 73.9134 74.8223 73.6113 73.9952C73.3274 73.147 72.8924 72.0633 72.4393 70.6928H67.7453C67.398 71.6708 67.0718 72.5161 66.7667 73.4065C66.2894 74.8193 66.5915 74.9913 68.3736 75.2087V75.8154H63.3534V75.2087C64.7218 75.0336 65.0691 74.8827 65.8303 72.9296L70.3279 61.5283L71.0227 61.3985C72.391 65.1114 73.8922 69.2167 75.2605 72.9749C75.9553 74.8645 76.1516 75.0366 77.6951 75.2117V75.8184H72.3276ZM70.1558 64.2451C69.461 66.1136 68.721 68.0878 68.0686 69.8053H72.1312L70.1558 64.2451Z" fill="black"/>
<path d="M95.3413 75.8184V75.2117C97.1234 75.0366 97.1899 74.9068 97.1657 72.5825L97.1868 63.7229C95.4047 67.6984 92.5352 73.9076 91.777 75.8184H91.2122C90.4721 73.8412 88.0164 67.8704 86.3672 63.9402C85.9987 71.5411 85.9775 73.2556 85.9775 73.6692C85.9987 74.8857 86.5424 75.0577 88.0194 75.2117V75.8184H82.8694V75.2117C84.1289 75.0819 84.6515 74.8223 84.8267 73.648C84.9566 72.6911 84.9777 71.9093 85.5426 63.9825C85.6302 62.8535 85.4127 62.4852 83.5007 62.3101V61.7034H87.2824L92.0851 72.7153L97.2352 61.7034H101.038V62.3101C99.1683 62.5275 98.9297 62.7237 98.975 64.2421L99.0626 72.5825C99.1502 74.9068 99.2136 75.0155 101.126 75.2117V75.8184H95.3413Z" fill="black"/>
<path d="M114.724 61.3985C118.44 61.3985 121.765 64.242 121.765 68.5647C121.765 73.2345 118.594 76.1444 114.594 76.1444C110.423 76.1444 107.378 72.9749 107.378 68.8907C107.378 65.0027 110.139 61.3985 114.724 61.3985ZM114.289 62.2015C111.855 62.2015 109.638 64.242 109.638 68.3051C109.638 72.344 111.855 75.3203 114.939 75.3203C117.57 75.3203 119.545 73.3643 119.545 69.1745C119.548 64.6133 117.138 62.2015 114.289 62.2015Z" fill="black"/>
<path d="M143.474 62.3101C142.082 62.4611 141.625 62.6784 141.562 63.6776C141.541 64.3719 141.496 65.2835 141.496 67.3029V76.0116H140.671L131.371 64.6526V70.0831C131.371 72.0361 131.437 73.0141 131.479 73.645C131.522 74.7529 132.065 75.0789 133.63 75.2087V75.8154H128.35V75.2087C129.697 75.1 130.22 74.774 130.304 73.7114C130.371 73.0172 130.413 72.0391 130.413 70.0619V64.5228C130.413 63.916 130.371 63.5659 129.978 63.0889C129.564 62.5456 129.108 62.4158 128.045 62.3071V61.7004H131.304L140.517 72.6247V67.3029C140.517 65.2835 140.475 64.3477 140.408 63.6987C140.342 62.7207 139.843 62.4188 138.103 62.3101V61.7034H143.471V62.3101H143.474Z" fill="black"/>
<path d="M85.0985 22.8328C84.3796 20.0436 83.1956 17.2966 79.2205 17.2966C75.922 17.2966 74.7803 19.7055 74.7803 21.903C74.7803 24.819 76.6409 26.2981 80.1508 28.1153C85.2254 30.7355 87.4244 32.6795 87.4244 36.6942C87.4244 41.1316 83.5762 44.5124 78.121 44.5124C75.5837 44.5124 73.3848 43.794 71.651 43.1178C71.3126 41.9345 70.8052 39.0608 70.5092 36.7787L71.8201 36.4406C72.6659 39.2721 74.5265 42.9488 78.9245 42.9488C81.9692 42.9488 83.8299 40.8357 83.8299 38.0888C83.8299 34.8347 82.0961 33.5247 78.3747 31.4962C73.9345 29.0873 71.4395 27.0588 71.4395 23.1286C71.4395 19.3674 74.5688 15.8175 80.1508 15.8175C82.519 15.8175 84.8448 16.4514 85.7328 16.6205C85.902 18.1418 86.0712 19.8323 86.4095 22.5792L85.0985 22.8328Z" fill="black"/>
<path d="M56.4586 89.6624C56.2796 89.0469 56.0111 88.384 55.1373 88.384C54.5214 88.384 54.195 88.8259 54.195 89.3415C54.195 89.9097 54.5687 90.2306 55.3847 90.6409C56.4428 91.1723 57.0324 91.6458 57.0324 92.5717C57.0324 93.6449 56.127 94.4393 54.8162 94.4393C54.2213 94.4393 53.7001 94.2762 53.2737 94.1394C53.2106 93.9027 53.0632 93.0399 53 92.5717L53.3422 92.4875C53.5317 93.0978 54.0213 94.0552 54.9741 94.0552C55.59 94.0552 55.9638 93.6554 55.9638 93.0451C55.9638 92.4349 55.6058 92.1192 54.7951 91.6826C53.8054 91.1512 53.1895 90.683 53.1895 89.7308C53.1895 88.7891 53.9423 88 55.3005 88C55.9111 88 56.4165 88.142 56.6218 88.1736C56.6587 88.5208 56.7166 88.9733 56.7903 89.5783L56.4586 89.6624Z" fill="black"/>
<path d="M58.0905 94.2972V93.9763C58.8328 93.9027 58.9118 93.8553 58.9118 93.0557V89.3941C58.9118 88.5945 58.8223 88.5313 58.0905 88.4629V88.142H60.8859V88.4629C60.1489 88.5366 60.0594 88.5945 60.0594 89.3941V93.0557C60.0594 93.8501 60.1436 93.8974 60.8859 93.9763V94.2972H58.0905Z" fill="black"/>
<path d="M68.6085 88.4629C68.0189 88.5366 67.8347 88.6471 67.8031 89.0785C67.782 89.4257 67.7557 89.7729 67.7557 90.6199V94.3972H67.2872L63.2969 89.5835V91.8036C63.2969 92.6348 63.3179 93.0294 63.3443 93.3029C63.3758 93.7448 63.5864 93.9342 64.2813 93.9763V94.2972H61.9492V93.9763C62.5072 93.929 62.7389 93.7869 62.7915 93.3345C62.8284 93.0083 62.8441 92.6348 62.8441 91.7983V89.4941C62.8441 89.1995 62.8231 89.0101 62.6494 88.7786C62.4757 88.5419 62.2598 88.505 61.8387 88.4629V88.142H63.539L67.2924 92.5348V90.6146C67.2924 89.7729 67.2819 89.4257 67.2503 89.0995C67.224 88.6839 67.045 88.5103 66.2712 88.4629V88.142H68.6138V88.4629H68.6085Z" fill="black"/>
<path d="M75.3678 92.7084C75.2362 93.1767 74.9888 93.8816 74.8414 94.2025C74.5834 94.2604 73.8201 94.4445 73.0989 94.4445C70.651 94.4445 69.5613 92.8505 69.5613 91.2933C69.5613 89.3415 71.0511 88.0105 73.2726 88.0105C74.0938 88.0105 74.7992 88.1999 75.0625 88.2367C75.1046 88.6734 75.173 89.331 75.2414 89.7676L74.894 89.836C74.6992 89.1311 74.4307 88.7681 73.9359 88.5682C73.7043 88.4682 73.3463 88.4209 73.0515 88.4209C71.6091 88.4209 70.8721 89.5677 70.8721 91.0829C70.8721 92.8505 71.7828 94.0237 73.1621 94.0237C74.0201 94.0237 74.5308 93.5975 75.0309 92.5875L75.3678 92.7084Z" fill="black"/>
<path d="M81.5954 92.7242C81.5427 92.9767 81.2848 94.0237 81.1953 94.2972H76.3838V93.9816C77.2524 93.9027 77.3156 93.8448 77.3156 93.0557V89.3941C77.3156 88.5734 77.205 88.5208 76.5364 88.4629V88.142H79.5529C80.511 88.142 80.8584 88.1315 80.9847 88.121C80.9953 88.3156 81.0374 89.068 81.0742 89.6256L80.732 89.6729C80.6478 89.352 80.5109 89.0311 80.3688 88.847C80.2056 88.6155 80.0477 88.5524 79.5371 88.5524H78.8211C78.4842 88.5524 78.4526 88.5734 78.4526 88.8786V90.8987H79.4265C80.0214 90.8987 80.1003 90.7567 80.232 90.0938H80.5741V92.1508H80.232C80.0898 91.4564 80.0161 91.3512 79.4213 91.3512H78.4579V93.0714C78.4579 93.729 78.5421 93.8764 79.0896 93.8869H79.8371C80.3846 93.8869 80.5109 93.8132 80.7163 93.5607C80.9321 93.3134 81.1269 92.9504 81.269 92.6401L81.5954 92.7242Z" fill="black"/>
<path d="M88.9601 92.84C88.8179 93.324 88.6442 93.9132 88.5494 94.2972H84.8118V94.05C85.3224 93.5502 85.8752 92.9925 86.3543 92.4507C87.0228 91.6878 87.4334 91.0039 87.4334 90.2359C87.4334 89.5256 87.0702 89.0785 86.4122 89.0785C85.812 89.0785 85.4067 89.5151 85.1171 89.936L84.8539 89.715L85.4383 88.8628C85.7489 88.4998 86.2542 88.2841 86.8333 88.2841C87.7651 88.2841 88.5284 88.9206 88.5284 89.9623C88.5284 90.7251 88.2388 91.2722 87.2965 92.1771C86.9123 92.5506 86.3595 93.0714 85.9963 93.3976C86.0489 93.3976 87.6124 93.3976 87.665 93.3976C88.2283 93.3976 88.3494 93.3555 88.6916 92.7611L88.9601 92.84Z" fill="black"/>
<path d="M91.8765 88.2841C93.4241 88.2841 93.9506 89.9412 93.9506 91.3459C93.9506 92.7295 93.4189 94.413 91.8765 94.413C90.3235 94.413 89.7865 92.7663 89.7865 91.3512C89.7865 89.957 90.3446 88.2841 91.8765 88.2841ZM91.8659 88.6629C91.1395 88.6629 90.9657 90.0359 90.9657 91.3196C90.9657 92.6085 91.1868 94.0289 91.887 94.0289C92.5976 94.0289 92.7766 92.6506 92.7766 91.3301C92.7714 89.9939 92.5661 88.6629 91.8659 88.6629Z" fill="black"/>
<path d="M96.8933 88.2841C98.441 88.2841 98.9674 89.9412 98.9674 91.3459C98.9674 92.7295 98.4357 94.413 96.8933 94.413C95.3403 94.413 94.8034 92.7663 94.8034 91.3512C94.7981 89.957 95.3561 88.2841 96.8933 88.2841ZM96.8775 88.6629C96.151 88.6629 95.9773 90.0359 95.9773 91.3196C95.9773 92.6085 96.1984 94.0289 96.8985 94.0289C97.6092 94.0289 97.7882 92.6506 97.7882 91.3301C97.7882 89.9939 97.5829 88.6629 96.8775 88.6629Z" fill="black"/>
<path d="M104 92.84C103.858 93.324 103.684 93.9132 103.589 94.2972H99.8518V94.05C100.362 93.5502 100.915 92.9925 101.394 92.4507C102.068 91.6878 102.473 91.0039 102.473 90.2359C102.473 89.5256 102.11 89.0785 101.452 89.0785C100.852 89.0785 100.447 89.5151 100.157 89.936L99.8939 89.715L100.478 88.8628C100.789 88.4998 101.294 88.2841 101.873 88.2841C102.805 88.2841 103.568 88.9206 103.568 89.9623C103.568 90.7251 103.279 91.2722 102.336 92.1771C101.952 92.5506 101.399 93.0714 101.036 93.3976C101.089 93.3976 102.652 93.3976 102.705 93.3976C103.268 93.3976 103.389 93.3555 103.732 92.7611L104 92.84Z" fill="black"/>
</mask>
<g mask="url(#mask0)">
<rect x="-13" y="-20" width="180" height="130" fill="url(#paint0_linear)"/>
</g>
<defs>
<linearGradient id="paint0_linear" x1="26.4416" y1="45" x2="180.713" y2="45" gradientUnits="userSpaceOnUse">
<stop stop-color="#DBC266"/>
<stop offset="0.463542" stop-color="#AE8930"/>
<stop offset="0.827015" stop-color="#CFA43D"/>
<stop offset="0.906096" stop-color="#F5E38B"/>
</linearGradient>
</defs>
</svg>
