<svg width="161" height="58" viewBox="0 0 161 58" fill="none" xmlns="http://www.w3.org/2000/svg">
<mask id="mask0" mask-type="alpha" maskUnits="userSpaceOnUse" x="0" y="0" width="161" height="58">
<path d="M1.80727 36.0855C7.84181 35.9712 13.8764 35.9255 19.9109 35.8406L38.0145 35.7002C50.0836 35.6186 62.1527 35.6251 74.2247 35.5827C86.2938 35.6219 98.3629 35.6186 110.432 35.697L128.536 35.8374C134.57 35.9223 147.184 35.968 153.219 36.0823C147.184 36.1965 134.57 36.2455 128.536 36.3272L110.432 36.4676C98.3629 36.5459 86.2938 36.5427 74.2247 36.5818C62.1556 36.5394 50.0865 36.5459 38.0145 36.4643L19.9109 36.3239C13.8764 36.2488 7.84181 36.1998 1.80727 36.0855Z" fill="#353535"/>
<path d="M155.973 20.7813C149.744 26.5006 142.573 26.3519 134.9 24.3993C132.344 23.7517 128.454 22.2979 124.137 20.9994C116.267 18.6304 110.536 20.3584 108 21.4752C103.391 23.8177 101.528 27.2308 101.017 27.8454C101.686 26.9764 104.66 20.9961 113.705 19.2714C118.628 18.4817 124.55 19.539 130.788 21.2769C136.947 22.8794 144.106 25.8167 151.162 22.777C154.561 21.4157 157.572 19.083 159.118 15.9904C160.75 12.9044 160.154 9.21709 158.149 6.73905C156.391 4.08919 153.252 2.59245 150.516 3.33917C147.805 3.99337 145.761 6.3723 145.721 8.76444C145.731 9.28318 145.814 9.78539 145.936 10.2678C146.331 11.2359 147.192 12.541 148.979 12.8714C151.91 13.4166 150.16 11.0046 150.714 9.35917C151.271 7.71705 152.316 6.92738 150.855 5.66523C150.855 5.66523 156.269 6.52428 154.631 11.4275C154.631 11.4275 154.008 12.4187 154.601 12.9969C155.191 13.5751 155.943 12.5311 155.943 12.5311C155.943 12.5311 154.822 16.9089 149.784 15.7426C144.966 14.6258 143.463 7.57497 147.525 4.41299C148.326 3.71253 149.306 3.17397 150.394 2.88982C153.332 2.04067 156.761 3.65306 158.604 6.39873C160.741 8.94946 161.436 12.9936 159.699 16.2845C158.835 18.0389 157.529 19.539 155.973 20.7813Z" fill="#353535"/>
<path d="M104.891 15.6831C104.891 15.6831 103.602 18.7757 106.444 18.5213C109.283 18.2603 115.38 10.2381 122.555 12.4881C129.726 14.7415 132.074 14.5862 134.181 12.6335C134.181 12.6335 131.51 17.9563 126.271 16.6413C121.028 15.323 108.492 14.8373 100.713 26.4346C100.717 26.4346 100.321 19.2053 104.891 15.6831Z" fill="#353535"/>
<path d="M146.153 21.3628C142.477 24.0523 138.517 22.1955 134.722 20.4443C129.763 18.1546 124.968 18.5643 124.968 18.5643C124.968 18.5643 130.01 17.094 135.543 18.8518C141.072 20.6095 145.853 18.0819 146.397 15.2041C146.394 15.2041 149.83 18.67 146.153 21.3628Z" fill="#353535"/>
<path d="M150.997 27.6769C151.366 28.493 151.432 29.4214 149.032 30.1715C147.439 30.6671 145.484 30.5382 143.816 30.297C141.244 29.9237 138.946 29.4677 138.946 29.4677C138.946 29.4677 136.304 29.3058 137.739 32.0118C137.739 32.0118 135.905 31.5724 134.626 29.6692C133.347 27.7694 129.225 24.5876 127.923 26.3883C126.62 28.1857 128.978 28.7705 126.924 30.9909C126.924 30.9909 121.704 22.8662 115.07 22.43C108.848 22.0236 105.26 25.07 105.26 25.07C105.26 25.07 110.562 18.4949 123.346 22.1988C136.126 25.9026 137.439 28.6053 143.43 28.0403C143.43 28.0403 147.321 27.7562 149.062 27.211C149.777 26.9863 150.733 27.0921 150.997 27.6769Z" fill="#353535"/>
<path d="M117.939 30.0061C114.006 27.5714 111.386 23.9925 106.27 27.0159C107.994 25.5512 109.516 25.413 110.578 25.3882C114.163 25.2721 116.866 29.7298 119.205 28.5525C118.066 27.3227 119.417 26.2891 120.457 26.4135C121.588 26.5572 122.313 27.8505 121.946 28.967C121.364 30.7717 118.992 30.6583 117.939 30.0061Z" fill="#353535"/>
<path d="M5.20038 20.7813C11.429 26.5006 18.6006 26.3519 26.2767 24.3993C28.8321 23.7517 32.7229 22.2979 37.039 20.9994C44.9063 18.6304 50.6403 20.3584 53.1759 21.4752C57.7855 23.8177 59.6485 27.2308 60.1596 27.8454C59.4902 26.9764 56.5161 20.9961 47.4716 19.2714C42.5488 18.4817 36.6268 19.539 30.3884 21.2769C24.229 22.8794 17.0739 25.8167 10.0144 22.777C6.61492 21.4157 3.6045 19.083 2.05807 15.9904C0.42591 12.9044 1.02272 9.21709 3.02747 6.73905C4.78493 4.08919 7.92394 2.59245 10.6607 3.33917C13.3711 3.99337 15.4187 6.3723 15.455 8.76444C15.4451 9.28318 15.3626 9.78539 15.2406 10.2678C14.845 11.2359 13.9844 12.541 12.1972 12.8714C9.26594 13.4166 11.0168 11.0046 10.4629 9.35917C9.90561 7.71705 8.86037 6.92738 10.3211 5.66523C10.3211 5.66523 4.90692 6.52428 6.54568 11.4275C6.54568 11.4275 7.16886 12.4187 6.57535 12.9969C5.98514 13.5751 5.23336 12.5311 5.23336 12.5311C5.23336 12.5311 6.35443 16.9089 11.3927 15.7426C16.21 14.6258 17.7136 7.57497 13.6513 4.41299C12.8501 3.71253 11.8708 3.17397 10.7827 2.88982C7.84481 2.04067 4.41563 3.65306 2.57244 6.39873C0.435802 8.94946 -0.259926 12.9936 1.47775 16.2845C2.33834 18.0389 3.64406 19.539 5.20038 20.7813Z" fill="#353535"/>
<path d="M56.282 15.6831C56.282 15.6831 57.5712 18.7757 54.7289 18.5213C51.8867 18.2603 45.7933 10.2381 38.6184 12.4881C31.4435 14.7415 29.0991 14.5862 26.9922 12.6335C26.9922 12.6335 29.663 17.9563 34.9024 16.6413C40.145 15.323 52.6813 14.8373 60.4596 26.4346C60.4563 26.4346 60.8553 19.2053 56.282 15.6831Z" fill="#353535"/>
<path d="M15.0197 21.3628C18.6962 24.0523 22.6529 22.1955 26.4514 20.4443C31.4105 18.1546 36.2048 18.5643 36.2048 18.5643C36.2048 18.5643 31.1632 17.094 25.6304 18.8518C20.1008 20.6095 15.3198 18.0819 14.7757 15.2041C14.779 15.2041 11.3432 18.67 15.0197 21.3628Z" fill="#353535"/>
<path d="M10.176 27.6769C9.80668 28.493 9.74073 29.4214 12.1412 30.1715C13.7337 30.6671 15.689 30.5382 17.3575 30.297C19.9294 29.9237 22.2276 29.4677 22.2276 29.4677C22.2276 29.4677 24.8687 29.3058 23.4344 32.0118C23.4344 32.0118 25.2677 31.5724 26.547 29.6692C27.8264 27.7694 31.948 24.5876 33.2504 26.3883C34.5528 28.1857 32.1953 28.7705 34.2495 30.9909C34.2495 30.9909 39.4691 22.8662 46.1032 22.43C52.3252 22.0236 55.9094 25.07 55.9094 25.07C55.9094 25.07 50.6073 18.4949 37.8237 22.1988C25.0434 25.9026 23.7311 28.6053 17.74 28.0403C17.74 28.0403 13.8525 27.7562 12.1082 27.211C11.3993 26.9863 10.4398 27.0921 10.176 27.6769Z" fill="#353535"/>
<path d="M44.2891 30.0756C48.222 27.5428 50.842 23.8199 55.958 26.965C54.2343 25.4413 52.7119 25.2976 51.6501 25.2717C48.0648 25.151 45.362 29.7852 43.0233 28.5634C44.1623 27.2841 42.8109 26.2089 41.7712 26.3383C40.6404 26.4878 39.9151 27.8332 40.2819 28.9946C40.8638 30.869 43.2356 30.7512 44.2891 30.0756Z" fill="#353535"/>
<path d="M95.1883 15.6241C95.1883 23.7009 88.6543 30.2482 80.5941 30.2482C72.534 30.2482 66 23.7009 66 15.6241C66 7.54739 72.534 1 80.5941 1C88.6543 0.998055 95.1883 7.54544 95.1883 15.6241Z" stroke="#353535" stroke-width="2" stroke-miterlimit="10"/>
<path d="M84.6058 10.5457C84.1437 8.74789 83.3825 6.97727 80.8271 6.97727C78.7068 6.97727 77.9728 8.52997 77.9728 9.94646C77.9728 11.826 79.1689 12.7794 81.4252 13.9508C84.6873 15.6397 86.1009 16.8927 86.1009 19.4805C86.1009 22.3408 83.6271 24.52 80.1204 24.52C78.4893 24.52 77.0757 24.0569 75.9611 23.6211C75.7437 22.8583 75.4174 21.006 75.2272 19.535L76.0699 19.3171C76.6136 21.1422 77.8097 23.5121 80.6369 23.5121C82.5941 23.5121 83.7903 22.1501 83.7903 20.3795C83.7903 18.282 82.6757 17.4375 80.2835 16.13C77.4291 14.5773 75.8252 13.2698 75.8252 10.7364C75.8252 8.31205 77.8369 6.02386 81.4252 6.02386C82.9475 6.02386 84.4427 6.43247 85.0136 6.54143C85.1223 7.52208 85.231 8.61169 85.4485 10.3823L84.6058 10.5457Z" fill="black"/>
<path d="M20.7748 45.7479C20.3927 44.2569 19.7599 42.791 17.6423 42.791C15.885 42.791 15.2773 44.078 15.2773 45.2519C15.2773 46.8088 16.2703 47.5998 18.1404 48.5729C20.8437 49.9729 22.0153 51.0118 22.0153 53.1557C22.0153 55.5256 19.9635 57.3336 17.0566 57.3336C15.7033 57.3336 14.5318 56.9507 13.6077 56.5897C13.4292 55.9588 13.1566 54.4207 13 53.2028L13.6985 53.0207C14.1496 54.5337 15.1395 56.4987 17.4857 56.4987C19.1083 56.4987 20.1013 55.3687 20.1013 53.9028C20.1013 52.1638 19.1773 51.4638 17.1944 50.3809C14.8294 49.094 13.4981 48.011 13.4981 45.908C13.4981 43.8991 15.1645 42 18.1404 42C19.4028 42 20.6433 42.339 21.1163 42.43C21.2071 43.243 21.298 44.147 21.4765 45.6129L20.7748 45.7479Z" fill="black"/>
<path d="M37.449 56.9946V56.3637C38.915 56.1816 39.0936 55.9588 38.7772 55.0987C38.4828 54.2167 38.0348 53.0898 37.5618 51.6647H32.6939C32.3337 52.6818 31.9954 53.5606 31.679 54.4866C31.1841 55.9556 31.4973 56.1346 33.3455 56.3606V56.9915H28.1424V56.3606C29.5614 56.1785 29.9217 56.0216 30.7111 53.9907L35.3753 42.135L36.0958 42C37.5148 45.8609 39.0717 50.1298 40.4907 54.0378C41.2112 56.0027 41.4148 56.1816 43.0155 56.3637V56.9946H37.449ZM35.1968 44.96C34.4763 46.903 33.7089 48.9559 33.0322 50.7419H37.2454L35.1968 44.96Z" fill="black"/>
<path d="M59.9842 53.2468C59.8495 53.9467 59.1729 56.2947 58.9473 56.9946H48.4691V56.3637C50.5209 56.1597 50.6995 56.0467 50.6995 54.1288V45.1641C50.6995 43.243 50.4739 43.1332 48.6728 42.9511V42.3202H54.7122V42.9511C52.9079 43.1332 52.6604 43.2211 52.6604 45.1641V54.3548C52.6604 55.7328 52.8421 56.0498 54.1264 56.0718C54.1483 56.0718 55.771 56.0938 55.9057 56.0938C57.0553 56.0938 57.3936 55.9588 57.9105 55.3938C58.4743 54.8068 58.9473 53.9028 59.2856 53.0679L59.9842 53.2468Z" fill="black"/>
<path d="M75.2174 56.9946V56.3637C76.6834 56.1816 76.862 55.9588 76.5488 55.0987C76.2543 54.2167 75.8032 53.0898 75.3333 51.6647H70.4655C70.1052 52.6818 69.7669 53.5606 69.4505 54.4866C68.9556 55.9556 69.2689 56.1346 71.117 56.3606V56.9915H65.9108V56.3606C67.3298 56.1785 67.6901 56.0216 68.4795 53.9907L73.1437 42.135L73.8642 42C75.2832 45.8609 76.8401 50.1298 78.2591 54.0378C78.9796 56.0027 79.1832 56.1816 80.7839 56.3637V56.9946H75.2174ZM72.9652 44.96C72.2447 46.903 71.4773 48.9559 70.8006 50.7419H75.0138L72.9652 44.96Z" fill="black"/>
<path d="M99.0838 56.9946V56.3637C100.932 56.1817 101.001 56.0467 100.976 53.6297L100.998 44.417C99.1496 48.5509 96.1738 55.0077 95.3875 56.9946H94.8017C94.0343 54.9386 91.4876 48.7299 89.7772 44.643C89.3951 52.5468 89.3731 54.3297 89.3731 54.7597C89.3951 56.0247 89.9589 56.2036 91.4907 56.3637V56.9946H86.1498V56.3637C87.4561 56.2287 87.998 55.9588 88.1797 54.7378C88.3144 53.7427 88.3363 52.9297 88.9221 44.6869C89.0129 43.513 88.7874 43.13 86.8045 42.948V42.317H90.7264L95.707 53.7678L101.048 42.317H104.992V42.948C103.053 43.174 102.805 43.378 102.852 44.9569L102.943 53.6297C103.034 56.0467 103.1 56.1597 105.083 56.3637V56.9946H99.0838Z" fill="black"/>
<path d="M119.185 42C123.038 42 126.487 44.9569 126.487 49.4518C126.487 54.3077 123.198 57.3336 119.05 57.3336C114.724 57.3336 111.567 54.0378 111.567 49.7908C111.567 45.7479 114.43 42 119.185 42ZM118.734 42.835C116.209 42.835 113.91 44.9569 113.91 49.1818C113.91 53.3817 116.209 56.4767 119.407 56.4767C122.136 56.4767 124.184 54.4427 124.184 50.0859C124.188 45.343 121.688 42.835 118.734 42.835Z" fill="black"/>
<path d="M149 42.948C147.556 43.1049 147.083 43.3309 147.017 44.3699C146.995 45.0918 146.948 46.0398 146.948 48.1397V57.1955H146.093L136.448 45.3838V51.0307C136.448 53.0616 136.517 54.0786 136.561 54.7346C136.605 55.8866 137.169 56.2256 138.791 56.3606V56.9915H133.316V56.3606C134.713 56.2476 135.255 55.9086 135.342 54.8037C135.411 54.0817 135.455 53.0647 135.455 51.0087V45.2488C135.455 44.6179 135.411 44.2538 135.004 43.7578C134.575 43.1928 134.102 43.0578 132.999 42.9448V42.3139H136.379L145.933 53.6737V48.1397C145.933 46.0398 145.889 45.0667 145.821 44.3919C145.752 43.3749 145.235 43.061 143.43 42.948V42.317H148.997V42.948H149Z" fill="black"/>
</mask>
<g mask="url(#mask0)">
<rect x="-5" y="-9" width="181" height="46" fill="url(#paint0_linear)"/>
<rect x="-5" y="41" width="181" height="18" fill="#2958F9"/>
<rect x="-5" y="41" width="181" height="18" fill="url(#paint1_linear)"/>
</g>
<defs>
<linearGradient id="paint0_linear" x1="34.6607" y1="14" x2="189.789" y2="14" gradientUnits="userSpaceOnUse">
<stop stop-color="#DBC266"/>
<stop offset="0.463542" stop-color="#AE8930"/>
<stop offset="0.827015" stop-color="#CFA43D"/>
<stop offset="0.906096" stop-color="#F5E38B"/>
</linearGradient>
<linearGradient id="paint1_linear" x1="127.309" y1="41.5513" x2="126.341" y2="59.7629" gradientUnits="userSpaceOnUse">
<stop offset="1" stop-color="#1B2232"/>
</linearGradient>
</defs>
</svg>
