<svg width="15" height="15" viewBox="0 0 15 15" fill="none" xmlns="http://www.w3.org/2000/svg">
<g clip-path="url(#clip0)">
<path d="M13.6816 -0.0998779H1.31836C0.536202 -0.0998779 -0.1 0.536324 -0.1 1.31848V13.6818C-0.1 14.4639 0.536202 15.1001 1.31836 15.1001H13.6816C14.4638 15.1001 15.1 14.4639 15.1 13.6818V1.31848C15.1 0.536324 14.4638 -0.0998779 13.6816 -0.0998779ZM14.0211 13.6818C14.0211 13.8688 13.8687 14.0212 13.6816 14.0212H1.31836C1.13132 14.0212 0.978906 13.8688 0.978906 13.6818V1.31848C0.978906 1.13144 1.13132 0.979028 1.31836 0.979028H13.6816C13.8687 0.979028 14.0211 1.13144 14.0211 1.31848V13.6818Z" fill="url(#paint0_linear)" stroke="url(#paint1_linear)" stroke-width="0.2"/>
<path d="M12.6284 3.42556L12.6284 3.4256C12.7428 3.51152 12.8186 3.63944 12.8387 3.78108C12.8387 3.78111 12.8387 3.78114 12.8387 3.78117L12.7397 3.79521C12.7562 3.91068 12.7261 4.02798 12.6559 4.12125L12.6284 3.42556ZM12.6284 3.42556C11.1377 2.30765 9.36402 1.71653 7.50001 1.71653C5.636 1.71653 3.86228 2.30765 2.37165 3.42556L2.3716 3.4256M12.6284 3.42556L2.3716 3.4256M2.3716 3.4256C2.25717 3.51153 2.18145 3.63933 2.16122 3.78108L2.16121 3.78118M2.3716 3.4256L2.16121 3.78118M2.16121 3.78118C2.14113 3.92286 2.17805 4.06681 2.26402 4.1813L2.26405 4.18134M2.16121 3.78118L2.26405 4.18134M2.26405 4.18134L4.58389 7.26758L4.5839 7.2676M2.26405 4.18134L4.5839 7.2676M4.5839 7.2676C4.68999 7.40868 4.85198 7.48293 5.0155 7.48293C5.12804 7.48293 5.24183 7.44775 5.33881 7.37506L5.33882 7.37505M4.5839 7.2676L5.33882 7.37505M5.33882 7.37505C5.96719 6.90383 6.71415 6.65484 7.50001 6.65484M5.33882 7.37505L7.50001 6.65484M7.50001 6.65484C8.28575 6.65484 9.03282 6.90382 9.66117 7.37503L7.50001 6.65484ZM10.416 7.26757L12.7358 4.18136L9.66119 7.37504C9.89935 7.55375 10.2372 7.50553 10.416 7.26757ZM3.46251 3.97996C4.66711 3.20339 6.052 2.79543 7.50001 2.79543C8.94802 2.79543 10.3329 3.20339 11.5375 3.97996L9.8591 6.21292C9.29972 5.88532 8.68367 5.68037 8.03946 5.60688V4.35757C8.03946 4.05962 7.79797 3.81812 7.50001 3.81812C7.20205 3.81812 6.96056 4.05962 6.96056 4.35757V5.60688C6.31636 5.68037 5.7003 5.88532 5.14092 6.21292L3.46251 3.97996Z" fill="url(#paint2_linear)" stroke="url(#paint3_linear)" stroke-width="0.2"/>
</g>
<defs>
<linearGradient id="paint0_linear" x1="3.2868" y1="7.50012" x2="16.1427" y2="7.50012" gradientUnits="userSpaceOnUse">
<stop stop-color="#DBC266"/>
<stop offset="0.463542" stop-color="#AE8930"/>
<stop offset="0.827015" stop-color="#CFA43D"/>
<stop offset="0.906096" stop-color="#F5E38B"/>
</linearGradient>
<linearGradient id="paint1_linear" x1="3.2868" y1="7.50012" x2="16.1427" y2="7.50012" gradientUnits="userSpaceOnUse">
<stop stop-color="#DBC266"/>
<stop offset="0.463542" stop-color="#AE8930"/>
<stop offset="0.827015" stop-color="#CFA43D"/>
<stop offset="0.906096" stop-color="#F5E38B"/>
</linearGradient>
<linearGradient id="paint2_linear" x1="4.55404" y1="4.59975" x2="13.5431" y2="4.59975" gradientUnits="userSpaceOnUse">
<stop stop-color="#DBC266"/>
<stop offset="0.463542" stop-color="#AE8930"/>
<stop offset="0.827015" stop-color="#CFA43D"/>
<stop offset="0.906096" stop-color="#F5E38B"/>
</linearGradient>
<linearGradient id="paint3_linear" x1="4.55404" y1="4.59975" x2="13.5431" y2="4.59975" gradientUnits="userSpaceOnUse">
<stop stop-color="#DBC266"/>
<stop offset="0.463542" stop-color="#AE8930"/>
<stop offset="0.827015" stop-color="#CFA43D"/>
<stop offset="0.906096" stop-color="#F5E38B"/>
</linearGradient>
<clipPath id="clip0">
<rect width="15" height="15" fill="white" transform="translate(0 0.00012207)"/>
</clipPath>
</defs>
</svg>
