<svg width="20" height="20" viewBox="0 0 20 20" fill="none" xmlns="http://www.w3.org/2000/svg">
<path d="M19.5516 15.8059L16.4629 12.7168C15.8477 12.1041 14.8289 12.1227 14.1923 12.7596L12.6362 14.3153C12.5379 14.2612 12.4361 14.2046 12.3291 14.1445C11.3464 13.6 10.0015 12.8538 8.58626 11.4375C7.1668 10.0182 6.41984 8.67118 5.8737 7.68789C5.81607 7.58372 5.76085 7.48329 5.70632 7.3879L6.75069 6.34509L7.26414 5.83101C7.90176 5.19322 7.91934 4.17471 7.30557 3.56019L4.21688 0.470814C3.60311 -0.142844 2.58386 -0.124227 1.94624 0.513563L1.07574 1.38906L1.09953 1.41267C0.807641 1.78512 0.56373 2.21468 0.382219 2.67791C0.214899 3.11885 0.110727 3.53962 0.0630942 3.96125C-0.344746 7.34234 1.20031 10.4324 5.3934 14.6256C11.1895 20.4213 15.8604 19.9834 16.062 19.9621C16.5008 19.9096 16.9214 19.8048 17.3489 19.6388C17.8081 19.4594 18.2373 19.2158 18.6095 18.9245L18.6286 18.9414L19.5104 18.0779C20.1467 17.4402 20.1651 16.4214 19.5516 15.8059Z" fill="#CA0A0A"/>
</svg>
