<svg width="13" height="14" viewBox="0 0 13 14" fill="none" xmlns="http://www.w3.org/2000/svg">
<path fill-rule="evenodd" clip-rule="evenodd" d="M11.9205 10.559L10.1568 8.66474C9.80558 8.2888 9.22382 8.30019 8.86032 8.69104L7.97184 9.64491C7.91565 9.61216 7.85754 9.5768 7.79653 9.53997C7.23537 9.20642 6.46744 8.74834 5.65939 7.88042C4.84883 7.01014 4.42238 6.18402 4.11055 5.58154C4.07757 5.5175 4.04611 5.45613 4.01494 5.39736L4.61127 4.75774L4.90442 4.44262C5.26854 4.05178 5.27859 3.42707 4.92804 3.05026L3.16447 1.15626C2.81403 0.779728 2.23198 0.791424 1.86796 1.18227L1.37085 1.71928L1.38451 1.73331C1.21784 1.96162 1.07851 2.2253 0.974859 2.50915C0.87936 2.77986 0.819851 3.03739 0.792702 3.2961C0.559787 5.3696 1.44202 7.26418 3.8362 9.83522C7.1458 13.3888 9.81293 13.1204 9.92793 13.107C10.1785 13.0748 10.4187 13.0105 10.6628 12.9091C10.925 12.7988 11.1701 12.6495 11.3826 12.4708L11.3934 12.4814L11.897 11.952C12.2603 11.5611 12.2709 10.9361 11.9205 10.559Z" fill="url(#paint0_linear)"/>
<defs>
<linearGradient id="paint0_linear" x1="2.27219" y1="7" x2="15.071" y2="7" gradientUnits="userSpaceOnUse">
<stop stop-color="#DBC266"/>
<stop offset="0.463542" stop-color="#AE8930"/>
<stop offset="0.827015" stop-color="#CFA43D"/>
<stop offset="0.906096" stop-color="#F5E38B"/>
</linearGradient>
</defs>
</svg>
