<svg width="10" height="10" viewBox="0 0 10 10" fill="none" xmlns="http://www.w3.org/2000/svg">
<path d="M6.10178 5.00055L9.84088 1.26128C9.94374 1.15835 10.0005 1.02102 10.0007 0.87459C10.0007 0.728076 9.9439 0.590588 9.84088 0.487817L9.51322 0.160235C9.4102 0.0570571 9.27288 0.000549316 9.12628 0.000549316C8.97993 0.000549316 8.84261 0.0570571 8.73959 0.160235L5.00049 3.89926L1.26122 0.160235C1.15837 0.0570571 1.02096 0.000549316 0.874447 0.000549316C0.728096 0.000549316 0.590689 0.0570571 0.487837 0.160235L0.16001 0.487817C-0.0533368 0.701164 -0.0533368 1.04818 0.16001 1.26128L3.8992 5.00055L0.16001 8.73965C0.0570769 8.84275 0.00040653 8.98008 0.00040653 9.12651C0.00040653 9.27294 0.0570769 9.41027 0.16001 9.51328L0.487755 9.84086C0.590608 9.94396 0.728096 10.0005 0.874366 10.0005C1.02088 10.0005 1.15829 9.94396 1.26114 9.84086L5.00041 6.10176L8.73951 9.84086C8.84253 9.94396 8.97985 10.0005 9.1262 10.0005H9.12637C9.2728 10.0005 9.41012 9.94396 9.51314 9.84086L9.8408 9.51328C9.94365 9.41035 10.0004 9.27294 10.0004 9.12651C10.0004 8.98008 9.94365 8.84275 9.8408 8.73974L6.10178 5.00055Z" fill="#CA0A0A"/>
<path d="M6.10178 5.00055L9.84088 1.26128C9.94374 1.15835 10.0005 1.02102 10.0007 0.87459C10.0007 0.728076 9.9439 0.590588 9.84088 0.487817L9.51322 0.160235C9.4102 0.0570571 9.27288 0.000549316 9.12628 0.000549316C8.97993 0.000549316 8.84261 0.0570571 8.73959 0.160235L5.00049 3.89926L1.26122 0.160235C1.15837 0.0570571 1.02096 0.000549316 0.874447 0.000549316C0.728096 0.000549316 0.590689 0.0570571 0.487837 0.160235L0.16001 0.487817C-0.0533368 0.701164 -0.0533368 1.04818 0.16001 1.26128L3.8992 5.00055L0.16001 8.73965C0.0570769 8.84275 0.00040653 8.98008 0.00040653 9.12651C0.00040653 9.27294 0.0570769 9.41027 0.16001 9.51328L0.487755 9.84086C0.590608 9.94396 0.728096 10.0005 0.874366 10.0005C1.02088 10.0005 1.15829 9.94396 1.26114 9.84086L5.00041 6.10176L8.73951 9.84086C8.84253 9.94396 8.97985 10.0005 9.1262 10.0005H9.12637C9.2728 10.0005 9.41012 9.94396 9.51314 9.84086L9.8408 9.51328C9.94365 9.41035 10.0004 9.27294 10.0004 9.12651C10.0004 8.98008 9.94365 8.84275 9.8408 8.73974L6.10178 5.00055Z" fill="url(#paint0_linear)"/>
<defs>
<linearGradient id="paint0_linear" x1="0.191981" y1="1.45141" x2="9.31309" y2="1.46409" gradientUnits="userSpaceOnUse">
<stop offset="0.138996" stop-color="#C61919" stop-opacity="0.692708"/>
<stop offset="0.609375" stop-color="#F52A2A"/>
<stop offset="1" stop-color="#C50707"/>
</linearGradient>
</defs>
</svg>
