<svg width="230" height="27" viewBox="0 0 230 27" fill="none" xmlns="http://www.w3.org/2000/svg">
<path d="M14.4941 8.51212H13.7832C13.8835 7.55509 13.9336 6.83048 13.9336 6.33829C13.9336 5.63647 13.7422 5.08503 13.3594 4.68399C12.9857 4.27384 12.4753 4.06876 11.8281 4.06876C10.8255 4.06876 9.95052 4.43334 9.20312 5.16251C8.45573 5.88256 8.08203 6.69376 8.08203 7.5961C8.08203 8.07917 8.18229 8.51667 8.38281 8.9086C8.59245 9.30053 9.04818 9.8474 9.75 10.5492C11.0352 11.807 11.8783 12.7914 12.2793 13.5024C12.6803 14.2133 12.8809 14.906 12.8809 15.5805C12.8809 16.574 12.5755 17.531 11.9648 18.4516C11.3633 19.3721 10.4701 20.1287 9.28516 20.7211C8.10938 21.3227 6.86523 21.6234 5.55273 21.6234C4.25846 21.6234 3.16471 21.2862 2.27148 20.6117C1.38737 19.9372 0.945312 19.2263 0.945312 18.4789C0.945312 18.0779 1.05924 17.7452 1.28711 17.4809C1.52409 17.2165 1.79297 17.0844 2.09375 17.0844C2.40365 17.0844 2.65885 17.2074 2.85938 17.4535C2.98698 17.5994 3.11458 17.9275 3.24219 18.4379C3.38802 19.0577 3.56576 19.5043 3.77539 19.7777C3.98503 20.0603 4.27214 20.2882 4.63672 20.4613C5.01042 20.6436 5.41602 20.7348 5.85352 20.7348C7.1569 20.7348 8.29622 20.2973 9.27148 19.4223C10.2467 18.5382 10.7344 17.5629 10.7344 16.4965C10.7344 16.1319 10.6706 15.7719 10.543 15.4164C10.4245 15.0518 10.2012 14.6417 9.87305 14.1859C9.64518 13.876 9.13932 13.3292 8.35547 12.5453C7.58073 11.7797 7.0931 11.2556 6.89258 10.9731C6.61003 10.5629 6.40039 10.1527 6.26367 9.74259C6.12695 9.32332 6.05859 8.9086 6.05859 8.49845C6.05859 7.66902 6.33659 6.83503 6.89258 5.99649C7.44857 5.15795 8.16862 4.49259 9.05273 4.0004C9.94596 3.4991 10.9577 3.24845 12.0879 3.24845C12.653 3.24845 13.3503 3.33503 14.1797 3.50821C14.6536 3.59936 15.0638 3.66772 15.4102 3.71329C15.2096 4.30574 15.0547 4.86628 14.9453 5.39493C14.8359 5.91446 14.6855 6.95352 14.4941 8.51212ZM21.3711 16.3051L21.8359 16.7973C21.125 17.5994 20.2819 18.3331 19.3066 18.9984C18.3405 19.6547 17.543 19.9828 16.9141 19.9828C16.6315 19.9828 16.3991 19.8734 16.2168 19.6547C16.0345 19.4451 15.9434 19.1534 15.9434 18.7797C15.9434 18.0505 16.2259 16.5375 16.791 14.2406L18.2676 8.23868C18.8053 6.06941 19.2565 4.61563 19.6211 3.87735C20.1862 2.75626 20.9837 1.88582 22.0137 1.26602C23.0527 0.646232 24.1465 0.336336 25.2949 0.336336C25.6868 0.336336 25.9922 0.432039 26.2109 0.623446C26.4388 0.805737 26.5527 1.02904 26.5527 1.29337C26.5527 1.58503 26.4434 1.82657 26.2246 2.01798C26.0059 2.20027 25.6868 2.29141 25.2676 2.29141C24.9941 2.29141 24.6068 2.24584 24.1055 2.1547C23.668 2.08178 23.2624 2.04532 22.8887 2.04532C22.515 2.04532 22.2324 2.12279 22.041 2.27774C21.7767 2.49649 21.5352 2.95678 21.3164 3.6586C21.1068 4.36042 20.7604 5.74584 20.2773 7.81485L18.9238 13.5434C18.2493 16.4145 17.9121 17.9138 17.9121 18.0414C17.9121 18.3331 18.0169 18.4789 18.2266 18.4789C18.4271 18.4789 18.7188 18.3604 19.1016 18.1234C19.8581 17.6495 20.6146 17.0434 21.3711 16.3051ZM29.5742 16.1684L30.0254 16.7699C27.7923 18.8936 25.8783 19.9555 24.2832 19.9555C23.6361 19.9555 23.1393 19.7367 22.793 19.2992C22.4557 18.8617 22.2871 18.1599 22.2871 17.1938C22.2871 15.2432 22.8796 13.3018 24.0645 11.3695C25.3952 9.17292 26.9857 8.07462 28.8359 8.07462C29.4831 8.07462 29.9753 8.23868 30.3125 8.5668C30.6589 8.88582 30.832 9.32787 30.832 9.89298C30.832 10.4854 30.627 11.0688 30.2168 11.643C29.8066 12.2172 29.0729 12.8142 28.0156 13.434C27.487 13.7348 26.3568 14.2771 24.625 15.0609C24.543 15.5531 24.502 16.0225 24.502 16.4691C24.502 17.1163 24.6022 17.5675 24.8027 17.8227C25.0124 18.0779 25.3132 18.2055 25.7051 18.2055C26.0788 18.2055 26.4889 18.1007 26.9355 17.891C27.5371 17.6085 28.4167 17.0343 29.5742 16.1684ZM24.7891 14.1859C26.2565 13.5297 27.3594 12.8233 28.0977 12.0668C28.599 11.5382 28.8496 11.0141 28.8496 10.4945C28.8496 10.1026 28.7448 9.79272 28.5352 9.56485C28.3346 9.32787 28.0703 9.20938 27.7422 9.20938C27.4049 9.20938 27.0768 9.33699 26.7578 9.5922C26.3294 9.92944 25.9694 10.4399 25.6777 11.1234C25.2585 12.126 24.9622 13.1469 24.7891 14.1859ZM39.0898 16.1684L39.541 16.7699C37.3079 18.8936 35.3939 19.9555 33.7988 19.9555C33.1517 19.9555 32.6549 19.7367 32.3086 19.2992C31.9714 18.8617 31.8027 18.1599 31.8027 17.1938C31.8027 15.2432 32.3952 13.3018 33.5801 11.3695C34.9108 9.17292 36.5013 8.07462 38.3516 8.07462C38.9987 8.07462 39.4909 8.23868 39.8281 8.5668C40.1745 8.88582 40.3477 9.32787 40.3477 9.89298C40.3477 10.4854 40.1426 11.0688 39.7324 11.643C39.3223 12.2172 38.5885 12.8142 37.5312 13.434C37.0026 13.7348 35.8724 14.2771 34.1406 15.0609C34.0586 15.5531 34.0176 16.0225 34.0176 16.4691C34.0176 17.1163 34.1178 17.5675 34.3184 17.8227C34.528 18.0779 34.8288 18.2055 35.2207 18.2055C35.5944 18.2055 36.0046 18.1007 36.4512 17.891C37.0527 17.6085 37.9323 17.0343 39.0898 16.1684ZM34.3047 14.1859C35.7721 13.5297 36.875 12.8233 37.6133 12.0668C38.1146 11.5382 38.3652 11.0141 38.3652 10.4945C38.3652 10.1026 38.2604 9.79272 38.0508 9.56485C37.8503 9.32787 37.5859 9.20938 37.2578 9.20938C36.9206 9.20938 36.5924 9.33699 36.2734 9.5922C35.8451 9.92944 35.485 10.4399 35.1934 11.1234C34.7741 12.126 34.4779 13.1469 34.3047 14.1859ZM41.6465 11.4926L41.1133 10.9457C41.9427 9.95222 42.7676 9.2185 43.5879 8.74454C44.4082 8.27058 45.1191 8.0336 45.7207 8.0336C45.9486 8.0336 46.1263 8.09285 46.2539 8.21134C46.3906 8.32071 46.459 8.48477 46.459 8.70352C46.459 8.96785 46.4271 9.24128 46.3633 9.52384C46.3086 9.79727 46.1263 10.4535 45.8164 11.4926C47.2109 10.0981 48.1634 9.23673 48.6738 8.9086C49.5306 8.35261 50.3145 8.07462 51.0254 8.07462C51.4902 8.07462 51.8822 8.29337 52.2012 8.73087C52.5202 9.16837 52.6797 9.82917 52.6797 10.7133C52.6797 12.919 51.9915 15.0154 50.6152 17.0024C49.2389 18.9893 47.7168 19.9828 46.0488 19.9828C45.3926 19.9828 44.7363 19.8051 44.0801 19.4496L42.918 23.9613C42.8451 24.2348 42.8086 24.4581 42.8086 24.6313C42.8086 24.9685 42.9362 25.21 43.1914 25.3559C43.5833 25.5837 44.4082 25.7706 45.666 25.9164L45.4883 26.6C44.0208 26.4815 42.8678 26.4223 42.0293 26.4223C41.1634 26.4223 40.0423 26.4815 38.666 26.6L38.8438 25.9164C39.5365 25.8435 40.0378 25.6521 40.3477 25.3422C40.6667 25.0323 40.9219 24.4809 41.1133 23.6879L43.5879 13.3109C44.0527 11.3787 44.2852 10.3031 44.2852 10.0844C44.2852 9.8474 44.1712 9.72891 43.9434 9.72891C43.5423 9.72891 42.7767 10.3168 41.6465 11.4926ZM44.4082 17.9457C45.1283 18.6658 45.8665 19.0258 46.623 19.0258C47.7168 19.0258 48.6738 18.1736 49.4941 16.4691C50.3236 14.7647 50.7383 13.1013 50.7383 11.4789C50.7383 10.9594 50.6198 10.5675 50.3828 10.3031C50.1549 10.0297 49.8451 9.89298 49.4531 9.89298C49.0156 9.89298 48.5234 10.1072 47.9766 10.5356C47.1289 11.2009 46.4818 11.8617 46.0352 12.518C45.7161 12.9919 45.4154 13.8122 45.1328 14.9789L44.4082 17.9457ZM64.082 10.4945C64.8203 9.68334 65.5449 9.09089 66.2559 8.7172C66.9759 8.33438 67.6094 8.14298 68.1562 8.14298C68.7943 8.14298 69.3047 8.39819 69.6875 8.9086C70.0703 9.41902 70.2617 10.1892 70.2617 11.2191C70.2617 12.7139 69.9108 14.1768 69.209 15.6078C68.5072 17.0388 67.6367 18.128 66.5977 18.8754C65.5677 19.6228 64.5605 19.9965 63.5762 19.9965C62.7376 19.9965 62.0677 19.7504 61.5664 19.2582C61.0651 18.766 60.8145 18.128 60.8145 17.3441C60.8145 16.7152 60.9375 15.8402 61.1836 14.7191L62.7969 7.48673C63.1888 5.7185 63.681 4.3741 64.2734 3.45352C64.8659 2.52384 65.6452 1.78555 66.6113 1.23868C67.5775 0.68269 68.4935 0.404696 69.3594 0.404696C69.8789 0.404696 70.2572 0.495841 70.4941 0.678133C70.7402 0.85131 70.8633 1.08829 70.8633 1.38907C70.8633 1.66251 70.7539 1.89037 70.5352 2.07266C70.3164 2.25496 70.0065 2.3461 69.6055 2.3461C69.3047 2.3461 68.7852 2.27774 68.0469 2.14102C67.7188 2.07722 67.4271 2.04532 67.1719 2.04532C66.7161 2.04532 66.347 2.29141 66.0645 2.7836C65.8548 3.16641 65.5677 4.13712 65.2031 5.69571L64.082 10.4945ZM66.7754 9.66055C66.3288 9.66055 65.7956 9.92944 65.1758 10.4672C64.5651 11.005 63.9863 11.9574 63.4395 13.3246C62.8926 14.6827 62.6191 16.018 62.6191 17.3305C62.6191 17.8227 62.7741 18.2374 63.084 18.5746C63.403 18.9027 63.7721 19.0668 64.1914 19.0668C65.2031 19.0668 66.1055 18.2693 66.8984 16.6742C67.6914 15.0701 68.0879 13.475 68.0879 11.8891C68.0879 11.169 67.9375 10.5811 67.6367 10.1254C67.4271 9.8155 67.14 9.66055 66.7754 9.66055ZM78.8477 16.1684L79.2988 16.7699C77.0658 18.8936 75.1517 19.9555 73.5566 19.9555C72.9095 19.9555 72.4128 19.7367 72.0664 19.2992C71.7292 18.8617 71.5605 18.1599 71.5605 17.1938C71.5605 15.2432 72.153 13.3018 73.3379 11.3695C74.6686 9.17292 76.2591 8.07462 78.1094 8.07462C78.7565 8.07462 79.2487 8.23868 79.5859 8.5668C79.9323 8.88582 80.1055 9.32787 80.1055 9.89298C80.1055 10.4854 79.9004 11.0688 79.4902 11.643C79.0801 12.2172 78.3464 12.8142 77.2891 13.434C76.7604 13.7348 75.6302 14.2771 73.8984 15.0609C73.8164 15.5531 73.7754 16.0225 73.7754 16.4691C73.7754 17.1163 73.8757 17.5675 74.0762 17.8227C74.2858 18.0779 74.5866 18.2055 74.9785 18.2055C75.3522 18.2055 75.7624 18.1007 76.209 17.891C76.8105 17.6085 77.6901 17.0343 78.8477 16.1684ZM74.0625 14.1859C75.5299 13.5297 76.6328 12.8233 77.3711 12.0668C77.8724 11.5382 78.123 11.0141 78.123 10.4945C78.123 10.1026 78.0182 9.79272 77.8086 9.56485C77.6081 9.32787 77.3438 9.20938 77.0156 9.20938C76.6784 9.20938 76.3503 9.33699 76.0312 9.5922C75.6029 9.92944 75.2428 10.4399 74.9512 11.1234C74.5319 12.126 74.2357 13.1469 74.0625 14.1859ZM85.0273 5.99649L87.2012 5.16251L86.2168 8.99063H89.0469L88.8281 9.96134H85.998L84.7949 14.5414C84.4212 15.9177 84.2344 16.8747 84.2344 17.4125C84.2344 17.6586 84.2845 17.8363 84.3848 17.9457C84.4941 18.0551 84.64 18.1098 84.8223 18.1098C85.1048 18.1098 85.5378 17.9412 86.1211 17.6039C86.8867 17.1573 87.6159 16.6514 88.3086 16.0863L88.8281 16.7152C86.832 18.2191 85.4967 19.1397 84.8223 19.477C84.1478 19.8142 83.6055 19.9828 83.1953 19.9828C82.8581 19.9828 82.5892 19.8598 82.3887 19.6137C82.1973 19.3676 82.1016 18.9665 82.1016 18.4106C82.1016 17.7543 82.2747 16.7517 82.6211 15.4027L84.0293 9.96134H81.8145L82.0605 8.99063H84.2617L85.0273 5.99649ZM93.9961 5.99649L96.1699 5.16251L95.1855 8.99063H98.0156L97.7969 9.96134H94.9668L93.7637 14.5414C93.39 15.9177 93.2031 16.8747 93.2031 17.4125C93.2031 17.6586 93.2533 17.8363 93.3535 17.9457C93.4629 18.0551 93.6087 18.1098 93.791 18.1098C94.0736 18.1098 94.5065 17.9412 95.0898 17.6039C95.8555 17.1573 96.5846 16.6514 97.2773 16.0863L97.7969 16.7152C95.8008 18.2191 94.4655 19.1397 93.791 19.477C93.1165 19.8142 92.5742 19.9828 92.1641 19.9828C91.8268 19.9828 91.5579 19.8598 91.3574 19.6137C91.166 19.3676 91.0703 18.9665 91.0703 18.4106C91.0703 17.7543 91.2435 16.7517 91.5898 15.4027L92.998 9.96134H90.7832L91.0293 8.99063H93.2305L93.9961 5.99649ZM106.301 16.1684L106.752 16.7699C104.519 18.8936 102.605 19.9555 101.01 19.9555C100.363 19.9555 99.8659 19.7367 99.5195 19.2992C99.1823 18.8617 99.0137 18.1599 99.0137 17.1938C99.0137 15.2432 99.6061 13.3018 100.791 11.3695C102.122 9.17292 103.712 8.07462 105.562 8.07462C106.21 8.07462 106.702 8.23868 107.039 8.5668C107.385 8.88582 107.559 9.32787 107.559 9.89298C107.559 10.4854 107.354 11.0688 106.943 11.643C106.533 12.2172 105.799 12.8142 104.742 13.434C104.214 13.7348 103.083 14.2771 101.352 15.0609C101.27 15.5531 101.229 16.0225 101.229 16.4691C101.229 17.1163 101.329 17.5675 101.529 17.8227C101.739 18.0779 102.04 18.2055 102.432 18.2055C102.805 18.2055 103.215 18.1007 103.662 17.891C104.264 17.6085 105.143 17.0343 106.301 16.1684ZM101.516 14.1859C102.983 13.5297 104.086 12.8233 104.824 12.0668C105.326 11.5382 105.576 11.0141 105.576 10.4945C105.576 10.1026 105.471 9.79272 105.262 9.56485C105.061 9.32787 104.797 9.20938 104.469 9.20938C104.132 9.20938 103.803 9.33699 103.484 9.5922C103.056 9.92944 102.696 10.4399 102.404 11.1234C101.985 12.126 101.689 13.1469 101.516 14.1859ZM111.182 19.6H109.145L110.102 15.9223C110.566 14.1176 110.972 12.404 111.318 10.7816C111.4 10.3806 111.441 10.13 111.441 10.0297C111.441 9.81095 111.341 9.70157 111.141 9.70157C111.004 9.70157 110.794 9.79727 110.512 9.98868C110.229 10.171 109.719 10.6313 108.98 11.3695L108.557 10.891C109.432 9.95222 110.302 9.2504 111.168 8.78555C112.043 8.3116 112.713 8.07462 113.178 8.07462C113.342 8.07462 113.469 8.11563 113.561 8.19766C113.661 8.27058 113.711 8.36628 113.711 8.48477C113.711 8.60326 113.652 8.91772 113.533 9.42813L112.945 11.8754C113.866 10.4262 114.905 9.1866 116.062 8.15665C116.618 7.66446 117.083 7.41837 117.457 7.41837C117.73 7.41837 117.958 7.50951 118.141 7.6918C118.323 7.86498 118.414 8.07006 118.414 8.30704C118.414 8.55313 118.323 8.76277 118.141 8.93595C117.967 9.10912 117.525 9.3142 116.814 9.55118C116.14 9.77904 115.589 10.0525 115.16 10.3715C114.741 10.6905 114.276 11.1781 113.766 11.8344C113.264 12.4906 112.913 13.0649 112.713 13.557C112.512 14.0401 112.207 15.1703 111.797 16.9477L111.182 19.6ZM115.434 23.852L115.174 22.9633C116.003 22.3253 116.641 21.6964 117.088 21.0766C117.38 20.6664 117.525 20.3292 117.525 20.0649C117.525 19.8005 117.416 19.4633 117.197 19.0531C116.979 18.6339 116.869 18.2875 116.869 18.0141C116.869 17.6677 116.992 17.3669 117.238 17.1117C117.484 16.8565 117.776 16.7289 118.113 16.7289C118.487 16.7289 118.806 16.8839 119.07 17.1938C119.344 17.4945 119.48 17.8591 119.48 18.2875C119.48 18.7797 119.344 19.3357 119.07 19.9555C118.797 20.5844 118.382 21.1951 117.826 21.7875C117.07 22.6078 116.272 23.296 115.434 23.852ZM135.066 16.3051L135.531 16.7973C134.82 17.5994 133.977 18.3331 133.002 18.9984C132.036 19.6547 131.238 19.9828 130.609 19.9828C130.327 19.9828 130.094 19.8734 129.912 19.6547C129.73 19.4451 129.639 19.1534 129.639 18.7797C129.639 18.0505 129.921 16.5375 130.486 14.2406L131.963 8.23868C132.501 6.06941 132.952 4.61563 133.316 3.87735C133.882 2.75626 134.679 1.88582 135.709 1.26602C136.748 0.646232 137.842 0.336336 138.99 0.336336C139.382 0.336336 139.688 0.432039 139.906 0.623446C140.134 0.805737 140.248 1.02904 140.248 1.29337C140.248 1.58503 140.139 1.82657 139.92 2.01798C139.701 2.20027 139.382 2.29141 138.963 2.29141C138.689 2.29141 138.302 2.24584 137.801 2.1547C137.363 2.08178 136.958 2.04532 136.584 2.04532C136.21 2.04532 135.928 2.12279 135.736 2.27774C135.472 2.49649 135.23 2.95678 135.012 3.6586C134.802 4.36042 134.456 5.74584 133.973 7.81485L132.619 13.5434C131.945 16.4145 131.607 17.9138 131.607 18.0414C131.607 18.3331 131.712 18.4789 131.922 18.4789C132.122 18.4789 132.414 18.3604 132.797 18.1234C133.553 17.6495 134.31 17.0434 135.066 16.3051ZM141.93 2.22305C142.212 2.22305 142.445 2.31876 142.627 2.51016C142.809 2.69246 142.9 2.92944 142.9 3.2211C142.9 3.62214 142.759 3.97761 142.477 4.28751C142.203 4.58829 141.893 4.73868 141.547 4.73868C141.273 4.73868 141.046 4.64298 140.863 4.45157C140.681 4.26016 140.59 4.00951 140.59 3.69962C140.59 3.28946 140.722 2.94311 140.986 2.66055C141.251 2.36889 141.565 2.22305 141.93 2.22305ZM136.543 11.2738L135.941 10.809C136.853 9.80639 137.682 9.09545 138.43 8.67618C139.186 8.24779 139.829 8.0336 140.357 8.0336C140.649 8.0336 140.872 8.0974 141.027 8.22501C141.182 8.35261 141.26 8.52579 141.26 8.74454C141.26 9.00886 140.964 10.13 140.371 12.1078C139.405 15.3435 138.922 17.294 138.922 17.9594C138.922 18.087 138.954 18.1964 139.018 18.2875C139.081 18.3695 139.15 18.4106 139.223 18.4106C139.514 18.4106 140.262 17.8455 141.465 16.7152L141.998 17.2348C140.749 18.4106 139.838 19.1625 139.264 19.4906C138.689 19.8188 138.22 19.9828 137.855 19.9828C137.536 19.9828 137.281 19.8826 137.09 19.682C136.908 19.4815 136.816 19.2035 136.816 18.8481C136.816 17.7087 137.5 14.9242 138.867 10.4945C138.931 10.2849 138.963 10.0981 138.963 9.93399C138.963 9.7517 138.881 9.66055 138.717 9.66055C138.535 9.66055 138.325 9.73347 138.088 9.8793C137.86 10.0251 137.345 10.49 136.543 11.2738ZM149.135 9.40079C148.433 10.5219 147.945 11.5108 147.672 12.3676C147.408 13.2244 147.275 14.0766 147.275 14.9242C147.275 15.7081 147.449 16.934 147.795 18.602C149.809 17.0707 151.236 15.6397 152.074 14.309C152.913 12.9691 153.332 11.8162 153.332 10.85C153.332 10.5675 153.227 10.212 153.018 9.7836C152.79 9.32787 152.676 8.99063 152.676 8.77188C152.676 8.5349 152.758 8.32983 152.922 8.15665C153.086 7.97436 153.282 7.88321 153.51 7.88321C153.811 7.88321 154.052 8.01537 154.234 8.2797C154.417 8.5349 154.508 8.9724 154.508 9.5922C154.508 11.5336 153.82 13.4249 152.443 15.266C150.757 17.5264 148.62 19.2673 146.031 20.4887C145.967 20.0603 145.84 19.3767 145.648 18.4379C145.275 16.5512 145.088 15.2387 145.088 14.5004C145.088 13.5251 145.316 12.5818 145.771 11.6703C146.227 10.7497 146.902 9.95222 147.795 9.27774C146.191 9.30509 145.042 9.48282 144.35 9.81095C143.857 10.0479 143.611 10.3259 143.611 10.6449C143.611 10.7725 143.675 10.9867 143.803 11.2875C143.885 11.4971 143.926 11.6749 143.926 11.8207C143.926 11.9665 143.862 12.0987 143.734 12.2172C143.616 12.3266 143.465 12.3813 143.283 12.3813C143.046 12.3813 142.846 12.281 142.682 12.0805C142.518 11.88 142.436 11.6111 142.436 11.2738C142.436 10.7361 142.613 10.253 142.969 9.82462C143.324 9.38712 143.939 9.04532 144.814 8.79923C145.689 8.55313 146.847 8.4392 148.287 8.45743C148.87 8.20222 149.24 8.07462 149.395 8.07462C149.54 8.07462 149.673 8.13386 149.791 8.25235C149.91 8.37084 149.969 8.49845 149.969 8.63516C149.969 8.91772 149.691 9.17292 149.135 9.40079ZM162.328 16.1684L162.779 16.7699C160.546 18.8936 158.632 19.9555 157.037 19.9555C156.39 19.9555 155.893 19.7367 155.547 19.2992C155.21 18.8617 155.041 18.1599 155.041 17.1938C155.041 15.2432 155.633 13.3018 156.818 11.3695C158.149 9.17292 159.74 8.07462 161.59 8.07462C162.237 8.07462 162.729 8.23868 163.066 8.5668C163.413 8.88582 163.586 9.32787 163.586 9.89298C163.586 10.4854 163.381 11.0688 162.971 11.643C162.561 12.2172 161.827 12.8142 160.77 13.434C160.241 13.7348 159.111 14.2771 157.379 15.0609C157.297 15.5531 157.256 16.0225 157.256 16.4691C157.256 17.1163 157.356 17.5675 157.557 17.8227C157.766 18.0779 158.067 18.2055 158.459 18.2055C158.833 18.2055 159.243 18.1007 159.689 17.891C160.291 17.6085 161.171 17.0343 162.328 16.1684ZM157.543 14.1859C159.01 13.5297 160.113 12.8233 160.852 12.0668C161.353 11.5382 161.604 11.0141 161.604 10.4945C161.604 10.1026 161.499 9.79272 161.289 9.56485C161.089 9.32787 160.824 9.20938 160.496 9.20938C160.159 9.20938 159.831 9.33699 159.512 9.5922C159.083 9.92944 158.723 10.4399 158.432 11.1234C158.012 12.126 157.716 13.1469 157.543 14.1859ZM174.988 10.4945C175.727 9.68334 176.451 9.09089 177.162 8.7172C177.882 8.33438 178.516 8.14298 179.062 8.14298C179.701 8.14298 180.211 8.39819 180.594 8.9086C180.977 9.41902 181.168 10.1892 181.168 11.2191C181.168 12.7139 180.817 14.1768 180.115 15.6078C179.413 17.0388 178.543 18.128 177.504 18.8754C176.474 19.6228 175.467 19.9965 174.482 19.9965C173.644 19.9965 172.974 19.7504 172.473 19.2582C171.971 18.766 171.721 18.128 171.721 17.3441C171.721 16.7152 171.844 15.8402 172.09 14.7191L173.703 7.48673C174.095 5.7185 174.587 4.3741 175.18 3.45352C175.772 2.52384 176.551 1.78555 177.518 1.23868C178.484 0.68269 179.4 0.404696 180.266 0.404696C180.785 0.404696 181.163 0.495841 181.4 0.678133C181.646 0.85131 181.77 1.08829 181.77 1.38907C181.77 1.66251 181.66 1.89037 181.441 2.07266C181.223 2.25496 180.913 2.3461 180.512 2.3461C180.211 2.3461 179.691 2.27774 178.953 2.14102C178.625 2.07722 178.333 2.04532 178.078 2.04532C177.622 2.04532 177.253 2.29141 176.971 2.7836C176.761 3.16641 176.474 4.13712 176.109 5.69571L174.988 10.4945ZM177.682 9.66055C177.235 9.66055 176.702 9.92944 176.082 10.4672C175.471 11.005 174.893 11.9574 174.346 13.3246C173.799 14.6827 173.525 16.018 173.525 17.3305C173.525 17.8227 173.68 18.2374 173.99 18.5746C174.309 18.9027 174.678 19.0668 175.098 19.0668C176.109 19.0668 177.012 18.2693 177.805 16.6742C178.598 15.0701 178.994 13.475 178.994 11.8891C178.994 11.169 178.844 10.5811 178.543 10.1254C178.333 9.8155 178.046 9.66055 177.682 9.66055ZM189.754 16.1684L190.205 16.7699C187.972 18.8936 186.058 19.9555 184.463 19.9555C183.816 19.9555 183.319 19.7367 182.973 19.2992C182.635 18.8617 182.467 18.1599 182.467 17.1938C182.467 15.2432 183.059 13.3018 184.244 11.3695C185.575 9.17292 187.165 8.07462 189.016 8.07462C189.663 8.07462 190.155 8.23868 190.492 8.5668C190.839 8.88582 191.012 9.32787 191.012 9.89298C191.012 10.4854 190.807 11.0688 190.396 11.643C189.986 12.2172 189.253 12.8142 188.195 13.434C187.667 13.7348 186.536 14.2771 184.805 15.0609C184.723 15.5531 184.682 16.0225 184.682 16.4691C184.682 17.1163 184.782 17.5675 184.982 17.8227C185.192 18.0779 185.493 18.2055 185.885 18.2055C186.258 18.2055 186.669 18.1007 187.115 17.891C187.717 17.6085 188.596 17.0343 189.754 16.1684ZM184.969 14.1859C186.436 13.5297 187.539 12.8233 188.277 12.0668C188.779 11.5382 189.029 11.0141 189.029 10.4945C189.029 10.1026 188.924 9.79272 188.715 9.56485C188.514 9.32787 188.25 9.20938 187.922 9.20938C187.585 9.20938 187.257 9.33699 186.938 9.5922C186.509 9.92944 186.149 10.4399 185.857 11.1234C185.438 12.126 185.142 13.1469 184.969 14.1859ZM195.934 5.99649L198.107 5.16251L197.123 8.99063H199.953L199.734 9.96134H196.904L195.701 14.5414C195.327 15.9177 195.141 16.8747 195.141 17.4125C195.141 17.6586 195.191 17.8363 195.291 17.9457C195.4 18.0551 195.546 18.1098 195.729 18.1098C196.011 18.1098 196.444 17.9412 197.027 17.6039C197.793 17.1573 198.522 16.6514 199.215 16.0863L199.734 16.7152C197.738 18.2191 196.403 19.1397 195.729 19.477C195.054 19.8142 194.512 19.9828 194.102 19.9828C193.764 19.9828 193.495 19.8598 193.295 19.6137C193.104 19.3676 193.008 18.9665 193.008 18.4106C193.008 17.7543 193.181 16.7517 193.527 15.4027L194.936 9.96134H192.721L192.967 8.99063H195.168L195.934 5.99649ZM204.902 5.99649L207.076 5.16251L206.092 8.99063H208.922L208.703 9.96134H205.873L204.67 14.5414C204.296 15.9177 204.109 16.8747 204.109 17.4125C204.109 17.6586 204.16 17.8363 204.26 17.9457C204.369 18.0551 204.515 18.1098 204.697 18.1098C204.98 18.1098 205.413 17.9412 205.996 17.6039C206.762 17.1573 207.491 16.6514 208.184 16.0863L208.703 16.7152C206.707 18.2191 205.372 19.1397 204.697 19.477C204.023 19.8142 203.48 19.9828 203.07 19.9828C202.733 19.9828 202.464 19.8598 202.264 19.6137C202.072 19.3676 201.977 18.9665 201.977 18.4106C201.977 17.7543 202.15 16.7517 202.496 15.4027L203.904 9.96134H201.689L201.936 8.99063H204.137L204.902 5.99649ZM217.207 16.1684L217.658 16.7699C215.425 18.8936 213.511 19.9555 211.916 19.9555C211.269 19.9555 210.772 19.7367 210.426 19.2992C210.089 18.8617 209.92 18.1599 209.92 17.1938C209.92 15.2432 210.512 13.3018 211.697 11.3695C213.028 9.17292 214.618 8.07462 216.469 8.07462C217.116 8.07462 217.608 8.23868 217.945 8.5668C218.292 8.88582 218.465 9.32787 218.465 9.89298C218.465 10.4854 218.26 11.0688 217.85 11.643C217.439 12.2172 216.706 12.8142 215.648 13.434C215.12 13.7348 213.99 14.2771 212.258 15.0609C212.176 15.5531 212.135 16.0225 212.135 16.4691C212.135 17.1163 212.235 17.5675 212.436 17.8227C212.645 18.0779 212.946 18.2055 213.338 18.2055C213.712 18.2055 214.122 18.1007 214.568 17.891C215.17 17.6085 216.049 17.0343 217.207 16.1684ZM212.422 14.1859C213.889 13.5297 214.992 12.8233 215.73 12.0668C216.232 11.5382 216.482 11.0141 216.482 10.4945C216.482 10.1026 216.378 9.79272 216.168 9.56485C215.967 9.32787 215.703 9.20938 215.375 9.20938C215.038 9.20938 214.71 9.33699 214.391 9.5922C213.962 9.92944 213.602 10.4399 213.311 11.1234C212.891 12.126 212.595 13.1469 212.422 14.1859ZM222.088 19.6H220.051L221.008 15.9223C221.473 14.1176 221.878 12.404 222.225 10.7816C222.307 10.3806 222.348 10.13 222.348 10.0297C222.348 9.81095 222.247 9.70157 222.047 9.70157C221.91 9.70157 221.701 9.79727 221.418 9.98868C221.135 10.171 220.625 10.6313 219.887 11.3695L219.463 10.891C220.338 9.95222 221.208 9.2504 222.074 8.78555C222.949 8.3116 223.619 8.07462 224.084 8.07462C224.248 8.07462 224.376 8.11563 224.467 8.19766C224.567 8.27058 224.617 8.36628 224.617 8.48477C224.617 8.60326 224.558 8.91772 224.439 9.42813L223.852 11.8754C224.772 10.4262 225.811 9.1866 226.969 8.15665C227.525 7.66446 227.99 7.41837 228.363 7.41837C228.637 7.41837 228.865 7.50951 229.047 7.6918C229.229 7.86498 229.32 8.07006 229.32 8.30704C229.32 8.55313 229.229 8.76277 229.047 8.93595C228.874 9.10912 228.432 9.3142 227.721 9.55118C227.046 9.77904 226.495 10.0525 226.066 10.3715C225.647 10.6905 225.182 11.1781 224.672 11.8344C224.171 12.4906 223.82 13.0649 223.619 13.557C223.419 14.0401 223.113 15.1703 222.703 16.9477L222.088 19.6Z" fill="url(#paint0_linear)"/>
<defs>
<linearGradient id="paint0_linear" x1="12" y1="13" x2="227" y2="13" gradientUnits="userSpaceOnUse">
<stop stop-color="#DBC266"/>
<stop offset="0.376749" stop-color="#AE8930"/>
<stop offset="0.906096" stop-color="#F5E38B"/>
</linearGradient>
</defs>
</svg>
