<svg width="60" height="60" viewBox="0 0 60 60" fill="none" xmlns="http://www.w3.org/2000/svg">
<path d="M44.1057 38.879C42.8287 38.151 41.5076 37.922 40.3845 38.232C39.5405 38.466 38.8525 39.0001 38.3894 39.7781C37.3683 40.9991 36.1034 42.4242 35.7963 42.6463C33.4293 44.2503 31.5472 44.0603 29.502 42.0173L18.0146 30.5299C15.9706 28.4848 15.7815 26.6028 17.3826 24.2387C17.6066 23.9296 19.0337 22.6636 20.2537 21.6436C21.0317 21.1796 21.5647 20.4915 21.7988 19.6474C22.1107 18.5254 21.8808 17.2034 21.1467 15.9162C20.9737 15.6202 16.8565 8.64599 13.0614 6.6379C11.1353 5.61785 8.80624 5.9699 7.26516 7.50992L4.72818 10.0468C-2.6731 17.4491 -1.30406 26.6434 8.68939 36.6369L23.396 51.3425C29.1573 57.1048 34.6535 59.9999 39.6937 59.9999C43.3948 59.9988 46.851 58.4378 49.9851 55.3036L52.5222 52.7665C54.0633 51.2255 54.4134 48.8964 53.3943 46.9703C51.385 43.1752 44.4117 39.058 44.1057 38.879ZM51.107 51.3525L48.5709 53.8896C42.0017 60.4579 34.0083 59.1259 24.8099 49.9284L10.1033 35.2229C0.90595 26.0244 -0.427112 18.0302 6.14222 11.4608L8.67932 8.92373C9.24629 8.35769 9.99234 8.06167 10.7494 8.06167C11.2164 8.06167 11.6885 8.17464 12.1255 8.40563C15.4196 10.1477 19.3818 16.8589 19.4158 16.916C19.8638 17.704 20.0348 18.5251 19.8718 19.1131C19.7718 19.4731 19.5488 19.7462 19.1888 19.9481L19.0388 20.0521C18.1857 20.7631 16.1556 22.4852 15.7296 23.1133C15.117 24.0174 14.7056 24.9068 14.493 25.7797C13.7833 24.3626 13.213 22.7162 13.0242 20.8977C12.9673 20.3487 12.4762 19.9417 11.9261 20.0057C11.3771 20.0626 10.978 20.5547 11.0351 21.1038C11.7571 28.057 17.1644 32.5843 17.3943 32.7733C17.4323 32.8046 17.4724 32.8318 17.5133 32.8565L28.088 43.4312C28.1158 43.459 28.1439 43.485 28.1717 43.5125C28.2145 43.5843 28.2659 43.6524 28.3282 43.7138C28.5173 43.8998 33.0325 48.281 39.9277 48.9971C39.9627 49.001 39.9977 49.0021 40.0317 49.0021C40.5377 49.0021 40.9717 48.62 41.0257 48.1051C41.0826 47.5561 40.6827 47.065 40.1336 47.007C38.019 46.7879 36.1379 46.1703 34.5764 45.4512C35.3449 45.2214 36.126 44.8384 36.9182 44.3014C37.5462 43.8763 39.2683 41.8473 39.9794 40.9942L40.0833 40.8432C40.2854 40.4832 40.5594 40.2601 40.9183 40.1602C41.5064 39.9982 42.3273 40.1672 43.1044 40.6102C44.9835 41.7112 50.1777 45.1693 51.6258 47.9065C52.2321 49.0514 52.0231 50.4364 51.107 51.3525Z" fill="url(#paint0_linear)"/>
<path d="M42.9665 0C33.5922 0 25.9658 6.68629 25.9658 14.9056C25.9658 17.7327 26.8688 20.4719 28.5818 22.8519C28.2238 26.5611 27.4138 29.1921 26.2887 30.2832C25.9647 30.5972 25.8908 31.0892 26.1087 31.4843C26.2877 31.8083 26.6267 32.0014 26.9847 32.0014C27.0628 32.0014 27.1418 31.9923 27.2208 31.9733C27.4418 31.9193 32.4809 30.6773 36.2461 28.5991C38.3731 29.4032 40.6313 29.8111 42.9664 29.8111C52.3407 29.8111 59.9671 23.1249 59.9671 14.9056C59.9671 6.68629 52.3408 0 42.9665 0ZM42.9665 27.8111C41.4026 27.8111 39.8788 27.6071 38.4151 27.2041C40.5897 25.7462 40.5894 25.6256 40.5786 25.0927C40.5706 24.7488 40.3856 24.4287 40.0906 24.2517C39.6556 23.9907 39.1025 24.0977 38.7946 24.4837C38.4199 24.7818 36.9237 25.7977 35.6421 26.6425C33.6369 27.8121 31.07 28.7391 29.2091 29.3251C29.8991 27.672 30.3671 25.44 30.6081 22.6488C30.6301 22.4018 30.5581 22.1549 30.408 21.9577C28.81 19.8566 27.966 17.4176 27.966 14.9055C27.966 7.78919 34.6953 1.99989 42.9666 1.99989C51.2379 1.99989 57.9672 7.78907 57.9672 14.9055C57.9672 22.0218 51.2378 27.8111 42.9665 27.8111Z" fill="url(#paint1_linear)"/>
<path d="M35.9662 13.0005H49.9669C50.5188 13.0005 50.9669 12.5525 50.9669 12.0005C50.9669 11.4485 50.5188 11.0005 49.9669 11.0005H35.9662C35.4143 11.0005 34.9662 11.4485 34.9662 12.0005C34.9661 12.5525 35.4142 13.0005 35.9662 13.0005Z" fill="url(#paint2_linear)"/>
<path d="M52.9669 17.0007H32.9661C32.4142 17.0007 31.9661 17.4488 31.9661 18.0007C31.9661 18.5527 32.4142 19.0007 32.9661 19.0007H52.967C53.519 19.0007 53.967 18.5527 53.967 18.0007C53.967 17.4488 53.519 17.0007 52.9669 17.0007Z" fill="url(#paint3_linear)"/>
<defs>
<linearGradient id="paint0_linear" x1="11.852" y1="33.0296" x2="58.082" y2="33.0296" gradientUnits="userSpaceOnUse">
<stop stop-color="#DBC266"/>
<stop offset="0.463542" stop-color="#AE8930"/>
<stop offset="0.827015" stop-color="#CFA43D"/>
<stop offset="0.906096" stop-color="#F5E38B"/>
</linearGradient>
<linearGradient id="paint1_linear" x1="33.4161" y1="16.0007" x2="62.5574" y2="16.0007" gradientUnits="userSpaceOnUse">
<stop stop-color="#DBC266"/>
<stop offset="0.463542" stop-color="#AE8930"/>
<stop offset="0.827015" stop-color="#CFA43D"/>
<stop offset="0.906096" stop-color="#F5E38B"/>
</linearGradient>
<linearGradient id="paint2_linear" x1="38.4723" y1="12.0005" x2="52.1858" y2="12.0005" gradientUnits="userSpaceOnUse">
<stop stop-color="#DBC266"/>
<stop offset="0.463542" stop-color="#AE8930"/>
<stop offset="0.827015" stop-color="#CFA43D"/>
<stop offset="0.906096" stop-color="#F5E38B"/>
</linearGradient>
<linearGradient id="paint3_linear" x1="36.7869" y1="18.0007" x2="55.6431" y2="18.0007" gradientUnits="userSpaceOnUse">
<stop stop-color="#DBC266"/>
<stop offset="0.463542" stop-color="#AE8930"/>
<stop offset="0.827015" stop-color="#CFA43D"/>
<stop offset="0.906096" stop-color="#F5E38B"/>
</linearGradient>
</defs>
</svg>
