<svg width="160" height="44" viewBox="0 0 160 44" fill="none" xmlns="http://www.w3.org/2000/svg">
<path d="M0 0H164V22V44H0V0Z" fill="#FF1D1D"/>
<path d="M0 0H164V22V44H0V0Z" fill="url(#paint0_linear)"/>
<path d="M48.966 17.9C50.1447 17.9 51.072 18.1817 51.748 18.745C52.424 19.3083 52.762 20.084 52.762 21.072C52.762 22.06 52.424 22.8357 51.748 23.399C51.072 23.9623 50.1447 24.244 48.966 24.244H46.717V27H45.417V17.9H48.966ZM48.927 23.113C49.7503 23.113 50.3787 22.9397 50.812 22.593C51.2453 22.2377 51.462 21.7307 51.462 21.072C51.462 20.4133 51.2453 19.9107 50.812 19.564C50.3787 19.2087 49.7503 19.031 48.927 19.031H46.717V23.113H48.927ZM60.0283 24.725H55.1923L54.1913 27H52.8523L56.9733 17.9H58.2603L62.3943 27H61.0293L60.0283 24.725ZM59.5733 23.685L57.6103 19.226L55.6473 23.685H59.5733ZM67.9069 27.104C66.9969 27.104 66.1736 26.9047 65.4369 26.506C64.7089 26.0987 64.1369 25.544 63.7209 24.842C63.3049 24.1313 63.0969 23.334 63.0969 22.45C63.0969 21.566 63.3049 20.773 63.7209 20.071C64.1369 19.3603 64.7132 18.8057 65.4499 18.407C66.1866 17.9997 67.0099 17.796 67.9199 17.796C68.6306 17.796 69.2806 17.9173 69.8699 18.16C70.4592 18.394 70.9619 18.745 71.3779 19.213L70.5329 20.032C69.8482 19.3127 68.9946 18.953 67.9719 18.953C67.2959 18.953 66.6849 19.1047 66.1389 19.408C65.5929 19.7113 65.1639 20.1317 64.8519 20.669C64.5486 21.1977 64.3969 21.7913 64.3969 22.45C64.3969 23.1087 64.5486 23.7067 64.8519 24.244C65.1639 24.7727 65.5929 25.1887 66.1389 25.492C66.6849 25.7953 67.2959 25.947 67.9719 25.947C68.9859 25.947 69.8396 25.583 70.5329 24.855L71.3779 25.674C70.9619 26.142 70.4549 26.4973 69.8569 26.74C69.2676 26.9827 68.6176 27.104 67.9069 27.104ZM81.008 17.9V27H79.734V19.031H74.456V27H73.169V17.9H81.008ZM87.3947 17.9C88.5734 17.9 89.5007 18.1817 90.1767 18.745C90.8527 19.3083 91.1907 20.084 91.1907 21.072C91.1907 22.06 90.8527 22.8357 90.1767 23.399C89.5007 23.9623 88.5734 24.244 87.3947 24.244H85.1457V27H83.8457V17.9H87.3947ZM87.3557 23.113C88.179 23.113 88.8074 22.9397 89.2407 22.593C89.674 22.2377 89.8907 21.7307 89.8907 21.072C89.8907 20.4133 89.674 19.9107 89.2407 19.564C88.8074 19.2087 88.179 19.031 87.3557 19.031H85.1457V23.113H87.3557ZM97.221 27.104C96.3023 27.104 95.4747 26.9047 94.738 26.506C94.0013 26.0987 93.4207 25.5397 92.996 24.829C92.58 24.1183 92.372 23.3253 92.372 22.45C92.372 21.5747 92.58 20.7817 92.996 20.071C93.4207 19.3603 94.0013 18.8057 94.738 18.407C95.4747 17.9997 96.3023 17.796 97.221 17.796C98.131 17.796 98.9543 17.9997 99.691 18.407C100.428 18.8057 101.004 19.3603 101.42 20.071C101.836 20.773 102.044 21.566 102.044 22.45C102.044 23.334 101.836 24.1313 101.42 24.842C101.004 25.544 100.428 26.0987 99.691 26.506C98.9543 26.9047 98.131 27.104 97.221 27.104ZM97.221 25.947C97.8883 25.947 98.4863 25.7953 99.015 25.492C99.5523 25.1887 99.9727 24.7727 100.276 24.244C100.588 23.7067 100.744 23.1087 100.744 22.45C100.744 21.7913 100.588 21.1977 100.276 20.669C99.9727 20.1317 99.5523 19.7113 99.015 19.408C98.4863 19.1047 97.8883 18.953 97.221 18.953C96.5537 18.953 95.947 19.1047 95.401 19.408C94.8637 19.7113 94.439 20.1317 94.127 20.669C93.8237 21.1977 93.672 21.7913 93.672 22.45C93.672 23.1087 93.8237 23.7067 94.127 24.244C94.439 24.7727 94.8637 25.1887 95.401 25.492C95.947 25.7953 96.5537 25.947 97.221 25.947ZM112.563 25.869V28.989H111.354V27H103.866L103.853 28.989H102.644L102.657 25.869H103.099C103.671 25.8343 104.074 25.3837 104.308 24.517C104.542 23.6417 104.685 22.411 104.737 20.825L104.828 17.9H111.224V25.869H112.563ZM105.881 20.942C105.837 22.2247 105.733 23.2863 105.569 24.127C105.413 24.9677 105.157 25.5483 104.802 25.869H109.937V19.031H105.946L105.881 20.942ZM120.293 24.725H115.457L114.456 27H113.117L117.238 17.9H118.525L122.659 27H121.294L120.293 24.725ZM119.838 23.685L117.875 19.226L115.912 23.685H119.838ZM131.442 22.996H129.713V27H128.439V22.996H126.697L124.149 27H122.628L125.631 22.268L122.849 17.9H124.24L126.671 21.852H128.439V17.9H129.713V21.852H131.455L133.899 17.9H135.29L132.508 22.294L135.511 27H133.99L131.442 22.996ZM142.662 24.725H137.826L136.825 27H135.486L139.607 17.9H140.894L145.028 27H143.663L142.662 24.725ZM142.207 23.685L140.244 19.226L138.281 23.685H142.207Z" fill="white"/>
<path d="M20 22.4904V28.4904C20 29.0424 20.449 29.4904 21 29.4904H26V22.4904H20Z" fill="white"/>
<path d="M34 18.4904H30.836C31.063 18.3354 31.258 18.1814 31.394 18.0434C32.201 17.2324 32.201 15.9124 31.394 15.1014C30.61 14.3114 29.244 14.3134 28.461 15.1014C28.027 15.5364 26.877 17.3074 27.036 18.4904H26.964C27.122 17.3074 25.972 15.5364 25.539 15.1014C24.755 14.3134 23.389 14.3134 22.606 15.1014C21.8 15.9124 21.8 17.2324 22.605 18.0434C22.742 18.1814 22.937 18.3354 23.164 18.4904H20C19.449 18.4904 19 18.9394 19 19.4904V20.9904C19 21.2664 19.224 21.4904 19.5 21.4904H26V19.4904H28V21.4904H34.5C34.776 21.4904 35 21.2664 35 20.9904V19.4904C35 18.9394 34.552 18.4904 34 18.4904ZM25.941 18.4574C25.941 18.4574 25.899 18.4904 25.756 18.4904C25.065 18.4904 23.746 17.7724 23.315 17.3384C22.896 16.9164 22.896 16.2284 23.315 15.8064C23.518 15.6024 23.787 15.4904 24.073 15.4904C24.358 15.4904 24.627 15.6024 24.83 15.8064C25.504 16.4844 26.174 18.2164 25.941 18.4574ZM28.243 18.4904C28.101 18.4904 28.059 18.4584 28.059 18.4574C27.826 18.2164 28.496 16.4844 29.17 15.8064C29.573 15.3994 30.278 15.3974 30.685 15.8064C31.105 16.2284 31.105 16.9164 30.685 17.3384C30.254 17.7724 28.935 18.4904 28.243 18.4904Z" fill="white"/>
<path d="M28 22.4904V29.4904H33C33.552 29.4904 34 29.0424 34 28.4904V22.4904H28Z" fill="white"/>
<defs>
<linearGradient id="paint0_linear" x1="2.36538" y1="22" x2="179.769" y2="22" gradientUnits="userSpaceOnUse">
<stop stop-color="#DBC266"/>
<stop offset="0.463542" stop-color="#AE8930"/>
<stop offset="0.827015" stop-color="#CFA43D"/>
<stop offset="0.906096" stop-color="#F5E38B"/>
</linearGradient>
</defs>
</svg>
